<?xml version="1.0" standalone="no"?>
<!DOCTYPE svg PUBLIC "-//W3C//DTD SVG 1.1//EN" "http://www.w3.org/Graphics/SVG/1.1/DTD/svg11.dtd">
<svg xmlns="http://www.w3.org/2000/svg">
<metadata>Copyright (C) 2017 by original authors @ fontello.com</metadata>
<defs>
<font id="osd" horiz-adv-x="1000" >
<font-face font-family="osd" font-weight="400" font-stretch="normal" units-per-em="1000" ascent="850" descent="-150" />
<missing-glyph horiz-adv-x="1000" />
<glyph glyph-name="icons_shipping" unicode="&#xe801;" d="M996 473l-137 127c0 0 0 0 0 0 0 0-4 5-4 5 0 0-5 0-5 0h-150v54c0 5 0 5-4 9l-137 128c0 0-4 4-4 4 0 0 0 0-5 0 0 0 0 0 0 0l-400 0c0 0 0 0 0 0-4 0-4 0-9-4l-136-128c-5-4-5-9-5-9l0-545c0-5 0-5 5-9 0-5 4-5 9-5 0 0 0 0 0 0h286v-182c0 0 0 0 0 0 0-4 0-4 0-9 0 0 0 0 0 0 0-5 5-5 9-5 0 0 0 0 0 0 0 0 0 0 0 0h673c4 0 14 5 14 14v546c4 0 4 4 0 9z m-955 195l109 105h186v-105h-295z m323 0v105h182l113-105h-295z m300-195v104h186l109-104h-295z m13 127h-227c0 0 0 0 0 0l0 0c-4 0-4 0-9-4l-136-128c-5 0-5-4-5-9v-336h-277v523h650v-46z m-36-23v-104h-300l114 104h186z m-191 23l0 0 0 0 0 0z m-127-500v23 327h650v-523h-650v173z" horiz-adv-x="1000" />

<glyph glyph-name="icons_cart" unicode="&#xe802;" d="M323 91c-55 0-100-45-100-100s45-100 100-100 100 45 100 100-41 100-100 100z m-55-100c0 32 28 55 55 55 32 0 54-28 54-55s-27-55-54-55c-32-4-55 23-55 55z m487 100c-55 0-100-45-100-100s45-100 100-100 100 45 100 100-46 100-100 100z m0-45c31 0 54-28 54-55s-27-55-54-55c-32 0-55 28-55 55s23 55 55 55z m218 627c0 0-5 0-5 0h-754l-14 63c-9 46-45 78-91 78h-77c-9 0-18-9-18-23 0-14 9-23 22-23h78 0c22 0 41-13 45-36l77-468c10-64 69-114 137-114h463c14 0 23 9 23 23 0 13-9 23-23 23h-468c-45 0-82 31-91 77l-4 18h509c59 0 114 41 132 100l68 250c9 14 4 27-9 32z m-187-337l0 0h-518l-50 291h718l-63-222c-9-41-46-69-87-69z" horiz-adv-x="1000" />

<glyph glyph-name="icons_catalogue" unicode="&#xe803;" d="M691 496h-268v40h268v-40z m91-141h-359v-37h354v37z m164 409v-682c0-82-64-146-146-146h-627c-68 0-123 55-123 123v200c0 68 55 123 123 123h82v382h691z m-650-37v-672c0-32-14-60-32-82h541c59 0 109 50 109 109v645h-618z m-123-381c-46 0-82-37-82-82v-205c0-45 36-82 82-82s82 37 82 82v287h-82z m518-155h-268v-36h268v36z" horiz-adv-x="1000" />

<glyph glyph-name="icons_contacts" unicode="&#xe804;" d="M927 850h-763c-14 0-28-9-28-27v-82h-63c-14 0-27-9-27-27 0-14 9-28 27-28h63v-131h-63c-14 4-23-9-23-23 0-14 9-27 27-27h59v-132h-63c-14 0-27-9-27-27 0-14 9-28 27-28h63v-132h-63c-14 0-27-9-27-27 0-13 9-27 27-27h63v-132h-63c-14 0-27-9-27-27 0-14 9-28 27-28h63v-81c0-5 14-14 28-14h763c14 0 28 9 28 27v946c-5 18-14 27-28 27z m-27-950h-709v59h64c13 0 27 9 27 27 0 14-9 28-27 28h-64v132h64c13 0 27 9 27 27 0 13-9 27-27 27h-64v132h64c13 0 27 9 27 27s-9 27-27 27h-64v123h64c13 0 27 9 27 27 0 14-9 28-27 28h-64v127h64c13 0 27 9 27 27 0 14-9 28-27 28h-64v54h714v-900z" horiz-adv-x="1000" />

<glyph glyph-name="icons_download" unicode="&#xe805;" d="M932 505v-537c0-54-46-100-100-100h-664c-54 0-100 46-100 100v537c0 54 46 100 100 100h200v-50h-200c-32 4-54-23-54-50v-537c0-27 27-54 54-54h664c32 0 54 22 54 54v537c0 27-27 54-54 54h-200v46h200c54 0 100-46 100-100z m-450-296c4-4 9-9 18-9 5 0 14 0 18 9l141 132-32 36-100-95v550h-50v-550l-100 95-31-31 136-137z" horiz-adv-x="1000" />

<glyph glyph-name="icons_drop" unicode="&#xe806;" d="M364 232l100 86h-273c-5 0-14 5-14 9 0 5 5 14 9 14 0 0 0 0 0 0l273 0-95 86c-5 0-5 5-5 9 0 5 5 14 9 14 5 0 5 0 9-4l128-110c0 0 0 0 0 0 0-4 4-4 4-9 0-4 0-4-4-9l-128-104c0 0-4-5-9-5-4 0-4 0-9 5 0 4 0 13 5 18z m636-241c0-5 0-9 0-14l0-13h-536l0 13c0 5 0 9 0 14 0 23 4 41 9 59h-459c0 0 0 0 0 0-5 0-5 0-9 5 0 0-5 4-5 9l0 0 0 536c0 5 0 5 5 9l136 127c0 0 5 5 5 5 0 0 0 0 0 0h395c0 0 0 0 0 0l0 0c0 0 0 0 0 0 0 0 5 0 5-5l136-131c0 0 4-5 4-9v-78c10 5 23 5 32 5 68 0 123-64 123-141 0-77-55-141-123-141-68 0-122 64-122 141 0 54 27 100 68 123v81h-641v-513h459c41 73 136 127 250 127 73 0 141-23 191-59 50-41 77-95 77-150z m-518-5h491c0 0 0 0 0 0 0 105-109 187-246 187-131 4-245-82-245-187 0 5 0 5 0 0z m-150 623v105h-182l-109-105h291z m314 0l-110 105h-181v-105h291z m72-341c55 0 96 50 96 114s-46 114-96 114-95-50-95-114 41-114 95-114z" horiz-adv-x="1000" />

<glyph glyph-name="icons_exit" unicode="&#xe807;" d="M950 368c9-9 9-22 0-32l-182-181c-4-5-9-5-18-5-4 0-14 0-18 5-9 9-9 22 0 31l141 141h-355c-13 0-22 9-22 23 0 14 9 23 22 23h355l-141 141c-9 9-9 22 0 32 9 9 23 9 32 0l186-178z m-518-404c-214 0-386 172-386 386s172 386 386 386c68 0 132-18 191-50 9-4 13-18 9-31-5-9-18-14-32-9-50 27-109 45-168 45-186 0-341-155-341-341s155-341 341-341c59 0 118 14 168 46 9 4 23 4 32-9 4-10 4-23-9-32-59-32-123-50-191-50z" horiz-adv-x="1000" />

<glyph glyph-name="icons_fb" unicode="&#xe808;" d="M500 850c-277 0-500-223-500-500 0-277 223-500 500-500 277 0 500 223 500 500 0 277-223 500-500 500z m127-345h-63c-18 0-28-14-28-32v-27h91l-18-96h-77v-250h-96v250h-63v96h63v45h0c0 55 23 105 114 109v0h77v-95z" horiz-adv-x="1000" />

<glyph glyph-name="icons_g+" unicode="&#xe809;" d="M500 850c-277 0-500-223-500-500 0-277 223-500 500-500s500 223 500 500c0 277-223 500-500 500z m36-659c-50-64-145-86-222-59-82 27-141 109-141 195-5 105 91 205 195 205 55 4 109-18 150-50-18-18-32-36-50-55-41 23-82 41-122 28-69-19-110-100-87-169 23-68 105-109 173-77 36 14 59 46 68 77-41 0-77 0-118 0 0 23 0 46 0 69 64 0 132 0 195 0 5-55-4-119-41-164z m287 109c-18 0-41 0-59 0 0-18 0-41 0-59-18 0-41 0-59 0 0 18 0 41 0 59-19 0-41 0-59 0v59c18 0 40 0 59 0 0 18 0 41 0 59h59c0-18 0-41 0-59 18 0 41 0 59 0v-59z" horiz-adv-x="1000" />

<glyph glyph-name="icons_home" unicode="&#xe80a;" d="M859 455l-309 295c-27 27-73 27-100 0l-309-295c-14-14-27-37-27-64v-409c0-28 22-55 54-55h214c14 0 23 9 23 23v273h191v-273c0-14 9-23 22-23h214c27 0 54 23 54 55v409c0 27-9 45-27 64z m-241-191h-236c-14 0-23-9-23-23v-273h-191c-4 0-9 5-9 9v409c0 10 5 23 14 32l309 296c9 9 27 9 41 0l309-296c9-9 14-18 14-32v-409c0-4-5-9-10-9h-200v273c0 14-9 23-18 23z" horiz-adv-x="1000" />

<glyph glyph-name="icons_idea" unicode="&#xe80b;" d="M632-73c0-9-9-18-18-18h-223c-9 0-18 9-18 18s9 18 18 18h223c9 0 18-9 18-18z m-77-45h-100c-9 0-19-9-19-18s10-14 19-14h100c9 0 18 9 18 18s-9 14-18 14z m141 700c104-96 122-255 36-373-36-50-59-109-59-173 0-13-5-27-18-41-9-9-23-18-41-18h-223c-14 0-27 5-41 18-9 10-18 23-18 41 0 64-23 123-59 173-82 114-68 273 36 373 55 50 123 73 191 73s141-23 196-73z m-250-264c0 9-10 18-19 18s-18-9-18-18 9-18 18-18h19v18z m86-50h-55v-250h55 0v250z m136 287c-45 41-104 63-163 63s-119-22-164-63c-95-87-105-228-27-328 41-54 63-122 63-191 0-4 0-9 5-13 4-5 9-5 14-5h54v250h-18c-27 0-46 23-46 46 0 27 23 45 46 45 27 0 45-23 45-45v-18h55v18c0 27 23 45 45 45 28 0 46-23 46-45 0-28-23-46-46-46h-18v-250h59c5 0 9 0 14 5 4 4 4 9 4 13 0 69 23 132 64 191 73 100 59 241-32 328z m-91-255c9 0 19 9 19 18s-10 18-19 18c-9 0-18-9-18-18v-18h18z m269 427c-10 9-23 9-28 0l-63-63c-5-5-5-9-5-14 0-4 0-9 5-14 4-4 9-4 13-4 5 0 9 0 14 4l64 64c4 5 4 9 4 14s0 9-4 13z m-600-95c9 9 9 23 0 27l-64 68c-9 9-23 9-27 0-5-4-9-9-9-13 0-5 0-9 4-14l64-64c9-4 13-9 18-9 4 0 9 5 14 5z m259 86c13 0 18 9 18 18v91c0 14-9 19-18 19-5 0-9 0-14-5-5-5-5-9-5-14v-91c0-9 10-18 19-18z" horiz-adv-x="1000" />

<glyph glyph-name="icons_law" unicode="&#xe80c;" d="M877 641c0 0 0 0 0 0l-204 209c0 0-5 0-5 5 0 0-4 0-4 0h-528c-9-5-13-9-13-19v-972c0-10 4-14 13-14h728c9 0 13 4 13 14v768c0 4 0 4 0 9z m-200 5v159l155-155h-155z m-13-28h191v-745h-705v950h500v-191c0-5 5-14 14-14z m-382-145c0-50 41-96 95-96 37 0 69-31 69-68 0-36-32-68-69-68h-41c-9 0-13-5-13-14s9-13 13-13h41c50 0 96 41 96 95 0 32-18 64-46 82 28 18 46 45 46 82 0 50-41 95-96 95-36 0-68 32-68 68 0 37 32 69 68 69h41c9 0 14 4 14 13 0 9-5 14-14 14h-41c-50 0-95-41-95-96 0-31 18-63 45-81-27-19-45-50-45-82z m27 0c0 36 32 68 68 68s69-32 69-68c0-37-32-68-69-68s-68 31-68 68z m273-68h123c9 0 13-5 13-14 0-9-4-14-13-14h-123c-9 0-14 5-14 14 0 9 5 14 14 14z m136-137c0-9-4-13-13-13h-123c-9 0-14 4-14 13s5 14 14 14h123c4 0 13-5 13-14z m0-122c0-10-4-14-13-14h-123c-9 0-14 4-14 14s5 13 14 13h123c4 0 13-4 13-13z m0-119c0-9-4-13-13-13h-409c-10 0-14 4-14 13 0 9 4 14 14 14h404c9 0 18-9 18-14z" horiz-adv-x="1000" />

<glyph glyph-name="icons_menu" unicode="&#xe80d;" d="M59 377h532c18 0 36-18 36-36s-18-36-41-36h-527c-18 0-36 18-36 36s18 36 36 36z m-36 337c0-18 18-37 36-37h882c18 0 36 14 36 37s-18 36-36 36h-882c-18-4-36-18-36-36z m0-728c0-18 18-36 36-36h882c18 0 36 18 36 36 0 19-18 37-36 37h-882c-18 0-36-14-36-37z" horiz-adv-x="1000" />

<glyph glyph-name="icons_orders" unicode="&#xe80e;" d="M891 455v136c0 41-32 77-68 77h-646c-36 0-68-32-68-77v-18c-36-14-50-50-45-82l45-395c0-37 27-64 64-64h659c36 0 64 27 68 64l41 272c0 41-23 73-50 87z m-755 141c0 22 19 45 41 45h641c23 0 41-18 41-45v-137h-382c-9 0-22 5-27 14l-77 82c-14 13-32 22-50 22h-187v19z m737-496c-5-23-23-36-41-36h-659c-23 0-41 18-41 41l-46 395c-4 23 19 46 41 46h191c9 0 23-5 28-14l81-86c14-14 32-23 50-23h387c18 0 50-18 45-50l-36-273z" horiz-adv-x="1000" />

<glyph glyph-name="icons_password" unicode="&#xe80f;" d="M718 182c-77 0-145-23-200-64l0 287c0 9-4 18-9 27-9 9-18 14-27 14h-18v113c0 114-91 205-205 205s-204-91-204-205v-113h-19c-18 0-36-19-36-37v-382c0-18 18-36 36-36h400c0-9-4-18-4-27 0-5 0-10 0-14l0-14h568l0 14c0 4 0 9 0 14 0 118-127 218-282 218z m-277 264h-359v113c0 100 82 177 182 177 100 0 177-81 177-177v-113z m50-350c-23-23-41-50-50-78h-405c-4 0-9 5-9 9v382c0 5 5 9 9 9h446c4 0 9-4 9-9v-313z m227 63c141 0 259-86 259-195 0 0 0 0 0 0h-518c0 0 0 0 0 0 0 109 114 195 259 195z m-13 73c68 0 127 64 127 145 0 82-55 146-127 146s-128-64-128-146 55-145 128-145z m-105 145c0 69 46 123 105 123s104-54 104-123-45-122-104-122-105 54-105 122z m-341-122c-32 0-59-28-59-59 0-28 18-50 46-55v-68c0-9 4-14 13-14s14 9 14 14v68c27 5 45 27 45 55 0 13-4 31-13 40-14 14-28 19-46 19z m32-55c0-18-14-32-32-32-18 0-32 14-32 32 0 18 14 32 32 32 18-5 32-18 32-32z" horiz-adv-x="1000" />

<glyph glyph-name="icons_recall" unicode="&#xe810;" d="M836 141c-4 5-13 9-18 14-41 31-72 59-109 59 0 0 0 0 0 0-36 0-59-28-73-46-4-4-9-9-13-13l-23-23c-18 9-54 32-64 41-31 18-54 41-77 59-23 23-45 45-63 73-10 9-28 41-37 59 14 13 32 36 41 50 27 41 55 77 18 136-13 18-27 32-41 46l-9 9c-18 18-41 41-63 59l-5 0c-18 13-41 32-68 36-9 0-23 5-32-4-73-28-114-123-123-187-31-204 132-377 273-486 146-114 268-173 368-173 64 0 118 23 164 73 32 31 45 63 45 95-4 59-54 96-91 123z m10-182c-91-100-246-64-464 105-127 100-277 259-250 441 9 59 45 127 91 145 0 0 0 0 0 0 0 0 0 0 0 0 0 0 0 0 0 0 13 0 32-18 45-27l5-5c23-13 41-36 63-54l10-9c9-9 18-19 27-32 18-27 9-41-14-77-9-10-32-41-50-60-9-13-18-22 46-113 18-27 41-55 68-77 23-23 54-46 82-64 95-68 109-55 118-46l32 32c4 5 9 9 13 14 14 14 23 27 37 27 18 0 54-32 72-45 9-5 14-14 23-18 32-23 68-50 68-87 9-9-4-27-22-50z m-355 709c-9 9-9 23 0 32l150 146 0 0c9 9 23 9 32 0l0 0c9-10 9-23 0-32l-105-100h205c77 0 141-64 141-141v-268c0-14-9-23-23-23-14 0-23 9-23 23v263c0 50-41 96-95 96h-205l109-105c0 0 0 0 0 0 5-13 5-27-4-36-9-9-23-9-32 0l-150 145c0 0 0 0 0 0z" horiz-adv-x="1000" />

<glyph glyph-name="icons_sale" unicode="&#xe811;" d="M514 791l-455-455 427-427 460 459v423h-432z m382-409l-414-414-364 364 414 414h364v-364z m-164 91c0 0 0 0 0 0 32 0 59 13 82 32 22 22 32 50 32 81 0 32-14 60-32 82-46 46-118 46-159 0-23-22-32-50-32-82s13-59 32-81 45-32 77-32z m-50 163c14 14 32 19 50 19 18 0 36-5 50-19 14-13 18-31 18-50s-9-36-18-50c-14-13-32-18-50-18 0 0 0 0 0 0-18 0-36 9-50 18s-18 32-18 50c0 19 4 37 18 50z" horiz-adv-x="1000" />

<glyph glyph-name="icons_camera" unicode="&#xe812;" d="M900 623h-177l-32 82c-5 4-9 9-18 9h-346c-9 0-13-5-18-9l-32-82h-177c-32 0-54-23-54-55v-527c0-32 22-55 54-55h800c32 0 50 23 50 55v527c5 32-18 55-50 55z m0-600h-800c-9 0-18 9-18 18v527c0 9 9 18 18 18h191c9 0 14 5 14 10l31 81h323l32-81c5-10 9-10 14-10h191c9 0 18-9 18-18v-527h4c0-9-9-18-18-18z m-400 482c-104 0-191-87-191-191s87-191 191-191 191 86 191 191-86 191-191 191z m0-346c-86 0-154 68-154 155s68 154 154 154 155-68 155-154-69-155-155-155z" horiz-adv-x="1000" />

<glyph glyph-name="icons_pdf" unicode="&#xe813;" d="M841 573l-236 209c-9 9-28 14-41 14h-373c-32 0-59-23-59-55v-782c0-27 27-55 59-55h618c32 0 59 23 59 55v559c0 18-9 37-27 55z m-668 168c0 9 9 14 18 14h377c5 0 9 0 14-5l236-209c9-9 14-18 14-27v-555c0-9-9-14-18-14h-623c-9 0-18 9-18 14v782z m118-682c36 0 77 46 127 146 55 22 118 45 173 59 41-41 77-59 109-59 18 0 46 9 59 54 5 23 0 37-4 41-19 27-69 32-150 14-37 36-69 86-96 132 27 95 27 154 9 181-9 14-27 19-50 14-18-9-32-23-41-36-18-46 9-114 32-164-18-68-45-141-77-205-86-40-136-81-141-118-5-18 5-32 18-45 9-9 18-14 32-14z m55 105c-32-50-50-59-55-59l0 0c-5 4-5 4-5 4 0 9 19 32 60 55z m122 422c0 5 5 10 14 10 4-10 4-32-5-87-9 37-13 59-9 77z m-22-322c18 41 31 82 45 122 18-31 41-59 64-86-37-9-73-23-109-36z m268 9c0 0 0 0 0 0 0 0 0-5 0 0-5-27-14-27-18-27-14 0-32 9-55 27 14 0 27 4 41 4 27 0 32-4 32-4z" horiz-adv-x="1000" />

<glyph glyph-name="icons_settings" unicode="&#xe814;" d="M941 396c-5 22-27 50-59 50l-50 13c-5 18-14 32-23 50l23 41c9 9 14 23 14 36 0 19-5 32-14 41l-59 59c-9 10-23 14-37 14s-27-4-36-14l-41-27c-4 0-4 5-9 5-14 4-23 13-41 18l-13 50c0 32-28 54-55 54h-86c-28 0-50-27-50-54l-14-46c-5 0-9-4-14-4-13-5-22-9-36-18l-41 27c-27 18-59 18-82 0l-59-59c-9-9-13-23-13-41 0-14 4-27 13-36l27-41c-4-5-9-14-9-18-4-10-9-23-13-37l-46-13c-32 0-54-28-54-55v-86c0-28 27-50 54-50 0 0 0 0 0 0l50-14c5-18 14-32 23-50l-23-41c-9-9-13-23-13-36 0-18 4-32 13-41l59-59c9-9 23-14 37-14s27 5 36 14l41 27c5 0 5-5 9-5 14-4 23-13 41-18l14-50c0-32 27-54 54-54h87c31 0 54 27 54 54l14 50c18 5 32 14 50 23l41-23c9-9 22-13 36-13 0 0 0 0 0 0 14 0 27 4 36 13l59 59c10 9 14 23 14 41 0 14-4 28-14 37l-27 41c0 4 5 4 5 9 4 13 13 22 18 41l50 13c32 0 54 27 54 55l5 82z m-145-137c-5-23-14-41-28-63l-4-14 45-68 5-5c4-4 4-4 4-9 0-4 0-4-4-9l-59-59c-5-5-14-5-14 0l-77 45-18 0c-19-9-41-18-64-27l-14-4-18-78v-4c0-10-4-14-14-14h-81c-9 0-14 4-14 14l-18 82-14 4 0 0c-23 5-41 14-63 27l-14 5-68-36v-5c0 0-5 0-5 0-4 0-4 0-9 0l-59 59c0 0-5 5-5 5 0 0 0 0 0 0 0 4 0 4 5 9l41 72-5 19c-9 18-18 41-27 63l-4 14-78 18c-9 0-13 5-13 14v82c0 9 4 13 13 13l87 18v14c4 9 9 23 13 32 5 9 9 18 14 27l4 14-36 68h-4c0 0 0 4 0 9 0 5 0 9 4 9l59 59c5 5 14 5 14 0l73-41 9 5c18 9 41 18 63 27l14 5 18 77c0 9 5 14 14 14h82c9 0 13-5 13-14l18-86 14 0c23-5 41-14 64-28l13-4 68 41v0c0 0 5 0 5 0 5 0 5 0 9 0l59-59c0 0 5-5 5-5 0 0 0 0 0 0 0-5 0-5-5-9l-41-73 5-13c9-19 18-41 27-64l5-14 77-18h4c10 0 14-4 14-14v-77h-4v-4c0-9-5-14-14-14l-86-18 0-14z m-296 255c-91 0-164-73-164-164s73-164 164-164 164 78 164 164-73 164-164 164z m0-287c-64 0-123 59-123 123s59 123 123 123 123-59 123-123-59-123-123-123z" horiz-adv-x="1000" />
</font>
</defs>
</svg>
