<svg xmlns="http://www.w3.org/2000/svg" viewBox="0 0 403.42 136.67"><defs><style>.cls-1{fill:#fff;}.cls-2{fill:#d0e4f0;}</style></defs><title>404</title><g id="Слой_2" data-name="Слой 2"><g id="Layer_1" data-name="Layer 1"><rect class="cls-1" x="134.49" y="78.1" width="100.19" height="54.47"/><rect class="cls-1" x="135.92" y="61.7" width="124.51" height="61.28"/><path class="cls-2" d="M282.83,102.32,262,61.73v-.1a1.27,1.27,0,0,0-.23-.29l-.19-.1a1.47,1.47,0,0,0-.31-.15H161.29a1.56,1.56,0,0,0-.65.15h0l-25.81,13-.12.08-.17.1h0a1.22,1.22,0,0,0-.15.2v.12h0l-17.71,34.91a1.21,1.21,0,0,0,.68,1.69,1.62,1.62,0,0,0,1.24,0l15.5-5.62V135.4a1.36,1.36,0,0,0,1.44,1.27h99.39a1.56,1.56,0,0,0,.65-.15h0l25.71-13.09.13-.1.21-.17a1.65,1.65,0,0,0,.27-.42,1.09,1.09,0,0,0,0-.25,1,1,0,0,0,0-.15v-6.46L282.31,104A1.19,1.19,0,0,0,282.83,102.32ZM234.52,74H162.73V63.5h92.54Zm-74.7,0H140.94l18.9-9.59Zm-39.06,33.73L134.11,81.3V103Zm112.7,26.36H137V76.58h96.49Zm25.73-12.52L236.29,133.2V82l16.48,37.38a1.38,1.38,0,0,0,.9.74,1.62,1.62,0,0,0,.44,0,1.58,1.58,0,0,0,.81-.22l4.29-2.39Zm-4.31-4.54L236.71,75.85,260,64l19.69,38.42Z"/><path class="cls-2" d="M0,102.11V0H42V69.11H61.14V34.56h42.18V69.11h14.73v33H103.32v34.56H61.14V102.11Z"/><path class="cls-2" d="M285.37,102.11V0h42V69.11h19.17V34.56h42.18V69.11h14.73v33H388.69v34.56H346.51V102.11Z"/><path class="cls-2" d="M140.94,75.82H182v-26C182,40.61,188.28,33,198.17,33c9.69,0,16.14,7.61,16.14,16.79v26h20.2l20.75-12,1-.12V49.79C256.29,22.84,233.49,0,198.17,0c-36.32,0-58.12,22.84-58.12,49.79V76.07Z"/></g></g></svg>