<svg xmlns="http://www.w3.org/2000/svg" xmlns:xlink="http://www.w3.org/1999/xlink" viewBox="0 0 2458.24 1089.63"><defs><style>.cls-1{fill:none;}.cls-2{isolation:isolate;}.cls-3{opacity:0.7;}.cls-4{clip-path:url(#clip-path);}.cls-5{fill:#7ec5c6;}.cls-11,.cls-13,.cls-14,.cls-15,.cls-16,.cls-17,.cls-18,.cls-19,.cls-20,.cls-21,.cls-22,.cls-23,.cls-24,.cls-25,.cls-26,.cls-28,.cls-32,.cls-33,.cls-34,.cls-35,.cls-5,.cls-6,.cls-7,.cls-8{mix-blend-mode:multiply;}.cls-6{fill:#fff;}.cls-30,.cls-7{fill:#cbdeee;}.cls-12,.cls-8{fill:#cbe4f5;}.cls-9{fill:#6a95c4;}.cls-10,.cls-12,.cls-27,.cls-29,.cls-30,.cls-31,.cls-36,.cls-9{mix-blend-mode:color-burn;}.cls-10{fill:#89aed2;}.cls-11{fill:#d3e5f0;}.cls-13,.cls-36{fill:#7caacd;}.cls-14{fill:#f1fffa;}.cls-15{fill:#76b4d8;}.cls-16{fill:#b9ecf7;}.cls-17{fill:#5da5d6;}.cls-18{fill:#7ac0e5;}.cls-19{fill:#c0faff;}.cls-20{fill:#78a7d1;}.cls-21{fill:#eafeff;}.cls-22{fill:#83bfe1;}.cls-23{fill:#cbfaff;}.cls-24{fill:#75a5ca;}.cls-25{fill:#97bfd8;}.cls-26{fill:#e5faf7;}.cls-27{fill:#83afd6;}.cls-28{fill:#a7cae5;}.cls-29{fill:#fcffff;}.cls-31{fill:#75cadf;}.cls-31,.cls-36{opacity:0.6;}.cls-32{fill:#b8fffe;}.cls-33{fill:#6fa0c2;}.cls-34{fill:#8fb9d1;}.cls-35{fill:#dcf2ee;}.cls-37{opacity:0.84;fill:url(#linear-gradient);}</style><clipPath id="clip-path"><rect class="cls-1" x="68.3" y="397.63" width="2000" height="165"/></clipPath><linearGradient id="linear-gradient" x1="1609.55" y1="1021.38" x2="527.05" y2="-61.12" gradientUnits="userSpaceOnUse"><stop offset="0" stop-color="#3a589a"/><stop offset="1" stop-color="#30a4d7"/></linearGradient></defs><title>bg-header_2</title><g class="cls-2"><g id="Слой_2" data-name="Слой 2"><g id="Layer_3" data-name="Layer 3"><g id="header-wide"><g class="cls-3"><g class="cls-4"><rect class="cls-1" x="647.26" y="244.78" width="903.98" height="844.85"/><path class="cls-5" d="M2458.24,98.26c-3.09,2.57-6,5.16-9.18,7.73-84,68.14-193.51,134.85-333.54,196.22C1972.43,365,1796.09,422.46,1586.84,468c408.15-66.18,697.72-191.5,871.41-324.19Z"/><path class="cls-6" d="M874.93,514.15c-270.19-6.07-554.83-38.77-817.5-95.58Q28.53,412.32,0,405.67V542.79C287.45,570.11,576,576,839.53,563c277.12-13.64,531.62-48.13,747.31-95C1375.85,502.12,1129.18,519.83,874.93,514.15Z"/><path class="cls-7" d="M874.93,514.15c-270.19-6.07-554.83-38.77-817.5-95.58Q28.53,412.32,0,405.67v280c246.72,25.79,496.82,34.67,730.61,27.35,298.48-9.41,576.73-44.61,811.28-95.12,14.93-50.18,30-100.17,44.94-150C1375.85,502.12,1129.18,519.83,874.93,514.15Z"/><path class="cls-6" d="M394.53,785.42c102.59-4.95,202.61-11.94,298.86-21.05,321.85-30.51,608.47-82.82,848.51-146.42-234.55,50.51-512.8,85.71-811.28,95.12C496.82,720.39,246.72,711.51,0,685.72v99.7Z"/><path class="cls-8" d="M2458.24,54.31c-6.49,4.67-12.94,9.34-19.74,14-166,112.42-468.37,201-807.47,258.07-192.59,32.27-416.42,44.62-652.41,44.89-250.44.31-518.91-20.52-777.52-62.31Q99.43,292.45,0,271.82V405.67q28.55,6.61,57.43,12.89c262.66,56.82,547.31,89.52,817.5,95.58,254.26,5.68,500.92-12,711.91-46.19,209.25-45.5,385.59-103,528.68-165.74,140-61.38,249.58-128.09,333.54-196.22,3.17-2.57,6.09-5.17,9.18-7.73Z"/><path class="cls-9" d="M978.62,371.24c-250.44.31-518.91-20.52-777.52-62.31Q99.43,292.45,0,271.82v271C287.45,570.11,576,576,839.53,563c277.12-13.64,531.62-48.13,747.31-95,14.83-49.65,29.39-92.34,44.2-141.62C1429.68,359.24,1214.62,371,978.62,371.24Z"/><path class="cls-10" d="M2458.24,54.31c-6.49,4.67-12.94,9.34-19.74,14-166,112.42-439.09,194.38-807.47,258.07-14.81,49.28-29.37,92-44.2,141.62,408.15-66.18,697.72-191.5,871.41-324.19Z"/><path class="cls-11" d="M2458.24,143.78C2284.55,276.46,1995,401.79,1586.84,468c-215.69,46.87-470.19,81.36-747.31,95C576,576,287.45,570.11,0,542.79V685.72c246.72,25.79,496.82,34.67,730.61,27.35,298.48-9.41,576.73-44.61,811.28-95.12,231.5-61.37,422.54-133.57,576.42-209.66,142.68-70.57,254.08-144.78,339.93-219.36Z"/><path class="cls-12" d="M2458.24,0c-9.17,6.29-18.57,12.53-28.36,18.74C2270.71,134.49,2009.4,242.9,1646,303c-189.26,31.35-409.3,49.58-640.67,49.43-245.61-.23-508.54-21.21-761.7-62.66,230.67,58.26,483.05,96,728.25,109.32,229,12.34,456.17,3.23,652.58-22.56,380.08-49.92,659.59-161,827-281.75,2.35-1.91,4.5-3.84,6.81-5.75Z"/><path class="cls-13" d="M2458.24,143.87c-85.47,72.68-197.36,144.48-341.31,211.64-148.39,69.33-332.19,134-552.52,187.25-7.46,25-15.07,50.08-22.51,75.19,231.48-61.37,422.69-133.55,576.42-209.66C2260.84,337.7,2372.43,263.53,2458.24,189Z"/><path class="cls-14" d="M2458.24,189c-85.81,74.58-197.41,148.74-339.93,219.34C1964.58,484.4,1773.37,556.58,1541.89,618c436.2-93.94,732.88-238,916.35-386Z"/><path class="cls-15" d="M803.62,612.38C542.94,613.62,265,592.47,0,549.33V685.76c246.7,25.81,496.8,34.68,730.57,27.32,298.53-9.28,576.6-44.69,811.32-95.12,7.44-25.11,15.06-50.17,22.51-75.19C1341.81,584.82,1079.52,610.94,803.62,612.38Z"/><path class="cls-16" d="M395.63,785.42c102.17-5,201.82-12,297.7-21,321.92-30.46,608.51-82.81,848.57-146.42-234.72,50.44-512.79,85.84-811.32,95.12C496.8,720.44,246.7,711.57,0,685.76v99.66Z"/><path class="cls-17" d="M1142.39,785.42c135.54-27.74,261.48-58.69,376.84-91.86q11.28-37.86,22.66-75.61c-240.05,63.61-526.64,116-848.57,146.42-95.88,9.09-195.53,16.07-297.7,21Z"/><path class="cls-18" d="M2458.24,232c-183.47,148-480.15,292.06-916.35,386q-11.3,37.73-22.66,75.61c240.78-58,440.41-129.88,601.15-207.06,139.94-67.14,250.73-138.49,337.87-210.81Z"/><path class="cls-19" d="M2458.24,275.69C2371.11,348,2260.31,419.36,2120.38,486.5,1959.65,563.68,1760,635.57,1519.23,693.56c-115.35,33.17-241.3,64.13-376.84,91.86h292.33c20.84-5.2,41.51-10.47,61.74-15.85,254.13-78.92,460.19-167,624.59-257.25,140.43-77,250.91-155.85,337.2-234.18Z"/><path class="cls-20" d="M2458.24,189c-85.81,74.58-197.41,148.74-339.93,219.34C1964.58,484.4,1773.37,556.58,1541.89,618q-11.3,37.73-22.66,75.61c242.66-70,441.21-149.94,600.46-233,141.55-73.83,252.44-150.39,338.56-226.86Z"/><path class="cls-21" d="M2458.24,233.7c-86.11,76.47-197,153-338.56,226.86-159.24,83.05-357.79,163-600.46,233,240.78-58,440.41-129.88,601.15-207.06,139.94-67.14,250.73-138.49,337.87-210.81Z"/><path class="cls-22" d="M1003.1,785.42c187.46-22.9,361.13-54.55,516.14-91.86q11.28-37.86,22.66-75.61c-234.72,50.44-512.79,85.84-811.32,95.12C496.8,720.44,246.7,711.57,0,685.76v99.66Z"/><path class="cls-23" d="M1142.39,785.42c135.54-27.74,261.48-58.69,376.84-91.86-155,37.31-328.68,69-516.14,91.86Z"/><path class="cls-24" d="M839.48,563C575.92,576,287.5,570,0,542.77V670.31c266.38,12.88,527.71,9.43,767.32-7.89,299-21.68,569.41-64.68,797.09-119.65q11.3-37.47,22.43-74.8C1371.15,514.83,1116.63,549.33,839.48,563Z"/><path class="cls-25" d="M2458.24,143.78c-174,132.63-463.26,258-871.41,324.19q-11.2,37.33-22.43,74.8C1986.9,462.91,2279.55,328.26,2458.24,188Z"/><path class="cls-26" d="M2458.24,188c-178.69,140.27-471.35,274.92-893.84,354.77-227.68,55-498.07,98-797.09,119.65C527.71,679.73,266.38,683.19,0,670.31v15.45c246.7,25.81,496.8,34.68,730.57,27.32,298.53-9.28,576.6-44.69,811.32-95.12,231.48-61.37,422.69-133.55,576.42-209.66C2260.84,337.7,2372.43,263.53,2458.24,189Z"/><path class="cls-27" d="M395.63,785.42c102.17-5,201.82-12,297.7-21,321.92-30.46,608.51-82.81,848.57-146.42,7.44-25.11,15.06-50.17,22.51-75.19-227.68,55-498.07,98-797.09,119.65C527.71,679.73,266.38,683.19,0,670.31V785.42Z"/><path class="cls-28" d="M2458.24,188c-178.69,140.27-471.35,274.92-893.84,354.77-7.46,25-15.07,50.08-22.51,75.19,436.2-93.94,732.88-238,916.35-386Z"/><path class="cls-29" d="M2458.24,232c-183.47,148-480.15,292.06-916.35,386-240.05,63.61-526.64,116-848.57,146.42-95.88,9.09-195.53,16.07-297.7,21H1003.1c187.46-22.9,361.13-54.55,516.14-91.86,242.66-70,441.21-149.94,600.46-233,141.55-73.83,252.44-150.39,338.56-226.86Z"/><path class="cls-30" d="M2184.82,299.44c-134.41,58.7-300.95,111-497.22,149.09-199.74,38.78-435.72,62.89-683.79,64.53-261.91,1.72-543.46-22-807.93-70Q96.22,424.86,0,402.23v280.6c298.8,31.56,603.72,37.75,880.24,21.28,288.56-17.37,552.7-58.63,773.22-113.5C1870,537.09,2048.56,470.37,2192,398.69Q2188.51,349.45,2184.82,299.44Z"/><path class="cls-31" d="M2458.24,269a1382.14,1382.14,0,0,1-131.31,95.19C2203.19,443.66,2045.79,520.34,1849,587.93,1647.62,657,1402.69,716.78,1121,756.45c-4.81,9.62-9.68,19.33-14.51,29h528.06q105-34.6,198.22-71.53c211.19-83.54,377.76-174.17,507.48-266a1488.64,1488.64,0,0,0,118-92.38Z"/><path class="cls-32" d="M1647.86,785.42c152.15-57.67,284.6-117.91,398.95-178.95-131.17,63.36-285.43,124.13-463.92,178.95Z"/><path class="cls-33" d="M2458.24,138.91C2455.17,128,2452,117,2449.05,106c-84.12,68.12-193.6,134.82-333.53,196.23-143.2,62.72-319.43,120.24-528.68,165.74q-11.2,37.33-22.43,74.79c220.23-53.28,404-117.93,552.52-187.24,143.88-67.18,255.84-139,341.31-211.64Z"/><path class="cls-34" d="M2458.24,99.1c-3.09,2.3-6,4.6-9.19,6.89,3,11.06,6.12,22,9.19,32.92Z"/><path class="cls-35" d="M2458.24,143.87c-85.47,72.68-197.43,144.46-341.31,211.64-148.55,69.31-332.29,134-552.52,187.24,422.25-80,715.13-214.5,893.84-354.76Z"/><path class="cls-36" d="M2458.24,143.87c-85.47,72.68-197.43,144.46-341.31,211.64-148.55,69.31-332.29,134-552.52,187.24-7.58,25-15.15,50.08-22.51,75.2,231.5-61.37,422.69-133.55,576.42-209.66,142.77-70.55,254.13-144.75,339.93-219.34Z"/><path class="cls-14" d="M2458.24,189c-85.8,74.59-197.16,148.79-339.93,219.34C1964.58,484.4,1773.4,556.58,1541.89,618c436.18-93.94,732.87-238,916.35-386Z"/></g></g><rect class="cls-37" x="68.3" y="397.63" width="2000" height="165"/></g></g></g></g></svg>
