<svg xmlns="http://www.w3.org/2000/svg" viewBox="0 0 45.02 40.25"><defs><style>.cls-1{fill:#7ab3d3;stroke:#7ab3d3;stroke-miterlimit:10;stroke-width:0.25px;}</style></defs><title>boxes</title><g id="Слой_2" data-name="Слой 2"><g id="Layer_1" data-name="Layer 1"><path class="cls-1" d="M20.21,8.91A.41.41,0,0,0,20,9l-6.16,5.75a.41.41,0,0,0-.13.3V39.71a.41.41,0,0,0,.82,0h0V15.48H44.07V39.3h-30a.41.41,0,1,0,0,.82h30.4a.41.41,0,0,0,.41-.41V15.07a.41.41,0,0,0-.13-.3L38.6,9a.41.41,0,1,0-.56.59l5.4,5H29.7V9.73h8.62a.41.41,0,0,0,0-.82H20.21Zm.19.82h8.47v4.93H15.13Z"/><path class="cls-1" d="M14.5,31.34v-.82H1V6.7H30.52V9.31h.82v-3a.41.41,0,0,0-.13-.3L25.09.27a.4.4,0,0,0-.17-.12l-.07,0H6.66a.41.41,0,0,0-.24.12L.26,6a.41.41,0,0,0-.13.3V30.92a.41.41,0,0,0,.12.29.41.41,0,0,0,.29.13h14ZM16.15.95h8.47l5.28,4.93H16.15ZM6.86.95h8.47V5.87H1.58Z"/></g></g></svg>