<svg xmlns="http://www.w3.org/2000/svg" viewBox="0 0 19.09 21.25"><defs><style>.cls-1{fill:#fff;stroke:#fff;stroke-miterlimit:10;stroke-width:0.25px;}</style></defs><title>download</title><g id="Слой_2" data-name="Слой 2"><g id="Layer_1" data-name="Layer 1"><path class="cls-1" d="M16.84,5.13H12.55v.8h4.29a1.33,1.33,0,0,1,1.32,1.28V19a1.3,1.3,0,0,1-1.32,1.28H2.25A1.33,1.33,0,0,1,.93,19V7.22A1.3,1.3,0,0,1,2.25,5.94H6.54v-.8H2.25A2.1,2.1,0,0,0,.13,7.22V19a2.1,2.1,0,0,0,2.12,2.08H16.84A2.1,2.1,0,0,0,19,19V7.22A2.13,2.13,0,0,0,16.84,5.13Z"/><path class="cls-1" d="M6.26,10.83l3,2.81a.39.39,0,0,0,.56,0l3-2.81-.56-.6-2.32,2.2V.13h-.8v12.3L6.82,10.26Z"/></g></g></svg>