<svg xmlns="http://www.w3.org/2000/svg" viewBox="0 0 52.29 40.25"><defs><style>.cls-1{fill:#7ab3d3;stroke:#7ab3d3;stroke-miterlimit:10;stroke-width:0.25px;}</style></defs><title>dropshipping</title><g id="Слой_2" data-name="Слой 2"><g id="Layer_1" data-name="Layer 1"><path class="cls-1" d="M19,27.12a.47.47,0,0,0,.67.05l6.56-5.62a.47.47,0,0,0,.06-.66l-.06-.06-6.56-5.62a.47.47,0,1,0-.61.72l5.59,4.8H9.88a.47.47,0,0,0,.09.94H24.61L19,26.45A.47.47,0,0,0,19,27.12Z"/><path class="cls-1" d="M25.48,35.72v-.94H1.07V7.62H34.79v4.52h.94v-5a.47.47,0,0,0-.15-.34l-7-6.52a.46.46,0,0,0-.2-.13l-.08,0H7.58A.47.47,0,0,0,7.3.26l-7,6.56a.47.47,0,0,0-.15.34V35.24a.47.47,0,0,0,.14.34.47.47,0,0,0,.33.15H25.48ZM18.4,1.06H28l6,5.62H18.4Zm-10.6,0h9.66V6.68H1.79Z"/><path class="cls-1" d="M24.24,39c0,.2,0,.4,0,.6l0,.56H52.08l0-.55c0-.2,0-.41,0-.61,0-6-6.26-10.85-14-10.85S24.24,33,24.24,39Zm14-9.9c7.18,0,13,4.44,13,9.9,0,.07,0,.15,0,.22h-26c0-.07,0-.14,0-.22C25.19,33.5,31,29.05,38.2,29.05Z"/><path class="cls-1" d="M43.69,18.29c0-3.93-2.77-7.13-6.18-7.13s-6.18,3.2-6.18,7.13,2.77,7.13,6.18,7.13S43.69,22.22,43.69,18.29Zm-11.42,0c0-3.41,2.35-6.18,5.23-6.18s5.23,2.77,5.23,6.18-2.35,6.18-5.23,6.18S32.28,21.7,32.28,18.29Z"/></g></g></svg>