<svg xmlns="http://www.w3.org/2000/svg" viewBox="0 0 166.65 155.91"><defs><style>.cls-1{fill:#fff;}.cls-1,.cls-2{stroke:#7ab3d3;stroke-miterlimit:10;stroke-width:2.5px;}.cls-2{fill:none;}.cls-3{fill:#7ab3d3;}</style></defs><title>icon-order</title><g id="Слой_2" data-name="Слой 2"><g id="Layer_1" data-name="Layer 1"><path class="cls-1" d="M28.52,116.59V4.2a3,3,0,0,1,3-3H140.91a3,3,0,0,1,3,3V116.59"/><path class="cls-1" d="M8.45,116.59V47.38a3,3,0,0,1,3-3H95.08a3,3,0,0,1,3,3v69.21"/><polygon class="cls-2" points="99.57 30.2 86.31 18.56 73.06 30.2 73.06 1.25 99.57 1.25 99.57 30.2"/><polygon class="cls-2" points="67.24 73.58 53.98 61.94 40.73 73.58 40.73 44.63 67.24 44.63 67.24 73.58"/><rect class="cls-2" x="1.25" y="116.59" width="150" height="19.85" rx="2" ry="2"/><path class="cls-2" d="M8.45,136.44H28.52a0,0,0,0,1,0,0v7.13a2,2,0,0,1-2,2H10.45a2,2,0,0,1-2-2v-7.13A0,0,0,0,1,8.45,136.44Z"/><path class="cls-2" d="M66.21,136.44H86.29a0,0,0,0,1,0,0v7.13a2,2,0,0,1-2,2H68.21a2,2,0,0,1-2-2v-7.13A0,0,0,0,1,66.21,136.44Z"/><path class="cls-2" d="M123.79,136.44h20.08a0,0,0,0,1,0,0v7.13a2,2,0,0,1-2,2H125.79a2,2,0,0,1-2-2v-7.13A0,0,0,0,1,123.79,136.44Z"/><circle class="cls-1" cx="138.16" cy="127.41" r="27.24"/><path class="cls-3" d="M150.74,117.1a1.45,1.45,0,0,0-1,.65L137,133.67,126.25,126a1.73,1.73,0,0,0-2,2.8l12.06,8.61a1.79,1.79,0,0,0,2.37-.32L152.4,119.9a1.69,1.69,0,0,0-.32-2.48A1.91,1.91,0,0,0,150.74,117.1Z"/></g></g></svg>