<svg xmlns="http://www.w3.org/2000/svg" viewBox="0 0 17 17"><defs><style>.cls-1{fill:#fff;}.cls-2{fill:#3a589a;}</style></defs><title>info</title><g id="Слой_2" data-name="Слой 2"><g id="Layer_1" data-name="Layer 1"><circle class="cls-1" cx="8.5" cy="8.5" r="8.5"/><circle class="cls-2" cx="8.5" cy="8.5" r="7"/><path class="cls-1" d="M7,7.47V7l.53-.18a6,6,0,0,1,.71-.15A6.37,6.37,0,0,1,9,6.59a5.85,5.85,0,0,1,.65-.06l.24.15L8.65,12.41h.94v.47c-.12.09-.26.15-.41.24s-.32.15-.5.21a3.42,3.42,0,0,1-.53.12,3.28,3.28,0,0,1-.5.06.92.92,0,0,1-.71-.21.62.62,0,0,1-.21-.41,3.2,3.2,0,0,1,0-.53,4.78,4.78,0,0,1,.12-.56l.91-4.15Zm1.12-3a.87.87,0,0,1,.29-.71,1.15,1.15,0,0,1,.76-.26,1.13,1.13,0,0,1,.79.26.87.87,0,0,1,.29.71.81.81,0,0,1-.29.68,1.18,1.18,0,0,1-.79.26,1.1,1.1,0,0,1-.76-.26A.85.85,0,0,1,8.12,4.47Z"/></g></g></svg>