<svg xmlns="http://www.w3.org/2000/svg" viewBox="0 0 16 16"><defs><style>.cls-1{fill:#3a589a;}.cls-2{fill:#fff;}</style></defs><title>info-two</title><g id="Слой_2" data-name="Слой 2"><g id="Layer_1" data-name="Layer 1"><circle class="cls-1" cx="8" cy="8" r="8"/><path class="cls-2" d="M6.5,7V6.53A5.38,5.38,0,0,1,7,6.35a5.57,5.57,0,0,1,.71-.14,6.17,6.17,0,0,1,.73-.12A5.81,5.81,0,0,1,9.12,6l.23.15-1.2,5.73h.94v.47c-.12.09-.27.15-.41.24l-.5.2a3.64,3.64,0,0,1-.53.12,3.37,3.37,0,0,1-.5.06.92.92,0,0,1-.71-.21.58.58,0,0,1-.2-.41,4.78,4.78,0,0,1,0-.53,5.2,5.2,0,0,1,.12-.56l.91-4.14ZM7.62,4a.91.91,0,0,1,.29-.71A1.19,1.19,0,0,1,8.68,3a1.16,1.16,0,0,1,.79.26A.87.87,0,0,1,9.76,4a.81.81,0,0,1-.29.68,1.21,1.21,0,0,1-.79.26,1.14,1.14,0,0,1-.77-.26A.87.87,0,0,1,7.62,4Z"/></g></g></svg>