<svg xmlns="http://www.w3.org/2000/svg" viewBox="0 0 63.2 60"><defs><style>.cls-1{fill:#fff;}</style></defs><title>new-svg2</title><g id="Слой_2" data-name="Слой 2"><g id="Layer_1" data-name="Layer 1"><path class="cls-1" d="M40.95,14a4.19,4.19,0,1,0,4.19-4.18A4.2,4.2,0,0,0,40.95,14Zm6.24,0A2.06,2.06,0,1,1,45.13,12,2.07,2.07,0,0,1,47.19,14Z"/><path class="cls-1" d="M34.17,2.13H47.31L57.88,12.68v7.53H60V11.8L48.19,0H33.3L6.38,26.83h0L0,33.2,26.73,60l8.2-7.86L9.4,26.83Zm-2.28,50L26.77,57,3,33.21,7.9,28.34Z"/><path class="cls-1" d="M62.28,26l-3-3a3.25,3.25,0,0,0-4.49,0L38.38,39.36l-2.26,8.28-.55.55a1.07,1.07,0,0,0,0,1.5v0h0a1.06,1.06,0,0,0,.74.31,1.09,1.09,0,0,0,.76-.31l.55-.55,8.28-2.26L62.28,30.52A3.21,3.21,0,0,0,62.28,26ZM40.84,39.9,51.73,29l4.51,4.51L45.35,44.43Zm-1,2.05,3.43,3.43-4.71,1.29Zm20.9-13-3,3-4.51-4.51,3-3a1.07,1.07,0,0,1,1.48,0l3,3A1.05,1.05,0,0,1,60.78,29Z"/></g></g></svg>