<svg xmlns="http://www.w3.org/2000/svg" viewBox="0 0 71.82 52"><defs><style>.cls-1{fill:#fff;}</style></defs><title>new-svg1</title><g id="Слой_2" data-name="Слой 2"><g id="Layer_1" data-name="Layer 1"><path class="cls-1" d="M57.7,14.37a.93.93,0,0,1-.11-1.31h0l4.55-5.42a.93.93,0,1,1,1.43,1.2L59,14.25a.93.93,0,0,1-1.31.11ZM70.94,27.22l-7-.77a.94.94,0,0,0-.2,1.86l7,.77h.1a.93.93,0,1,0,.11-1.86ZM60.18,20.83a.89.89,0,0,0,1.21.5l7.45-3a.93.93,0,1,0-.72-1.68l-7.45,3A.93.93,0,0,0,60.18,20.83ZM61.5,47.66a.93.93,0,0,1-1,1.27L27.55,43.86l-6.47,2.64,1.13,2.6a.93.93,0,0,0,1.19.5l7.65-2.94a.93.93,0,1,1,.66,1.7l-7.65,2.94a2.8,2.8,0,0,1-3.57-1.5l-1.15-2.65-3,1.21h0L7.4,51.93a.94.94,0,0,1-1.21-.52L.07,36.06a.93.93,0,0,1,.52-1.21h0L20.7,26.78,41,.36a.93.93,0,0,1,1.6.22l7,17.56A6.52,6.52,0,0,1,57.17,27a6.44,6.44,0,0,1-2.72,3.07ZM50.36,19.89l3.39,8.45a4.65,4.65,0,0,0-3.39-8.45ZM14.8,47,9.33,33.35l-7.18,2.9L7.6,49.85Zm44.38-.14L48.25,19.63h0L41.47,2.79,22,28.12a.93.93,0,0,1-.39.3L11.06,32.65l5.46,13.62,3-1.18h0L27.09,42a.93.93,0,0,1,.48-.06Z"/></g></g></svg>