<svg xmlns="http://www.w3.org/2000/svg" viewBox="0 0 63.49 60"><defs><style>.cls-1{fill:#fff;}</style></defs><title>new-svg3</title><g id="Слой_2" data-name="Слой 2"><g id="Layer_1" data-name="Layer 1"><circle class="cls-1" cx="32.42" cy="21.4" r="1.42"/><circle class="cls-1" cx="32.42" cy="28.58" r="1.42"/><circle class="cls-1" cx="32.42" cy="35.83" r="1.42"/><circle class="cls-1" cx="39.38" cy="21.4" r="1.42"/><circle class="cls-1" cx="39.38" cy="28.58" r="1.42"/><circle class="cls-1" cx="39.38" cy="35.83" r="1.42"/><circle class="cls-1" cx="46.28" cy="21.4" r="1.42"/><circle class="cls-1" cx="46.28" cy="28.58" r="1.42"/><circle class="cls-1" cx="25.31" cy="28.58" r="1.42"/><circle class="cls-1" cx="25.31" cy="21.4" r="1.42"/><circle class="cls-1" cx="25.31" cy="35.83" r="1.42"/><circle class="cls-1" cx="25.31" cy="43.01" r="1.42"/><circle class="cls-1" cx="18.55" cy="28.58" r="1.42"/><circle class="cls-1" cx="18.55" cy="35.83" r="1.42"/><circle class="cls-1" cx="18.55" cy="43.01" r="1.42"/><circle class="cls-1" cx="11.73" cy="28.58" r="1.42"/><circle class="cls-1" cx="11.73" cy="35.83" r="1.42"/><circle class="cls-1" cx="11.73" cy="43.01" r="1.42"/><path class="cls-1" d="M58,35.9V2.63H47.7V1.42a1.42,1.42,0,1,0-2.84,0V2.63H30.43V1.42a1.42,1.42,0,1,0-2.84,0V2.63H13.08V1.42a1.42,1.42,0,1,0-2.84,0V2.63H0V49.55a4.61,4.61,0,0,0,4.62,4.62H39.17a13.31,13.31,0,0,0,24.31-7.46A13.14,13.14,0,0,0,58,35.9ZM41.87,54.17A8.86,8.86,0,0,1,40.38,52a11.17,11.17,0,0,1,9.81-16.49,10.75,10.75,0,0,1,5.62,1.56,9.46,9.46,0,0,1,2.13,1.64,11.4,11.4,0,0,1,3.41,8A11.18,11.18,0,0,1,50.19,57.94,11.56,11.56,0,0,1,41.87,54.17ZM2.13,4.76h8.18V6a1.42,1.42,0,0,0,2.84,0V4.76h14.5V6A1.42,1.42,0,1,0,30.5,6V4.76H45V6a1.42,1.42,0,0,0,2.84,0V4.76H56v5.47H2.13ZM4.62,52a2.52,2.52,0,0,1-2.49-2.49V12.37H55.81V34.69a13.55,13.55,0,0,0-5.62-1.28A13.25,13.25,0,0,0,38,52Z"/><path class="cls-1" d="M55.17,48.63l-1.35-.85-2.56-1.64V39.45a1.07,1.07,0,1,0-2.13,0v7.82L54,50.4a.85.85,0,0,0,.57.14,1,1,0,0,0,.92-.5A1.07,1.07,0,0,0,55.17,48.63Z"/></g></g></svg>