<svg xmlns="http://www.w3.org/2000/svg" viewBox="0 0 321.05 164.77"><defs><style>.cls-1{fill:#d0e4f0;}</style></defs><title>no-history-orders</title><g id="Слой_2" data-name="Слой 2"><g id="Layer_1" data-name="Layer 1"><path class="cls-1" d="M320.34,81.58l-15-15,14.39-14.39a2.37,2.37,0,0,0-1.26-4L237.67,34.08a2.41,2.41,0,0,0-2.09.67L221.19,49.14,206.25,34.2a2.37,2.37,0,0,0-2.81-.4L163,55.9a2.25,2.25,0,0,0-.43.4l-9.52-1.54,5.14-2.81a2.37,2.37,0,0,0,.55-4l-15-15,14.39-14.39a2.37,2.37,0,0,0-1.26-4L76,.57a2.37,2.37,0,0,0-2.09.67L59.55,15.62,44.61.69a2.37,2.37,0,0,0-2.81-.4L1.38,22.38a2.37,2.37,0,0,0-.55,4l15,15L1.38,55.54a2.37,2.37,0,0,0,1.26,4l14.15,2.45v38.73a2.37,2.37,0,0,0,2,2.33l38.45,6.68v38.73a2.37,2.37,0,0,0,2,2.33l80.82,14h.4a2.33,2.33,0,0,0,1-.28h0l40.51-22.05a2.37,2.37,0,0,0,1.23-2.09v-3.28l78.05,13.56h.4a2.33,2.33,0,0,0,1-.28h0L303,128.26a2.37,2.37,0,0,0,1.23-2.09V93.76l15.41-8.42a2.37,2.37,0,0,0,.55-4ZM198.58,95.18,184.32,80.71,187,78.07l70.42,12.25L248,102.73Zm-41.1,21.38-13.16-13.2,22.49-12.29,13.56-7.39,13.16,13.16ZM48.41,103.36,60.26,91.5l75.09,13L123.5,116.4ZM82.95,53,96.11,66.17,60,85.93,46.87,72.77ZM57.14,45.34l-30.9-5.41,30.9-16.8Zm4.66-23.51,71.45,12.41-5.34,2.92L99.55,52.65,87.14,50.48,85,48.31a2.37,2.37,0,0,0-2.81-.4l-2.37,1.3-18-3.08ZM191.94,66.17,180.09,78,105.71,65.26l15.1-11.46Zm3.68,3h0l23-12.61V78.82L190.76,74Zm65.6,17.15-37.7-6.72V55.34L295,67.75ZM140,100.32l-37.7-6.56V69.49L173.73,81.9l-5.93,3.24ZM97.37,93,66.51,87.59l30.86-17Zm140.69-54,75.09,13L301.3,63.84l-75.09-13Zm-34,0L217.24,52.1,197.87,62.65a2.29,2.29,0,0,0-.63-.32l-27.35-4.74ZM145.55,53.29l-24.94-4.35a2.33,2.33,0,0,0-1.82.43L100.22,63.48,93,56.33l6.56,1.15h.51a2.33,2.33,0,0,0,1.07-.28L140,36l13.16,13.16ZM76.43,5.47l75.09,13L139.66,30.37l-75.09-13Zm-33.91,0L55.68,18.63,19.6,38.39,6.48,25ZM20,43.8,73.19,53,53.43,63.76,7.82,55.86ZM21.57,63,46.95,67.4l-5.1,2.81a2.37,2.37,0,0,0-.55,4l15,15L42.64,102.77,21.57,99.09Zm40.23,47.62,37.62,6.52H100l23.71,4h.4a2.37,2.37,0,0,0,1.66-.71l12.05-12.05v51.34l-76-13.24Zm81,47.86V108.54l12.61,12.61a2.37,2.37,0,0,0,2.81.4l20.23-11.07V139Zm40.39-50.55,14.7-7.9,50.78,7.9H249a2.37,2.37,0,0,0,1.9-.95l8.5-11.22v49.91l-76.23-13.4Zm116.46,16.91L264.07,144.3v-50l12.61,12.61a2.37,2.37,0,0,0,2.81.4l20.23-11.07Zm-20.95-22.45L265.53,89.21l36.08-19.76,13.12,13.24Z"/></g></g></svg>