<?xml version="1.0" standalone="no"?>
<!DOCTYPE svg PUBLIC "-//W3C//DTD SVG 1.1//EN" "http://www.w3.org/Graphics/SVG/1.1/DTD/svg11.dtd" >
<svg xmlns="http://www.w3.org/2000/svg" xmlns:xlink="http://www.w3.org/1999/xlink" version="1.1">
<metadata></metadata>
<defs>
<font id="gt_walsheim_problack" horiz-adv-x="1368" >
<font-face units-per-em="2048" ascent="1638" descent="-410" />
<missing-glyph horiz-adv-x="481" />
<glyph unicode="&#xfb01;" horiz-adv-x="1513" d="M23 737v281h161v55q0 101 23.5 174.5t59 114.5t92 65t107.5 30.5t120 6.5q127 0 209 -28v-262q-49 12 -95 12q-57 0 -86.5 -22t-29.5 -81v-65h211v-281h-209v-737h-402v737h-161zM930 1325q0 95 67 163t166 68q101 0 168.5 -68t67.5 -163t-67.5 -162t-168.5 -67 q-99 0 -166 67t-67 162zM965 0v1018h401v-1018h-401z" />
<glyph unicode="&#xfb02;" horiz-adv-x="1456" d="M23 737v281h161v55q0 101 23.5 174.5t59 114.5t92 65t107.5 30.5t120 6.5q127 0 209 -28v-262q-49 12 -95 12q-57 0 -86.5 -22t-29.5 -81v-65h211v-281h-209v-737h-402v737h-161zM936 0v1434h401v-1434h-401z" />
<glyph horiz-adv-x="0" />
<glyph horiz-adv-x="682" />
<glyph horiz-adv-x="0" />
<glyph horiz-adv-x="0" />
<glyph unicode="&#xd;" horiz-adv-x="512" />
<glyph unicode=" "  horiz-adv-x="481" />
<glyph unicode="&#x09;" horiz-adv-x="481" />
<glyph unicode="&#xa0;" horiz-adv-x="481" />
<glyph unicode="!" horiz-adv-x="749" d="M123 217q0 103 73.5 175.5t178.5 72.5t178.5 -72.5t73.5 -175.5q0 -104 -73 -177t-179 -73t-179 73t-73 177zM160 532v902h430v-902h-430z" />
<glyph unicode="&#x22;" horiz-adv-x="913" d="M76 1137v309h317v-309l-82 -324h-153zM522 1137v309h316v-309l-80 -324h-156z" />
<glyph unicode="#" horiz-adv-x="1292" d="M45 322v268h211l35 254h-185v268h222l45 322h274l-45 -322h211l45 322h277l-45 -322h157v-268h-194l-35 -254h168v-268h-207l-45 -322h-275l46 322h-213l-43 -322h-275l43 322h-172zM530 590h211l35 254h-211z" />
<glyph unicode="$" horiz-adv-x="1318" d="M96 483h426q0 -97 48.5 -149.5t131.5 -52.5q66 0 104 32.5t38 89.5q0 56 -46.5 89.5t-170.5 82.5q-196 77 -268 118q-159 88 -207 216q-25 66 -25 148q0 94 37 168.5t102 123t145.5 78t176.5 39.5v220h194v-220q103 -10 184.5 -41t134.5 -75.5t88 -102t49.5 -117 t14.5 -124.5h-426q0 178 -141 178q-58 0 -94.5 -28t-36.5 -85q0 -53 47 -90t150 -74q199 -71 281 -115q188 -103 227 -262q12 -47 12 -100q0 -202 -128 -322t-362 -143v-217h-194v217q-232 25 -362 158.5t-130 359.5z" />
<glyph unicode="%" horiz-adv-x="1966" d="M129 913v252q0 123 91 206t243 83q150 0 243 -83.5t93 -205.5v-252q0 -122 -93 -205t-243 -83q-152 0 -243 82.5t-91 205.5zM387 913q0 -34 21 -58t55 -24q35 0 56.5 24t21.5 58v252q0 34 -21.5 58t-56.5 24q-34 0 -55 -24t-21 -58v-252zM475 4l744 1546l251 -118 l-741 -1547zM1165 268v252q0 123 91 206t243 83q150 0 243 -83.5t93 -205.5v-252q0 -122 -93 -205t-243 -83q-152 0 -243 82.5t-91 205.5zM1423 268q0 -34 21 -58t55 -24q35 0 56.5 24t21.5 58v252q0 34 -21.5 58t-56.5 24q-34 0 -55 -24t-21 -58v-252z" />
<glyph unicode="&#x26;" d="M74 395q0 125 67.5 215t171.5 129q-94 32 -160.5 118.5t-66.5 203.5q0 107 44.5 188t122 127.5t172.5 69t206 22.5q130 0 231 -27.5t162.5 -71.5t100.5 -106.5t54 -125t15 -133.5h-426q0 87 -30 132.5t-107 45.5q-59 0 -92 -34t-33 -104q0 -141 166 -141v-307 q-90 0 -131 -39t-41 -119q0 -64 43 -109.5t119 -45.5q69 0 114 49.5t49 138.5h-102v305h596v-305h-82q-2 -111 -35.5 -200t-102.5 -159t-186 -108.5t-276 -38.5q-84 0 -164 16t-152.5 50.5t-127 84t-87 121.5t-32.5 158z" />
<glyph unicode="'" horiz-adv-x="460" d="M72 1137v309h317v-309l-82 -324h-153z" />
<glyph unicode="(" horiz-adv-x="833" d="M96 186v732q0 129 46.5 243t131.5 200t212.5 135.5t281.5 49.5v-350q-123 0 -194.5 -78.5t-71.5 -199.5v-732q0 -121 71.5 -199.5t194.5 -78.5v-350q-154 0 -281.5 49.5t-212.5 135.5t-131.5 200t-46.5 243z" />
<glyph unicode=")" horiz-adv-x="833" d="M68 -92q120 0 192 79t72 199v732q0 120 -72 199t-192 79v350q153 0 280.5 -49.5t211.5 -135.5t130.5 -200t46.5 -243v-732q0 -129 -46.5 -243t-130.5 -200t-211.5 -135.5t-280.5 -49.5v350z" />
<glyph unicode="*" horiz-adv-x="962" d="M51 1077l72 207l264 -104l-16 288h221l-17 -288l265 104l71 -207l-262 -71l178 -228l-180 -131l-166 262l-166 -262l-180 131l178 228z" />
<glyph unicode="+" horiz-adv-x="1325" d="M201 432v301h307v311h309v-311h307v-301h-307v-311h-309v311h-307z" />
<glyph unicode="," horiz-adv-x="669" d="M68 219q0 103 69.5 175.5t171.5 72.5q123 0 201 -88t78 -227q0 -269 -130 -389.5t-378 -120.5v153q146 0 221 62q63 53 74 139q-5 -7 -25 -14t-41 -7q-109 0 -175 70.5t-66 173.5z" />
<glyph unicode="-" horiz-adv-x="694" d="M68 483v303h559v-303h-559z" />
<glyph unicode="." horiz-adv-x="663" d="M82 221q0 102 72 174t176 72q105 0 178.5 -72t73.5 -174t-73.5 -174t-178.5 -72q-104 0 -176 72t-72 174z" />
<glyph unicode="/" horiz-adv-x="1083" d="M35 -25l692 1610l301 -129l-692 -1610z" />
<glyph unicode="0" horiz-adv-x="1335" d="M78 487v459q0 106 41 201t115 166.5t186.5 113t247.5 41.5q131 0 242.5 -42t187 -113t117.5 -166t42 -201v-459q0 -106 -42 -201t-117.5 -166t-187 -113t-242.5 -42q-135 0 -247.5 41.5t-186.5 113t-115 166.5t-41 201zM504 487q0 -74 45.5 -125t118.5 -51q72 0 117.5 51 t45.5 125v459q0 74 -45.5 125t-117.5 51q-73 0 -118.5 -51t-45.5 -125v-459z" />
<glyph unicode="1" horiz-adv-x="907" d="M59 889v280q109 0 181 16.5t111.5 52t55 82t15.5 114.5h360v-1434h-428v889h-295z" />
<glyph unicode="2" horiz-adv-x="1286" d="M90 0q0 139 18 248.5t48 185.5t80 138.5t101.5 103.5t125.5 84q175 104 216 134q87 64 100 131q3 15 3 32q0 63 -33.5 94t-86.5 31q-140 0 -140 -178h-428q0 71 18.5 136.5t61.5 126t106.5 104.5t160 70.5t216.5 26.5q85 0 162 -14.5t146.5 -48t120 -83t80.5 -124 t30 -166.5q0 -79 -29 -149.5t-82 -128t-113.5 -102.5t-137.5 -87q-155 -91 -192 -122q-57 -56 -60 -115h606v-328h-1098z" />
<glyph unicode="3" horiz-adv-x="1298" d="M63 485h426q0 -99 40 -150.5t118 -51.5q68 0 103.5 46t35.5 111q0 77 -39 116.5t-124 39.5h-162v307h160q92 0 126.5 35t34.5 106q0 70 -33 104t-92 34q-79 0 -108 -45t-29 -133h-426q0 71 14.5 133.5t54 125t100.5 106.5t161.5 71.5t230.5 27.5q112 0 207.5 -22.5 t173 -69t122 -127.5t44.5 -188q0 -117 -68.5 -206.5t-160.5 -115.5q102 -29 171.5 -124t69.5 -226q0 -83 -30 -153t-82 -119.5t-122 -84t-149.5 -51t-164.5 -16.5q-164 0 -283.5 40t-188 113t-100 164t-31.5 203z" />
<glyph unicode="4" horiz-adv-x="1357" d="M102 362v1072h426v-725h195v362h428v-362h149v-347h-149v-362h-428v362h-621z" />
<glyph unicode="5" horiz-adv-x="1357" d="M88 498h406q0 -82 51 -139.5t135 -57.5q85 0 135.5 57.5t50.5 145.5q0 82 -49.5 140t-132.5 58q-68 0 -108.5 -26.5t-67.5 -77.5h-381v836h1069v-308h-672v-241q41 53 114.5 81.5t162.5 28.5q118 0 211 -43.5t148 -115t83.5 -156.5t28.5 -176q0 -112 -39.5 -209.5 t-113 -171t-187 -116t-252.5 -42.5q-140 0 -253.5 42t-186.5 115.5t-112.5 169.5t-39.5 206z" />
<glyph unicode="6" horiz-adv-x="1292" d="M51 506q0 169 84 299l420 629h473l-272 -402q81 -15 141 -49q159 -49 249.5 -179.5t90.5 -297.5q0 -110 -40.5 -207.5t-114.5 -171t-187.5 -116t-251.5 -42.5t-251.5 42.5t-187 116t-113.5 171t-40 207.5zM457 506q0 -86 50.5 -141.5t135.5 -55.5t135.5 55.5t50.5 141.5 t-50.5 141t-135.5 55t-135.5 -55t-50.5 -141z" />
<glyph unicode="7" horiz-adv-x="1193" d="M63 1085v349h1147l-610 -1434h-457l465 1085h-545z" />
<glyph unicode="8" horiz-adv-x="1318" d="M72 403q0 124 77 219.5t177 118.5q-91 30 -154 117.5t-63 194.5q0 178 147 296.5t403 118.5t403.5 -118.5t147.5 -296.5q0 -107 -63 -194.5t-154 -117.5q102 -26 178 -121t76 -217q0 -91 -39.5 -170t-112.5 -139t-185.5 -94.5t-250.5 -34.5q-272 0 -429.5 125.5 t-157.5 312.5zM477 420q0 -70 49.5 -118t132.5 -48t132 48.5t49 117.5t-49 117.5t-132 48.5q-84 0 -133 -48.5t-49 -117.5zM504 1034q0 -62 42 -104.5t113 -42.5t113.5 42.5t42.5 104.5q0 60 -42.5 103t-113.5 43t-113 -42t-42 -104z" />
<glyph unicode="9" horiz-adv-x="1292" d="M55 928q0 110 40.5 207.5t114.5 170.5t187.5 115.5t251.5 42.5t251.5 -42.5t187 -116t113.5 -170.5t40 -207q0 -169 -86 -299l-418 -629h-473l271 401q-221 29 -350.5 175.5t-129.5 351.5zM463 928q0 -86 50.5 -141.5t135.5 -55.5t136 55.5t51 141.5t-51 141t-136 55 t-135.5 -55t-50.5 -141z" />
<glyph unicode=":" horiz-adv-x="663" d="M82 860q0 102 72 174t176 72q105 0 178.5 -72t73.5 -174t-73.5 -174t-178.5 -72q-104 0 -176 72t-72 174zM84 221q0 102 71.5 174t176.5 72q106 0 178 -72t72 -174t-72 -174t-178 -72q-105 0 -176.5 72t-71.5 174z" />
<glyph unicode=";" horiz-adv-x="669" d="M82 219q0 103 71.5 175.5t172.5 72.5q123 0 199.5 -87.5t76.5 -227.5q0 -269 -129.5 -389.5t-378.5 -120.5v153q146 0 221 62q63 53 74 139q-5 -7 -24.5 -14t-38.5 -7q-108 0 -176 71t-68 173zM82 860q0 102 72 174t176 72q105 0 178.5 -72t73.5 -174t-73.5 -174 t-178.5 -72q-104 0 -176 72t-72 174z" />
<glyph unicode="&#x3c;" horiz-adv-x="1325" d="M94 414v334l1108 368v-358l-616 -176l616 -179v-356z" />
<glyph unicode="=" horiz-adv-x="1325" d="M201 217v303h923v-303h-923zM201 641v303h923v-303h-923z" />
<glyph unicode="&#x3e;" horiz-adv-x="1325" d="M121 47v356l618 179l-618 176v358l1110 -368v-334z" />
<glyph unicode="?" horiz-adv-x="1173" d="M31 1004q0 71 17.5 136t59.5 126t104 105t157.5 70.5t214.5 26.5q86 0 164 -14.5t148 -47t121 -79t81 -115t30 -151.5q0 -40 -7.5 -77.5t-17.5 -65.5t-28.5 -56t-32.5 -46t-37.5 -39t-36 -31t-36 -27t-29.5 -21q-58 -47 -83 -85.5t-25 -102.5h-430q0 132 42.5 210 t155.5 146q36 24 56.5 39t45.5 40t36.5 54.5t11.5 65.5q0 58 -34.5 87.5t-92.5 29.5q-62 0 -98.5 -42.5t-36.5 -135.5h-420zM328 217q0 103 73 175.5t177 72.5q108 0 180.5 -72t72.5 -176q0 -105 -72.5 -177.5t-180.5 -72.5q-104 0 -177 73t-73 177z" />
<glyph unicode="@" horiz-adv-x="1871" d="M41 498q0 160 47.5 300t132 244.5t197 180t245.5 113.5t275 38q194 0 361 -52.5t289 -150t191.5 -243.5t69.5 -324q0 -132 -22.5 -235.5t-62 -171.5t-96.5 -112.5t-122.5 -63.5t-144.5 -19q-127 0 -216.5 60.5t-125.5 166.5q-22 -53 -92.5 -97t-151.5 -44 q-166 0 -274.5 116t-108.5 294q0 177 111 293t272 116q81 0 151.5 -44t92.5 -97v121h291v-430q0 -116 23.5 -160.5t78.5 -44.5q111 0 111 364q0 234 -170 367t-455 133q-174 0 -311 -70.5t-219 -212.5t-82 -335q0 -100 25 -191.5t78 -172.5t130 -140.5t188.5 -94 t245.5 -34.5q114 0 243 24.5t237 83.5l110 -221q-133 -74 -293.5 -107.5t-296.5 -33.5q-180 0 -334.5 47t-266.5 130t-192 195t-119.5 243t-39.5 272zM741 498q0 -71 45 -120.5t115 -49.5q71 0 116.5 49.5t45.5 120.5t-45.5 120.5t-116.5 49.5q-70 0 -115 -49.5t-45 -120.5z " />
<glyph unicode="A" horiz-adv-x="1531" d="M8 0l529 1434h446l541 -1434h-475l-50 166h-481l-49 -166h-461zM608 475h303l-151 529z" />
<glyph unicode="B" d="M106 0v1434h703q112 0 198.5 -26.5t136 -66.5t80.5 -94.5t41.5 -102t10.5 -97.5q0 -64 -23.5 -121.5t-61 -97t-80.5 -66t-85 -35.5q37 -4 80 -26t84.5 -60.5t68.5 -102t27 -139.5q0 -41 -8 -82t-26 -88t-53.5 -86.5t-85 -72t-126 -51.5t-170.5 -19h-711zM535 299h145 q90 0 132 41.5t42 105.5q0 24 -8 47.5t-26 46.5t-54 37.5t-86 14.5h-145v-293zM535 870h141q90 0 132 42t42 104q0 24 -7.5 46.5t-25 45.5t-54 37t-87.5 14h-141v-289z" />
<glyph unicode="C" horiz-adv-x="1640" d="M53 717q0 119 33.5 231t99.5 207t158 166t216 111.5t265 40.5q169 0 308 -49.5t232.5 -135.5t150 -199t71.5 -245h-446q-20 108 -97.5 174.5t-205.5 66.5q-164 0 -256.5 -106.5t-92.5 -261.5q0 -159 97.5 -264t259.5 -105q115 0 194.5 61.5t100.5 155.5h450 q-19 -125 -77 -233.5t-151 -192t-228.5 -131t-296.5 -47.5q-180 0 -330 61.5t-248.5 166t-152.5 241t-54 287.5z" />
<glyph unicode="D" horiz-adv-x="1513" d="M125 0v1434h586q173 0 316.5 -59.5t237 -159.5t144.5 -228.5t51 -269.5t-50.5 -269.5t-143.5 -228.5t-237 -159.5t-318 -59.5h-586zM551 360h129q155 0 249.5 105.5t94.5 251.5t-94.5 251t-249.5 105h-129v-713z" />
<glyph unicode="E" horiz-adv-x="1159" d="M125 0v1434h924v-320h-498v-250h498v-305h-498v-240h498v-319h-924z" />
<glyph unicode="F" horiz-adv-x="1148" d="M125 0v1434h924v-349h-498v-317h498v-336h-498v-432h-426z" />
<glyph unicode="G" horiz-adv-x="1701" d="M55 717q0 118 32.5 229.5t97.5 206.5t155.5 166.5t213 112.5t263.5 41q152 0 282.5 -43t220.5 -117t145 -171t65 -206h-471q-14 69 -77 120.5t-169 51.5q-83 0 -147 -33t-101.5 -90t-56.5 -126t-19 -148q0 -176 90.5 -288t260.5 -112q116 0 184 55.5t86 147.5h-238v281 h807v-281h-137q-43 -255 -228 -404t-495 -149q-144 0 -268 39t-214 108.5t-154 164t-96 207.5t-32 237z" />
<glyph unicode="H" horiz-adv-x="1503" d="M125 0v1434h426v-545h399v545h428v-1434h-428v535h-399v-535h-426z" />
<glyph unicode="I" horiz-adv-x="679" d="M125 0v1434h430v-1434h-430z" />
<glyph unicode="J" horiz-adv-x="1288" d="M25 522h426q0 -90 39 -145t114 -55q73 0 113.5 50.5t40.5 147.5v914h428v-914q0 -555 -582 -555q-145 0 -257.5 42.5t-181.5 118.5t-104.5 176t-35.5 220z" />
<glyph unicode="K" horiz-adv-x="1454" d="M125 0v1434h426v-586l397 586h500l-526 -717l526 -717h-500l-397 584v-584h-426z" />
<glyph unicode="L" horiz-adv-x="976" d="M125 0v1434h426v-1069h375v-365h-801z" />
<glyph unicode="M" horiz-adv-x="1929" d="M125 0v1434h543l303 -926l305 926h528v-1434h-413v889l-261 -889h-315l-276 889v-889h-414z" />
<glyph unicode="N" horiz-adv-x="1579" d="M125 0v1434h434l467 -850v850h428v-1434h-434l-469 821v-821h-426z" />
<glyph unicode="O" horiz-adv-x="1660" d="M53 717q0 119 33 230.5t99 206.5t158 166.5t217 112t269 40.5t270 -40.5t218 -112t158.5 -166.5t99.5 -206.5t33 -230.5t-33 -230.5t-99.5 -206.5t-158.5 -166.5t-218 -112t-270 -40.5t-269 40.5t-217 112t-158 166.5t-99 206.5t-33 230.5zM483 717q0 -97 40 -179.5 t120.5 -135t185.5 -52.5t186 52.5t121 135t40 179.5t-40 179t-120.5 134.5t-186.5 52.5t-186 -52.5t-120 -134.5t-40 -179z" />
<glyph unicode="P" horiz-adv-x="1378" d="M125 0v1434h688q159 0 283.5 -73.5t190 -195t65.5 -266.5q0 -144 -65.5 -264.5t-190 -194t-283.5 -73.5h-262v-367h-426zM551 696h176q85 0 138 58.5t53 144.5q0 87 -52 145t-137 58h-178v-406z" />
<glyph unicode="Q" horiz-adv-x="1660" d="M53 717q0 119 33 230.5t99 206.5t158 166.5t217 112t269 40.5t270 -40.5t218 -112t158.5 -166.5t99.5 -206.5t33 -230.5q0 -199 -93.5 -370.5t-261.5 -266.5l123 -160q-161 -83 -188 -96l-189 -94l-170 231q-144 0 -269 40.5t-217 112t-158 166.5t-99 206.5t-33 230.5z M483 717q0 -97 40 -179.5t120.5 -135t185.5 -52.5t186 52.5t121 135t40 179.5t-40 179t-120.5 134.5t-186.5 52.5t-186 -52.5t-120 -134.5t-40 -179z" />
<glyph unicode="R" horiz-adv-x="1429" d="M125 0v1434h688q159 0 283.5 -73.5t190 -195t65.5 -266.5q0 -148 -69.5 -271t-192.5 -192l286 -436h-502l-243 367h-80v-367h-426zM551 696h176q85 0 138 58.5t53 144.5q0 87 -52 145t-137 58h-178v-406z" />
<glyph unicode="S" horiz-adv-x="1318" d="M70 483h426q0 -97 48.5 -149.5t131.5 -52.5q66 0 103.5 32.5t37.5 89.5q0 56 -46.5 89.5t-170.5 82.5q-196 77 -268 118q-159 88 -207 216q-25 66 -25 148q0 86 31.5 156.5t85.5 118t127.5 80t154.5 47t169 14.5q121 0 218 -27t159.5 -72t104.5 -106.5t59.5 -126.5 t17.5 -135h-426q0 178 -142 178q-58 0 -94.5 -28t-36.5 -85q0 -53 47 -90t150 -74q199 -71 281 -115q188 -103 227 -262q12 -47 12 -100q0 -221 -157 -345t-429 -124t-430.5 136.5t-158.5 385.5z" />
<glyph unicode="T" horiz-adv-x="1097" d="M41 1069v365h1016v-365h-295v-1069h-426v1069h-295z" />
<glyph unicode="U" horiz-adv-x="1378" d="M90 498v936h426v-932q0 -74 49.5 -127t122.5 -53q76 0 125 52.5t49 127.5v932h426v-936q0 -238 -162 -387.5t-438 -149.5q-274 0 -436 150t-162 387z" />
<glyph unicode="V" horiz-adv-x="1474" d="M-20 1434h460l291 -981l289 981h475l-541 -1434h-446z" />
<glyph unicode="W" horiz-adv-x="2228" d="M-12 1434h450l254 -856l252 856h340l250 -856l256 856h451l-517 -1434h-372l-238 780l-240 -780h-370z" />
<glyph unicode="X" horiz-adv-x="1341" d="M-2 0l426 717l-426 717h467l207 -410l207 410h464l-425 -717l425 -717h-464l-207 410l-207 -410h-467z" />
<glyph unicode="Y" horiz-adv-x="1398" d="M-6 1434h500l231 -510l217 510h475l-710 -1434h-480l248 506z" />
<glyph unicode="Z" horiz-adv-x="1406" d="M41 0l661 1085h-587v349h1251l-659 -1086h620v-348h-1286z" />
<glyph unicode="[" horiz-adv-x="849" d="M125 -436v1984h643v-348h-242v-1288h242v-348h-643z" />
<glyph unicode="\" horiz-adv-x="1083" d="M35 1456l301 129l692 -1610l-301 -129z" />
<glyph unicode="]" horiz-adv-x="849" d="M82 -88h242v1288h-242v346h643v-1982h-643v348z" />
<glyph unicode="^" horiz-adv-x="1275" d="M47 567l492 969h200l490 -969h-359l-231 518l-233 -518h-359z" />
<glyph unicode="_" horiz-adv-x="1243" d="M27 -61h1187v-222h-1187v222z" />
<glyph unicode="`" horiz-adv-x="929" d="M96 1249l92 258l621 -243l-92 -258z" />
<glyph unicode="a" d="M63 508q0 238 132 386t342 148q104 0 191.5 -54t119.5 -122v152h401v-1018h-401v152q-32 -68 -120 -123.5t-191 -55.5q-210 0 -342 148t-132 387zM467 508q0 -84 52.5 -142.5t135.5 -58.5q84 0 138.5 58.5t54.5 142.5q0 86 -54 143.5t-139 57.5q-83 0 -135.5 -57.5 t-52.5 -143.5z" />
<glyph unicode="b" d="M119 0v1434h401v-568q32 68 119 122t190 54q210 0 342 -148t132 -386q0 -239 -132 -387t-342 -148q-101 0 -189 56t-120 123v-152h-401zM520 508q0 -84 53.5 -142.5t137.5 -58.5t137 58.5t53 142.5q0 86 -52.5 143.5t-137.5 57.5t-138 -57.5t-53 -143.5z" />
<glyph unicode="c" horiz-adv-x="1263" d="M55 508q0 110 38 207t109 171.5t183 117.5t252 43q132 0 237.5 -36t173.5 -99.5t108 -143.5t50 -174h-401q-24 121 -164 121q-89 0 -136.5 -60.5t-47.5 -146.5q0 -88 48 -146.5t142 -58.5q119 0 156 109h403q-21 -194 -169.5 -317.5t-397.5 -123.5q-140 0 -253 43 t-184 117.5t-109 170.5t-38 206z" />
<glyph unicode="d" d="M63 508q0 238 132 386t342 148q104 0 191.5 -54t119.5 -122v568h401v-1434h-401v152q-32 -68 -120 -123.5t-191 -55.5q-210 0 -342 148t-132 387zM467 508q0 -84 52.5 -142.5t135.5 -58.5q84 0 138.5 58.5t54.5 142.5q0 86 -54 143.5t-139 57.5q-83 0 -135.5 -57.5 t-52.5 -143.5z" />
<glyph unicode="e" horiz-adv-x="1275" d="M55 508q0 112 37.5 209t108.5 171t183.5 116.5t252.5 42.5q134 0 244.5 -40t181 -106.5t109 -150.5t38.5 -175q0 -80 -12 -151h-741q12 -188 186 -188q65 0 107.5 28t54.5 74h389q-26 -162 -172 -264.5t-377 -102.5q-275 0 -432.5 145.5t-157.5 391.5zM457 618h352 q0 84 -47 131.5t-127 47.5t-129 -47.5t-49 -131.5z" />
<glyph unicode="f" horiz-adv-x="823" d="M27 737v281h159v55q0 101 23.5 174.5t59 114.5t92 65t107.5 30.5t120 6.5q127 0 209 -28v-262q-49 12 -95 12q-55 0 -84.5 -22t-29.5 -81v-65h209v-281h-209v-737h-402v737h-159z" />
<glyph unicode="g" horiz-adv-x="1363" d="M68 508q0 241 126 387.5t338 146.5q108 0 193 -45.5t125 -130.5v152h401v-961q0 -145 -41.5 -239.5t-130.5 -155.5q-75 -53 -175 -78.5t-251 -25.5q-157 0 -255 25.5t-165 80.5q-72 56 -116 132t-45 159h403q5 -54 51.5 -93.5t126.5 -39.5q94 0 145.5 46t51.5 140v158 q-39 -67 -121 -110.5t-186 -43.5q-214 0 -344.5 131.5t-130.5 364.5zM469 508q0 -84 53 -142.5t137 -58.5t137.5 58.5t53.5 142.5q0 86 -53 143.5t-138 57.5t-137.5 -57.5t-52.5 -143.5z" />
<glyph unicode="h" horiz-adv-x="1282" d="M119 0v1434h381v-566q44 79 126.5 126.5t198.5 47.5q171 0 254 -92q54 -57 74.5 -142t20.5 -210v-598h-381v516q0 96 -32.5 144.5t-107.5 48.5q-153 0 -153 -211v-498h-381z" />
<glyph unicode="i" horiz-adv-x="638" d="M82 1325q0 97 68.5 166.5t166.5 69.5q100 0 169 -69t69 -167q0 -95 -69 -163t-169 -68q-98 0 -166.5 68.5t-68.5 162.5zM119 0v1018h401v-1018h-401z" />
<glyph unicode="j" horiz-adv-x="638" d="M-59 -131q47 -8 84 -8q94 0 94 100v1057h401v-1100q0 -88 -17 -153t-46 -104t-73.5 -62.5t-91.5 -32t-108 -8.5q-66 0 -137 8t-106 20v283zM82 1325q0 97 68.5 166.5t166.5 69.5q100 0 169 -69t69 -167q0 -95 -69 -163t-169 -68q-98 0 -166.5 68.5t-68.5 162.5z" />
<glyph unicode="k" horiz-adv-x="1249" d="M119 0v1434h401v-826l258 410h467l-368 -510l368 -508h-469l-256 408v-408h-401z" />
<glyph unicode="l" horiz-adv-x="638" d="M119 0v1434h401v-1434h-401z" />
<glyph unicode="m" horiz-adv-x="1884" d="M119 0v1018h381v-150q38 77 115.5 125.5t187.5 48.5q230 0 299 -184q45 85 127.5 134.5t195.5 49.5q84 0 147 -22.5t101.5 -60t62 -94.5t32 -117.5t8.5 -137.5v-610h-383v530q0 179 -121 179q-135 0 -135 -201v-508h-381v530q0 90 -28.5 134.5t-92.5 44.5q-65 0 -100 -49 t-35 -164v-496h-381z" />
<glyph unicode="n" horiz-adv-x="1323" d="M119 0v1018h401v-150q42 81 129 127.5t207 46.5q177 0 266 -96q54 -56 73 -137t19 -207v-602h-401v516q0 97 -32 145t-107 48q-154 0 -154 -211v-498h-401z" />
<glyph unicode="o" horiz-adv-x="1292" d="M53 508q0 112 40 209.5t113.5 171t186.5 116t252 42.5q138 0 251.5 -42.5t187.5 -116t114.5 -171t40.5 -209.5q0 -110 -40.5 -207.5t-114.5 -171t-187.5 -116t-251.5 -42.5t-251.5 42.5t-187 116t-113.5 171t-40 207.5zM455 508q0 -86 52.5 -143.5t137.5 -57.5 q86 0 138.5 57t52.5 144q0 88 -52.5 144.5t-138.5 56.5q-85 0 -137.5 -57t-52.5 -144z" />
<glyph unicode="p" d="M119 -416v1434h401v-150q32 68 119 121t190 53q210 0 342 -147t132 -385q0 -239 -132 -387t-342 -148q-103 0 -190 54.5t-119 122.5v-568h-401zM520 510q0 -84 53.5 -142.5t137.5 -58.5t137 58.5t53 142.5t-53 142.5t-137 58.5t-137.5 -58.5t-53.5 -142.5z" />
<glyph unicode="q" d="M66 510q0 238 131.5 385t341.5 147q104 0 193.5 -53.5t115.5 -120.5v150h403v-1434h-403v568q-26 -67 -115.5 -122t-193.5 -55q-210 0 -341.5 148t-131.5 387zM467 510q0 -84 53 -142.5t137 -58.5t137.5 58.5t53.5 142.5t-53.5 142.5t-137.5 58.5t-137 -58.5t-53 -142.5z " />
<glyph unicode="r" horiz-adv-x="935" d="M119 0v1018h401v-162q35 74 118.5 128t186.5 54q59 0 105 -14v-367q-75 19 -137 19q-128 0 -200.5 -72.5t-72.5 -245.5v-358h-401z" />
<glyph unicode="s" horiz-adv-x="1159" d="M59 340h402q0 -123 131 -123q48 0 75 19.5t27 54.5q0 40 -42 60.5t-172 57.5q-4 1 -6.5 1.5t-6 1.5t-6.5 2q-165 41 -229 72q-131 64 -149 191q-3 22 -3 46q0 170 126.5 247t385.5 77q134 0 231 -26t151.5 -74t79.5 -107t25 -133h-399q0 54 -29 81t-78 27q-40 0 -67 -18 t-27 -54q0 -39 58 -64q34 -14 184 -54q75 -17 122 -31t100 -39t82.5 -55.5t49 -77.5t19.5 -109q0 -342 -510 -342q-264 0 -394.5 96t-130.5 273z" />
<glyph unicode="t" horiz-adv-x="849" d="M27 737v281h149v297h404v-297h229v-281h-229v-307q0 -89 34.5 -121.5t96.5 -32.5q59 0 108 9v-285q-110 -20 -250 -20q-47 0 -81.5 2t-78 10.5t-74.5 23t-63 41.5t-51.5 64.5t-32 93t-12.5 125.5v397h-149z" />
<glyph unicode="u" horiz-adv-x="1323" d="M106 416v602h404v-516q0 -97 32 -145t107 -48q154 0 154 211v498h401v-1018h-401v152q-42 -83 -128.5 -130t-207.5 -47q-86 0 -155 26t-111 71q-54 57 -74.5 138.5t-20.5 205.5z" />
<glyph unicode="v" horiz-adv-x="1247" d="M-10 1018h418l213 -606l219 606h417l-460 -1018h-353z" />
<glyph unicode="w" horiz-adv-x="1746" d="M-4 1018h405l162 -567l131 567h359l131 -567l162 567h405l-365 -1018h-358l-156 547l-153 -547h-359z" />
<glyph unicode="x" horiz-adv-x="1193" d="M-10 0l364 514l-358 504h465l135 -258l137 258h465l-360 -504l366 -514h-465l-143 268l-141 -268h-465z" />
<glyph unicode="y" horiz-adv-x="1335" d="M106 -45h404q5 -64 45.5 -100.5t108.5 -36.5q80 0 117.5 41t37.5 137v184q-42 -82 -123.5 -127t-195.5 -45q-92 0 -165.5 30t-117.5 77q-54 57 -74 132.5t-20 198.5v572h403v-516q0 -96 32.5 -144.5t107.5 -48.5q153 0 153 211v498h402v-979q0 -124 -41.5 -220.5 t-112.5 -152.5q-75 -58 -166.5 -83t-241.5 -25q-146 0 -242.5 23t-166.5 79q-141 117 -144 295z" />
<glyph unicode="z" horiz-adv-x="1071" d="M29 0l417 686h-378v332h974l-413 -686h387v-332h-987z" />
<glyph unicode="{" horiz-adv-x="1009" d="M82 362v369q73 0 120.5 37.5t47.5 116.5v295q0 173 101.5 269.5t281.5 96.5h268v-336h-80q-86 0 -127 -52t-41 -128v-248q0 -61 -22.5 -108t-57 -72t-65 -37.5t-57.5 -15.5q22 -4 44 -11t52 -25t52 -43t38 -67.5t16 -95.5v-225q0 -76 41 -128t127 -52h80v-338h-268 q-180 0 -281.5 97.5t-101.5 270.5v273q0 82 -47.5 119.5t-120.5 37.5z" />
<glyph unicode="|" horiz-adv-x="651" d="M164 -436v1982h325v-1982h-325z" />
<glyph unicode="}" horiz-adv-x="1009" d="M109 -98h81q85 0 126.5 52.5t41.5 127.5v225q0 53 15.5 96t38 68t52.5 42.5t52 24.5t45 11q-27 3 -58 15.5t-65.5 37.5t-57 72t-22.5 108v248q0 75 -41.5 127.5t-126.5 52.5h-81v336h268q180 0 281.5 -96.5t101.5 -269.5v-295q0 -79 47.5 -116.5t120.5 -37.5v-369 q-72 0 -120 -37.5t-48 -119.5v-273q0 -173 -101.5 -270.5t-281.5 -97.5h-268v338z" />
<glyph unicode="~" horiz-adv-x="1220" d="M63 395v299q56 63 129 92t144 29q103 0 289 -65q15 -5 68 -24t76 -26.5t59 -15.5t61 -8q132 0 270 112v-299q-57 -63 -130 -91.5t-142 -28.5q-115 0 -266 67q-151 72 -299 72q-123 0 -259 -113z" />
<glyph unicode="&#xa1;" horiz-adv-x="749" d="M127 799q0 103 72 175.5t176 72.5q105 0 178.5 -72.5t73.5 -175.5q0 -100 -73.5 -172t-178.5 -72q-104 0 -176 72t-72 172zM162 -416v897h430v-897h-430z" />
<glyph unicode="&#xa2;" horiz-adv-x="1294" d="M68 588q0 133 53.5 245t165 190t266.5 97v232h195v-232q108 -12 194.5 -52.5t143 -102t90 -134.5t43.5 -157h-402q-24 121 -164 121q-89 0 -136.5 -60.5t-47.5 -146.5q0 -88 48 -146.5t142 -58.5q65 0 101.5 27t54.5 82h404q-21 -176 -142 -294.5t-329 -142.5v-225h-195 v227q-155 19 -266.5 96t-165 189t-53.5 246z" />
<glyph unicode="&#xa3;" horiz-adv-x="1384" d="M57 602v197h146v184q0 206 159 345.5t412 139.5q168 0 299.5 -67t202 -181.5t70.5 -254.5h-426q0 70 -38.5 113.5t-111.5 43.5q-65 0 -103 -38.5t-38 -100.5v-184h301v-197h-301q0 -69 -4 -123q-10 -112 -33 -151h678v-328h-1157v276q74 74 82 199q3 14 4.5 37t2 51.5 t1.5 38.5h-146z" />
<glyph unicode="&#xa4;" horiz-adv-x="1628" d="M119 272l164 166q-105 138 -105 320q0 183 105 321l-164 166l145 146l168 -170q145 84 303 84q161 0 299 -86l170 170l146 -144l-166 -166q110 -137 110 -321q0 -185 -104 -324l160 -160l-146 -145l-168 168q-138 -80 -301 -80q-158 0 -299 82l-172 -170zM545 758 q0 -87 52.5 -144t137.5 -57q86 0 138.5 56.5t52.5 144.5t-52.5 144t-138.5 56q-85 0 -137.5 -56.5t-52.5 -143.5z" />
<glyph unicode="&#xa5;" horiz-adv-x="1392" d="M-35 1434h502l229 -510l230 510h501l-469 -801h207v-193h-254v-102h254v-193h-254v-145h-417v145h-252v193h252v102h-252v193h192z" />
<glyph unicode="&#xa6;" horiz-adv-x="651" d="M164 426h325v-862h-325v862zM164 713v833h325v-833h-325z" />
<glyph unicode="&#xa7;" horiz-adv-x="1167" d="M68 14h331q0 -89 49.5 -140.5t129.5 -51.5q69 0 112 34.5t43 94.5q0 58 -47 91.5t-156 74.5q-191 73 -268 120q-159 97 -180 246q-4 25 -4 52q0 117 51.5 189.5t169.5 119.5q-87 52 -129.5 124.5t-42.5 180.5q0 90 39.5 161.5t106.5 115.5t152 67t181 23 q119 0 212.5 -34.5t150 -93t85.5 -131.5t29 -155h-327q0 86 -40.5 133t-115.5 47q-64 0 -106.5 -32.5t-42.5 -92.5q0 -57 46 -93.5t140 -68.5q180 -63 245 -96q171 -86 213 -218q15 -48 15 -103q0 -121 -61.5 -201.5t-165.5 -110.5q178 -108 178 -299q0 -185 -135.5 -292 t-358.5 -107q-224 0 -361.5 119.5t-137.5 326.5zM367 582q0 -78 84 -131q17 -12 41 -23t41.5 -17.5t49.5 -17.5t46 -16q73 5 130.5 50t57.5 112q0 76 -76 120q-17 10 -41.5 19.5t-42 15.5t-55.5 18.5t-55 18.5q-180 -13 -180 -149z" />
<glyph unicode="&#xa8;" horiz-adv-x="1167" d="M129 1225q0 90 63.5 153.5t155.5 63.5q94 0 157.5 -63.5t63.5 -153.5q0 -89 -63.5 -152t-157.5 -63q-92 0 -155.5 63.5t-63.5 151.5zM647 1225q0 90 62.5 153.5t154.5 63.5t156.5 -63.5t64.5 -153.5q0 -88 -64.5 -151.5t-156.5 -63.5q-91 0 -154 63t-63 152z" />
<glyph unicode="&#xa9;" horiz-adv-x="1662" d="M55 717q0 119 33 230.5t99 206.5t158 166.5t217 112t269 40.5q179 0 328 -62.5t246 -167.5t150 -241t53 -285t-53 -285t-150 -241t-246 -167.5t-328 -62.5q-144 0 -269 40.5t-217 112t-158 166.5t-99 206.5t-33 230.5zM279 717q0 -111 37.5 -211t106 -178t174.5 -124 t234 -46q170 0 298 79.5t191.5 205t63.5 274.5t-63.5 274.5t-191.5 205t-298 79.5q-128 0 -234 -46t-174.5 -124t-106 -178t-37.5 -211zM428 717q0 78 27.5 149t78 126t128 87.5t169.5 32.5q173 0 275.5 -93t120.5 -235h-234q-13 55 -53 89t-106 34q-84 0 -130.5 -55 t-46.5 -135q0 -82 48.5 -136.5t132.5 -54.5q63 0 102.5 30.5t52.5 80.5h236q-21 -137 -123.5 -226t-267.5 -89q-124 0 -219.5 56t-143 145t-47.5 194z" />
<glyph unicode="&#xaa;" d="M63 508q0 238 132 386t342 148q104 0 191.5 -54t119.5 -122v152h401v-1018h-401v152q-32 -68 -120 -123.5t-191 -55.5q-210 0 -342 148t-132 387zM467 508q0 -84 52.5 -142.5t135.5 -58.5q84 0 138.5 58.5t54.5 142.5q0 86 -54 143.5t-139 57.5q-83 0 -135.5 -57.5 t-52.5 -143.5z" />
<glyph unicode="&#xab;" horiz-adv-x="1128" d="M68 500v192l473 377v-332l-197 -141l197 -141v-332zM567 500v192l473 377v-332l-196 -141l196 -141v-332z" />
<glyph unicode="&#xac;" horiz-adv-x="1325" d="M201 641v303h923v-725h-311v422h-612z" />
<glyph unicode="&#xad;" horiz-adv-x="602" d="M61 483v199h480v-199h-480z" />
<glyph unicode="&#xae;" horiz-adv-x="1662" d="M55 717q0 119 33 230.5t99 206.5t158 166.5t217 112t269 40.5q179 0 328 -62.5t246 -167.5t150 -241t53 -285t-53 -285t-150 -241t-246 -167.5t-328 -62.5q-144 0 -269 40.5t-217 112t-158 166.5t-99 206.5t-33 230.5zM279 717q0 -111 37.5 -211t106 -178t174.5 -124 t234 -46q170 0 298 79.5t191.5 205t63.5 274.5t-63.5 274.5t-191.5 205t-298 79.5q-128 0 -234 -46t-174.5 -124t-106 -178t-37.5 -211zM522 348v776h381q129 0 210 -84.5t81 -203.5q0 -80 -38 -146.5t-105 -101.5l153 -240h-270l-133 201h-47v-201h-232zM754 727h100 q43 0 69.5 32t26.5 77q0 44 -26.5 75t-69.5 31h-100v-215z" />
<glyph unicode="&#xaf;" horiz-adv-x="987" d="M106 1409v270h775v-270h-775z" />
<glyph unicode="&#xb0;" horiz-adv-x="741" d="M41 1176q0 138 95.5 233.5t234.5 95.5q138 0 233.5 -95.5t95.5 -233.5q0 -139 -95.5 -234.5t-233.5 -95.5q-139 0 -234.5 95t-95.5 235zM270 1176q0 -43 30 -73t71 -30t70.5 30t29.5 73q0 42 -29.5 73t-70.5 31t-71 -31t-30 -73z" />
<glyph unicode="&#xb1;" horiz-adv-x="1325" d="M100 0v303h922v-303h-922zM100 766v303h306v309h311v-309h305v-303h-305v-309h-311v309h-306z" />
<glyph unicode="&#xb2;" horiz-adv-x="856" d="M111 645q0 126 26.5 210.5t67.5 128t110 83.5q120 73 144 95q35 30 35 65q0 29 -15.5 44t-40.5 15q-67 0 -67 -90h-258q0 38 9.5 73.5t33 69.5t59 59t92 40.5t127.5 15.5q61 0 114.5 -13t98 -40t70.5 -75t26 -112q0 -85 -50 -144.5t-146 -111.5q-99 -55 -117 -73 q-22 -20 -22 -45h331v-195h-628z" />
<glyph unicode="&#xb3;" horiz-adv-x="851" d="M96 911h258q0 -98 72 -98q63 0 63 78q0 76 -77 76h-97v180h95q47 0 64.5 17.5t17.5 52.5q0 37 -15 53t-45 16q-38 0 -50.5 -22t-12.5 -68h-258q0 39 7.5 72.5t29 68.5t55.5 60t93 41t136 16q65 0 118.5 -11.5t98 -37t69.5 -71t25 -107.5q0 -63 -39.5 -113t-89.5 -63 q57 -18 95.5 -70.5t38.5 -124.5q0 -76 -46 -130t-113.5 -77.5t-148.5 -23.5q-344 0 -344 286z" />
<glyph unicode="&#xb4;" horiz-adv-x="927" d="M70 1264l620 243l92 -258l-620 -243z" />
<glyph unicode="&#xb5;" horiz-adv-x="1325" d="M113 -414v1432h403v-526q0 -183 139 -183q154 0 154 211v498h401v-1018h-401v152q-74 -143 -252 -166q-13 0 -41 4v-404h-403z" />
<glyph unicode="&#xb6;" horiz-adv-x="1415" d="M29 1006q0 109 43.5 199t115 146t159 86.5t179.5 30.5h805v-251h-117v-1594h-282v1591h-148v-1591h-280v924q-202 0 -338.5 129.5t-136.5 329.5z" />
<glyph unicode="&#xb7;" horiz-adv-x="634" d="M68 639q0 102 72.5 174t176.5 72t177 -72t73 -174t-73 -174t-177 -72t-176.5 72t-72.5 174z" />
<glyph unicode="&#xb8;" horiz-adv-x="800" d="M170 -258h172q5 -27 21.5 -43t42.5 -16q29 0 47 19.5t18 51.5q0 27 -17.5 45.5t-45.5 18.5q-44 0 -58 -33h-157v262h178v-141q29 37 96 37q76 0 126 -58t50 -131q0 -92 -62 -153.5t-175 -61.5q-96 0 -164 52.5t-72 150.5z" />
<glyph unicode="&#xb9;" horiz-adv-x="641" d="M92 1118v168q119 0 163 36.5t44 111.5h215v-789h-260v473h-162z" />
<glyph unicode="&#xba;" horiz-adv-x="1292" d="M53 508q0 112 40 209.5t113.5 171t186.5 116t252 42.5q138 0 251.5 -42.5t187.5 -116t114.5 -171t40.5 -209.5q0 -110 -40.5 -207.5t-114.5 -171t-187.5 -116t-251.5 -42.5t-251.5 42.5t-187 116t-113.5 171t-40 207.5zM455 508q0 -86 52.5 -143.5t137.5 -57.5 q86 0 138.5 57t52.5 144q0 88 -52.5 144.5t-138.5 56.5q-85 0 -137.5 -57t-52.5 -144z" />
<glyph unicode="&#xbb;" horiz-adv-x="1128" d="M88 123v332l199 141l-199 141v332l473 -377v-192zM588 123v332l198 141l-198 141v332l473 -377v-192z" />
<glyph unicode="&#xbc;" horiz-adv-x="1966" d="M84 1118v168q118 0 161.5 36.5t43.5 111.5h215v-789h-258v473h-162zM354 4l744 1546l252 -118l-742 -1547zM1178 190v598h258v-391h96v193h256v-193h78v-207h-78v-190h-256v190h-354z" />
<glyph unicode="&#xbd;" horiz-adv-x="1966" d="M106 1118v168q118 0 161.5 36.5t43.5 111.5h217v-789h-260v473h-162zM379 4l741 1546l254 -118l-743 -1547zM1194 0q0 96 13.5 165.5t42.5 117.5t63.5 78.5t85.5 60.5q120 73 145 96q33 30 33 64q0 29 -15 44t-40 15q-66 0 -66 -90h-258q0 38 9.5 73.5t33 69.5t59 59 t92 40.5t128.5 15.5q61 0 114.5 -13t98 -40t70.5 -75t26 -112q0 -85 -50 -144.5t-147 -111.5q-101 -55 -120 -73q-21 -21 -21 -45h332v-195h-629z" />
<glyph unicode="&#xbe;" horiz-adv-x="1966" d="M43 911h258q0 -98 72 -98q33 0 49 22t16 56q0 76 -80 76h-96v180h96q45 0 62.5 17.5t17.5 52.5q0 37 -14.5 53t-44.5 16q-38 0 -51 -22t-13 -68h-258q0 49 13.5 90.5t46.5 81.5t100.5 63t163.5 23q65 0 118.5 -11.5t98 -37t69.5 -71t25 -107.5q0 -63 -40 -113t-89 -63 q57 -18 95 -70.5t38 -124.5q0 -76 -45.5 -130t-113.5 -77.5t-150 -23.5q-344 0 -344 286zM408 4l741 1546l254 -118l-744 -1547zM1200 190v598h258v-391h96v193h256v-193h78v-207h-78v-190h-256v190h-354z" />
<glyph unicode="&#xbf;" horiz-adv-x="1173" d="M45 -39q0 40 7.5 77.5t17.5 65.5t28.5 56t32.5 46t37.5 39t36 31t36 27t29.5 21q40 32 60 53t34.5 56t14.5 81h430q0 -132 -43 -211t-156 -147q-72 -44 -110.5 -87.5t-38.5 -109.5q0 -58 34.5 -88.5t92.5 -30.5q61 0 98 43.5t37 136.5h420q0 -71 -17.5 -136.5 t-59.5 -126.5t-104 -105.5t-157.5 -71t-214.5 -26.5q-108 0 -203.5 24t-173 72t-123 128t-45.5 183zM342 805q0 105 73 177.5t181 72.5q104 0 177 -73t73 -177q0 -102 -73 -174t-177 -72q-108 0 -181 72t-73 174z" />
<glyph unicode="&#xc0;" horiz-adv-x="1531" d="M8 0l529 1434h446l541 -1434h-475l-50 166h-481l-49 -166h-461zM418 1731l92 258l620 -244l-92 -258zM608 475h303l-151 529z" />
<glyph unicode="&#xc1;" horiz-adv-x="1531" d="M8 0l529 1434h446l541 -1434h-475l-50 166h-481l-49 -166h-461zM412 1741l620 244l90 -259l-620 -243zM608 475h303l-151 529z" />
<glyph unicode="&#xc2;" horiz-adv-x="1531" d="M8 0l529 1434h446l541 -1434h-475l-50 166h-481l-49 -166h-461zM330 1722l434 357l434 -357l-182 -196l-252 217l-250 -217zM608 475h303l-151 529z" />
<glyph unicode="&#xc3;" horiz-adv-x="1531" d="M8 0l529 1434h446l541 -1434h-475l-50 166h-481l-49 -166h-461zM264 1772q116 151 314 151q69 0 134 -25t117.5 -50t90.5 -25q56 0 93.5 24.5t73.5 73.5l173 -207q-119 -158 -316 -158q-54 0 -107.5 16t-88 34.5t-75.5 34.5t-73 16q-55 0 -91.5 -23.5t-76.5 -74.5z M608 475h303l-151 529z" />
<glyph unicode="&#xc4;" horiz-adv-x="1531" d="M8 0l529 1434h446l541 -1434h-475l-50 166h-481l-49 -166h-461zM281 1739q0 91 64.5 156t156.5 65q93 0 158 -65t65 -156q0 -89 -65 -153t-158 -64q-92 0 -156.5 64.5t-64.5 152.5zM608 475h303l-151 529zM797 1739q0 91 64.5 156t156.5 65q93 0 158 -65t65 -156 q0 -89 -65 -153t-158 -64q-92 0 -156.5 64.5t-64.5 152.5z" />
<glyph unicode="&#xc5;" horiz-adv-x="1531" d="M8 0l529 1434h446l541 -1434h-475l-50 166h-481l-49 -166h-461zM467 1806q0 123 87.5 210t211.5 87t211.5 -87.5t87.5 -209.5q0 -123 -87.5 -211t-211.5 -88t-211.5 88t-87.5 211zM608 475h303l-151 529zM666 1804q0 -37 29.5 -66.5t70.5 -29.5t70.5 29.5t29.5 70.5 q0 42 -29 70.5t-71 28.5t-71 -30.5t-29 -72.5z" />
<glyph unicode="&#xc6;" horiz-adv-x="1953" d="M2 0l676 1434h1163v-320h-498v-250h498v-305h-498v-240h498v-319h-923v166h-381l-72 -166h-463zM664 475h254v586z" />
<glyph unicode="&#xc7;" horiz-adv-x="1640" d="M53 717q0 119 33.5 231t99.5 207t158 166t216 111.5t265 40.5q169 0 308 -49.5t232.5 -135.5t150 -199t71.5 -245h-446q-20 108 -97.5 174.5t-205.5 66.5q-164 0 -256.5 -106.5t-92.5 -261.5q0 -159 97.5 -264t259.5 -105q115 0 194.5 61.5t100.5 155.5h450 q-16 -117 -68.5 -220t-136 -183.5t-202.5 -132.5t-260 -64v-74q33 37 100 37q76 0 124 -56.5t48 -129.5q0 -89 -63 -150t-175 -61q-94 0 -162.5 53.5t-72.5 147.5h172q5 -26 21.5 -42t41.5 -16q29 0 47.5 19.5t18.5 48.5q0 26 -17.5 44.5t-43.5 18.5q-45 0 -60 -30h-158v190 q-160 14 -292 81t-218.5 169.5t-134 232t-47.5 269.5z" />
<glyph unicode="&#xc8;" horiz-adv-x="1159" d="M125 0v1434h924v-320h-498v-250h498v-305h-498v-240h498v-319h-924zM242 1729l92 258l620 -244l-92 -258z" />
<glyph unicode="&#xc9;" horiz-adv-x="1159" d="M125 0v1434h924v-320h-498v-250h498v-305h-498v-240h498v-319h-924zM231 1755l621 244l92 -258l-620 -244z" />
<glyph unicode="&#xca;" horiz-adv-x="1159" d="M125 0v1434h924v-320h-498v-250h498v-305h-498v-240h498v-319h-924zM156 1722l434 357l434 -357l-182 -196l-252 217l-252 -217z" />
<glyph unicode="&#xcb;" horiz-adv-x="1159" d="M117 1739q0 91 64.5 156t156.5 65q93 0 158 -65t65 -156q0 -89 -65 -153t-158 -64q-92 0 -156.5 64.5t-64.5 152.5zM125 0v1434h924v-320h-498v-250h498v-305h-498v-240h498v-319h-924zM633 1739q0 91 64.5 156t156.5 65q93 0 158 -65t65 -156q0 -89 -65 -153t-158 -64 q-92 0 -156.5 64.5t-64.5 152.5z" />
<glyph unicode="&#xcc;" horiz-adv-x="679" d="M-16 1729l92 258l620 -244l-92 -258zM125 0v1434h430v-1434h-430z" />
<glyph unicode="&#xcd;" horiz-adv-x="679" d="M-16 1741l620 244l92 -259l-620 -243zM125 0v1434h430v-1434h-430z" />
<glyph unicode="&#xce;" horiz-adv-x="679" d="M-92 1722l434 357l434 -357l-182 -196l-252 217l-252 -217zM125 0v1434h430v-1434h-430z" />
<glyph unicode="&#xcf;" horiz-adv-x="679" d="M-125 1739q0 91 64.5 156t156.5 65q93 0 158 -65t65 -156q0 -89 -65 -153t-158 -64q-92 0 -156.5 64.5t-64.5 152.5zM125 0v1434h430v-1434h-430zM391 1739q0 91 64.5 156t156.5 65q93 0 158.5 -65t65.5 -156q0 -88 -65.5 -152.5t-158.5 -64.5q-92 0 -156.5 64.5 t-64.5 152.5z" />
<glyph unicode="&#xd0;" horiz-adv-x="1513" d="M-45 618v195h170v621h586q173 0 316.5 -59.5t237 -159.5t144.5 -228.5t51 -269.5t-51 -269.5t-144 -228.5t-237 -159.5t-317 -59.5h-586v618h-170zM551 360h129q155 0 249.5 105.5t94.5 251.5t-94.5 251t-249.5 105h-129v-260h178v-195h-178v-258z" />
<glyph unicode="&#xd1;" horiz-adv-x="1579" d="M125 0v1434h434l467 -850v850h428v-1434h-434l-469 821v-821h-426zM272 1772q116 151 314 151q69 0 134 -25t117.5 -50t90.5 -25q56 0 94 24.5t74 73.5l172 -207q-119 -158 -316 -158q-54 0 -107.5 16t-88 34.5t-75.5 34.5t-73 16q-55 0 -91.5 -23.5t-76.5 -74.5z" />
<glyph unicode="&#xd2;" horiz-adv-x="1660" d="M53 717q0 119 33 230.5t99 206.5t158 166.5t217 112t269 40.5t270 -40.5t218 -112t158.5 -166.5t99.5 -206.5t33 -230.5t-33 -230.5t-99.5 -206.5t-158.5 -166.5t-218 -112t-270 -40.5t-269 40.5t-217 112t-158 166.5t-99 206.5t-33 230.5zM461 1741l92 258l621 -244 l-93 -258zM483 717q0 -97 40 -179.5t120.5 -135t185.5 -52.5t186 52.5t121 135t40 179.5t-40 179t-120.5 134.5t-186.5 52.5t-186 -52.5t-120 -134.5t-40 -179z" />
<glyph unicode="&#xd3;" horiz-adv-x="1660" d="M53 717q0 119 33 230.5t99 206.5t158 166.5t217 112t269 40.5t270 -40.5t218 -112t158.5 -166.5t99.5 -206.5t33 -230.5t-33 -230.5t-99.5 -206.5t-158.5 -166.5t-218 -112t-270 -40.5t-269 40.5t-217 112t-158 166.5t-99 206.5t-33 230.5zM483 717q0 -97 40 -179.5 t120.5 -135t185.5 -52.5t186 52.5t121 135t40 179.5t-40 179t-120.5 134.5t-186.5 52.5t-186 -52.5t-120 -134.5t-40 -179zM483 1755l621 244l92 -258l-621 -244z" />
<glyph unicode="&#xd4;" horiz-adv-x="1660" d="M53 717q0 119 33 230.5t99 206.5t158 166.5t217 112t269 40.5t270 -40.5t218 -112t158.5 -166.5t99.5 -206.5t33 -230.5t-33 -230.5t-99.5 -206.5t-158.5 -166.5t-218 -112t-270 -40.5t-269 40.5t-217 112t-158 166.5t-99 206.5t-33 230.5zM397 1722l434 357l435 -357 l-183 -196l-252 217l-249 -217zM483 717q0 -97 40 -179.5t120.5 -135t185.5 -52.5t186 52.5t121 135t40 179.5t-40 179t-120.5 134.5t-186.5 52.5t-186 -52.5t-120 -134.5t-40 -179z" />
<glyph unicode="&#xd5;" horiz-adv-x="1660" d="M53 717q0 119 33 230.5t99 206.5t158 166.5t217 112t269 40.5t270 -40.5t218 -112t158.5 -166.5t99.5 -206.5t33 -230.5t-33 -230.5t-99.5 -206.5t-158.5 -166.5t-218 -112t-270 -40.5t-269 40.5t-217 112t-158 166.5t-99 206.5t-33 230.5zM330 1772q116 151 313 151 q69 0 134 -25t117.5 -50t90.5 -25q56 0 94 24.5t74 73.5l172 -207q-119 -158 -315 -158q-54 0 -107.5 16t-88 34.5t-75.5 34.5t-73 16q-55 0 -91.5 -23.5t-76.5 -74.5zM483 717q0 -97 40 -179.5t120.5 -135t185.5 -52.5t186 52.5t121 135t40 179.5t-40 179t-120.5 134.5 t-186.5 52.5t-186 -52.5t-120 -134.5t-40 -179z" />
<glyph unicode="&#xd6;" horiz-adv-x="1660" d="M53 717q0 119 33 230.5t99 206.5t158 166.5t217 112t269 40.5t270 -40.5t218 -112t158.5 -166.5t99.5 -206.5t33 -230.5t-33 -230.5t-99.5 -206.5t-158.5 -166.5t-218 -112t-270 -40.5t-269 40.5t-217 112t-158 166.5t-99 206.5t-33 230.5zM342 1745q0 91 64.5 156 t156.5 65q93 0 159 -65t66 -156q0 -88 -66 -152.5t-159 -64.5q-92 0 -156.5 64.5t-64.5 152.5zM483 717q0 -97 40 -179.5t120.5 -135t185.5 -52.5t186 52.5t121 135t40 179.5t-40 179t-120.5 134.5t-186.5 52.5t-186 -52.5t-120 -134.5t-40 -179zM858 1745q0 91 64.5 156 t156.5 65q93 0 158.5 -65t65.5 -156q0 -88 -65.5 -152.5t-158.5 -64.5q-92 0 -156.5 64.5t-64.5 152.5z" />
<glyph unicode="&#xd7;" horiz-adv-x="1325" d="M225 365l219 221l-215 217l213 213l217 -217l220 219l219 -219l-219 -219l215 -218l-213 -212l-215 217l-222 -222z" />
<glyph unicode="&#xd8;" horiz-adv-x="1660" d="M53 717q0 119 33 230.5t99 206.5t158 166.5t217 112t269 40.5q111 0 209 -25l76 168l176 -80l-69 -156q183 -98 285 -276t102 -387q0 -119 -33 -230.5t-99.5 -206.5t-158.5 -166.5t-218 -112t-270 -40.5q-111 0 -227 29l-80 -183l-178 82l76 172q-173 96 -270 274 t-97 382zM483 717q0 -80 28 -151.5t81 -121.5l280 635q-28 4 -43 4q-106 0 -186 -52.5t-120 -134.5t-40 -179zM766 356q14 -6 63 -6q105 0 186 52.5t121 135t40 179.5q0 85 -32.5 160.5t-92.5 126.5z" />
<glyph unicode="&#xd9;" horiz-adv-x="1378" d="M90 498v936h426v-932q0 -74 49.5 -127t122.5 -53q76 0 125 52.5t49 127.5v932h426v-936q0 -238 -162 -387.5t-438 -149.5q-274 0 -436 150t-162 387zM342 1741l92 258l621 -244l-92 -258z" />
<glyph unicode="&#xda;" horiz-adv-x="1378" d="M90 498v936h426v-932q0 -74 49.5 -127t122.5 -53q76 0 125 52.5t49 127.5v932h426v-936q0 -238 -162 -387.5t-438 -149.5q-274 0 -436 150t-162 387zM315 1755l621 244l92 -258l-620 -244z" />
<glyph unicode="&#xdb;" horiz-adv-x="1378" d="M90 498v936h426v-932q0 -74 49.5 -127t122.5 -53q76 0 125 52.5t49 127.5v932h426v-936q0 -238 -162 -387.5t-438 -149.5q-274 0 -436 150t-162 387zM254 1722l432 357l436 -357l-182 -196l-252 217l-252 -217z" />
<glyph unicode="&#xdc;" horiz-adv-x="1378" d="M90 498v936h426v-932q0 -74 49.5 -127t122.5 -53q76 0 125 52.5t49 127.5v932h426v-936q0 -238 -162 -387.5t-438 -149.5q-274 0 -436 150t-162 387zM201 1737q0 91 64.5 156t156.5 65q93 0 159 -65t66 -156q0 -88 -66 -152.5t-159 -64.5q-92 0 -156.5 64.5t-64.5 152.5z M717 1737q0 91 64.5 156t156.5 65q93 0 158 -65t65 -156q0 -89 -65 -153t-158 -64q-92 0 -156.5 64.5t-64.5 152.5z" />
<glyph unicode="&#xdd;" horiz-adv-x="1390" d="M-6 1434h500l231 -510l217 510h475l-710 -1434h-480l248 506zM420 1747l620 244l93 -260l-621 -244z" />
<glyph unicode="&#xde;" horiz-adv-x="1179" d="M111 0v1434h399v-203h53q140 0 252.5 -41.5t184.5 -113.5t110.5 -166.5t38.5 -202.5q0 -107 -38.5 -200.5t-110.5 -166t-184.5 -114.5t-252.5 -42h-53v-184h-399zM510 516h53q85 0 137 55t52 136q0 80 -52 135t-137 55h-53v-381z" />
<glyph unicode="&#xdf;" horiz-adv-x="1271" d="M84 0v1004q0 71 14.5 133.5t54 125t100.5 106.5t161.5 71.5t230.5 27.5q88 0 166 -13.5t148.5 -44.5t121.5 -77t81 -116t30 -156q0 -117 -70.5 -206t-163.5 -116q102 -29 174 -126.5t72 -227.5q0 -196 -116.5 -305t-321.5 -109q-127 0 -219 29v293q43 -14 90 -14 q66 0 104.5 44.5t38.5 118.5q0 66 -39 111t-108 45h-39v303h37q75 0 110 38t35 105q0 70 -36.5 106t-98.5 36q-135 0 -135 -182v-1004h-422z" />
<glyph unicode="&#xe0;" d="M63 508q0 238 132 386t342 148q104 0 191.5 -54t119.5 -122v152h401v-1018h-401v152q-32 -68 -120 -123.5t-191 -55.5q-210 0 -342 148t-132 387zM223 1315l92 258l621 -244l-92 -258zM467 508q0 -84 52.5 -142.5t135.5 -58.5q84 0 138.5 58.5t54.5 142.5q0 86 -54 143.5 t-139 57.5q-83 0 -135.5 -57.5t-52.5 -143.5z" />
<glyph unicode="&#xe1;" d="M63 508q0 238 132 386t342 148q104 0 191.5 -54t119.5 -122v152h401v-1018h-401v152q-32 -68 -120 -123.5t-191 -55.5q-210 0 -342 148t-132 387zM225 1329l621 244l90 -258l-621 -244zM467 508q0 -84 52.5 -142.5t135.5 -58.5q84 0 138.5 58.5t54.5 142.5 q0 86 -54 143.5t-139 57.5q-83 0 -135.5 -57.5t-52.5 -143.5z" />
<glyph unicode="&#xe2;" d="M63 508q0 238 132 386t342 148q104 0 191.5 -54t119.5 -122v152h401v-1018h-401v152q-32 -68 -120 -123.5t-191 -55.5q-210 0 -342 148t-132 387zM270 1311l435 356l434 -356l-183 -197l-251 217l-252 -217zM467 508q0 -84 52.5 -142.5t135.5 -58.5q84 0 138.5 58.5 t54.5 142.5q0 86 -54 143.5t-139 57.5q-83 0 -135.5 -57.5t-52.5 -143.5z" />
<glyph unicode="&#xe3;" d="M63 508q0 238 132 386t342 148q104 0 191.5 -54t119.5 -122v152h401v-1018h-401v152q-32 -68 -120 -123.5t-191 -55.5q-210 0 -342 148t-132 387zM211 1386q117 152 311 152q69 0 134 -25.5t117.5 -51t90.5 -25.5q55 0 92 24t78 74l170 -205q-116 -158 -315 -158 q-68 0 -133.5 25.5t-118.5 50.5t-92 25q-56 0 -93 -24.5t-73 -73.5zM467 508q0 -84 52.5 -142.5t135.5 -58.5q84 0 138.5 58.5t54.5 142.5q0 86 -54 143.5t-139 57.5q-83 0 -135.5 -57.5t-52.5 -143.5z" />
<glyph unicode="&#xe4;" d="M63 508q0 238 132 386t342 148q104 0 191.5 -54t119.5 -122v152h401v-1018h-401v152q-32 -68 -120 -123.5t-191 -55.5q-210 0 -342 148t-132 387zM170 1321q0 91 64.5 156t156.5 65q93 0 159 -65t66 -156q0 -88 -66 -152.5t-159 -64.5q-92 0 -156.5 64.5t-64.5 152.5z M467 508q0 -84 52.5 -142.5t135.5 -58.5q84 0 138.5 58.5t54.5 142.5q0 86 -54 143.5t-139 57.5q-83 0 -135.5 -57.5t-52.5 -143.5zM686 1321q0 91 64.5 156t156.5 65q93 0 158 -65t65 -156q0 -89 -65 -153t-158 -64q-92 0 -156.5 64.5t-64.5 152.5z" />
<glyph unicode="&#xe5;" d="M63 508q0 238 132 386t342 148q104 0 191.5 -54t119.5 -122v152h401v-1018h-401v152q-32 -68 -120 -123.5t-191 -55.5q-210 0 -342 148t-132 387zM383 1423q0 127 87.5 215t213.5 88t214.5 -89.5t88.5 -213.5t-88 -212.5t-215 -88.5q-125 0 -213 88.5t-88 212.5zM467 508 q0 -84 52.5 -142.5t135.5 -58.5q84 0 138.5 58.5t54.5 142.5q0 86 -54 143.5t-139 57.5q-83 0 -135.5 -57.5t-52.5 -143.5zM573 1421q0 -42 33.5 -75t77.5 -33q47 0 80 33.5t33 78.5q0 47 -33 80t-80 33t-79 -34.5t-32 -82.5z" />
<glyph unicode="&#xe6;" horiz-adv-x="2066" d="M63 508q0 238 132 386t342 148q104 0 191.5 -54t119.5 -122v152h340v-12q109 41 239 41q134 0 244.5 -40t181.5 -106.5t109.5 -150.5t38.5 -175q0 -80 -12 -151h-738q0 -82 42.5 -135t140.5 -53q65 0 106.5 28t54.5 74h390q-26 -163 -170.5 -265t-378.5 -102 q-134 0 -246 41v-12h-342v152q-32 -68 -120 -123.5t-191 -55.5q-210 0 -342 148t-132 387zM467 508q0 -84 52.5 -142.5t135.5 -58.5q84 0 138.5 58.5t54.5 142.5q0 87 -54 144t-139 57q-83 0 -135.5 -57.5t-52.5 -143.5zM1251 618h351q0 79 -48 126t-127 47 q-80 0 -127.5 -44.5t-48.5 -128.5z" />
<glyph unicode="&#xe7;" horiz-adv-x="1263" d="M55 508q0 110 38 207t109 171.5t183 117.5t252 43q132 0 237.5 -36t173.5 -99.5t108 -143.5t50 -174h-401q-24 121 -164 121q-89 0 -136.5 -60.5t-47.5 -146.5q0 -88 48 -146.5t142 -58.5q119 0 156 109h403q-21 -184 -154 -303t-360 -136v-73q29 37 99 37q76 0 125 -57 t49 -130q0 -89 -63 -150t-175 -61q-95 0 -164.5 53.5t-73.5 147.5h173q5 -25 22 -41t43 -16q29 0 46.5 18.5t17.5 48.5q0 27 -17 45.5t-45 18.5q-41 0 -57 -31h-158v199q-219 36 -339 181.5t-120 344.5z" />
<glyph unicode="&#xe8;" horiz-adv-x="1275" d="M55 508q0 112 37.5 209t108.5 171t183.5 116.5t252.5 42.5q134 0 244.5 -40t181 -106.5t109 -150.5t38.5 -175q0 -80 -12 -151h-741q12 -188 186 -188q65 0 107.5 28t54.5 74h389q-26 -162 -172 -264.5t-377 -102.5q-275 0 -432.5 145.5t-157.5 391.5zM311 1315l92 258 l621 -244l-92 -258zM457 618h352q0 84 -47 131.5t-127 47.5t-129 -47.5t-49 -131.5z" />
<glyph unicode="&#xe9;" horiz-adv-x="1275" d="M55 508q0 112 37.5 209t108.5 171t183.5 116.5t252.5 42.5q134 0 244.5 -40t181 -106.5t109 -150.5t38.5 -175q0 -80 -12 -151h-741q12 -188 186 -188q65 0 107.5 28t54.5 74h389q-26 -162 -172 -264.5t-377 -102.5q-275 0 -432.5 145.5t-157.5 391.5zM262 1329l621 244 l92 -258l-621 -244zM457 618h352q0 84 -47 131.5t-127 47.5t-129 -47.5t-49 -131.5z" />
<glyph unicode="&#xea;" horiz-adv-x="1275" d="M55 508q0 112 37.5 209t108.5 171t183.5 116.5t252.5 42.5q134 0 244.5 -40t181 -106.5t109 -150.5t38.5 -175q0 -80 -12 -151h-741q12 -188 186 -188q65 0 107.5 28t54.5 74h389q-26 -162 -172 -264.5t-377 -102.5q-275 0 -432.5 145.5t-157.5 391.5zM211 1311l434 356 l434 -356l-182 -197l-252 217l-250 -217zM457 618h352q0 84 -47 131.5t-127 47.5t-129 -47.5t-49 -131.5z" />
<glyph unicode="&#xeb;" horiz-adv-x="1275" d="M55 508q0 112 37.5 209t108.5 171t183.5 116.5t252.5 42.5q134 0 244.5 -40t181 -106.5t109 -150.5t38.5 -175q0 -80 -12 -151h-741q12 -188 186 -188q65 0 107.5 28t54.5 74h389q-26 -162 -172 -264.5t-377 -102.5q-275 0 -432.5 145.5t-157.5 391.5zM147 1321 q0 91 65 156t157 65q96 0 160.5 -64.5t64.5 -156.5q0 -89 -65 -153t-160 -64q-92 0 -157 64.5t-65 152.5zM457 618h352q0 84 -47 131.5t-127 47.5t-129 -47.5t-49 -131.5zM666 1321q0 92 63.5 156.5t157.5 64.5q93 0 158 -65t65 -156q0 -89 -65 -153t-158 -64 q-94 0 -157.5 64t-63.5 153z" />
<glyph unicode="&#xec;" horiz-adv-x="638" d="M-37 1329l92 258l621 -244l-92 -258zM119 0v1018h401v-1018h-401z" />
<glyph unicode="&#xed;" horiz-adv-x="638" d="M-37 1343l621 244l92 -258l-621 -244zM119 0v1018h401v-1018h-401z" />
<glyph unicode="&#xee;" horiz-adv-x="638" d="M-113 1311l432 356l437 -356l-183 -197l-251 217l-252 -217zM119 0v1018h401v-1018h-401z" />
<glyph unicode="&#xef;" horiz-adv-x="638" d="M-145 1321q0 91 64.5 156t156.5 65q93 0 158 -65t65 -156q0 -89 -65 -153t-158 -64q-92 0 -156.5 64.5t-64.5 152.5zM119 0v1018h401v-1018h-401zM344 1321q0 92 63.5 156.5t157.5 64.5q93 0 158 -65t65 -156q0 -89 -65 -153t-158 -64q-94 0 -157.5 64t-63.5 153z" />
<glyph unicode="&#xf0;" horiz-adv-x="1284" d="M45 502q0 204 124.5 349t342.5 177h6l-55 86l-199 -80l-67 174l157 66l-151 229h473l59 -90l170 68l66 -174l-127 -56l301 -450q86 -130 86 -299q0 -110 -40.5 -207.5t-114.5 -171t-187.5 -116t-251.5 -42.5t-251.5 42.5t-187 116t-113.5 171t-40 207.5zM446 502 q0 -87 53 -144t138 -57q86 0 138 56.5t52 144.5t-52 144t-138 56q-85 0 -138 -56.5t-53 -143.5z" />
<glyph unicode="&#xf1;" horiz-adv-x="1323" d="M119 0v1018h401v-150q42 81 129 127.5t207 46.5q177 0 266 -96q54 -56 73 -137t19 -207v-602h-401v516q0 97 -32 145t-107 48q-154 0 -154 -211v-498h-401zM170 1386q117 152 311 152q69 0 134 -25.5t117.5 -51t90.5 -25.5q55 0 92 24t78 74l170 -205 q-116 -158 -315 -158q-68 0 -133.5 25.5t-118.5 50.5t-92 25q-56 0 -93 -24.5t-73 -73.5z" />
<glyph unicode="&#xf2;" horiz-adv-x="1292" d="M53 508q0 112 40 209.5t113.5 171t186.5 116t252 42.5q138 0 251.5 -42.5t187.5 -116t114.5 -171t40.5 -209.5q0 -110 -40.5 -207.5t-114.5 -171t-187.5 -116t-251.5 -42.5t-251.5 42.5t-187 116t-113.5 171t-40 207.5zM309 1315l92 258l621 -244l-92 -258zM455 508 q0 -86 52.5 -143.5t137.5 -57.5q86 0 138.5 57t52.5 144q0 88 -52.5 144.5t-138.5 56.5q-85 0 -137.5 -57t-52.5 -144z" />
<glyph unicode="&#xf3;" horiz-adv-x="1292" d="M53 508q0 112 40 209.5t113.5 171t186.5 116t252 42.5q138 0 251.5 -42.5t187.5 -116t114.5 -171t40.5 -209.5q0 -110 -40.5 -207.5t-114.5 -171t-187.5 -116t-251.5 -42.5t-251.5 42.5t-187 116t-113.5 171t-40 207.5zM256 1329l621 244l90 -258l-621 -244zM455 508 q0 -86 52.5 -143.5t137.5 -57.5q86 0 138.5 57t52.5 144q0 88 -52.5 144.5t-138.5 56.5q-85 0 -137.5 -57t-52.5 -144z" />
<glyph unicode="&#xf4;" horiz-adv-x="1292" d="M53 508q0 112 40 209.5t113.5 171t186.5 116t252 42.5q138 0 251.5 -42.5t187.5 -116t114.5 -171t40.5 -209.5q0 -110 -40.5 -207.5t-114.5 -171t-187.5 -116t-251.5 -42.5t-251.5 42.5t-187 116t-113.5 171t-40 207.5zM211 1311l434 356l434 -356l-182 -197l-252 217 l-252 -217zM455 508q0 -86 52.5 -143.5t137.5 -57.5q86 0 138.5 57t52.5 144q0 88 -52.5 144.5t-138.5 56.5q-85 0 -137.5 -57t-52.5 -144z" />
<glyph unicode="&#xf5;" horiz-adv-x="1292" d="M53 508q0 112 40 209.5t113.5 171t186.5 116t252 42.5q138 0 251.5 -42.5t187.5 -116t114.5 -171t40.5 -209.5q0 -110 -40.5 -207.5t-114.5 -171t-187.5 -116t-251.5 -42.5t-251.5 42.5t-187 116t-113.5 171t-40 207.5zM152 1386q117 152 311 152q54 0 107.5 -16t88 -35 t75.5 -35t73 -16q56 0 93.5 25t74.5 73l170 -205q-116 -158 -314 -158q-68 0 -133.5 25.5t-118.5 50.5t-92 25q-55 0 -91.5 -23.5t-76.5 -74.5zM455 508q0 -86 52.5 -143.5t137.5 -57.5q86 0 138.5 57t52.5 144q0 88 -52.5 144.5t-138.5 56.5q-85 0 -137.5 -57t-52.5 -144z " />
<glyph unicode="&#xf6;" horiz-adv-x="1292" d="M53 508q0 112 40 209.5t113.5 171t186.5 116t252 42.5q138 0 251.5 -42.5t187.5 -116t114.5 -171t40.5 -209.5q0 -110 -40.5 -207.5t-114.5 -171t-187.5 -116t-251.5 -42.5t-251.5 42.5t-187 116t-113.5 171t-40 207.5zM158 1321q0 91 64.5 156t156.5 65q93 0 159 -65 t66 -156q0 -88 -66 -152.5t-159 -64.5q-92 0 -156.5 64.5t-64.5 152.5zM455 508q0 -86 52.5 -143.5t137.5 -57.5q86 0 138.5 57t52.5 144q0 88 -52.5 144.5t-138.5 56.5q-85 0 -137.5 -57t-52.5 -144zM674 1321q0 91 64.5 156t156.5 65q93 0 158 -65t65 -156q0 -89 -65 -153 t-158 -64q-92 0 -156.5 64.5t-64.5 152.5z" />
<glyph unicode="&#xf7;" horiz-adv-x="1325" d="M201 397v303h923v-303h-923zM440 139q0 90 63 153.5t156 63.5q94 0 158 -63.5t64 -153.5q0 -91 -63.5 -155t-158.5 -64q-93 0 -156 64t-63 155zM440 965q0 90 63 153.5t156 63.5q94 0 158 -63.5t64 -153.5q0 -92 -64 -156t-158 -64q-93 0 -156 64t-63 156z" />
<glyph unicode="&#xf8;" horiz-adv-x="1292" d="M53 508q0 112 40 209.5t113.5 171t186.5 116t252 42.5q75 0 162 -17l63 141l113 -49l-59 -129q151 -65 233 -194t82 -291q0 -110 -40.5 -207.5t-114.5 -171t-187.5 -116t-251.5 -42.5q-89 0 -170 19l-61 -137l-111 49l55 127q-147 66 -226 193.5t-79 285.5zM455 508 q0 -87 53 -146l154 347h-17q-85 0 -137.5 -57t-52.5 -144zM618 309q6 -2 27 -2q86 0 138.5 57t52.5 144q0 92 -62 151z" />
<glyph unicode="&#xf9;" horiz-adv-x="1323" d="M106 416v602h404v-516q0 -97 32 -145t107 -48q154 0 154 211v498h401v-1018h-401v152q-42 -83 -128.5 -130t-207.5 -47q-86 0 -155 26t-111 71q-54 57 -74.5 138.5t-20.5 205.5zM324 1315l92 258l620 -244l-92 -258z" />
<glyph unicode="&#xfa;" horiz-adv-x="1323" d="M106 416v602h404v-516q0 -97 32 -145t107 -48q154 0 154 211v498h401v-1018h-401v152q-42 -83 -128.5 -130t-207.5 -47q-86 0 -155 26t-111 71q-54 57 -74.5 138.5t-20.5 205.5zM319 1329l621 244l92 -258l-620 -244z" />
<glyph unicode="&#xfb;" horiz-adv-x="1323" d="M106 416v602h404v-516q0 -97 32 -145t107 -48q154 0 154 211v498h401v-1018h-401v152q-42 -83 -128.5 -130t-207.5 -47q-86 0 -155 26t-111 71q-54 57 -74.5 138.5t-20.5 205.5zM233 1311l435 356l434 -356l-182 -197l-252 217l-252 -217z" />
<glyph unicode="&#xfc;" horiz-adv-x="1323" d="M106 416v602h404v-516q0 -97 32 -145t107 -48q154 0 154 211v498h401v-1018h-401v152q-42 -83 -128.5 -130t-207.5 -47q-86 0 -155 26t-111 71q-54 57 -74.5 138.5t-20.5 205.5zM164 1321q0 91 64.5 156t156.5 65q93 0 158 -65t65 -156q0 -89 -65 -153t-158 -64 q-92 0 -156.5 64.5t-64.5 152.5zM680 1321q0 91 64.5 156t156.5 65q93 0 158 -65t65 -156q0 -89 -65 -153t-158 -64q-92 0 -156.5 64.5t-64.5 152.5z" />
<glyph unicode="&#xfd;" horiz-adv-x="1335" d="M106 -45h404q5 -64 45.5 -100.5t108.5 -36.5q80 0 117.5 41t37.5 137v184q-42 -82 -123.5 -127t-195.5 -45q-92 0 -165.5 30t-117.5 77q-54 57 -74 132.5t-20 198.5v572h403v-516q0 -96 32.5 -144.5t107.5 -48.5q153 0 153 211v498h402v-979q0 -124 -41.5 -220.5 t-112.5 -152.5q-75 -58 -166.5 -83t-241.5 -25q-146 0 -242.5 23t-166.5 79q-141 117 -144 295zM309 1329l621 244l90 -258l-621 -244z" />
<glyph unicode="&#xfe;" horiz-adv-x="1359" d="M125 -416v1850h401v-568q32 68 120 122t192 54q210 0 341.5 -147.5t131.5 -386.5t-131.5 -387t-341.5 -148q-103 0 -191.5 55.5t-120.5 123.5v-568h-401zM526 508q0 -84 54.5 -142.5t138.5 -58.5q83 0 135.5 58.5t52.5 142.5q0 86 -52.5 143.5t-135.5 57.5 q-85 0 -139 -57.5t-54 -143.5z" />
<glyph unicode="&#xff;" horiz-adv-x="1335" d="M106 -45h404q5 -64 45.5 -100.5t108.5 -36.5q80 0 117.5 41t37.5 137v184q-42 -82 -123.5 -127t-195.5 -45q-92 0 -165.5 30t-117.5 77q-54 57 -74 132.5t-20 198.5v572h403v-516q0 -96 32.5 -144.5t107.5 -48.5q153 0 153 211v498h402v-979q0 -124 -41.5 -220.5 t-112.5 -152.5q-75 -58 -166.5 -83t-241.5 -25q-146 0 -242.5 23t-166.5 79q-141 117 -144 295zM193 1321q0 91 63.5 155t155.5 64t156.5 -64t64.5 -155q0 -87 -64.5 -150t-156.5 -63q-91 0 -155 63t-64 150zM709 1321q0 91 63 155t156 64q92 0 156.5 -64t64.5 -155 q0 -87 -64.5 -150t-156.5 -63q-93 0 -156 63t-63 150z" />
<glyph unicode="&#x100;" horiz-adv-x="1531" d="M8 0l529 1434h446l541 -1434h-475l-50 166h-481l-49 -166h-461zM375 1608v270h774v-270h-774zM608 475h303l-151 529z" />
<glyph unicode="&#x101;" d="M63 508q0 238 132 386t342 148q104 0 191.5 -54t119.5 -122v152h401v-1018h-401v152q-32 -68 -120 -123.5t-191 -55.5q-210 0 -342 148t-132 387zM303 1186v272h774v-272h-774zM467 508q0 -84 52.5 -142.5t135.5 -58.5q84 0 138.5 58.5t54.5 142.5q0 86 -54 143.5 t-139 57.5q-83 0 -135.5 -57.5t-52.5 -143.5z" />
<glyph unicode="&#x102;" horiz-adv-x="1531" d="M8 0l529 1434h446l541 -1434h-475l-50 166h-481l-49 -166h-461zM291 1937h295q15 -65 57.5 -105t116.5 -40q134 0 176 145h293q-24 -183 -154.5 -284t-314.5 -101q-185 0 -312.5 100.5t-156.5 284.5zM608 475h303l-151 529z" />
<glyph unicode="&#x103;" d="M63 508q0 238 132 386t342 148q104 0 191.5 -54t119.5 -122v152h401v-1018h-401v152q-32 -68 -120 -123.5t-191 -55.5q-210 0 -342 148t-132 387zM223 1532h293q42 -146 176 -146q73 0 116 40.5t58 105.5h295q-19 -123 -86 -211t-165 -131t-218 -43q-184 0 -314.5 101 t-154.5 284zM467 508q0 -84 52.5 -142.5t135.5 -58.5q84 0 138.5 58.5t54.5 142.5q0 86 -54 143.5t-139 57.5q-83 0 -135.5 -57.5t-52.5 -143.5z" />
<glyph unicode="&#x104;" horiz-adv-x="1531" d="M8 0l529 1434h446l541 -1434h-244q-31 -22 -43 -31.5t-33.5 -31t-30 -45t-8.5 -52.5q0 -45 26 -76.5t69 -31.5q55 0 114 24l-8 -159q-85 -31 -203 -31q-139 0 -208.5 55t-69.5 143q0 65 40 121.5t124 114.5l-50 166h-481l-49 -166h-461zM608 475h303l-151 529z" />
<glyph unicode="&#x105;" d="M63 508q0 238 132 386t342 148q104 0 191.5 -54t119.5 -122v152h401v-1018h-168q-28 -19 -44 -32t-36.5 -34t-30 -46t-9.5 -54q0 -43 24.5 -72.5t65.5 -29.5q55 0 114 24l-8 -159q-85 -31 -203 -31q-141 0 -211.5 55.5t-70.5 142.5q0 66 42.5 122t133.5 118v148 q-32 -68 -120 -123.5t-191 -55.5q-210 0 -342 148t-132 387zM467 508q0 -84 52.5 -142.5t135.5 -58.5q84 0 138.5 58.5t54.5 142.5q0 86 -54 143.5t-139 57.5q-83 0 -135.5 -57.5t-52.5 -143.5z" />
<glyph unicode="&#x106;" horiz-adv-x="1640" d="M53 717q0 119 33.5 231t99.5 207t158 166t216 111.5t265 40.5q169 0 308 -49.5t232.5 -135.5t150 -199t71.5 -245h-446q-20 108 -97.5 174.5t-205.5 66.5q-164 0 -256.5 -106.5t-92.5 -261.5q0 -159 97.5 -264t259.5 -105q115 0 194.5 61.5t100.5 155.5h450 q-19 -125 -77 -233.5t-151 -192t-228.5 -131t-296.5 -47.5q-180 0 -330 61.5t-248.5 166t-152.5 241t-54 287.5zM463 1755l620 244l93 -260l-621 -244z" />
<glyph unicode="&#x107;" horiz-adv-x="1263" d="M55 508q0 110 38 207t109 171.5t183 117.5t252 43q132 0 237.5 -36t173.5 -99.5t108 -143.5t50 -174h-401q-24 121 -164 121q-89 0 -136.5 -60.5t-47.5 -146.5q0 -88 48 -146.5t142 -58.5q119 0 156 109h403q-21 -194 -169.5 -317.5t-397.5 -123.5q-140 0 -253 43 t-184 117.5t-109 170.5t-38 206zM274 1329l621 244l92 -258l-620 -244z" />
<glyph unicode="&#x108;" horiz-adv-x="1640" d="M53 717q0 119 33.5 231t99.5 207t158 166t216 111.5t265 40.5q169 0 308 -49.5t232.5 -135.5t150 -199t71.5 -245h-446q-20 108 -97.5 174.5t-205.5 66.5q-164 0 -256.5 -106.5t-92.5 -261.5q0 -159 97.5 -264t259.5 -105q115 0 194.5 61.5t100.5 155.5h450 q-19 -125 -77 -233.5t-151 -192t-228.5 -131t-296.5 -47.5q-180 0 -330 61.5t-248.5 166t-152.5 241t-54 287.5zM395 1722l434 357l435 -357l-183 -196l-252 217l-251 -217z" />
<glyph unicode="&#x109;" horiz-adv-x="1263" d="M55 508q0 110 38 207t109 171.5t183 117.5t252 43q132 0 237.5 -36t173.5 -99.5t108 -143.5t50 -174h-401q-24 121 -164 121q-89 0 -136.5 -60.5t-47.5 -146.5q0 -88 48 -146.5t142 -58.5q119 0 156 109h403q-21 -194 -169.5 -317.5t-397.5 -123.5q-140 0 -253 43 t-184 117.5t-109 170.5t-38 206zM217 1311l434 356l434 -356l-182 -197l-252 217l-250 -217z" />
<glyph unicode="&#x10a;" horiz-adv-x="1640" d="M53 717q0 119 33.5 231t99.5 207t158 166t216 111.5t265 40.5q169 0 308 -49.5t232.5 -135.5t150 -199t71.5 -245h-446q-20 108 -97.5 174.5t-205.5 66.5q-164 0 -256.5 -106.5t-92.5 -261.5q0 -159 97.5 -264t259.5 -105q115 0 194.5 61.5t100.5 155.5h450 q-19 -125 -77 -233.5t-151 -192t-228.5 -131t-296.5 -47.5q-180 0 -330 61.5t-248.5 166t-152.5 241t-54 287.5zM604 1753q0 91 64.5 155t156.5 64q98 0 162 -63t64 -156q0 -92 -64.5 -154.5t-161.5 -62.5q-92 0 -156.5 63.5t-64.5 153.5z" />
<glyph unicode="&#x10b;" horiz-adv-x="1263" d="M55 508q0 110 38 207t109 171.5t183 117.5t252 43q132 0 237.5 -36t173.5 -99.5t108 -143.5t50 -174h-401q-24 121 -164 121q-89 0 -136.5 -60.5t-47.5 -146.5q0 -88 48 -146.5t142 -58.5q119 0 156 109h403q-21 -194 -169.5 -317.5t-397.5 -123.5q-140 0 -253 43 t-184 117.5t-109 170.5t-38 206zM414 1319q0 91 64.5 156t156.5 65q93 0 158 -65t65 -156q0 -89 -65 -153t-158 -64q-92 0 -156.5 64.5t-64.5 152.5z" />
<glyph unicode="&#x10c;" horiz-adv-x="1640" d="M53 717q0 119 33.5 231t99.5 207t158 166t216 111.5t265 40.5q169 0 308 -49.5t232.5 -135.5t150 -199t71.5 -245h-446q-20 108 -97.5 174.5t-205.5 66.5q-164 0 -256.5 -106.5t-92.5 -261.5q0 -159 97.5 -264t259.5 -105q115 0 194.5 61.5t100.5 155.5h450 q-19 -125 -77 -233.5t-151 -192t-228.5 -131t-296.5 -47.5q-180 0 -330 61.5t-248.5 166t-152.5 241t-54 287.5zM387 1868l182 196l252 -223l252 225l182 -198l-436 -355z" />
<glyph unicode="&#x10d;" horiz-adv-x="1263" d="M55 508q0 110 38 207t109 171.5t183 117.5t252 43q132 0 237.5 -36t173.5 -99.5t108 -143.5t50 -174h-401q-24 121 -164 121q-89 0 -136.5 -60.5t-47.5 -146.5q0 -88 48 -146.5t142 -58.5q119 0 156 109h403q-21 -194 -169.5 -317.5t-397.5 -123.5q-140 0 -253 43 t-184 117.5t-109 170.5t-38 206zM203 1448l182 199l252 -224l252 224l182 -199l-434 -354z" />
<glyph unicode="&#x10e;" horiz-adv-x="1513" d="M125 0v1434h586q173 0 316.5 -59.5t237 -159.5t144.5 -228.5t51 -269.5t-50.5 -269.5t-143.5 -228.5t-237 -159.5t-318 -59.5h-586zM281 1868l182 196l252 -223l252 225l182 -198l-436 -355zM551 360h129q155 0 249.5 105.5t94.5 251.5t-94.5 251t-249.5 105h-129v-713z " />
<glyph unicode="&#x10f;" horiz-adv-x="1781" d="M63 508q0 238 132 386t342 148q104 0 191.5 -54t119.5 -122v568h401v-1434h-401v152q-32 -68 -120 -123.5t-191 -55.5q-210 0 -342 148t-132 387zM467 508q0 -84 52.5 -142.5t135.5 -58.5q84 0 138.5 58.5t54.5 142.5q0 86 -54 143.5t-139 57.5q-83 0 -135.5 -57.5 t-52.5 -143.5zM1315 1278q0 97 67.5 166t161.5 69q119 0 191.5 -82t72.5 -217q0 -257 -122.5 -370t-360.5 -113v146q137 0 211 61q60 49 70 129q-14 -18 -62 -18q-103 0 -166 66t-63 163z" />
<glyph unicode="&#x110;" horiz-adv-x="1513" d="M-45 612v207h170v615h586q173 0 316.5 -59.5t237 -159.5t144.5 -228.5t51 -269.5t-50.5 -269.5t-143.5 -228.5t-237 -159.5t-318 -59.5h-586v612h-170zM551 360h129q155 0 249.5 105.5t94.5 251.5t-94.5 251t-249.5 105h-129v-254h178v-207h-178v-252z" />
<glyph unicode="&#x111;" d="M63 508q0 238 132 386t342 148q104 0 191.5 -54t119.5 -122v234h-221v188h221v146h401v-146h101v-188h-101v-1100h-401v152q-32 -68 -120 -123.5t-191 -55.5q-210 0 -342 148t-132 387zM467 508q0 -84 52.5 -142.5t135.5 -58.5q84 0 138.5 58.5t54.5 142.5 q0 86 -54 143.5t-139 57.5q-83 0 -135.5 -57.5t-52.5 -143.5z" />
<glyph unicode="&#x112;" horiz-adv-x="1159" d="M125 0v1434h924v-320h-498v-250h498v-305h-498v-240h498v-319h-924zM209 1608v270h774v-270h-774z" />
<glyph unicode="&#x113;" horiz-adv-x="1275" d="M55 508q0 112 37.5 209t108.5 171t183.5 116.5t252.5 42.5q134 0 244.5 -40t181 -106.5t109 -150.5t38.5 -175q0 -80 -12 -151h-741q12 -188 186 -188q65 0 107.5 28t54.5 74h389q-26 -162 -172 -264.5t-377 -102.5q-275 0 -432.5 145.5t-157.5 391.5zM258 1186v272h774 v-272h-774zM457 618h352q0 84 -47 131.5t-127 47.5t-129 -47.5t-49 -131.5z" />
<glyph unicode="&#x114;" horiz-adv-x="1159" d="M121 1937h295q15 -65 57.5 -105t116.5 -40q134 0 176 145h293q-24 -183 -154.5 -284t-314.5 -101q-185 0 -312.5 100.5t-156.5 284.5zM125 0v1434h924v-320h-498v-250h498v-305h-498v-240h498v-319h-924z" />
<glyph unicode="&#x115;" horiz-adv-x="1275" d="M55 508q0 112 37.5 209t108.5 171t183.5 116.5t252.5 42.5q134 0 244.5 -40t181 -106.5t109 -150.5t38.5 -175q0 -80 -12 -151h-741q12 -188 186 -188q65 0 107.5 28t54.5 74h389q-26 -162 -172 -264.5t-377 -102.5q-275 0 -432.5 145.5t-157.5 391.5zM174 1532h293 q42 -146 176 -146t176 146h293q-19 -123 -86 -211t-165 -131t-218 -43q-185 0 -312.5 100.5t-156.5 284.5zM457 618h352q0 84 -47 131.5t-127 47.5t-129 -47.5t-49 -131.5z" />
<glyph unicode="&#x116;" horiz-adv-x="1159" d="M125 0v1434h924v-320h-498v-250h498v-305h-498v-240h498v-319h-924zM354 1753q0 91 64.5 155t156.5 64q98 0 162 -63t64 -156q0 -92 -64.5 -154.5t-161.5 -62.5q-92 0 -156.5 63.5t-64.5 153.5z" />
<glyph unicode="&#x117;" horiz-adv-x="1275" d="M55 508q0 112 37.5 209t108.5 171t183.5 116.5t252.5 42.5q134 0 244.5 -40t181 -106.5t109 -150.5t38.5 -175q0 -80 -12 -151h-741q12 -188 186 -188q65 0 107.5 28t54.5 74h389q-26 -162 -172 -264.5t-377 -102.5q-275 0 -432.5 145.5t-157.5 391.5zM414 1319 q0 91 64.5 156t156.5 65q96 0 160.5 -64.5t64.5 -156.5q0 -89 -65 -153t-160 -64q-92 0 -156.5 64.5t-64.5 152.5zM457 618h352q0 84 -47 131.5t-127 47.5t-129 -47.5t-49 -131.5z" />
<glyph unicode="&#x118;" horiz-adv-x="1159" d="M125 0v1434h924v-320h-498v-250h498v-305h-498v-240h498v-319h-99q-30 -21 -42.5 -31t-33.5 -31.5t-29.5 -45t-8.5 -52.5q0 -45 25.5 -76.5t68.5 -31.5q56 0 114 24l-8 -159q-85 -31 -202 -31q-139 0 -209 55.5t-70 142.5q0 64 39 119t123 117h-592z" />
<glyph unicode="&#x119;" horiz-adv-x="1275" d="M55 508q0 112 37.5 209t108.5 171t183.5 116.5t252.5 42.5q134 0 244.5 -40t181 -106.5t109 -150.5t38.5 -175q0 -80 -12 -151h-739q0 -81 43.5 -134.5t140.5 -53.5q65 0 107.5 28t54.5 74h389q-25 -144 -140.5 -241t-303.5 -120q-82 -58 -82 -137q0 -45 25.5 -76.5 t68.5 -31.5q56 0 115 24l-9 -159q-85 -31 -202 -31q-140 0 -210.5 55.5t-70.5 142.5q0 59 33 111t102 107q-221 30 -343 170t-122 356zM457 618h352q0 84 -47 131.5t-127 47.5t-129 -47.5t-49 -131.5z" />
<glyph unicode="&#x11a;" horiz-adv-x="1159" d="M125 0v1434h924v-320h-498v-250h498v-305h-498v-240h498v-319h-924zM143 1868l185 196l250 -223l251 225l183 -198l-434 -355z" />
<glyph unicode="&#x11b;" horiz-adv-x="1275" d="M55 508q0 112 37.5 209t108.5 171t183.5 116.5t252.5 42.5q134 0 244.5 -40t181 -106.5t109 -150.5t38.5 -175q0 -80 -12 -151h-741q12 -188 186 -188q65 0 107.5 28t54.5 74h389q-26 -162 -172 -264.5t-377 -102.5q-275 0 -432.5 145.5t-157.5 391.5zM213 1448l182 199 l252 -224l252 224l182 -199l-434 -354zM457 618h352q0 84 -47 131.5t-127 47.5t-129 -47.5t-49 -131.5z" />
<glyph unicode="&#x11c;" horiz-adv-x="1701" d="M55 717q0 118 32.5 229.5t97.5 206.5t155.5 166.5t213 112.5t263.5 41q152 0 282.5 -43t220.5 -117t145 -171t65 -206h-471q-13 69 -75.5 120.5t-162.5 51.5q-81 0 -145.5 -33t-104.5 -89.5t-61 -126.5t-21 -148q0 -176 90.5 -288t260.5 -112q116 0 184 55.5t86 147.5 h-238v281h807v-281h-137q-43 -255 -228 -404t-495 -149q-144 0 -268 39t-214 108.5t-154 164t-96 207.5t-32 237zM401 1722l435 357l434 -357l-183 -196l-251 217l-252 -217z" />
<glyph unicode="&#x11d;" horiz-adv-x="1363" d="M68 508q0 241 126 387.5t338 146.5q108 0 193 -45.5t125 -130.5v152h401v-961q0 -145 -41.5 -239.5t-130.5 -155.5q-75 -53 -175 -78.5t-251 -25.5q-157 0 -255 25.5t-165 80.5q-72 56 -116 132t-45 159h403q5 -54 51.5 -93.5t126.5 -39.5q94 0 145.5 46t51.5 140v158 q-39 -67 -121 -110.5t-186 -43.5q-214 0 -344.5 131.5t-130.5 364.5zM250 1311l434 356l434 -356l-182 -197l-252 217l-252 -217zM469 508q0 -84 53 -142.5t137 -58.5t137.5 58.5t53.5 142.5q0 86 -53 143.5t-138 57.5t-137.5 -57.5t-52.5 -143.5z" />
<glyph unicode="&#x11e;" horiz-adv-x="1701" d="M55 717q0 118 32.5 229.5t97.5 206.5t155.5 166.5t213 112.5t263.5 41q152 0 282.5 -43t220.5 -117t145 -171t65 -206h-471q-13 69 -75.5 120.5t-162.5 51.5q-81 0 -145.5 -33t-104.5 -89.5t-61 -126.5t-21 -148q0 -176 90.5 -288t260.5 -112q116 0 184 55.5t86 147.5 h-238v281h807v-281h-137q-43 -255 -228 -404t-495 -149q-144 0 -268 39t-214 108.5t-154 164t-96 207.5t-32 237zM369 1937h293q42 -145 176 -145q74 0 116.5 40t57.5 105h295q-19 -123 -86 -211t-165 -131t-218 -43q-184 0 -314.5 101t-154.5 284z" />
<glyph unicode="&#x11f;" horiz-adv-x="1363" d="M68 508q0 241 126 387.5t338 146.5q108 0 193 -45.5t125 -130.5v152h401v-961q0 -145 -41.5 -239.5t-130.5 -155.5q-75 -53 -175 -78.5t-251 -25.5q-157 0 -255 25.5t-165 80.5q-72 56 -116 132t-45 159h403q5 -54 51.5 -93.5t126.5 -39.5q94 0 145.5 46t51.5 140v158 q-39 -67 -121 -110.5t-186 -43.5q-214 0 -344.5 131.5t-130.5 364.5zM223 1532h293q42 -146 176 -146q73 0 116 40.5t58 105.5h295q-19 -123 -86 -211t-165 -131t-218 -43q-184 0 -314.5 101t-154.5 284zM469 508q0 -84 53 -142.5t137 -58.5t137.5 58.5t53.5 142.5 q0 86 -53 143.5t-138 57.5t-137.5 -57.5t-52.5 -143.5z" />
<glyph unicode="&#x120;" horiz-adv-x="1701" d="M55 717q0 118 32.5 229.5t97.5 206.5t155.5 166.5t213 112.5t263.5 41q152 0 282.5 -43t220.5 -117t145 -171t65 -206h-471q-13 69 -75.5 120.5t-162.5 51.5q-81 0 -145.5 -33t-104.5 -89.5t-61 -126.5t-21 -148q0 -176 90.5 -288t260.5 -112q116 0 184 55.5t86 147.5 h-238v281h807v-281h-137q-43 -255 -228 -404t-495 -149q-144 0 -268 39t-214 108.5t-154 164t-96 207.5t-32 237zM596 1753q0 91 64.5 155t156.5 64q97 0 161 -63t64 -156q0 -92 -64 -154.5t-161 -62.5q-92 0 -156.5 63.5t-64.5 153.5z" />
<glyph unicode="&#x121;" horiz-adv-x="1363" d="M68 508q0 241 126 387.5t338 146.5q108 0 193 -45.5t125 -130.5v152h401v-961q0 -145 -41.5 -239.5t-130.5 -155.5q-75 -53 -175 -78.5t-251 -25.5q-157 0 -255 25.5t-165 80.5q-72 56 -116 132t-45 159h403q5 -54 51.5 -93.5t126.5 -39.5q94 0 145.5 46t51.5 140v158 q-39 -67 -121 -110.5t-186 -43.5q-214 0 -344.5 131.5t-130.5 364.5zM430 1319q0 91 64.5 155t156.5 64q93 0 158 -64t65 -155q0 -90 -65 -153.5t-158 -63.5q-92 0 -156.5 63.5t-64.5 153.5zM469 508q0 -84 53 -142.5t137 -58.5t137.5 58.5t53.5 142.5q0 86 -53 143.5 t-138 57.5t-137.5 -57.5t-52.5 -143.5z" />
<glyph unicode="&#x122;" horiz-adv-x="1701" d="M55 717q0 118 32.5 229.5t97.5 206.5t155.5 166.5t213 112.5t263.5 41q152 0 282.5 -43t220.5 -117t145 -171t65 -206h-471q-13 69 -75.5 120.5t-162.5 51.5q-81 0 -145.5 -33t-104.5 -89.5t-61 -126.5t-21 -148q0 -176 90.5 -288t260.5 -112q116 0 184 55.5t86 147.5 h-238v281h807v-281h-137q-43 -255 -228 -404t-495 -149q-144 0 -268 39t-214 108.5t-154 164t-96 207.5t-32 237zM649 -233q0 77 52 129.5t126 52.5q92 0 148.5 -64t56.5 -168q0 -196 -95.5 -284t-279.5 -88v112q110 0 164 45q43 41 53 103q-13 -17 -47 -17q-82 0 -130 52 t-48 127z" />
<glyph unicode="&#x123;" horiz-adv-x="1363" d="M68 508q0 241 126 387.5t338 146.5q108 0 193 -45.5t125 -130.5v152h401v-961q0 -145 -41.5 -239.5t-130.5 -155.5q-75 -53 -175 -78.5t-251 -25.5q-157 0 -255 25.5t-165 80.5q-72 56 -116 132t-45 159h403q5 -54 51.5 -93.5t126.5 -39.5q94 0 145.5 46t51.5 140v158 q-39 -67 -121 -110.5t-186 -43.5q-214 0 -344.5 131.5t-130.5 364.5zM414 1364q0 230 111.5 333t324.5 103v-131q-123 0 -191 -55q-52 -41 -63 -117q16 16 55 16q96 0 151.5 -57.5t55.5 -146.5q0 -90 -60 -151.5t-147 -61.5q-106 0 -171.5 73.5t-65.5 194.5zM469 508 q0 -84 53 -142.5t137 -58.5t137.5 58.5t53.5 142.5q0 86 -53 143.5t-138 57.5t-137.5 -57.5t-52.5 -143.5z" />
<glyph unicode="&#x124;" horiz-adv-x="1503" d="M125 0v1434h426v-545h399v545h428v-1434h-428v535h-399v-535h-426zM319 1722l433 357l436 -357l-182 -196l-252 217l-252 -217z" />
<glyph unicode="&#x125;" horiz-adv-x="1282" d="M119 0v1434h381v-566q44 79 126.5 126.5t198.5 47.5q171 0 254 -92q54 -57 74.5 -142t20.5 -210v-598h-381v516q0 96 -32.5 144.5t-107.5 48.5q-153 0 -153 -211v-498h-381zM207 1686l434 356l434 -356l-182 -197l-252 217l-250 -217z" />
<glyph unicode="&#x126;" horiz-adv-x="1503" d="M125 0v1434h426v-183h399v183h428v-1434h-428v535h-399v-535h-426zM551 889h399v166h-399v-166z" />
<glyph unicode="&#x127;" horiz-adv-x="1282" d="M-4 1100v188h123v146h381v-146h262v-188h-262v-232q44 79 126.5 126.5t198.5 47.5q171 0 254 -92q54 -57 74.5 -142t20.5 -210v-598h-381v516q0 96 -32.5 144.5t-107.5 48.5q-153 0 -153 -211v-498h-381v1100h-123z" />
<glyph unicode="&#x128;" horiz-adv-x="679" d="M-158 1772q116 151 312 151q69 0 134 -25t117.5 -50t90.5 -25q56 0 93 24t77 74l170 -207q-119 -158 -316 -158q-54 0 -107.5 16t-88 34.5t-75.5 34.5t-73 16q-56 0 -93 -24.5t-73 -73.5zM125 0v1434h430v-1434h-430z" />
<glyph unicode="&#x129;" horiz-adv-x="638" d="M-186 1386q117 152 313 152q69 0 134 -25.5t117.5 -51t90.5 -25.5q56 0 93.5 25t74.5 73l172 -205q-116 -158 -315 -158q-68 0 -133.5 25.5t-118.5 50.5t-92 25q-55 0 -91.5 -23.5t-76.5 -74.5zM119 0v1018h401v-1018h-401z" />
<glyph unicode="&#x12a;" horiz-adv-x="679" d="M-47 1608v270h774v-270h-774zM125 0v1434h430v-1434h-430z" />
<glyph unicode="&#x12b;" horiz-adv-x="638" d="M-68 1186v270h775v-270h-775zM119 0v1018h401v-1018h-401z" />
<glyph unicode="&#x12c;" horiz-adv-x="679" d="M-129 1937h295q15 -65 57.5 -105t116.5 -40q134 0 176 145h293q-24 -183 -154.5 -284t-314.5 -101q-185 0 -312.5 100.5t-156.5 284.5zM125 0v1434h430v-1434h-430z" />
<glyph unicode="&#x12d;" horiz-adv-x="638" d="M-150 1532h295q15 -65 58 -105.5t116 -40.5q135 0 177 146h292q-24 -183 -154.5 -284t-314.5 -101q-185 0 -312.5 100.5t-156.5 284.5zM119 0v1018h401v-1018h-401z" />
<glyph unicode="&#x12e;" horiz-adv-x="679" d="M76 -236q0 64 39 119t123 117h-113v1434h430v-1434h-82q-31 -22 -43 -31.5t-33.5 -31t-30 -45t-8.5 -52.5q0 -45 26 -76.5t69 -31.5q55 0 114 24l-8 -159q-85 -31 -203 -31q-140 0 -210 55t-70 143z" />
<glyph unicode="&#x12f;" horiz-adv-x="638" d="M47 -236q0 64 39 119t123 117h-90v1018h401v-1018h-78q-30 -21 -42.5 -31t-33.5 -31.5t-29.5 -45t-8.5 -52.5q0 -45 25.5 -76.5t68.5 -31.5q56 0 115 24l-9 -159q-85 -31 -202 -31q-139 0 -209 55.5t-70 142.5zM82 1325q0 97 68.5 166.5t166.5 69.5q100 0 169 -69 t69 -167q0 -95 -69 -163t-169 -68q-98 0 -166.5 68.5t-68.5 162.5z" />
<glyph unicode="&#x130;" horiz-adv-x="679" d="M117 1755q0 91 64.5 156t156.5 65q93 0 158 -65t65 -156q0 -89 -65 -153t-158 -64q-92 0 -156.5 64.5t-64.5 152.5zM125 0v1434h430v-1434h-430z" />
<glyph unicode="&#x131;" horiz-adv-x="569" d="M84 0v1018h401v-1018h-401z" />
<glyph unicode="&#x132;" horiz-adv-x="1968" d="M125 0v1434h430v-1434h-430zM705 522h425q0 -90 39.5 -145t114.5 -55q73 0 113.5 50.5t40.5 147.5v914h426v-914q0 -555 -580 -555q-145 0 -257.5 42.5t-181.5 118.5t-104.5 176t-35.5 220z" />
<glyph unicode="&#x133;" horiz-adv-x="1271" d="M82 1325q0 97 68.5 166.5t166.5 69.5q100 0 169 -69t69 -167q0 -95 -69 -163t-169 -68q-98 0 -166.5 68.5t-68.5 162.5zM119 0v1018h401v-1018h-401zM573 -135q47 -8 84 -8q49 0 72 22.5t23 75.5v1063h401v-1100q0 -109 -24 -182.5t-71 -111t-102 -52t-133 -14.5 q-67 0 -140.5 8t-109.5 20v279zM715 1325q0 97 68.5 166.5t166.5 69.5q100 0 169 -69t69 -167q0 -95 -69 -163t-169 -68q-98 0 -166.5 68.5t-68.5 162.5z" />
<glyph unicode="&#x134;" horiz-adv-x="1288" d="M25 522h426q0 -90 39 -145t114 -55q73 0 113.5 50.5t40.5 147.5v914h428v-914q0 -555 -582 -555q-145 0 -257.5 42.5t-181.5 118.5t-104.5 176t-35.5 220zM539 1722l434 357l434 -357l-182 -196l-252 217l-252 -217z" />
<glyph unicode="&#x135;" horiz-adv-x="638" d="M-119 1311l434 356l435 -356l-183 -197l-252 217l-252 -217zM-59 -135q47 -8 84 -8q48 0 71 22.5t23 75.5v1063h401v-1100q0 -109 -24 -182.5t-71 -111t-102 -52t-133 -14.5q-67 0 -140 8t-109 20v279z" />
<glyph unicode="&#x136;" horiz-adv-x="1454" d="M125 0v1434h426v-586l397 586h500l-526 -717l526 -717h-500l-397 584v-584h-426zM541 -215q0 77 52 129.5t126 52.5q92 0 148.5 -63.5t56.5 -167.5q0 -196 -95.5 -284.5t-279.5 -88.5v113q113 0 164 45q50 44 53 102q-12 -16 -47 -16q-80 0 -129 52t-49 126z" />
<glyph unicode="&#x137;" horiz-adv-x="1249" d="M119 0v1434h401v-826l258 410h467l-368 -510l368 -508h-469l-256 408v-408h-401zM432 -215q0 77 52 129.5t128 52.5q92 0 147.5 -63.5t55.5 -167.5q0 -196 -95.5 -284.5t-277.5 -88.5v113q111 0 162 45q46 40 55 102q-12 -16 -47 -16q-82 0 -131 51.5t-49 126.5z" />
<glyph unicode="&#x138;" horiz-adv-x="1249" d="M119 0v1018h401v-410l258 410h467l-368 -510l368 -508h-469l-256 408v-408h-401z" />
<glyph unicode="&#x139;" horiz-adv-x="976" d="M-18 1755l620 244l92 -258l-620 -244zM125 0v1434h426v-1069h375v-365h-801z" />
<glyph unicode="&#x13a;" horiz-adv-x="638" d="M-37 1782l621 243l92 -258l-621 -243zM119 0v1434h401v-1434h-401z" />
<glyph unicode="&#x13b;" horiz-adv-x="976" d="M125 0v1434h426v-1069h375v-365h-801zM297 -215q0 77 52 129.5t126 52.5q92 0 148.5 -63.5t56.5 -167.5q0 -196 -95.5 -284.5t-279.5 -88.5v113q110 0 164 45q44 41 53 102q-12 -16 -47 -16q-82 0 -130 51.5t-48 126.5z" />
<glyph unicode="&#x13c;" horiz-adv-x="638" d="M119 0v1434h401v-1434h-401zM127 -215q0 77 52.5 129.5t127.5 52.5q92 0 147.5 -63.5t55.5 -167.5q0 -196 -95.5 -284.5t-277.5 -88.5v113q111 0 162 45q46 40 55 102q-12 -16 -47 -16q-82 0 -131 51.5t-49 126.5z" />
<glyph unicode="&#x13d;" horiz-adv-x="976" d="M125 0v1434h426v-1069h375v-365h-801zM686 1280q0 97 68 166.5t164 69.5q117 0 189.5 -82.5t72.5 -216.5q0 -256 -122.5 -370t-359.5 -114v146q142 0 209 61q61 46 72 129q-18 -18 -61 -18q-103 0 -167.5 66.5t-64.5 162.5z" />
<glyph unicode="&#x13e;" horiz-adv-x="1187" d="M119 0v1434h401v-1434h-401zM653 1280q0 97 68 166.5t164 69.5q117 0 189.5 -82.5t72.5 -216.5q0 -257 -122 -370.5t-359 -113.5v146q141 0 208 61q61 46 72 129q-18 -18 -61 -18q-103 0 -167.5 66.5t-64.5 162.5z" />
<glyph unicode="&#x13f;" horiz-adv-x="1077" d="M125 0v1434h426v-1069h375v-365h-801zM657 866q0 102 73 174t177 72t177 -72t73 -174q0 -101 -73 -173t-177 -72t-177 72t-73 173z" />
<glyph unicode="&#x140;" horiz-adv-x="1058" d="M119 0v1434h401v-1434h-401zM586 696q0 102 71.5 174t176.5 72q106 0 177.5 -72t71.5 -174t-71.5 -173.5t-177.5 -71.5q-105 0 -176.5 71.5t-71.5 173.5z" />
<glyph unicode="&#x141;" horiz-adv-x="989" d="M55 485v209l82 43v697h426v-486l221 111v-209l-221 -111v-374h375v-365h-801v528z" />
<glyph unicode="&#x142;" horiz-adv-x="667" d="M-2 487v215l121 64v668h430v-480l129 66v-217l-129 -68v-735h-430v551z" />
<glyph unicode="&#x143;" horiz-adv-x="1579" d="M125 0v1434h434l467 -850v850h428v-1434h-434l-469 821v-821h-426zM432 1755l621 244l92 -258l-621 -244z" />
<glyph unicode="&#x144;" horiz-adv-x="1323" d="M119 0v1018h401v-150q42 81 129 127.5t207 46.5q177 0 266 -96q54 -56 73 -137t19 -207v-602h-401v516q0 97 -32 145t-107 48q-154 0 -154 -211v-498h-401zM305 1329l621 244l90 -258l-621 -244z" />
<glyph unicode="&#x145;" horiz-adv-x="1579" d="M125 0v1434h434l467 -850v850h428v-1434h-434l-469 821v-821h-426zM598 -215q0 77 52 129.5t126 52.5q92 0 148.5 -63.5t56.5 -167.5q0 -196 -95.5 -284.5t-279.5 -88.5v113q110 0 164 45q44 41 53 102q-12 -16 -47 -16q-82 0 -130 51.5t-48 126.5z" />
<glyph unicode="&#x146;" horiz-adv-x="1323" d="M119 0v1018h401v-150q42 81 129 127.5t207 46.5q177 0 266 -96q54 -56 73 -137t19 -207v-602h-401v516q0 97 -32 145t-107 48q-154 0 -154 -211v-498h-401zM479 -215q0 77 52.5 129.5t127.5 52.5q92 0 147.5 -63.5t55.5 -167.5q0 -196 -95.5 -284.5t-277.5 -88.5v113 q111 0 162 45q47 41 56 102q-5 -6 -20 -11t-28 -5q-82 0 -131 51.5t-49 126.5z" />
<glyph unicode="&#x147;" horiz-adv-x="1579" d="M125 0v1434h434l467 -850v850h428v-1434h-434l-469 821v-821h-426zM365 1868l184 196l250 -223l252 225l182 -198l-434 -355z" />
<glyph unicode="&#x148;" horiz-adv-x="1323" d="M119 0v1018h401v-150q42 81 129 127.5t207 46.5q177 0 266 -96q54 -56 73 -137t19 -207v-602h-401v516q0 97 -32 145t-107 48q-154 0 -154 -211v-498h-401zM236 1448l182 199l252 -224l252 224l182 -199l-434 -354z" />
<glyph unicode="&#x149;" horiz-adv-x="1323" d="M-240 1563q0 86 58.5 144t142.5 58q102 0 164.5 -71.5t62.5 -184.5q0 -221 -106 -319t-311 -98v125q118 0 182 51q50 40 61 112q-12 -16 -53 -16q-90 0 -145.5 57.5t-55.5 141.5zM119 0v1018h401v-150q42 81 129 127.5t207 46.5q177 0 266 -96q54 -56 73 -137t19 -207 v-602h-401v516q0 97 -32 145t-107 48q-154 0 -154 -211v-498h-401z" />
<glyph unicode="&#x14a;" horiz-adv-x="1579" d="M125 0v1434h426l475 -850v850h428v-1381q0 -557 -582 -557q-211 0 -352 150l230 264q32 -23 44.5 -31t34 -16t43.5 -8q66 0 104 39.5t46 113.5l-471 813v-821h-426z" />
<glyph unicode="&#x14b;" horiz-adv-x="1323" d="M119 0v1018h401v-150q42 81 129 127.5t207 46.5q177 0 266 -96q54 -56 73 -137t19 -207v-620q0 -228 -104.5 -326t-304.5 -98q-179 0 -295 86l96 252q41 -35 88 -35q58 0 87.5 38.5t31.5 106.5v510q0 97 -32 145t-107 48q-154 0 -154 -211v-498h-401z" />
<glyph unicode="&#x14c;" horiz-adv-x="1660" d="M53 717q0 119 33 230.5t99 206.5t158 166.5t217 112t269 40.5t270 -40.5t218 -112t158.5 -166.5t99.5 -206.5t33 -230.5t-33 -230.5t-99.5 -206.5t-158.5 -166.5t-218 -112t-270 -40.5t-269 40.5t-217 112t-158 166.5t-99 206.5t-33 230.5zM442 1608v270h775v-270h-775z M483 717q0 -97 40 -179.5t120.5 -135t185.5 -52.5t186 52.5t121 135t40 179.5t-40 179t-120.5 134.5t-186.5 52.5t-186 -52.5t-120 -134.5t-40 -179z" />
<glyph unicode="&#x14d;" horiz-adv-x="1292" d="M53 508q0 112 40 209.5t113.5 171t186.5 116t252 42.5q138 0 251.5 -42.5t187.5 -116t114.5 -171t40.5 -209.5q0 -110 -40.5 -207.5t-114.5 -171t-187.5 -116t-251.5 -42.5t-251.5 42.5t-187 116t-113.5 171t-40 207.5zM258 1186v270h774v-270h-774zM455 508 q0 -86 52.5 -143.5t137.5 -57.5q86 0 138.5 57t52.5 144q0 88 -52.5 144.5t-138.5 56.5q-85 0 -137.5 -57t-52.5 -144z" />
<glyph unicode="&#x14e;" horiz-adv-x="1660" d="M53 717q0 119 33 230.5t99 206.5t158 166.5t217 112t269 40.5t270 -40.5t218 -112t158.5 -166.5t99.5 -206.5t33 -230.5t-33 -230.5t-99.5 -206.5t-158.5 -166.5t-218 -112t-270 -40.5t-269 40.5t-217 112t-158 166.5t-99 206.5t-33 230.5zM360 1937h295 q15 -65 57.5 -105t116.5 -40q135 0 177 145h292q-24 -183 -154.5 -284t-314.5 -101q-185 0 -312.5 100.5t-156.5 284.5zM483 717q0 -97 40 -179.5t120.5 -135t185.5 -52.5t186 52.5t121 135t40 179.5t-40 179t-120.5 134.5t-186.5 52.5t-186 -52.5t-120 -134.5t-40 -179z " />
<glyph unicode="&#x14f;" horiz-adv-x="1292" d="M53 508q0 112 40 209.5t113.5 171t186.5 116t252 42.5q138 0 251.5 -42.5t187.5 -116t114.5 -171t40.5 -209.5q0 -110 -40.5 -207.5t-114.5 -171t-187.5 -116t-251.5 -42.5t-251.5 42.5t-187 116t-113.5 171t-40 207.5zM176 1532h293q42 -146 176 -146t176 146h293 q-19 -123 -86 -211t-165 -131t-218 -43q-185 0 -312.5 100.5t-156.5 284.5zM455 508q0 -86 52.5 -143.5t137.5 -57.5q86 0 138.5 57t52.5 144q0 88 -52.5 144.5t-138.5 56.5q-85 0 -137.5 -57t-52.5 -144z" />
<glyph unicode="&#x150;" horiz-adv-x="1660" d="M53 717q0 119 33 230.5t99 206.5t158 166.5t217 112t269 40.5t270 -40.5t218 -112t158.5 -166.5t99.5 -206.5t33 -230.5t-33 -230.5t-99.5 -206.5t-158.5 -166.5t-218 -112t-270 -40.5t-269 40.5t-217 112t-158 166.5t-99 206.5t-33 230.5zM401 1628l256 393l238 -151 l-346 -299zM483 717q0 -97 40 -179.5t120.5 -135t185.5 -52.5t186 52.5t121 135t40 179.5t-40 179t-120.5 134.5t-186.5 52.5t-186 -52.5t-120 -134.5t-40 -179zM801 1628l256 393l237 -151l-346 -299z" />
<glyph unicode="&#x151;" horiz-adv-x="1292" d="M53 508q0 112 40 209.5t113.5 171t186.5 116t252 42.5q138 0 251.5 -42.5t187.5 -116t114.5 -171t40.5 -209.5q0 -110 -40.5 -207.5t-114.5 -171t-187.5 -116t-251.5 -42.5t-251.5 42.5t-187 116t-113.5 171t-40 207.5zM268 1190l256 395l238 -153l-346 -299zM455 508 q0 -86 52.5 -143.5t137.5 -57.5q86 0 138.5 57t52.5 144q0 88 -52.5 144.5t-138.5 56.5q-85 0 -137.5 -57t-52.5 -144zM668 1190l256 395l237 -153l-346 -299z" />
<glyph unicode="&#x152;" horiz-adv-x="2209" d="M53 715q0 150 53 285.5t149.5 240.5t245.5 167t328 62q197 0 351 -88v52h919v-320h-495v-250h495v-305h-495v-240h495v-319h-919v49q-152 -90 -351 -90q-144 0 -269 40.5t-217 112t-158 166.5t-99 206.5t-33 230.5zM483 715q0 -97 40 -179.5t120.5 -135t185.5 -52.5 t186 52.5t121 135t40 179.5t-40 179.5t-121 135.5t-186 53q-157 0 -251.5 -109t-94.5 -259z" />
<glyph unicode="&#x153;" horiz-adv-x="2058" d="M53 508q0 112 40 209.5t113.5 171t186.5 116t252 42.5q241 0 389 -123q149 123 383 123q134 0 244.5 -40t181.5 -106.5t109.5 -150.5t38.5 -175q0 -86 -11 -151h-739q0 -52 15.5 -92t58 -68t108.5 -28q65 0 107.5 28t54.5 74h389q-26 -162 -171 -264.5t-376 -102.5 q-245 0 -393 123q-155 -123 -389 -123q-138 0 -251.5 42.5t-187 116t-113.5 171t-40 207.5zM455 508q0 -86 52.5 -143.5t137.5 -57.5t138 57t53 144q0 88 -52.5 144.5t-138.5 56.5q-85 0 -137.5 -57t-52.5 -144zM1241 618h350q0 79 -48 126t-126 47q-79 0 -127.5 -46 t-48.5 -127z" />
<glyph unicode="&#x154;" horiz-adv-x="1429" d="M125 0v1434h688q159 0 283.5 -73.5t190 -195t65.5 -266.5q0 -148 -69.5 -271t-192.5 -192l286 -436h-502l-243 367h-80v-367h-426zM358 1755l621 244l92 -258l-620 -244zM551 696h176q85 0 138 58.5t53 144.5q0 87 -52 145t-137 58h-178v-406z" />
<glyph unicode="&#x155;" horiz-adv-x="935" d="M111 1343l620 244l92 -258l-620 -244zM119 0v1018h401v-162q35 74 118.5 128t186.5 54q59 0 105 -14v-367q-75 19 -137 19q-128 0 -200.5 -72.5t-72.5 -245.5v-358h-401z" />
<glyph unicode="&#x156;" horiz-adv-x="1429" d="M125 0v1434h688q159 0 283.5 -73.5t190 -195t65.5 -266.5q0 -148 -69.5 -271t-192.5 -192l286 -436h-502l-243 367h-80v-367h-426zM522 -215q0 77 52 129.5t128 52.5q92 0 147.5 -63.5t55.5 -167.5q0 -196 -95.5 -284.5t-277.5 -88.5v113q105 0 157 42t61 105 q-5 -5 -20 -10.5t-28 -5.5q-82 0 -131 51.5t-49 126.5zM551 696h176q85 0 138 58.5t53 144.5q0 87 -52 145t-137 58h-178v-406z" />
<glyph unicode="&#x157;" horiz-adv-x="935" d="M119 0v1018h401v-162q35 74 118.5 128t186.5 54q59 0 105 -14v-367q-75 19 -137 19q-128 0 -200.5 -72.5t-72.5 -245.5v-358h-401zM127 -213q0 75 52.5 128.5t127.5 53.5q92 0 147.5 -64t55.5 -167q0 -197 -95.5 -286t-277.5 -89v113q109 0 162 47q44 34 55 100 q-14 -14 -47 -14q-82 0 -131 51t-49 127z" />
<glyph unicode="&#x158;" horiz-adv-x="1429" d="M125 0v1434h688q159 0 283.5 -73.5t190 -195t65.5 -266.5q0 -148 -69.5 -271t-192.5 -192l286 -436h-502l-243 367h-80v-367h-426zM233 1868l185 196l250 -223l252 225l182 -198l-434 -355zM551 696h176q85 0 138 58.5t53 144.5q0 87 -52 145t-137 58h-178v-406z" />
<glyph unicode="&#x159;" horiz-adv-x="935" d="M80 1448l182 199l252 -224l252 224l182 -199l-434 -354zM119 0v1018h401v-162q35 74 118.5 128t186.5 54q59 0 105 -14v-367q-75 19 -137 19q-128 0 -200.5 -72.5t-72.5 -245.5v-358h-401z" />
<glyph unicode="&#x15a;" horiz-adv-x="1318" d="M70 483h426q0 -97 48.5 -149.5t131.5 -52.5q66 0 103.5 32.5t37.5 89.5q0 56 -46.5 89.5t-170.5 82.5q-196 77 -268 118q-159 88 -207 216q-25 66 -25 148q0 86 31.5 156.5t85.5 118t127.5 80t154.5 47t169 14.5q121 0 218 -27t159.5 -72t104.5 -106.5t59.5 -126.5 t17.5 -135h-426q0 178 -142 178q-58 0 -94.5 -28t-36.5 -85q0 -53 47 -90t150 -74q199 -71 281 -115q188 -103 227 -262q12 -47 12 -100q0 -221 -157 -345t-429 -124t-430.5 136.5t-158.5 385.5zM301 1755l621 244l90 -258l-621 -244z" />
<glyph unicode="&#x15b;" horiz-adv-x="1159" d="M59 340h402q0 -123 131 -123q48 0 75 19.5t27 54.5q0 40 -42 60.5t-172 57.5q-4 1 -6.5 1.5t-6 1.5t-6.5 2q-165 41 -229 72q-131 64 -149 191q-3 22 -3 46q0 170 126.5 247t385.5 77q134 0 231 -26t151.5 -74t79.5 -107t25 -133h-399q0 54 -29 81t-78 27q-40 0 -67 -18 t-27 -54q0 -39 58 -64q34 -14 184 -54q75 -17 122 -31t100 -39t82.5 -55.5t49 -77.5t19.5 -109q0 -342 -510 -342q-264 0 -394.5 96.5t-130.5 272.5zM223 1329l621 244l92 -258l-621 -244z" />
<glyph unicode="&#x15c;" horiz-adv-x="1318" d="M70 483h426q0 -97 48.5 -149.5t131.5 -52.5q66 0 103.5 32.5t37.5 89.5q0 56 -46.5 89.5t-170.5 82.5q-196 77 -268 118q-159 88 -207 216q-25 66 -25 148q0 86 31.5 156.5t85.5 118t127.5 80t154.5 47t169 14.5q121 0 218 -27t159.5 -72t104.5 -106.5t59.5 -126.5 t17.5 -135h-426q0 178 -142 178q-58 0 -94.5 -28t-36.5 -85q0 -53 47 -90t150 -74q199 -71 281 -115q188 -103 227 -262q12 -47 12 -100q0 -221 -157 -345t-429 -124t-430.5 136.5t-158.5 385.5zM238 1722l434 357l434 -357l-182 -196l-252 217l-252 -217z" />
<glyph unicode="&#x15d;" horiz-adv-x="1159" d="M59 340h402q0 -123 131 -123q48 0 75 19.5t27 54.5q0 40 -42 60.5t-172 57.5q-4 1 -6.5 1.5t-6 1.5t-6.5 2q-165 41 -229 72q-131 64 -149 191q-3 22 -3 46q0 170 126.5 247t385.5 77q134 0 231 -26t151.5 -74t79.5 -107t25 -133h-399q0 54 -29 81t-78 27q-40 0 -67 -18 t-27 -54q0 -39 58 -64q34 -14 184 -54q75 -17 122 -31t100 -39t82.5 -55.5t49 -77.5t19.5 -109q0 -342 -510 -342q-264 0 -394.5 96.5t-130.5 272.5zM150 1311l434 356l434 -356l-182 -197l-252 217l-250 -217z" />
<glyph unicode="&#x15e;" horiz-adv-x="1318" d="M70 483h426q0 -97 48.5 -149.5t131.5 -52.5q66 0 103.5 32.5t37.5 89.5q0 56 -46.5 89.5t-170.5 82.5q-196 77 -268 118q-159 88 -207 216q-25 66 -25 148q0 86 31.5 156.5t85.5 118t127.5 80t154.5 47t169 14.5q121 0 218 -27t159.5 -72t104.5 -106.5t59.5 -126.5 t17.5 -135h-426q0 178 -142 178q-58 0 -94.5 -28t-36.5 -85q0 -53 47 -90t150 -74q199 -71 281 -115q188 -103 227 -262q12 -47 12 -100q0 -203 -132 -324.5t-368 -140.5v-78q23 37 97 37q76 0 126 -57.5t50 -130.5q0 -91 -63 -153t-175 -62q-94 0 -163.5 54.5t-73.5 148.5 h172q10 -60 65 -60q29 0 46.5 20.5t17.5 51.5q0 26 -18 44.5t-44 18.5q-42 0 -57 -30h-158v196q-233 24 -365 157t-132 361z" />
<glyph unicode="&#x15f;" horiz-adv-x="1159" d="M59 340h402q0 -123 131 -123q48 0 75 19.5t27 54.5q0 40 -42 60.5t-172 57.5q-4 1 -6.5 1.5t-6 1.5t-6.5 2q-165 41 -229 72q-131 64 -149 191q-3 22 -3 46q0 170 126.5 247t385.5 77q134 0 231 -26t151.5 -74t79.5 -107t25 -133h-399q0 54 -29 81t-78 27q-40 0 -67 -18 t-27 -54q0 -39 58 -64q34 -14 184 -54q75 -17 122 -31t100 -39t82.5 -55.5t49 -77.5t19.5 -109q0 -322 -453 -340v-77q22 36 96 36q76 0 126 -57.5t50 -130.5q0 -91 -62.5 -153t-174.5 -62q-95 0 -164.5 54.5t-73.5 148.5h172q10 -60 66 -60q29 0 46 20.5t17 51.5 q0 26 -17.5 44.5t-43.5 18.5q-42 0 -57 -30h-158v200q-404 45 -404 363z" />
<glyph unicode="&#x160;" horiz-adv-x="1318" d="M70 483h426q0 -97 48.5 -149.5t131.5 -52.5q66 0 103.5 32.5t37.5 89.5q0 56 -46.5 89.5t-170.5 82.5q-196 77 -268 118q-159 88 -207 216q-25 66 -25 148q0 107 48 189t129.5 130.5t181 72.5t211.5 24q122 0 219 -27t159 -72t103.5 -106.5t58.5 -126t17 -135.5h-426 q0 178 -142 178q-58 0 -94.5 -28t-36.5 -85q0 -53 47 -90t150 -74q199 -71 281 -115q188 -103 227 -262q12 -47 12 -100q0 -221 -157 -345t-429 -124t-430.5 136.5t-158.5 385.5zM242 1868l182 196l252 -223l252 225l182 -198l-434 -355z" />
<glyph unicode="&#x161;" horiz-adv-x="1159" d="M59 340h402q0 -123 131 -123q48 0 75 19.5t27 54.5q0 40 -42 60.5t-172 57.5q-4 1 -6.5 1.5t-6 1.5t-6.5 2q-165 41 -229 72q-131 64 -149 191q-3 22 -3 46q0 170 126.5 247t385.5 77q134 0 231 -26t151.5 -74t79.5 -107t25 -133h-399q0 54 -29 81t-78 27q-40 0 -67 -18 t-27 -54q0 -39 58 -64q34 -14 184 -54q75 -17 122 -31t100 -39t82.5 -55.5t49 -77.5t19.5 -109q0 -342 -510 -342q-264 0 -394.5 96t-130.5 273zM152 1448l184 199l250 -224l252 224l182 -199l-434 -354z" />
<glyph unicode="&#x162;" horiz-adv-x="1097" d="M41 1069v365h1016v-365h-295v-1069h-426v1069h-295zM358 -215q0 77 52.5 129.5t128.5 52.5q92 0 147 -63t55 -168q0 -196 -95 -284.5t-277 -88.5v113q105 0 156.5 41.5t60.5 105.5q-5 -5 -19.5 -10.5t-27.5 -5.5q-82 0 -131.5 51.5t-49.5 126.5z" />
<glyph unicode="&#x163;" horiz-adv-x="849" d="M27 737v281h149v297h404v-297h229v-281h-229v-307q0 -89 34.5 -121.5t96.5 -32.5q59 0 108 9v-285q-110 -20 -250 -20q-47 0 -81.5 2t-78 10.5t-74.5 23t-63 41.5t-51.5 64.5t-32 93t-12.5 125.5v397h-149zM291 -215q0 77 52.5 129.5t127.5 52.5q92 0 147.5 -63.5 t55.5 -167.5q0 -196 -95.5 -284.5t-277.5 -88.5v113q111 0 162 45q46 40 55 102q-12 -16 -47 -16q-82 0 -131 51.5t-49 126.5z" />
<glyph unicode="&#x164;" horiz-adv-x="1097" d="M41 1069v365h1016v-365h-295v-1069h-426v1069h-295zM113 1868l184 196l250 -223l252 225l182 -198l-434 -355z" />
<glyph unicode="&#x165;" horiz-adv-x="1443" d="M27 737v281h149v297h404v-297h229v-281h-229v-307q0 -89 34.5 -121.5t96.5 -32.5q59 0 108 9v-285q-110 -20 -250 -20q-47 0 -81.5 2t-78 10.5t-74.5 23t-63 41.5t-51.5 64.5t-32 93t-12.5 125.5v397h-149zM866 1264q0 98 68 166.5t162 68.5q119 0 191.5 -82t72.5 -215 q0 -256 -123 -369.5t-360 -113.5v143q140 0 208 62q61 46 72 129q-5 -7 -23.5 -13t-37.5 -6q-103 0 -166.5 66.5t-63.5 163.5z" />
<glyph unicode="&#x166;" horiz-adv-x="1097" d="M41 1069v365h1016v-365h-295v-192h174v-195h-174v-682h-426v682h-174v195h174v192h-295z" />
<glyph unicode="&#x167;" horiz-adv-x="849" d="M27 422v188h149v127h-149v281h149v297h404v-297h229v-281h-229v-127h211v-188h-207v-21q2 -125 127 -125q59 0 108 9v-285q-110 -20 -250 -20q-47 0 -81.5 2t-78 10.5t-74.5 23t-63 41.5t-51.5 64.5t-32 93t-12.5 125.5v82h-149z" />
<glyph unicode="&#x168;" horiz-adv-x="1378" d="M90 498v936h426v-932q0 -74 49.5 -127t122.5 -53q76 0 125 52.5t49 127.5v932h426v-936q0 -238 -162 -387.5t-438 -149.5q-274 0 -436 150t-162 387zM199 1772q116 151 313 151q69 0 134 -25t117.5 -50t90.5 -25q56 0 94 24.5t74 73.5l172 -207q-119 -158 -315 -158 q-54 0 -107.5 16t-88 34.5t-75.5 34.5t-73 16q-55 0 -91.5 -23.5t-76.5 -74.5z" />
<glyph unicode="&#x169;" horiz-adv-x="1323" d="M106 416v602h404v-516q0 -97 32 -145t107 -48q154 0 154 211v498h401v-1018h-401v152q-42 -83 -128.5 -130t-207.5 -47q-86 0 -155 26t-111 71q-54 57 -74.5 138.5t-20.5 205.5zM166 1386q117 152 313 152q69 0 134 -25.5t117.5 -51t90.5 -25.5q56 0 93.5 25t74.5 73 l172 -205q-116 -158 -315 -158q-68 0 -133.5 25.5t-118.5 50.5t-92 25q-55 0 -91.5 -23.5t-76.5 -74.5z" />
<glyph unicode="&#x16a;" horiz-adv-x="1378" d="M90 498v936h426v-932q0 -74 49.5 -127t122.5 -53q76 0 125 52.5t49 127.5v932h426v-936q0 -238 -162 -387.5t-438 -149.5q-274 0 -436 150t-162 387zM315 1608v270h775v-270h-775z" />
<glyph unicode="&#x16b;" horiz-adv-x="1323" d="M106 416v602h404v-516q0 -97 32 -145t107 -48q154 0 154 211v498h401v-1018h-401v152q-42 -83 -128.5 -130t-207.5 -47q-86 0 -155 26t-111 71q-54 57 -74.5 138.5t-20.5 205.5zM274 1186v270h775v-270h-775z" />
<glyph unicode="&#x16c;" horiz-adv-x="1378" d="M90 498v936h426v-932q0 -74 49.5 -127t122.5 -53q76 0 125 52.5t49 127.5v932h426v-936q0 -238 -162 -387.5t-438 -149.5q-274 0 -436 150t-162 387zM217 1937h293q42 -145 176 -145t176 145h293q-19 -123 -86 -211t-165 -131t-218 -43q-185 0 -312.5 100.5t-156.5 284.5 z" />
<glyph unicode="&#x16d;" horiz-adv-x="1323" d="M106 416v602h404v-516q0 -97 32 -145t107 -48q154 0 154 211v498h401v-1018h-401v152q-42 -83 -128.5 -130t-207.5 -47q-86 0 -155 26t-111 71q-54 57 -74.5 138.5t-20.5 205.5zM193 1532h292q42 -146 177 -146q134 0 176 146h292q-19 -123 -86 -211t-165 -131t-217 -43 q-185 0 -312.5 100.5t-156.5 284.5z" />
<glyph unicode="&#x16e;" horiz-adv-x="1378" d="M90 498v936h426v-932q0 -74 49.5 -127t122.5 -53q76 0 125 52.5t49 127.5v932h426v-936q0 -238 -162 -387.5t-438 -149.5q-274 0 -436 150t-162 387zM391 1806q0 123 87.5 210t211.5 87q123 0 210 -87.5t87 -209.5q0 -123 -87 -211t-210 -88q-124 0 -211.5 88t-87.5 211z M590 1804q0 -37 29.5 -66.5t70.5 -29.5t69.5 29.5t28.5 70.5t-28.5 70t-69.5 29q-42 0 -71 -30.5t-29 -72.5z" />
<glyph unicode="&#x16f;" horiz-adv-x="1323" d="M106 416v602h404v-516q0 -97 32 -145t107 -48q154 0 154 211v498h401v-1018h-401v152q-42 -83 -128.5 -130t-207.5 -47q-86 0 -155 26t-111 71q-54 57 -74.5 138.5t-20.5 205.5zM354 1423q0 127 87.5 215t213.5 88t214.5 -89.5t88.5 -213.5t-88 -212.5t-215 -88.5 q-125 0 -213 88.5t-88 212.5zM545 1421q0 -42 33 -75t77 -33q47 0 80 33.5t33 78.5q0 47 -33 80t-80 33t-78.5 -34.5t-31.5 -82.5z" />
<glyph unicode="&#x170;" horiz-adv-x="1378" d="M90 498v936h426v-932q0 -74 49.5 -127t122.5 -53q76 0 125 52.5t49 127.5v932h426v-936q0 -238 -162 -387.5t-438 -149.5q-274 0 -436 150t-162 387zM272 1628l256 393l238 -151l-346 -299zM672 1628l256 393l237 -151l-346 -299z" />
<glyph unicode="&#x171;" horiz-adv-x="1323" d="M106 416v602h404v-516q0 -97 32 -145t107 -48q154 0 154 211v498h401v-1018h-401v152q-42 -83 -128.5 -130t-207.5 -47q-86 0 -155 26t-111 71q-54 57 -74.5 138.5t-20.5 205.5zM276 1176l256 393l238 -152l-346 -299zM676 1176l256 393l237 -152l-346 -299z" />
<glyph unicode="&#x172;" horiz-adv-x="1378" d="M90 498v936h426v-932q0 -74 49.5 -127t122.5 -53q76 0 125 52.5t49 127.5v932h426v-936q0 -215 -134 -361t-366 -170q-67 -53 -67 -127q0 -45 25.5 -76.5t68.5 -31.5q57 0 115 24l-8 -159q-85 -31 -203 -31q-140 0 -210.5 55.5t-70.5 142.5q0 105 123 207 q-219 32 -345 175.5t-126 351.5z" />
<glyph unicode="&#x173;" horiz-adv-x="1323" d="M106 416v602h404v-516q0 -97 32 -145t107 -48q154 0 154 211v498h401v-1018h-168q-28 -19 -44 -32t-36.5 -34t-30.5 -46t-10 -54q0 -43 25 -72.5t66 -29.5q56 0 114 24l-8 -159q-85 -31 -203 -31q-141 0 -211.5 55.5t-70.5 142.5q0 66 42.5 122t133.5 118v148 q-42 -83 -128.5 -130t-207.5 -47q-86 0 -155 26t-111 71q-54 57 -74.5 138.5t-20.5 205.5z" />
<glyph unicode="&#x174;" horiz-adv-x="2228" d="M-12 1434h450l254 -856l252 856h340l250 -856l256 856h451l-517 -1434h-372l-238 780l-240 -780h-370zM680 1722l434 357l434 -357l-182 -196l-252 217l-250 -217z" />
<glyph unicode="&#x175;" horiz-adv-x="1746" d="M-4 1018h405l162 -567l131 567h359l131 -567l162 567h405l-365 -1018h-358l-156 547l-153 -547h-359zM444 1311l433 356l436 -356l-183 -197l-251 217l-252 -217z" />
<glyph unicode="&#x176;" horiz-adv-x="1390" d="M-6 1434h500l231 -510l217 510h475l-710 -1434h-480l248 506zM285 1722l434 357l434 -357l-182 -196l-252 217l-250 -217z" />
<glyph unicode="&#x177;" horiz-adv-x="1335" d="M106 -45h404q5 -64 45.5 -100.5t108.5 -36.5q80 0 117.5 41t37.5 137v184q-42 -82 -123.5 -127t-195.5 -45q-92 0 -165.5 30t-117.5 77q-54 57 -74 132.5t-20 198.5v572h403v-516q0 -96 32.5 -144.5t107.5 -48.5q153 0 153 211v498h402v-979q0 -124 -41.5 -220.5 t-112.5 -152.5q-75 -58 -166.5 -83t-241.5 -25q-146 0 -242.5 23t-166.5 79q-141 117 -144 295zM236 1311l432 356l436 -356l-182 -197l-252 217l-252 -217z" />
<glyph unicode="&#x178;" horiz-adv-x="1390" d="M-6 1434h500l231 -510l217 510h475l-710 -1434h-480l248 506zM244 1739q0 90 62.5 153.5t154.5 63.5q93 0 158 -63.5t65 -153.5q0 -88 -65 -151.5t-158 -63.5q-91 0 -154 63t-63 152zM760 1739q0 90 63 153.5t156 63.5t156 -63.5t63 -153.5q0 -89 -63 -152t-156 -63 t-156 63t-63 152z" />
<glyph unicode="&#x179;" horiz-adv-x="1406" d="M41 0l661 1085h-587v349h1251l-659 -1086h620v-348h-1286zM365 1755l620 244l92 -258l-620 -244z" />
<glyph unicode="&#x17a;" horiz-adv-x="1071" d="M29 0l417 686h-378v332h974l-413 -686h387v-332h-987zM180 1329l621 244l90 -258l-621 -244z" />
<glyph unicode="&#x17b;" horiz-adv-x="1406" d="M41 0l661 1085h-587v349h1251l-659 -1086h620v-348h-1286zM489 1753q0 91 65 155t157 64q97 0 161 -63t64 -156q0 -92 -64 -154.5t-161 -62.5q-92 0 -157 64t-65 153z" />
<glyph unicode="&#x17c;" horiz-adv-x="1071" d="M29 0l417 686h-378v332h974l-413 -686h387v-332h-987zM311 1319q0 91 64.5 156t156.5 65q96 0 161 -64.5t65 -156.5q0 -89 -65 -153t-161 -64q-92 0 -156.5 64.5t-64.5 152.5z" />
<glyph unicode="&#x17d;" horiz-adv-x="1406" d="M41 0l661 1085h-587v349h1251l-659 -1086h620v-348h-1286zM305 1868l182 196l252 -223l252 225l183 -198l-437 -355z" />
<glyph unicode="&#x17e;" horiz-adv-x="1071" d="M29 0l417 686h-378v332h974l-413 -686h387v-332h-987zM127 1448l182 199l252 -224l252 224l182 -199l-434 -354z" />
<glyph unicode="&#x17f;" horiz-adv-x="823" d="M27 737v281h159v55q0 101 23.5 174.5t59 114.5t92 65t107.5 30.5t120 6.5q127 0 209 -28v-262q-49 12 -95 12q-55 0 -84.5 -22t-29.5 -81v-1083h-402v737h-159z" />
<glyph unicode="&#x192;" horiz-adv-x="1046" d="M-102 -373l47 262q47 -12 92 -12q54 0 85.5 23.5t47.5 91.5l131 745h-160l49 281h160l10 55q17 101 53 174.5t79.5 114.5t104 65t113 30.5t121.5 6.5q130 0 205 -28l-47 -262q-46 12 -92 12q-56 0 -89 -22t-44 -81l-12 -65h211l-50 -281h-208l-132 -747 q-19 -101 -55.5 -174.5t-79.5 -114.5t-102.5 -64.5t-112 -30.5t-121.5 -7q-129 0 -204 28z" />
<glyph unicode="&#x1fa;" horiz-adv-x="1531" d="M8 0l529 1432h71q-47 53 -47 122q0 82 58 140.5t141 58.5q81 0 138.5 -58.5t57.5 -140.5q0 -68 -43 -120h70l541 -1434h-475l-50 166h-481l-49 -166h-461zM494 1866l454 188l58 -164l-455 -186zM608 475h303l-151 529zM698 1554q0 -23 18.5 -41t43.5 -18q24 0 42.5 18.5 t18.5 42.5q0 25 -17.5 43.5t-43.5 18.5t-44 -19t-18 -45z" />
<glyph unicode="&#x1fb;" d="M63 508q0 238 132 386t342 148q104 0 191.5 -54t119.5 -122v152h401v-1018h-401v152q-32 -68 -120 -123.5t-191 -55.5q-210 0 -342 148t-132 387zM346 1765l545 217l80 -225l-541 -215zM438 1329q0 98 73 170t173 72q98 0 170 -72t72 -170q0 -100 -72 -172t-170 -72 q-100 0 -173 72t-73 172zM467 508q0 -84 52.5 -142.5t135.5 -58.5q84 0 138.5 58.5t54.5 142.5q0 86 -54 143.5t-139 57.5q-83 0 -135.5 -57.5t-52.5 -143.5zM604 1327q0 -31 24 -53.5t56 -22.5q33 0 55.5 22.5t22.5 57.5q0 32 -22 56t-56 24q-35 0 -57.5 -24t-22.5 -60z " />
<glyph unicode="&#x1fc;" horiz-adv-x="1953" d="M2 0l676 1434h1163v-320h-498v-250h498v-305h-498v-240h498v-319h-923v166h-381l-72 -166h-463zM664 475h254v586zM803 1755l620 244l90 -258l-620 -244z" />
<glyph unicode="&#x1fd;" horiz-adv-x="2066" d="M63 508q0 238 132 386t342 148q104 0 191.5 -54t119.5 -122v152h340v-12q109 41 239 41q134 0 244.5 -40t181.5 -106.5t109.5 -150.5t38.5 -175q0 -80 -12 -151h-738q0 -82 42.5 -135t140.5 -53q65 0 106.5 28t54.5 74h390q-26 -163 -170.5 -265t-378.5 -102 q-134 0 -246 41v-12h-342v152q-32 -68 -120 -123.5t-191 -55.5q-210 0 -342 148t-132 387zM467 508q0 -84 52.5 -142.5t135.5 -58.5q84 0 138.5 58.5t54.5 142.5q0 87 -54 144t-139 57q-83 0 -135.5 -57.5t-52.5 -143.5zM676 1319l620 244l93 -260l-621 -244zM1251 618h351 q0 79 -48 126t-127 47q-80 0 -127.5 -44.5t-48.5 -128.5z" />
<glyph unicode="&#x1fe;" horiz-adv-x="1660" d="M53 717q0 119 33 230.5t99 206.5t158 166.5t217 112t269 40.5q111 0 209 -25l76 168l176 -80l-69 -156q183 -98 285 -276t102 -387q0 -119 -33 -230.5t-99.5 -206.5t-158.5 -166.5t-218 -112t-270 -40.5q-111 0 -227 29l-80 -183l-178 82l76 172q-173 96 -270 274 t-97 382zM473 1755l621 244l92 -258l-621 -244zM483 717q0 -80 28 -151.5t81 -121.5l280 635q-28 4 -43 4q-106 0 -186 -52.5t-120 -134.5t-40 -179zM766 356q14 -6 63 -6q105 0 186 52.5t121 135t40 179.5q0 85 -32.5 160.5t-92.5 126.5z" />
<glyph unicode="&#x1ff;" horiz-adv-x="1292" d="M53 508q0 112 40 209.5t113.5 171t186.5 116t252 42.5q71 0 164 -17l63 141l111 -49l-57 -131q151 -65 232 -192.5t81 -290.5q0 -110 -40.5 -207.5t-114.5 -171t-187.5 -116t-251.5 -42.5q-86 0 -170 19l-59 -137l-113 49l57 127q-149 65 -228 191t-79 288zM289 1329 l620 244l92 -258l-620 -244zM455 508q0 -90 55 -148l154 349h-19q-85 0 -137.5 -57t-52.5 -144zM621 309q6 -2 24 -2q86 0 138.5 57t52.5 144q0 91 -60 151z" />
<glyph unicode="&#x218;" horiz-adv-x="1318" d="M70 483h426q0 -97 48.5 -149.5t131.5 -52.5q66 0 103.5 32.5t37.5 89.5q0 56 -46.5 89.5t-170.5 82.5q-196 77 -268 118q-159 88 -207 216q-25 66 -25 148q0 86 31.5 156.5t85.5 118t127.5 80t154.5 47t169 14.5q121 0 218 -27t159.5 -72t104.5 -106.5t59.5 -126.5 t17.5 -135h-426q0 178 -142 178q-58 0 -94.5 -28t-36.5 -85q0 -53 47 -90t150 -74q199 -71 281 -115q188 -103 227 -262q12 -47 12 -100q0 -221 -157 -345t-429 -124t-430.5 136.5t-158.5 385.5zM477 -233q0 77 52.5 129.5t127.5 52.5q92 0 147.5 -63.5t55.5 -168.5 q0 -196 -95.5 -284t-277.5 -88v112q105 0 157 42t61 106q-5 -5 -20.5 -11t-27.5 -6q-82 0 -131 52t-49 127z" />
<glyph unicode="&#x219;" horiz-adv-x="1159" d="M59 340h402q0 -123 131 -123q48 0 75 19.5t27 54.5q0 40 -42 60.5t-172 57.5q-4 1 -6.5 1.5t-6 1.5t-6.5 2q-165 41 -229 72q-131 64 -149 191q-3 22 -3 46q0 170 126.5 247t385.5 77q134 0 231 -26t151.5 -74t79.5 -107t25 -133h-399q0 54 -29 81t-78 27q-40 0 -67 -18 t-27 -54q0 -39 58 -64q34 -14 184 -54q75 -17 122 -31t100 -39t82.5 -55.5t49 -77.5t19.5 -109q0 -342 -510 -342q-264 0 -394.5 96.5t-130.5 272.5zM391 -221q0 75 52.5 128.5t125.5 53.5q92 0 148.5 -64t56.5 -167q0 -197 -95.5 -286t-279.5 -89v113q111 0 164 47 q42 34 53 100q-14 -14 -47 -14q-82 0 -130 51t-48 127z" />
<glyph unicode="&#x21a;" horiz-adv-x="1097" d="M41 1069v365h1016v-365h-295v-1069h-426v1069h-295zM358 -215q0 77 52.5 129.5t128.5 52.5q92 0 147 -63t55 -168q0 -196 -95 -284.5t-277 -88.5v113q105 0 156.5 41.5t60.5 105.5q-5 -5 -19.5 -10.5t-27.5 -5.5q-82 0 -131.5 51.5t-49.5 126.5z" />
<glyph unicode="&#x21b;" horiz-adv-x="849" d="M27 737v281h149v297h404v-297h229v-281h-229v-307q0 -89 34.5 -121.5t96.5 -32.5q59 0 108 9v-285q-110 -20 -250 -20q-47 0 -81.5 2t-78 10.5t-74.5 23t-63 41.5t-51.5 64.5t-32 93t-12.5 125.5v397h-149zM285 -215q0 77 52 129.5t126 52.5q92 0 148.5 -63.5 t56.5 -167.5q0 -196 -95.5 -284.5t-279.5 -88.5v113q113 0 164 45q50 44 53 102q-12 -16 -47 -16q-80 0 -129 52t-49 126z" />
<glyph unicode="&#x2c6;" horiz-adv-x="991" d="M59 1376l435 348l434 -348l-187 -200l-247 196l-248 -196z" />
<glyph unicode="&#x2c7;" horiz-adv-x="964" d="M61 1585l179 201l241 -201l242 201l180 -201l-422 -348z" />
<glyph unicode="&#x2d8;" horiz-adv-x="1099" d="M57 1747h287q61 -141 205 -141q147 0 205 141h286q-36 -182 -169 -283.5t-322 -101.5q-188 0 -322 102t-170 283z" />
<glyph unicode="&#x2d9;" horiz-adv-x="827" d="M190 1253q0 91 65 156.5t157 65.5q93 0 158 -65.5t65 -156.5q0 -89 -65 -153t-158 -64q-92 0 -157 64.5t-65 152.5z" />
<glyph unicode="&#x2da;" horiz-adv-x="870" d="M137 1458q0 124 87 211.5t210 87.5q124 0 211.5 -88t87.5 -211t-87.5 -211t-211.5 -88q-123 0 -210 88t-87 211zM342 1456q0 -35 27.5 -61.5t64.5 -26.5t65.5 27.5t28.5 64.5q0 38 -27 65t-67 27q-39 0 -65.5 -27.5t-26.5 -68.5z" />
<glyph unicode="&#x2db;" horiz-adv-x="788" d="M152 -236q0 64 38.5 119t122.5 117h234q-31 -22 -43 -31.5t-33.5 -31t-30 -45t-8.5 -52.5q0 -45 25.5 -76.5t68.5 -31.5q56 0 115 24l-8 -159q-85 -31 -203 -31q-139 0 -208.5 55t-69.5 143z" />
<glyph unicode="&#x2dc;" horiz-adv-x="1024" d="M84 1356q63 36 114.5 54.5t73 21t52.5 2.5q34 0 165.5 -28t161.5 -28q37 0 72.5 10.5t114.5 45.5l100 -226q-126 -92 -254 -92q-34 0 -166 26.5t-162 26.5q-29 0 -60.5 -7.5t-45.5 -13t-55 -22.5z" />
<glyph unicode="&#x2dd;" horiz-adv-x="1009" d="M84 1163l256 396l238 -154l-347 -299zM483 1163l256 396l238 -154l-346 -299z" />
<glyph unicode="&#x3c0;" horiz-adv-x="1325" d="M23 748v270h1280v-270h-144v-748h-401v748h-191v-748h-401v748h-143z" />
<glyph unicode="&#x401;" horiz-adv-x="1159" d="M109 1739q0 91 64.5 156t156.5 65q93 0 159 -65t66 -156q0 -88 -66 -152.5t-159 -64.5q-92 0 -156.5 64.5t-64.5 152.5zM125 0v1434h924v-320h-498v-250h498v-305h-498v-240h498v-319h-924zM625 1739q0 91 64.5 156t156.5 65q93 0 158 -65t65 -156q0 -89 -65 -153 t-158 -64q-92 0 -156.5 64.5t-64.5 152.5z" />
<glyph unicode="&#x402;" horiz-adv-x="1552" d="M41 1114v320h1016v-320h-295v-332q43 81 127 128.5t201 47.5q165 0 253 -94q54 -57 75.5 -141.5t21.5 -208.5v-596q0 -104 -23 -176t-69 -111.5t-103.5 -56t-136.5 -16.5h-244v305h90q98 0 101 90v479q0 96 -32.5 144.5t-107.5 48.5q-150 0 -153 -199v-426h-426v1114 h-295z" />
<glyph unicode="&#x403;" horiz-adv-x="1019" d="M125 0v1434h889v-365h-463v-1069h-426zM227 1743l621 244l92 -258l-621 -244z" />
<glyph unicode="&#x404;" horiz-adv-x="1617" d="M53 717q0 125 32.5 238t98 207.5t158.5 164t220 108t276 38.5q156 0 287 -47.5t221 -131t145 -193.5t70 -237h-451q-18 98 -94.5 159.5t-200.5 61.5q-129 0 -208 -71.5t-99 -188.5h440v-229h-438q24 -119 101 -183.5t204 -64.5q128 0 205.5 60.5t95.5 156.5h449 q-16 -126 -71 -234t-144 -191.5t-220 -131t-288 -47.5q-188 0 -339.5 59.5t-248.5 163t-149 240t-52 293.5z" />
<glyph unicode="&#x405;" horiz-adv-x="1318" d="M70 483h426q0 -97 48.5 -149.5t131.5 -52.5q66 0 103.5 32.5t37.5 89.5q0 56 -46.5 89.5t-170.5 82.5q-196 77 -268 118q-159 88 -207 216q-25 66 -25 148q0 86 31.5 156.5t85.5 118t127.5 80t154.5 47t169 14.5q121 0 218 -27t159.5 -72t104.5 -106.5t59.5 -126.5 t17.5 -135h-426q0 178 -142 178q-58 0 -94.5 -28t-36.5 -85q0 -53 47 -90t150 -74q199 -71 281 -115q188 -103 227 -262q12 -47 12 -100q0 -221 -157 -345t-429 -124t-430.5 136.5t-158.5 385.5z" />
<glyph unicode="&#x406;" horiz-adv-x="679" d="M125 0v1434h430v-1434h-430z" />
<glyph unicode="&#x407;" horiz-adv-x="679" d="M-123 1739q0 91 64.5 156t156.5 65q94 0 160 -65t66 -156q0 -88 -66.5 -152.5t-159.5 -64.5q-92 0 -156.5 64.5t-64.5 152.5zM125 0v1434h430v-1434h-430zM367 1739q0 91 64.5 156t156.5 65q93 0 158 -65t65 -156q0 -89 -65 -153t-158 -64q-92 0 -156.5 64.5t-64.5 152.5 z" />
<glyph unicode="&#x408;" horiz-adv-x="1288" d="M25 522h426q0 -90 39 -145t114 -55q73 0 113.5 50.5t40.5 147.5v914h428v-914q0 -555 -582 -555q-145 0 -257.5 42.5t-181.5 118.5t-104.5 176t-35.5 220z" />
<glyph unicode="&#x409;" horiz-adv-x="2189" d="M20 -35v359h95q100 0 100 82v1028h1221v-564h299q186 0 302.5 -122.5t116.5 -301.5q0 -120 -51 -221.5t-148 -163t-220 -61.5h-727v1077h-367v-753q0 -84 -20 -147t-54 -103t-86 -64.5t-109.5 -34.5t-129.5 -10h-222zM1436 297h127q75 0 117 41.5t42 107.5 q0 61 -39 103.5t-120 42.5h-127v-295z" />
<glyph unicode="&#x40a;" horiz-adv-x="2131" d="M125 0v1434h426v-539h399v539h428v-564h299q124 0 220.5 -57.5t148 -153.5t51.5 -213q0 -120 -51 -221.5t-148.5 -163t-220.5 -61.5h-727v539h-399v-539h-426zM1378 297h127q76 0 118 42t42 107q0 61 -39.5 103.5t-120.5 42.5h-127v-295z" />
<glyph unicode="&#x40b;" horiz-adv-x="1548" d="M41 1114v320h1016v-320h-295v-332q43 81 127 128.5t201 47.5q165 0 253 -94q54 -57 75.5 -141.5t21.5 -208.5v-514h-385v432q0 96 -32.5 144.5t-107.5 48.5q-150 0 -153 -199v-426h-426v1114h-295z" />
<glyph unicode="&#x40c;" horiz-adv-x="1462" d="M125 0v1434h426v-557h29q50 0 91 32.5t87 112.5l116 207q65 117 150 166t215 49h143v-371h-45q-57 0 -95 -20.5t-73 -77.5l-73 -115q-64 -105 -168 -145l516 -715h-500l-393 612v-612h-426zM375 1743l620 244l92 -258l-620 -244z" />
<glyph unicode="&#x40e;" horiz-adv-x="1398" d="M-6 1434h500l231 -510l217 510h475l-710 -1434h-480l248 506zM250 1937h293q42 -145 176 -145q74 0 116.5 40t57.5 105h295q-19 -123 -86 -211t-165 -131t-218 -43q-184 0 -314.5 101t-154.5 284z" />
<glyph unicode="&#x40f;" horiz-adv-x="1476" d="M125 0v1434h426v-1078h373v1078h428v-1434h-422v-215h-385v215h-420z" />
<glyph unicode="&#x410;" horiz-adv-x="1531" d="M8 0l529 1434h446l541 -1434h-475l-50 166h-481l-49 -166h-461zM608 475h303l-151 529z" />
<glyph unicode="&#x411;" horiz-adv-x="1376" d="M125 0v1434h1061v-320h-635v-244h334q124 0 220.5 -57.5t148 -153.5t51.5 -213q0 -120 -51 -221.5t-148.5 -163t-220.5 -61.5h-760zM551 297h160q75 0 117 41.5t42 107.5q0 63 -37.5 104.5t-121.5 41.5h-160v-295z" />
<glyph unicode="&#x412;" horiz-adv-x="1386" d="M125 0v1434h700q94 0 170.5 -18t126 -50t85 -70t53.5 -83.5t26 -85.5t8 -80q0 -64 -23.5 -121.5t-61 -97t-80.5 -66t-85 -35.5q37 -4 80 -26t84.5 -60.5t69 -102t27.5 -139.5q0 -41 -8 -82t-26 -88t-53.5 -86.5t-85 -72t-126 -51.5t-170.5 -19h-711zM551 299h147 q90 0 131 41.5t41 105.5q0 24 -7.5 47t-25 46.5t-53.5 38t-86 14.5h-147v-293zM551 870h143q90 0 131 41.5t41 104.5q0 24 -7.5 47t-25 45.5t-53.5 36.5t-86 14h-143v-289z" />
<glyph unicode="&#x413;" horiz-adv-x="1019" d="M125 0v1434h889v-365h-463v-1069h-426z" />
<glyph unicode="&#x414;" horiz-adv-x="1662" d="M25 -215v559h20q151 0 250 129q98 128 98 332v629h1065v-1090h150v-559h-385v215h-813v-215h-385zM559 344h508v746h-297v-119q0 -265 -43.5 -409t-167.5 -218z" />
<glyph unicode="&#x415;" horiz-adv-x="1159" d="M125 0v1434h924v-320h-498v-250h498v-305h-498v-240h498v-319h-924z" />
<glyph unicode="&#x416;" horiz-adv-x="2162" d="M10 0l512 719q-107 32 -170 139l-67 127q-34 57 -73 79.5t-93 22.5h-43v357h127q135 0 229.5 -48t151.5 -161l104 -207q46 -94 82 -131t88 -37h16v574h414v-574h17q52 0 88 37t82 131l104 207q57 113 151.5 161t229.5 48h127v-357h-43q-54 0 -93 -22.5t-73 -79.5 l-68 -127q-63 -107 -170 -139l512 -719h-489l-375 612v-612h-414v612l-374 -612h-490z" />
<glyph unicode="&#x417;" horiz-adv-x="1339" d="M43 485h449q0 -188 165 -188q73 0 110.5 41t37.5 102q0 81 -43.5 119.5t-140.5 38.5h-158v291h155q102 0 143.5 38.5t41.5 110.5q0 61 -37.5 95t-103.5 34q-154 0 -154 -163h-449q0 58 12 111.5t39 107t74 97t111.5 77.5t159 52.5t209.5 18.5q122 0 223 -21.5t185 -67 t131.5 -127t47.5 -191.5q0 -120 -77.5 -210t-176.5 -112q111 -26 187 -119t76 -231q0 -83 -32.5 -153t-88.5 -119.5t-131 -84t-160 -51t-176 -16.5q-139 0 -248 27t-180 73t-116.5 113t-65 142.5t-19.5 164.5z" />
<glyph unicode="&#x418;" horiz-adv-x="1531" d="M125 0v1434h426v-795l430 696v99h426v-1434h-426v795l-430 -697v-98h-426z" />
<glyph unicode="&#x419;" horiz-adv-x="1531" d="M125 0v1434h426v-795l430 696v99h426v-1434h-426v795l-430 -697v-98h-426zM303 1937h293q42 -145 176 -145t176 145h293q-19 -123 -86 -211t-165 -131t-218 -43q-185 0 -312.5 100.5t-156.5 284.5z" />
<glyph unicode="&#x41a;" horiz-adv-x="1462" d="M125 0v1434h426v-557h29q50 0 91 32.5t87 112.5l116 207q65 117 150 166t215 49h143v-371h-45q-57 0 -95 -20.5t-73 -77.5l-73 -115q-64 -105 -168 -145l516 -715h-500l-393 612v-612h-426z" />
<glyph unicode="&#x41b;" horiz-adv-x="1556" d="M20 -35v324h95q100 0 100 82v1063h1217v-1434h-426v1077h-365v-753q0 -84 -20 -147t-54 -103t-86 -64.5t-109.5 -34.5t-129.5 -10h-222z" />
<glyph unicode="&#x41c;" horiz-adv-x="1929" d="M125 0v1434h543l303 -926l305 926h528v-1434h-413v889l-261 -889h-315l-276 889v-889h-414z" />
<glyph unicode="&#x41d;" horiz-adv-x="1503" d="M125 0v1434h426v-545h399v545h428v-1434h-428v535h-399v-535h-426z" />
<glyph unicode="&#x41e;" horiz-adv-x="1660" d="M53 717q0 119 33 230.5t99 206.5t158 166.5t217 112t269 40.5t270 -40.5t218 -112t158.5 -166.5t99.5 -206.5t33 -230.5t-33 -230.5t-99.5 -206.5t-158.5 -166.5t-218 -112t-270 -40.5t-269 40.5t-217 112t-158 166.5t-99 206.5t-33 230.5zM483 717q0 -97 40 -179.5 t120.5 -135t185.5 -52.5t186 52.5t121 135t40 179.5t-40 179t-120.5 134.5t-186.5 52.5t-186 -52.5t-120 -134.5t-40 -179z" />
<glyph unicode="&#x41f;" horiz-adv-x="1501" d="M125 0v1434h1251v-1434h-426v1077h-399v-1077h-426z" />
<glyph unicode="&#x420;" horiz-adv-x="1378" d="M125 0v1434h688q159 0 283.5 -73.5t190 -195t65.5 -266.5q0 -144 -65.5 -264.5t-190 -194t-283.5 -73.5h-262v-367h-426zM551 696h176q85 0 138 58.5t53 144.5q0 87 -52 145t-137 58h-178v-406z" />
<glyph unicode="&#x421;" horiz-adv-x="1640" d="M53 717q0 119 33.5 231t99.5 207t158 166t216 111.5t265 40.5q169 0 308 -49.5t232.5 -135.5t150 -199t71.5 -245h-446q-20 108 -97.5 174.5t-205.5 66.5q-164 0 -256.5 -106.5t-92.5 -261.5q0 -159 97.5 -264t259.5 -105q115 0 194.5 61.5t100.5 155.5h450 q-19 -125 -77 -233.5t-151 -192t-228.5 -131t-296.5 -47.5q-180 0 -330 61.5t-248.5 166t-152.5 241t-54 287.5z" />
<glyph unicode="&#x422;" horiz-adv-x="1097" d="M41 1069v365h1016v-365h-295v-1069h-426v1069h-295z" />
<glyph unicode="&#x423;" horiz-adv-x="1398" d="M-6 1434h500l231 -510l217 510h475l-710 -1434h-480l248 506z" />
<glyph unicode="&#x424;" horiz-adv-x="1787" d="M45 721q0 115 41 221t116.5 189t192.5 132.5t258 49.5h49v121h383v-121h50q141 0 258 -49.5t192.5 -132.5t116.5 -189t41 -221q0 -117 -41 -224.5t-116.5 -191.5t-192.5 -134t-258 -50h-50v-121h-383v121h-49q-141 0 -258 50t-192.5 134t-116.5 191.5t-41 224.5zM453 721 q0 -113 54 -184.5t148 -71.5h47v504h-47q-95 0 -148.5 -68.5t-53.5 -179.5zM1085 465h48q94 0 148 71.5t54 184.5q0 111 -53.5 179.5t-148.5 68.5h-48v-504z" />
<glyph unicode="&#x425;" horiz-adv-x="1370" d="M12 0l426 717l-426 717h465l207 -410l207 410h467l-426 -717l426 -717h-467l-207 410l-207 -410h-465z" />
<glyph unicode="&#x426;" horiz-adv-x="1579" d="M125 0v1434h426v-1078h373v1078h426v-1078h194v-571h-385v215h-1034z" />
<glyph unicode="&#x427;" horiz-adv-x="1378" d="M45 858v576h426v-484q0 -130 56 -187.5t161 -57.5h137v729h428v-1434h-428v397h-297q-214 0 -348.5 130t-134.5 331z" />
<glyph unicode="&#x428;" horiz-adv-x="2191" d="M125 0v1434h422v-1078h338v1078h422v-1078h335v1078h424v-1434h-1941z" />
<glyph unicode="&#x429;" horiz-adv-x="2293" d="M125 0v1434h422v-1078h338v1078h422v-1078h335v1078h424v-1078h195v-571h-395v215h-1741z" />
<glyph unicode="&#x42a;" horiz-adv-x="1503" d="M20 1069v365h695v-543h334q124 0 220.5 -60t147.5 -161t51 -224q0 -120 -51 -221.5t-148 -163t-220 -61.5h-760v1069h-269zM715 297h159q76 0 118 42t42 107q0 63 -38 104.5t-122 41.5h-159v-295z" />
<glyph unicode="&#x42b;" horiz-adv-x="1914" d="M125 0v1434h426v-543h317q124 0 220.5 -60t148 -161t51.5 -224q0 -120 -51 -221.5t-148.5 -163t-220.5 -61.5h-743zM551 297h143q76 0 118 42t42 107q0 63 -38 104.5t-122 41.5h-143v-295zM1364 0v1434h426v-1434h-426z" />
<glyph unicode="&#x42c;" horiz-adv-x="1339" d="M125 0v1434h426v-543h334q124 0 220.5 -60t148 -161t51.5 -224q0 -120 -51 -221.5t-148.5 -163t-220.5 -61.5h-760zM551 297h160q75 0 117 41.5t42 107.5q0 63 -37.5 104.5t-121.5 41.5h-160v-295z" />
<glyph unicode="&#x42d;" horiz-adv-x="1624" d="M53 565h449q24 -95 106.5 -156t206.5 -61q122 0 199 63t100 185h-440v227h444q-21 121 -99.5 191.5t-199.5 70.5q-135 0 -214.5 -66t-100.5 -175h-447q15 132 70 244.5t146 199t227 136t301 49.5q178 0 324.5 -58t243 -160t149.5 -240t53 -298q0 -162 -53 -300.5 t-151 -239.5t-247 -158.5t-332 -57.5q-157 0 -289 47.5t-223 131t-147.5 191.5t-75.5 234z" />
<glyph unicode="&#x42e;" horiz-adv-x="2275" d="M125 0v1434h426v-545h151q25 122 86.5 227t154 185.5t222.5 126t281 45.5q144 0 269 -40.5t217 -112t158 -166.5t99 -206.5t33 -230.5t-33 -230.5t-99 -206.5t-158 -166.5t-217 -112t-269 -40.5q-150 0 -278.5 45t-220 123.5t-153.5 181.5t-89 224h-154v-535h-426z M1100 717q0 -97 40 -179.5t120.5 -135t185.5 -52.5q156 0 251 108.5t95 258.5t-95 258t-251 108q-106 0 -186 -52.5t-120 -134.5t-40 -179z" />
<glyph unicode="&#x42f;" horiz-adv-x="1429" d="M53 0l289 436q-124 69 -194 192t-70 271q0 108 38.5 205.5t107 170.5t170.5 116t222 43h689v-1434h-426v367h-78l-246 -367h-502zM512 899q0 -87 52.5 -145t137.5 -58h177v406h-179q-84 0 -136 -58t-52 -145z" />
<glyph unicode="&#x430;" horiz-adv-x="1355" d="M53 508q0 239 131.5 386.5t341.5 147.5q104 0 194 -54.5t116 -121.5v152h403v-1018h-403v152q-27 -66 -117 -122.5t-193 -56.5q-210 0 -341.5 148t-131.5 387zM455 508q0 -84 53 -142.5t137 -58.5t137.5 58.5t53.5 142.5q0 86 -53 143.5t-138 57.5t-137.5 -57.5 t-52.5 -143.5z" />
<glyph unicode="&#x431;" horiz-adv-x="1312" d="M61 678q0 126 16.5 224.5t49 167.5t66.5 114.5t83 89.5q66 64 161 101t183.5 48t202.5 11h312v-340h-301q-214 0 -320 -97q-53 -50 -84.5 -128t-36.5 -167q92 269 391 269q110 0 201.5 -40.5t150.5 -109t91.5 -156.5t32.5 -184q0 -105 -38.5 -197.5t-109.5 -162 t-179.5 -110t-240.5 -40.5q-261 0 -422 146q-96 87 -152.5 234t-56.5 327zM498 487q0 -87 52.5 -143.5t137.5 -56.5t138 57t53 143q0 87 -53 144t-138 57t-137.5 -56t-52.5 -145z" />
<glyph unicode="&#x432;" horiz-adv-x="1206" d="M119 0v1018h710q76 0 135 -18.5t92.5 -46t55 -64.5t28.5 -69t7 -64q0 -102 -77 -164t-202 -68q297 -12 297 -250q0 -34 -8.5 -67.5t-33.5 -72t-64.5 -67.5t-108 -48t-157.5 -19h-674zM506 207h131q54 0 85.5 30t31.5 78q0 50 -31 80.5t-86 30.5h-131v-219zM506 598h127 q54 0 84.5 29.5t30.5 77.5q0 49 -29.5 78.5t-83.5 29.5h-129v-215z" />
<glyph unicode="&#x433;" horiz-adv-x="839" d="M119 0v1018h706v-316h-327v-702h-379z" />
<glyph unicode="&#x434;" horiz-adv-x="1363" d="M35 -215v514h33q105 0 159 62.5t54 166.5v490h913v-719h109v-514h-334v215h-600v-215h-334zM508 299h354v422h-260v-180q0 -97 -19 -155t-75 -87z" />
<glyph unicode="&#x435;" horiz-adv-x="1275" d="M55 508q0 112 37 209t108 171t183 116.5t252 42.5q134 0 244.5 -40t181 -106.5t109 -150.5t38.5 -175q0 -92 -10 -151h-741q12 -188 184 -188q66 0 108.5 28t53.5 74h389q-26 -162 -170.5 -264.5t-376.5 -102.5q-276 0 -433 145t-157 392zM457 618h352q0 84 -47.5 131.5 t-126.5 47.5q-81 0 -129.5 -47t-48.5 -132z" />
<glyph unicode="&#x436;" horiz-adv-x="1738" d="M10 0l369 510q-80 24 -115 90l-35 57q-25 39 -51.5 55.5t-71.5 16.5h-47v299h127q117 0 184 -33.5t119 -128.5l82 -153q26 -45 48 -65.5t55 -20.5h14v391h363v-391h12q34 0 56 20t48 66l82 153q52 95 118.5 128.5t184.5 33.5h127v-299h-47q-47 0 -73.5 -16.5t-51.5 -55.5 l-32 -57q-38 -67 -117 -90l371 -510h-426l-252 412v-412h-363v412l-252 -412h-426z" />
<glyph unicode="&#x437;" horiz-adv-x="1124" d="M35 346h405q0 -125 117 -125q44 0 70 22.5t26 63.5q0 113 -157 113h-111v203h104q162 0 162 108q0 40 -27 63t-71 23q-57 0 -80.5 -30.5t-23.5 -88.5h-400q0 53 13.5 100t49.5 94t92.5 80.5t149.5 54t213 20.5q137 0 242.5 -29.5t171.5 -97t66 -166.5q0 -111 -66 -168 t-162 -66q105 -8 170.5 -68t65.5 -173q0 -75 -43 -136.5t-114 -99.5t-157.5 -58t-179.5 -20q-526 0 -526 381z" />
<glyph unicode="&#x438;" horiz-adv-x="1341" d="M119 0v1018h379v-561l346 475v86h379v-1018h-379v543l-346 -473v-70h-379z" />
<glyph unicode="&#x439;" horiz-adv-x="1341" d="M119 0v1018h379v-561l346 475v86h379v-1018h-379v543l-346 -473v-70h-379zM211 1532h295q15 -65 58 -105.5t116 -40.5q134 0 176 146h293q-24 -183 -154.5 -284t-314.5 -101q-185 0 -312.5 100.5t-156.5 284.5z" />
<glyph unicode="&#x43a;" horiz-adv-x="1230" d="M119 0v1018h379v-406h18q37 0 63.5 25t65.5 90l88 147q50 86 120.5 120t188.5 34h113v-305h-37q-80 0 -123 -70l-41 -63q-42 -64 -120 -80l383 -510h-457l-262 412v-412h-379z" />
<glyph unicode="&#x43b;" horiz-adv-x="1327" d="M27 -33v320h57q90 0 90 82v649h1034v-1018h-379v702h-280v-376q0 -180 -89.5 -269.5t-293.5 -89.5h-139z" />
<glyph unicode="&#x43c;" horiz-adv-x="1806" d="M119 0v1018h586l202 -635l203 635h578v-1018h-371v752l-250 -752h-315l-263 752v-752h-370z" />
<glyph unicode="&#x43d;" horiz-adv-x="1296" d="M119 0v1018h379v-348h301v348h379v-1018h-379v354h-301v-354h-379z" />
<glyph unicode="&#x43e;" horiz-adv-x="1292" d="M53 508q0 112 40 209.5t113.5 171t186.5 116t252 42.5q138 0 251.5 -42.5t187.5 -116t114.5 -171t40.5 -209.5q0 -110 -40.5 -207.5t-114.5 -171t-187.5 -116t-251.5 -42.5t-251.5 42.5t-187 116t-113.5 171t-40 207.5zM455 508q0 -86 52.5 -143.5t137.5 -57.5 q86 0 138.5 57t52.5 144q0 88 -52.5 144.5t-138.5 56.5q-85 0 -137.5 -57t-52.5 -144z" />
<glyph unicode="&#x43f;" horiz-adv-x="1290" d="M119 0v1018h1052v-1018h-380v702h-293v-702h-379z" />
<glyph unicode="&#x440;" d="M119 -416v1434h401v-150q32 68 119 121t190 53q210 0 342 -147t132 -385q0 -239 -132 -387t-342 -148q-103 0 -190 54.5t-119 122.5v-568h-401zM520 510q0 -84 53.5 -142.5t137.5 -58.5t137 58.5t53 142.5t-53 142.5t-137 58.5t-137.5 -58.5t-53.5 -142.5z" />
<glyph unicode="&#x441;" horiz-adv-x="1263" d="M55 508q0 110 38 207t109 171.5t183 117.5t252 43q132 0 237.5 -36t173.5 -99.5t108 -143.5t50 -174h-401q-24 121 -164 121q-89 0 -136.5 -60.5t-47.5 -146.5q0 -88 48 -146.5t142 -58.5q119 0 156 109h403q-21 -194 -169.5 -317.5t-397.5 -123.5q-140 0 -253 43 t-184 117.5t-109 170.5t-38 206z" />
<glyph unicode="&#x442;" horiz-adv-x="974" d="M20 702v316h934v-316h-276v-702h-381v702h-277z" />
<glyph unicode="&#x443;" horiz-adv-x="1335" d="M106 -45h404q5 -64 45.5 -100.5t108.5 -36.5q80 0 117.5 41t37.5 137v184q-42 -82 -123.5 -127t-195.5 -45q-92 0 -165.5 30t-117.5 77q-54 57 -74 132.5t-20 198.5v572h403v-516q0 -96 32.5 -144.5t107.5 -48.5q153 0 153 211v498h402v-979q0 -124 -41.5 -220.5 t-112.5 -152.5q-75 -58 -166.5 -83t-241.5 -25q-146 0 -242.5 23t-166.5 79q-141 117 -144 295z" />
<glyph unicode="&#x444;" horiz-adv-x="1505" d="M53 508q0 107 37.5 202.5t107.5 168.5t177 117t239 48v390h277v-390q131 -4 238.5 -48t177.5 -117.5t107.5 -168.5t37.5 -202q0 -106 -37 -200.5t-106 -168t-177 -118t-241 -46.5v-389h-277v389q-129 2 -236.5 46.5t-177.5 118t-108.5 168.5t-38.5 200zM414 508 q0 -90 53.5 -150.5t144.5 -60.5h2v422h-2q-91 -1 -144.5 -61t-53.5 -150zM891 297h4q90 0 143.5 61t53.5 150q0 90 -53.5 150t-143.5 61h-4v-422z" />
<glyph unicode="&#x445;" horiz-adv-x="1239" d="M12 0l367 514l-361 504h465l135 -258l138 258h465l-359 -504l365 -514h-465l-144 268l-141 -268h-465z" />
<glyph unicode="&#x446;" horiz-adv-x="1370" d="M119 0v1018h379v-703h290v703h379v-703h156v-510h-342v195h-862z" />
<glyph unicode="&#x447;" horiz-adv-x="1181" d="M55 623v395h379v-342q0 -139 144 -139h106v481h381v-1018h-381v268h-256q-181 0 -277 89.5t-96 265.5z" />
<glyph unicode="&#x448;" horiz-adv-x="1843" d="M119 0v1018h358v-703h266v703h357v-703h266v703h358v-1018h-1605z" />
<glyph unicode="&#x449;" horiz-adv-x="1927" d="M119 0v1018h358v-703h266v703h357v-703h266v703h358v-703h156v-510h-342v195h-1419z" />
<glyph unicode="&#x44a;" horiz-adv-x="1296" d="M25 729v289h608v-311h235q109 0 187.5 -30t120.5 -82t60.5 -111.5t18.5 -129.5q0 -49 -11 -96t-38.5 -95t-70 -83t-111.5 -57.5t-156 -22.5h-610v729h-233zM633 231h131q58 0 90.5 32.5t32.5 84.5t-32.5 84.5t-88.5 32.5h-133v-234z" />
<glyph unicode="&#x44b;" horiz-adv-x="1703" d="M119 0v1018h375v-311h235q109 0 187.5 -30t120.5 -82t60.5 -111.5t18.5 -129.5q0 -49 -11 -96t-38.5 -95t-70 -83t-111.5 -57.5t-156 -22.5h-610zM494 231h131q56 0 88 32.5t32 84.5t-31 84.5t-87 32.5h-133v-234zM1184 0v1018h401v-1018h-401z" />
<glyph unicode="&#x44c;" horiz-adv-x="1157" d="M119 0v1018h375v-311h235q109 0 187.5 -30t120.5 -82t60.5 -111.5t18.5 -129.5q0 -49 -11 -96t-38.5 -95t-70 -83t-111.5 -57.5t-156 -22.5h-610zM494 231h131q56 0 88 32.5t32 84.5t-31 84.5t-87 32.5h-133v-234z" />
<glyph unicode="&#x44d;" horiz-adv-x="1273" d="M55 412h404q27 -150 186 -150q170 0 182 162h-274v164h274q-6 78 -50.5 123t-129.5 45q-163 0 -190 -162h-402q18 202 172 327.5t406 125.5q145 0 259.5 -43t185 -118t107 -171t36.5 -207q0 -110 -36.5 -206t-107 -170.5t-185 -117.5t-259.5 -43q-254 0 -407 120.5 t-171 320.5z" />
<glyph unicode="&#x44e;" horiz-adv-x="1794" d="M119 0v1018h379v-350h98q46 170 189 274.5t362 104.5q138 0 251.5 -42.5t187.5 -116t114.5 -171t40.5 -209.5q0 -110 -40.5 -207.5t-114.5 -171t-187.5 -116t-251.5 -42.5q-220 0 -364 105t-187 276h-98v-352h-379zM956 508q0 -86 53 -143.5t138 -57.5q86 0 138 57 t52 144q0 88 -52 144.5t-138 56.5q-85 0 -138 -57t-53 -144z" />
<glyph unicode="&#x44f;" horiz-adv-x="1196" d="M29 0l231 319q-106 46 -158.5 129.5t-52.5 190.5q0 158 107 268.5t278 110.5h645v-1018h-389v262h-63l-172 -262h-426zM422 639q0 -55 34.5 -91t90.5 -36h143v254h-145q-54 0 -88.5 -37t-34.5 -90z" />
<glyph unicode="&#x451;" horiz-adv-x="1275" d="M55 508q0 112 37 209t108 171t183 116.5t252 42.5q134 0 244.5 -40t181 -106.5t109 -150.5t38.5 -175q0 -92 -10 -151h-741q12 -188 184 -188q66 0 108.5 28t53.5 74h389q-26 -162 -170.5 -264.5t-376.5 -102.5q-276 0 -433 145t-157 392zM164 1321q0 91 64.5 156 t156.5 65q93 0 159 -65t66 -156q0 -88 -66 -152.5t-159 -64.5q-92 0 -156.5 64.5t-64.5 152.5zM457 618h352q0 84 -47.5 131.5t-126.5 47.5q-81 0 -129.5 -47t-48.5 -132zM680 1321q0 91 64.5 156t156.5 65q93 0 158 -65t65 -156q0 -89 -65 -153t-158 -64q-92 0 -156.5 64.5 t-64.5 152.5z" />
<glyph unicode="&#x452;" horiz-adv-x="1327" d="M14 1036v203h150v195h381v-195h229v-203h-229v-286q43 82 125.5 129t199.5 47q165 0 254 -95q54 -57 74.5 -141t20.5 -209v-563q0 -104 -23 -176t-69 -111.5t-103.5 -56t-136.5 -16.5h-240v295h90q98 0 101 90v456q0 96 -32.5 144.5t-107.5 48.5q-153 0 -153 -211v-381 h-381v1036h-150z" />
<glyph unicode="&#x453;" horiz-adv-x="839" d="M100 1329l621 244l92 -258l-620 -244zM119 0v1018h706v-316h-327v-702h-379z" />
<glyph unicode="&#x454;" horiz-adv-x="1277" d="M53 508q0 111 36.5 207t107 171t185 118t259.5 43q252 0 406 -125.5t172 -327.5h-402q-27 162 -190 162q-85 0 -130.5 -45t-50.5 -123h275v-164h-275q5 -78 52 -120t131 -42q159 0 186 150h404q-18 -200 -171 -320.5t-407 -120.5q-145 0 -259.5 43t-185 117.5t-107 170.5 t-36.5 206z" />
<glyph unicode="&#x455;" horiz-adv-x="1159" d="M59 340h402q0 -123 131 -123q48 0 75 19.5t27 54.5q0 40 -42 60.5t-172 57.5q-4 1 -6.5 1.5t-6 1.5t-6.5 2q-165 41 -229 72q-131 64 -149 191q-3 22 -3 46q0 170 126.5 247t385.5 77q134 0 231 -26t151.5 -74t79.5 -107t25 -133h-399q0 54 -29 81t-78 27q-40 0 -67 -18 t-27 -54q0 -39 58 -64q34 -14 184 -54q75 -17 122 -31t100 -39t82.5 -55.5t49 -77.5t19.5 -109q0 -342 -510 -342q-264 0 -394.5 96.5t-130.5 272.5z" />
<glyph unicode="&#x456;" horiz-adv-x="638" d="M82 1325q0 97 68.5 166.5t166.5 69.5q100 0 169 -69t69 -167q0 -95 -69 -163t-169 -68q-98 0 -166.5 68.5t-68.5 162.5zM119 0v1018h401v-1018h-401z" />
<glyph unicode="&#x457;" horiz-adv-x="638" d="M-145 1337q0 91 64.5 155t156.5 64q94 0 159.5 -64t65.5 -155q0 -90 -66 -153.5t-159 -63.5q-92 0 -156.5 63.5t-64.5 153.5zM119 0v1018h401v-1018h-401zM344 1337q0 91 64.5 155t156.5 64q93 0 158 -64t65 -155q0 -90 -65 -153.5t-158 -63.5q-92 0 -156.5 63.5 t-64.5 153.5z" />
<glyph unicode="&#x458;" horiz-adv-x="638" d="M-59 -131q47 -8 84 -8q94 0 94 100v1057h401v-1100q0 -88 -17 -153t-46 -104t-73.5 -62.5t-91.5 -32t-108 -8.5q-66 0 -137 8t-106 20v283zM82 1325q0 97 68.5 166.5t166.5 69.5q100 0 169 -69t69 -167q0 -95 -69 -163t-169 -68q-98 0 -166.5 68.5t-68.5 162.5z" />
<glyph unicode="&#x459;" horiz-adv-x="1871" d="M27 -33v320h57q45 0 67.5 22.5t22.5 59.5v649h1034v-324h236q86 0 153.5 -19.5t110.5 -52.5t71.5 -78.5t40 -94t11.5 -103.5q0 -48 -11.5 -94t-40 -92.5t-71.5 -81t-111 -56.5t-153 -22h-615v702h-280v-376q0 -180 -89.5 -269.5t-293.5 -89.5h-139zM1208 231h131 q55 0 89 34.5t34 84.5t-34 83.5t-87 33.5h-133v-236z" />
<glyph unicode="&#x45a;" horiz-adv-x="1832" d="M119 0v1018h379v-324h290v324h381v-324h236q86 0 153.5 -19.5t110.5 -52.5t71.5 -78.5t40 -94t11.5 -103.5q0 -48 -11.5 -94t-40 -92.5t-71.5 -81t-111 -56.5t-153 -22h-617v381h-290v-381h-379zM1169 231h131q53 0 87 34.5t34 84.5t-32.5 83.5t-85.5 33.5h-134v-236z " />
<glyph unicode="&#x45b;" horiz-adv-x="1327" d="M14 1036v203h150v195h381v-195h229v-203h-229v-286q44 79 126.5 126.5t198.5 47.5q170 0 254 -93q54 -57 74.5 -142t20.5 -210v-479h-381v397q0 96 -32.5 144.5t-107.5 48.5q-153 0 -153 -211v-379h-381v1036h-150z" />
<glyph unicode="&#x45c;" horiz-adv-x="1236" d="M119 0v1018h379v-406h18q37 0 63.5 25t65.5 90l88 147q50 86 120.5 120t188.5 34h113v-305h-37q-80 0 -123 -70l-41 -63q-42 -64 -120 -80l383 -510h-457l-262 412v-412h-379zM287 1329l620 244l92 -258l-620 -244z" />
<glyph unicode="&#x45e;" horiz-adv-x="1335" d="M106 -45h404q5 -64 45.5 -100.5t108.5 -36.5q80 0 117.5 41t37.5 137v184q-42 -82 -123.5 -127t-195.5 -45q-92 0 -165.5 30t-117.5 77q-54 57 -74 132.5t-20 198.5v572h403v-516q0 -96 32.5 -144.5t107.5 -48.5q153 0 153 211v498h402v-979q0 -124 -41.5 -220.5 t-112.5 -152.5q-75 -58 -166.5 -83t-241.5 -25q-146 0 -242.5 23t-166.5 79q-141 117 -144 295zM209 1532h293q42 -146 176 -146t176 146h293q-19 -123 -86 -211t-165 -131t-218 -43q-185 0 -312.5 100.5t-156.5 284.5z" />
<glyph unicode="&#x45f;" horiz-adv-x="1296" d="M119 0v1018h379v-703h301v703h379v-1018h-363v-195h-334v195h-362z" />
<glyph unicode="&#x462;" horiz-adv-x="1390" d="M20 1118v316h957v-316h-373v-227h332q124 0 220.5 -60t148 -161t51.5 -224q0 -120 -51 -221.5t-148.5 -163t-220.5 -61.5h-760v1118h-156zM604 297h160q76 0 118 42t42 107q0 61 -39.5 103.5t-120.5 42.5h-160v-295z" />
<glyph unicode="&#x463;" horiz-adv-x="1185" d="M14 993v203h133v238h375v-238h228v-203h-228v-286h236q109 0 187.5 -30t120.5 -82t60.5 -111.5t18.5 -129.5q0 -49 -11 -96t-38.5 -95t-70 -83t-111.5 -57.5t-156 -22.5h-611v993h-133zM522 231h131q59 0 91 32.5t32 84.5t-32.5 84.5t-88.5 32.5h-133v-234z" />
<glyph unicode="&#x472;" horiz-adv-x="1660" d="M53 717q0 119 33 230.5t99 206.5t158 166.5t217 112t269 40.5t270 -40.5t218 -112t158.5 -166.5t99.5 -206.5t33 -230.5t-33 -230.5t-99.5 -206.5t-158.5 -166.5t-218 -112t-270 -40.5t-269 40.5t-217 112t-158 166.5t-99 206.5t-33 230.5zM496 627q26 -121 114 -199 t219 -78t219.5 78t114.5 199h-667zM496 811h667q-26 118 -115 195t-219 77q-129 0 -218 -77t-115 -195z" />
<glyph unicode="&#x473;" horiz-adv-x="1292" d="M53 508q0 112 40 209.5t113.5 171t186.5 116t252 42.5q138 0 251.5 -42.5t187.5 -116t114.5 -171t40.5 -209.5q0 -110 -40.5 -207.5t-114.5 -171t-187.5 -116t-251.5 -42.5t-251.5 42.5t-187 116t-113.5 171t-40 207.5zM463 449q18 -64 65 -103t117 -39t117 39t65 103 h-364zM463 569h364q-18 63 -65.5 101.5t-116.5 38.5t-116.5 -38.5t-65.5 -101.5z" />
<glyph unicode="&#x474;" horiz-adv-x="1558" d="M8 1434h461l291 -981l225 743q43 144 131 200t252 56h176v-356h-47q-65 0 -101 -25t-65 -102l-344 -969h-450z" />
<glyph unicode="&#x475;" horiz-adv-x="1269" d="M8 1018h416l215 -606l149 411q42 122 118 165.5t212 43.5h144v-315h-35q-46 0 -75.5 -20.5t-59.5 -84.5l-279 -612h-350z" />
<glyph unicode="&#x48a;" horiz-adv-x="1624" d="M125 0v1434h426v-795l430 696v99h426v-1078h176v-571h-393v215h-209v795l-430 -697v-98h-426zM303 1937h293q42 -145 176 -145t176 145h293q-19 -123 -86 -211t-165 -131t-218 -43q-185 0 -312.5 100.5t-156.5 284.5z" />
<glyph unicode="&#x48b;" horiz-adv-x="1413" d="M119 0v1018h379v-561l346 475v86h379v-703h155v-510h-342v195h-192v543l-346 -473v-70h-379zM211 1532h295q15 -65 58 -105.5t116 -40.5q134 0 176 146h293q-24 -183 -154.5 -284t-314.5 -101q-185 0 -312.5 100.5t-156.5 284.5z" />
<glyph unicode="&#x48c;" horiz-adv-x="1374" d="M27 1036v211h135v187h426v-187h344v-211h-344v-145h334q124 0 220.5 -60t147.5 -161t51 -224q0 -120 -51 -221.5t-148 -163t-220 -61.5h-760v1036h-135zM588 297h160q76 0 117.5 41.5t41.5 107.5q0 61 -39 103.5t-120 42.5h-160v-295z" />
<glyph unicode="&#x48d;" horiz-adv-x="1212" d="M29 760v203h131v55h375v-55h231v-203h-231v-53h235q109 0 187.5 -30t120.5 -82t60.5 -111.5t18.5 -129.5q0 -49 -11 -96t-38.5 -95t-70 -83t-111.5 -57.5t-156 -22.5h-610v760h-131zM535 231h131q56 0 88 32.5t32 84.5t-31 84.5t-87 32.5h-133v-234z" />
<glyph unicode="&#x48e;" horiz-adv-x="1378" d="M125 0v1434h688q159 0 283.5 -73.5t190 -195t65.5 -266.5q0 -144 -67 -266t-189 -193l80 -100l-140 -102l-110 141q-56 -12 -113 -12h-262v-367h-426zM551 696h147l-65 86l139 105l94 -119q52 52 52 131q0 87 -52 145t-137 58h-178v-406z" />
<glyph unicode="&#x48f;" d="M119 -416v1434h401v-150q32 68 119 121t190 53q210 0 342 -147t132 -385q0 -148 -51 -261.5t-144 -180.5l80 -101l-139 -102l-103 131q-58 -21 -117 -21q-103 0 -190 54.5t-119 122.5v-568h-401zM520 510q0 -80 49 -137.5t127 -61.5q19 0 27 2l-78 99l139 102l86 -106 q31 46 31 102q0 84 -53 142.5t-137 58.5t-137.5 -58.5t-53.5 -142.5z" />
<glyph unicode="&#x490;" horiz-adv-x="1013" d="M125 0v1434h577v215h312v-564h-463v-1085h-426z" />
<glyph unicode="&#x491;" horiz-adv-x="856" d="M119 0v1018h399v223h324v-539h-344v-702h-379z" />
<glyph unicode="&#x492;" horiz-adv-x="1058" d="M49 637v213h115v584h889v-365h-463v-219h192v-213h-192v-637h-426v637h-115z" />
<glyph unicode="&#x493;" horiz-adv-x="892" d="M45 340v203h115v475h706v-316h-327v-159h176v-203h-176v-340h-379v340h-115z" />
<glyph unicode="&#x494;" horiz-adv-x="1300" d="M125 0v1434h680v-297h-295v-334q44 79 127.5 126.5t200.5 47.5q171 0 254 -92q54 -57 76 -143t22 -210v-614q0 -104 -24 -176t-70 -111.5t-104 -56t-136 -16.5h-244v305h90q98 0 101 90v498q0 96 -32 144t-107 48q-154 0 -154 -211v-432h-385z" />
<glyph unicode="&#x495;" horiz-adv-x="1251" d="M119 0v1018h381v-461q36 81 115 128.5t188 47.5q160 0 241 -94q54 -57 75.5 -141.5t21.5 -208.5v-371q0 -104 -24 -176t-70.5 -111.5t-106 -56t-139.5 -16.5q-49 0 -128.5 6.5t-105.5 13.5v281q23 -6 90 -6q101 0 101 98v276q0 85 -29 128.5t-94 43.5q-135 0 -135 -190 v-209h-381z" />
<glyph unicode="&#x496;" horiz-adv-x="2162" d="M10 0l512 719q-107 32 -170 139l-67 127q-34 57 -73 79.5t-93 22.5h-43v357h127q135 0 229.5 -48t151.5 -161l104 -207q46 -94 82 -131t88 -37h16v574h414v-574h17q52 0 88 37t82 131l104 207q57 113 151.5 161t229.5 48h127v-357h-43q-54 0 -93 -22.5t-73 -79.5 l-68 -127q-63 -107 -170 -139l512 -719v-215h-385v215h-104l-375 612v-612h-414v612l-374 -612h-490z" />
<glyph unicode="&#x497;" horiz-adv-x="1738" d="M10 0l369 510q-80 24 -115 90l-35 57q-25 39 -51.5 55.5t-71.5 16.5h-47v299h127q117 0 184 -33.5t119 -128.5l82 -153q26 -45 48 -65.5t55 -20.5h14v391h363v-391h12q34 0 56 20t48 66l82 153q52 95 118.5 128.5t184.5 33.5h127v-299h-47q-47 0 -73.5 -16.5t-51.5 -55.5 l-32 -57q-38 -67 -117 -90l371 -510v-195h-322v195h-104l-252 412v-412h-363v412l-252 -412h-426z" />
<glyph unicode="&#x498;" horiz-adv-x="1339" d="M43 485h449q0 -188 165 -188q73 0 110.5 41t37.5 102q0 81 -43.5 119.5t-140.5 38.5h-158v291h155q102 0 143.5 38.5t41.5 110.5q0 61 -37.5 95t-103.5 34q-154 0 -154 -163h-449q0 58 12 111.5t39 107t74 97t111.5 77.5t159 52.5t209.5 18.5q122 0 223 -21.5t185 -67 t131.5 -127t47.5 -191.5q0 -120 -77.5 -210t-176.5 -112q111 -26 187 -119t76 -231q0 -75 -26.5 -139.5t-73 -112.5t-110.5 -84t-137 -56.5t-153 -27.5v-78q33 37 100 37q76 0 124 -56.5t48 -129.5q0 -90 -62.5 -150.5t-174.5 -60.5q-95 0 -163.5 53.5t-72.5 147.5h172 q5 -26 22 -42t42 -16q29 0 47 19t18 49q0 26 -17.5 44.5t-43.5 18.5q-45 0 -60 -30h-157v194q-539 36 -539 516z" />
<glyph unicode="&#x499;" horiz-adv-x="1124" d="M35 346h405q0 -125 117 -125q44 0 70 22.5t26 63.5q0 113 -157 113h-111v203h104q162 0 162 108q0 40 -27 63t-71 23q-57 0 -80.5 -30.5t-23.5 -88.5h-400q0 53 13.5 100t49.5 94t92.5 80.5t149.5 54t213 20.5q137 0 242.5 -29.5t171.5 -97t66 -166.5q0 -111 -66 -168 t-162 -66q105 -8 170.5 -68t65.5 -173q0 -90 -60 -158t-150 -104t-202 -48v-69q29 37 98 37q76 0 125 -57t49 -130q0 -90 -62.5 -150.5t-174.5 -60.5q-95 0 -164.5 53.5t-73.5 147.5h172q5 -25 22.5 -41t43.5 -16q29 0 46 18.5t17 48.5q0 27 -16.5 45.5t-44.5 18.5 q-42 0 -57 -31h-158v186q-430 30 -430 377z" />
<glyph unicode="&#x49a;" horiz-adv-x="1462" d="M125 0v1434h426v-557h29q50 0 91 32.5t87 112.5l116 207q65 117 150 166t215 49h143v-371h-45q-57 0 -95 -20.5t-73 -77.5l-73 -115q-64 -105 -168 -145l516 -715v-215h-385v215h-115l-393 612v-612h-426z" />
<glyph unicode="&#x49b;" horiz-adv-x="1236" d="M119 0v1018h379v-406h18q37 0 63.5 25t65.5 90l88 147q50 86 120.5 120t188.5 34h113v-305h-37q-80 0 -123 -70l-41 -63q-42 -64 -120 -80l383 -510v-195h-320v195h-137l-262 412v-412h-379z" />
<glyph unicode="&#x49c;" horiz-adv-x="1462" d="M125 0v1434h426v-564h59v263h58v-263q43 0 76.5 35t70.5 117l92 207q53 118 140.5 166.5t218.5 48.5h116v-371h-24q-53 0 -91 -19.5t-65 -72.5l-55 -111q-50 -102 -137 -135l434 -735h-486l-290 600v-203h-58v203h-59v-600h-426z" />
<glyph unicode="&#x49d;" horiz-adv-x="1236" d="M119 0v1018h379v-406h43v131h51v-127h4q23 5 40 29t48 82l74 147q39 88 108.5 121t188.5 33h100v-311h-16q-38 0 -63.5 -10t-47.5 -39l-39 -64q-25 -38 -47 -58.5t-51 -27.5l326 -518h-424l-201 412v-189h-51v189h-43v-412h-379z" />
<glyph unicode="&#x49e;" horiz-adv-x="1497" d="M27 1042v205h135v187h426v-187h129v-205h-129v-165h28q49 0 90 32.5t87 112.5l116 207q65 117 150.5 166t216.5 49h143v-371h-47q-55 0 -93.5 -20.5t-74.5 -77.5l-71 -115q-64 -105 -168 -145l516 -715h-500l-393 612v-612h-426v1042h-135z" />
<glyph unicode="&#x49f;" horiz-adv-x="1277" d="M25 760v196h133v62h381v-62h102v-196h-102v-148h16q37 0 64.5 25.5t64.5 89.5l88 147q50 86 120.5 120t188.5 34h115v-305h-37q-82 0 -125 -70l-41 -63q-43 -65 -121 -80l385 -510h-458l-260 412v-412h-381v760h-133z" />
<glyph unicode="&#x4a0;" horiz-adv-x="1626" d="M20 1069v365h695l2 -557h28q49 0 90 32.5t87 112.5l116 207q65 117 150.5 166t216.5 49h143v-371h-47q-55 0 -93.5 -20.5t-74.5 -77.5l-71 -115q-64 -105 -168 -145l516 -715h-500l-393 612v-612h-428v1069h-269z" />
<glyph unicode="&#x4a1;" horiz-adv-x="1378" d="M25 729v289h614v-406h16q37 0 64.5 25.5t64.5 89.5l88 147q50 86 121 120t189 34h114v-305h-36q-82 0 -125 -70l-41 -63q-43 -65 -121 -80l385 -510h-459l-260 412v-412h-381v729h-233z" />
<glyph unicode="&#x4a2;" horiz-adv-x="1589" d="M125 0v1434h426v-545h399v545h428v-1078h174v-573h-393v217h-209v535h-399v-535h-426z" />
<glyph unicode="&#x4a3;" horiz-adv-x="1374" d="M119 0v1018h379v-348h301v348h379v-703h155v-510h-342v195h-192v354h-301v-354h-379z" />
<glyph unicode="&#x4a4;" horiz-adv-x="1693" d="M125 0v1434h426v-545h399v545h723v-365h-295v-1069h-428v535h-399v-535h-426z" />
<glyph unicode="&#x4a5;" horiz-adv-x="1470" d="M119 0v1018h379v-348h301v348h647v-289h-268v-729h-379v354h-301v-354h-379z" />
<glyph unicode="&#x4a6;" horiz-adv-x="1609" d="M125 0v1434h1251v-1078h195v-573h-393v217h-228v1077h-399v-1077h-426z" />
<glyph unicode="&#x4a7;" horiz-adv-x="1353" d="M119 0v1018h1052v-703h156v-510h-342v195h-194v702h-293v-702h-379z" />
<glyph unicode="&#x4a8;" horiz-adv-x="1716" d="M53 729q0 156 44 289.5t126 232.5t205 157.5t274 64.5v-390q-120 -7 -185.5 -99.5t-65.5 -242.5q0 -162 89 -277.5t242 -139.5v659q0 120 33.5 214.5t91.5 153t133 89t162 30.5q101 0 179.5 -24t142 -77.5t97.5 -150t34 -231.5v-252q0 -259 -144 -463t-397 -276v-62 q12 -71 113 -71h96v-303h-195q-81 0 -140.5 16t-106.5 54t-72 106.5t-27 167.5v61q-169 12 -308.5 78t-230.5 169.5t-140.5 236t-49.5 280.5zM1112 383q86 50 134 144t50 208v269q0 80 -21 119.5t-69 39.5q-94 0 -94 -155v-625z" />
<glyph unicode="&#x4a9;" horiz-adv-x="1318" d="M53 526q0 226 123.5 370t343.5 151v-328q-73 -10 -110 -66t-37 -145q0 -95 49 -160t141 -82v430q0 97 30 168.5t81 109.5t107.5 55.5t119.5 17.5q52 0 98.5 -10t91.5 -35t77.5 -63.5t52.5 -99.5t20 -139v-182q0 -183 -110 -326t-304 -196v-117q3 -74 80 -74h70v-247h-129 q-66 0 -114.5 13t-89 45t-61 93t-20.5 150v116q-236 20 -373 176.5t-137 374.5zM827 315q107 74 107 207v113q0 93 -12 131.5t-41 38.5q-54 0 -54 -111v-379z" />
<glyph unicode="&#x4aa;" horiz-adv-x="1640" d="M53 717q0 119 33.5 231t99.5 207t158 166t216 111.5t265 40.5q169 0 308 -49.5t232.5 -135.5t150 -199t71.5 -245h-446q-20 108 -97.5 174.5t-205.5 66.5q-164 0 -256.5 -106.5t-92.5 -261.5q0 -159 97.5 -264t259.5 -105q115 0 194.5 61.5t100.5 155.5h450 q-16 -117 -68.5 -220t-136 -183.5t-202.5 -132.5t-260 -64v-74q33 37 100 37q76 0 124 -56.5t48 -129.5q0 -89 -63 -150t-175 -61q-94 0 -162.5 53.5t-72.5 147.5h172q5 -26 21.5 -42t41.5 -16q29 0 47.5 19.5t18.5 48.5q0 26 -17.5 44.5t-43.5 18.5q-45 0 -60 -30h-158v190 q-160 14 -292 81t-218.5 169.5t-134 232t-47.5 269.5z" />
<glyph unicode="&#x4ab;" horiz-adv-x="1263" d="M55 508q0 110 38 207t109 171.5t183 117.5t252 43q132 0 237.5 -36t173.5 -99.5t108 -143.5t50 -174h-401q-24 121 -164 121q-89 0 -136.5 -60.5t-47.5 -146.5q0 -88 48 -146.5t142 -58.5q119 0 156 109h403q-21 -184 -154 -303t-360 -136v-73q29 37 99 37q76 0 125 -57 t49 -130q0 -89 -63 -150t-175 -61q-95 0 -164.5 53.5t-73.5 147.5h173q5 -25 22 -41t43 -16q29 0 46.5 18.5t17.5 48.5q0 27 -17 45.5t-45 18.5q-41 0 -57 -31h-158v199q-219 36 -339 181.5t-120 344.5z" />
<glyph unicode="&#x4ac;" horiz-adv-x="1097" d="M41 1069v365h1016v-365h-295v-713h174v-573h-393v217h-207v1069h-295z" />
<glyph unicode="&#x4ad;" horiz-adv-x="974" d="M20 702v316h934v-316h-276v-387h153v-510h-339v195h-195v702h-277z" />
<glyph unicode="&#x4ae;" horiz-adv-x="1464" d="M14 1434h480l237 -510l240 510h479l-506 -938v-496h-424v496z" />
<glyph unicode="&#x4af;" horiz-adv-x="1239" d="M14 1018h420l184 -549l189 549h420l-398 -946v-488h-421v488z" />
<glyph unicode="&#x4b0;" horiz-adv-x="1464" d="M14 1434h480l237 -510l240 510h479l-496 -918v-33h213v-211h-223v-272h-424v272h-223v211h211v33z" />
<glyph unicode="&#x4b1;" horiz-adv-x="1239" d="M14 1018h420l184 -549l189 549h420l-398 -946v-72h166v-203h-166v-213h-421v213h-164v203h164v72z" />
<glyph unicode="&#x4b2;" horiz-adv-x="1370" d="M12 0l426 717l-426 717h465l207 -410l207 410h467l-426 -717l426 -717v-205h-369v205h-98l-207 410l-207 -410h-465z" />
<glyph unicode="&#x4b3;" horiz-adv-x="1239" d="M12 0l367 514l-361 504h465l135 -258l138 258h465l-359 -504l365 -514v-195h-320v195h-145l-144 268l-141 -268h-465z" />
<glyph unicode="&#x4b4;" horiz-adv-x="1767" d="M20 1069v365h936v-365h-215v-713h371v1078h428v-1078h195v-571h-387v215h-1033v1069h-295z" />
<glyph unicode="&#x4b5;" horiz-adv-x="1525" d="M25 729v289h780v-289h-152v-414h291v703h379v-703h156v-510h-342v195h-863v729h-249z" />
<glyph unicode="&#x4b6;" horiz-adv-x="1484" d="M45 858v576h426v-484q0 -130 56 -187.5t161 -57.5h137v729h428v-1078h195v-573h-395v217h-228v397h-297q-214 0 -348.5 130t-134.5 331z" />
<glyph unicode="&#x4b7;" horiz-adv-x="1253" d="M47 623v395h381v-342q0 -139 143 -139h107v481h379v-703h155v-510h-342v195h-192v268h-258q-181 0 -277 89.5t-96 265.5z" />
<glyph unicode="&#x4b8;" horiz-adv-x="1378" d="M45 858v576h426v-484q0 -215 166 -241v157h92v-161h96v729h428v-1434h-428v397h-96v-141h-92v141h-117q-211 4 -343 133t-132 328z" />
<glyph unicode="&#x4b9;" horiz-adv-x="1175" d="M47 623v395h381v-342q0 -120 102 -135v159h76v-163h72v481h379v-1018h-379v268h-72v-149h-76v149h-110q-181 0 -277 89.5t-96 265.5z" />
<glyph unicode="&#x4ba;" horiz-adv-x="1320" d="M125 0v1434h385v-383h211q147 0 236 -36.5t149 -103.5q55 -59 80.5 -150.5t25.5 -248.5v-512h-385v492q0 116 -47 168.5t-151 52.5h-119v-713h-385z" />
<glyph unicode="&#x4bb;" horiz-adv-x="1282" d="M119 0v1434h381v-566q44 79 126.5 126.5t198.5 47.5q171 0 254 -92q54 -57 74.5 -142t20.5 -210v-598h-381v516q0 96 -32.5 144.5t-107.5 48.5q-153 0 -153 -211v-498h-381z" />
<glyph unicode="&#x4bc;" horiz-adv-x="2004" d="M16 893v119h258v-80q0 -43 25 -69.5t66 -26.5h57q19 133 78.5 248t154.5 202t233 137t302 50q171 0 316 -59t241.5 -159t150.5 -232.5t54 -279.5q0 -14 -2 -65t-2 -62h-1088q40 -288 326 -288q217 0 289 170h456q-19 -101 -77 -195t-149 -170t-225 -122t-290 -46 q-168 0 -308 51t-234.5 140t-153 206t-74.5 254h-131q-122 0 -197.5 78t-75.5 199zM864 836h643q-17 130 -102.5 203t-224.5 73q-130 0 -214.5 -71.5t-101.5 -204.5z" />
<glyph unicode="&#x4bd;" horiz-adv-x="1593" d="M16 694v119h252v-98q0 -43 24.5 -70t65.5 -27h29q34 192 181 310.5t390 118.5q134 0 244.5 -40t181.5 -106.5t109.5 -150.5t38.5 -175q0 -80 -12 -151h-742q12 -188 187 -188q65 0 106.5 28t54.5 74h390q-26 -162 -172 -264.5t-377 -102.5q-254 0 -405.5 120t-178.5 333 h-92q-122 0 -198.5 75.5t-76.5 194.5zM778 618h352q0 84 -47 131.5t-127 47.5t-129 -47.5t-49 -131.5z" />
<glyph unicode="&#x4be;" horiz-adv-x="2004" d="M16 893v119h258v-80q0 -43 25 -69.5t66 -26.5h57q19 133 78.5 248t154.5 202t233 137t302 50q171 0 316 -59t241.5 -159t150.5 -232.5t54 -279.5q0 -14 -2 -65t-2 -62h-1088q40 -288 326 -288q217 0 289 170h456q-16 -92 -66 -178.5t-128.5 -160t-193.5 -124t-249 -64.5 q-57 -54 -57 -131q0 -45 25.5 -76.5t68.5 -31.5q57 0 115 24l-8 -159q-85 -31 -203 -31q-140 0 -210.5 55.5t-70.5 142.5q0 118 111 209q-280 36 -447.5 211t-197.5 432h-131q-122 0 -197.5 78t-75.5 199zM864 836h643q-17 130 -102.5 203t-224.5 73q-130 0 -214.5 -71.5 t-101.5 -204.5z" />
<glyph unicode="&#x4bf;" horiz-adv-x="1593" d="M16 694v119h252v-98q0 -43 24.5 -70t65.5 -27h29q34 192 181 310.5t390 118.5q134 0 244.5 -40t181.5 -106.5t109.5 -150.5t38.5 -175q0 -80 -12 -151h-742q12 -188 187 -188q65 0 106.5 28t54.5 74h390q-26 -146 -143.5 -244.5t-309.5 -118.5q-74 -63 -74 -135 q0 -45 25.5 -76.5t68.5 -31.5q57 0 115 24l-8 -159q-85 -31 -203 -31q-139 0 -208.5 55t-69.5 143q0 112 127 218q-196 29 -313 143.5t-140 298.5h-92q-122 0 -198.5 75.5t-76.5 194.5zM778 618h352q0 84 -47 131.5t-127 47.5t-129 -47.5t-49 -131.5z" />
<glyph unicode="&#x4c0;" horiz-adv-x="679" d="M125 0v1434h430v-1434h-430z" />
<glyph unicode="&#x4c3;" horiz-adv-x="1441" d="M125 0v1434h426v-611h35q52 0 88 30.5t76 113.5l124 262q55 118 142.5 166.5t222.5 48.5h143v-371h-45q-57 0 -95 -20.5t-73 -77.5l-82 -129q-48 -73 -118 -98q154 -24 241 -127q44 -52 64 -130.5t20 -205.5v-367q0 -104 -25.5 -176t-76 -111.5t-114 -56t-150.5 -16.5 q-49 0 -129.5 6.5t-106.5 13.5v289q12 -4 90 -4q101 0 101 96v381q0 119 -42.5 174t-140.5 55h-149v-569h-426z" />
<glyph unicode="&#x4c4;" horiz-adv-x="1255" d="M119 0v1018h379v-408h18q37 0 63.5 25.5t65.5 91.5l88 147q50 86 120.5 120t188.5 34h113v-305h-37q-80 0 -123 -70l-39 -59q-36 -52 -100 -70q125 -22 197 -106q71 -80 71 -236v-266q0 -84 -16.5 -146.5t-45 -102.5t-72.5 -65t-94.5 -34.5t-115.5 -9.5h-221v295h74 q104 0 110 90v290q0 85 -34 129t-111 44h-100v-406h-379z" />
<glyph unicode="&#x4c5;" horiz-adv-x="1624" d="M20 -35v324h95q100 0 100 82v1063h1217v-1223h174l-150 -397h-391l70 186h-129v1077h-365v-753q0 -84 -20 -147t-54 -103t-86 -64.5t-109.5 -34.5t-129.5 -10h-222z" />
<glyph unicode="&#x4c6;" horiz-adv-x="1392" d="M27 -33v320h57q90 0 90 82v649h1034v-807h160l-149 -397h-345l70 186h-115v702h-280v-376q0 -180 -89.5 -269.5t-293.5 -89.5h-139z" />
<glyph unicode="&#x4c7;" horiz-adv-x="1501" d="M125 0v1434h426v-545h399v545h428v-1516q0 -104 -23 -176t-68.5 -111.5t-103 -56t-136.5 -16.5h-285v305h90q98 0 98 90v582h-399v-535h-426z" />
<glyph unicode="&#x4c8;" horiz-adv-x="1290" d="M119 0v1018h379v-348h301v348h379v-1100q0 -88 -16 -153t-42 -104t-67 -62.5t-84 -32t-99 -8.5q-34 0 -138.5 2.5t-110.5 5.5v295q11 -4 81 -4q97 0 97 92v405h-301v-354h-379z" />
<glyph unicode="&#x4c9;" horiz-adv-x="1521" d="M125 0v1434h426v-545h399v545h428v-1223h174l-149 -397h-393l69 186h-129v535h-399v-535h-426z" />
<glyph unicode="&#x4ca;" d="M119 0v1018h379v-348h301v348h379v-807h159l-149 -397h-344l69 186h-114v354h-301v-354h-379z" />
<glyph unicode="&#x4cb;" horiz-adv-x="1378" d="M45 858v576h426v-484q0 -130 56 -187.5t161 -57.5h137v729h428v-1434h-209v-215h-393v426h174v186h-297q-214 0 -348.5 130t-134.5 331z" />
<glyph unicode="&#x4cc;" horiz-adv-x="1253" d="M47 623v395h381v-342q0 -139 143 -139h107v481h379v-703h155v-510h-342v195h-192v268h-258q-181 0 -277 89.5t-96 265.5z" />
<glyph unicode="&#x4cd;" horiz-adv-x="1996" d="M125 0v1434h543l303 -926l305 926h528v-1223h174l-149 -397h-391l69 186h-116v889l-261 -889h-315l-276 889v-889h-414z" />
<glyph unicode="&#x4ce;" horiz-adv-x="1814" d="M119 0v1018h540l213 -637l213 637h541v-807h158l-150 -397h-336l70 186h-117v662l-252 -662h-256l-249 662v-662h-375z" />
<glyph unicode="&#x4d0;" horiz-adv-x="1531" d="M8 0l529 1434h446l541 -1434h-475l-50 166h-481l-49 -166h-461zM291 1937h295q15 -65 57.5 -105t116.5 -40q134 0 176 145h293q-24 -183 -154.5 -284t-314.5 -101q-185 0 -312.5 100.5t-156.5 284.5zM608 475h303l-151 529z" />
<glyph unicode="&#x4d1;" horiz-adv-x="1355" d="M53 508q0 239 131.5 386.5t341.5 147.5q104 0 194 -54.5t116 -121.5v152h403v-1018h-403v152q-27 -66 -117 -122.5t-193 -56.5q-210 0 -341.5 148t-131.5 387zM211 1532h295q15 -65 58 -105.5t116 -40.5q134 0 176 146h293q-24 -183 -154.5 -284t-314.5 -101 q-185 0 -312.5 100.5t-156.5 284.5zM455 508q0 -84 53 -142.5t137 -58.5t137.5 58.5t53.5 142.5q0 86 -53 143.5t-138 57.5t-137.5 -57.5t-52.5 -143.5z" />
<glyph unicode="&#x4d2;" horiz-adv-x="1531" d="M8 0l529 1434h446l541 -1434h-475l-50 166h-481l-49 -166h-461zM281 1739q0 91 64.5 156t156.5 65q93 0 158 -65t65 -156q0 -89 -65 -153t-158 -64q-92 0 -156.5 64.5t-64.5 152.5zM608 475h303l-151 529zM797 1739q0 91 64.5 156t156.5 65q93 0 158 -65t65 -156 q0 -89 -65 -153t-158 -64q-92 0 -156.5 64.5t-64.5 152.5z" />
<glyph unicode="&#x4d3;" horiz-adv-x="1355" d="M53 508q0 239 131.5 386.5t341.5 147.5q104 0 194 -54.5t116 -121.5v152h403v-1018h-403v152q-27 -66 -117 -122.5t-193 -56.5q-210 0 -341.5 148t-131.5 387zM160 1321q0 91 64.5 156t156.5 65q93 0 158 -65t65 -156q0 -89 -65 -153t-158 -64q-92 0 -156.5 64.5 t-64.5 152.5zM455 508q0 -84 53 -142.5t137 -58.5t137.5 58.5t53.5 142.5q0 86 -53 143.5t-138 57.5t-137.5 -57.5t-52.5 -143.5zM676 1321q0 91 64.5 156t156.5 65q93 0 158 -65t65 -156q0 -89 -65 -153t-158 -64q-92 0 -156.5 64.5t-64.5 152.5z" />
<glyph unicode="&#x4d4;" horiz-adv-x="1957" d="M8 0l678 1434h1161v-320h-495v-250h495v-305h-495v-240h495v-319h-921v166h-383l-70 -166h-465zM672 475h254v586z" />
<glyph unicode="&#x4d5;" horiz-adv-x="2066" d="M63 508q0 238 132 386t342 148q104 0 191.5 -54t119.5 -122v152h340v-12q109 41 239 41q134 0 244.5 -40t181.5 -106.5t109.5 -150.5t38.5 -175q0 -80 -12 -151h-738q0 -82 42.5 -135t140.5 -53q65 0 106.5 28t54.5 74h390q-26 -163 -170.5 -265t-378.5 -102 q-134 0 -246 41v-12h-342v152q-32 -68 -120 -123.5t-191 -55.5q-210 0 -342 148t-132 387zM467 508q0 -84 52.5 -142.5t135.5 -58.5q84 0 138.5 58.5t54.5 142.5q0 87 -54 144t-139 57q-83 0 -135.5 -57.5t-52.5 -143.5zM1251 618h351q0 79 -48 126t-127 47 q-80 0 -127.5 -44.5t-48.5 -128.5z" />
<glyph unicode="&#x4d6;" horiz-adv-x="1159" d="M125 0v1434h924v-320h-498v-250h498v-305h-498v-240h498v-319h-924zM125 1937h295q15 -65 57.5 -105t116.5 -40q134 0 176 145h293q-24 -183 -154.5 -284t-314.5 -101q-185 0 -312.5 100.5t-156.5 284.5z" />
<glyph unicode="&#x4d7;" horiz-adv-x="1275" d="M55 508q0 112 37.5 209t108.5 171t183.5 116.5t252.5 42.5q134 0 244.5 -40t181 -106.5t109 -150.5t38.5 -175q0 -80 -12 -151h-741q12 -188 186 -188q65 0 107.5 28t54.5 74h389q-26 -162 -172 -264.5t-377 -102.5q-275 0 -432.5 145.5t-157.5 391.5zM174 1532h293 q42 -146 176 -146t176 146h293q-19 -123 -86 -211t-165 -131t-218 -43q-185 0 -312.5 100.5t-156.5 284.5zM457 618h352q0 84 -47 131.5t-127 47.5t-129 -47.5t-49 -131.5z" />
<glyph unicode="&#x4d8;" horiz-adv-x="1644" d="M53 696q0 12 2 64t2 65h1096q-18 137 -101 211t-233 74q-217 0 -289 -170h-456q19 101 77 195t149 170t225 122t290 46q184 0 333 -60.5t244.5 -164.5t147 -239.5t51.5 -289.5q0 -155 -52 -291t-148.5 -239.5t-245 -163.5t-330.5 -60q-171 0 -316 59t-241.5 159 t-150.5 233t-54 280zM498 606q17 -134 102.5 -207t224.5 -73q133 0 221 72t105 208h-653z" />
<glyph unicode="&#x4d9;" horiz-adv-x="1275" d="M66 442q0 81 12 152h741q-5 85 -46.5 136.5t-139.5 51.5q-66 0 -108 -27t-54 -73h-389q26 161 172 263t377 102q275 0 432.5 -145t157.5 -392q0 -111 -37.5 -208t-108.5 -171t-183.5 -117t-252.5 -43q-134 0 -244.5 39.5t-181 106t-109 150.5t-38.5 175zM467 399 q0 -84 47 -131t127 -47t129 47t49 131h-352z" />
<glyph unicode="&#x4da;" horiz-adv-x="1644" d="M53 696q0 12 2 64t2 65h1096q-18 137 -101 211t-233 74q-217 0 -289 -170h-456q19 101 77 195t149 170t225 122t290 46q184 0 333 -60.5t244.5 -164.5t147 -239.5t51.5 -289.5q0 -155 -52 -291t-148.5 -239.5t-245 -163.5t-330.5 -60q-171 0 -316 59t-241.5 159 t-150.5 233t-54 280zM346 1739q0 91 64.5 156t156.5 65q93 0 158.5 -65t65.5 -156q0 -88 -65.5 -152.5t-158.5 -64.5q-92 0 -156.5 64.5t-64.5 152.5zM498 606q17 -134 102.5 -207t224.5 -73q133 0 221 72t105 208h-653zM862 1739q0 91 64.5 156t156.5 65q93 0 158.5 -65 t65.5 -156q0 -88 -65.5 -152.5t-158.5 -64.5q-92 0 -156.5 64.5t-64.5 152.5z" />
<glyph unicode="&#x4db;" horiz-adv-x="1275" d="M66 442q0 81 12 152h741q-5 85 -46.5 136.5t-139.5 51.5q-66 0 -108 -27t-54 -73h-389q26 161 172 263t377 102q275 0 432.5 -145t157.5 -392q0 -111 -37.5 -208t-108.5 -171t-183.5 -117t-252.5 -43q-134 0 -244.5 39.5t-181 106t-109 150.5t-38.5 175zM166 1321 q0 91 64.5 156t156.5 65q93 0 158 -65t65 -156q0 -89 -65 -153t-158 -64q-92 0 -156.5 64.5t-64.5 152.5zM467 399q0 -84 47 -131t127 -47t129 47t49 131h-352zM682 1321q0 91 64.5 156t156.5 65q93 0 158 -65t65 -156q0 -89 -65 -153t-158 -64q-92 0 -156.5 64.5 t-64.5 152.5z" />
<glyph unicode="&#x4dc;" horiz-adv-x="2162" d="M10 0l512 719q-107 32 -170 139l-67 127q-34 57 -73 79.5t-93 22.5h-43v357h127q135 0 229.5 -48t151.5 -161l104 -207q46 -94 82 -131t88 -37h16v574h414v-574h17q52 0 88 37t82 131l104 207q57 113 151.5 161t229.5 48h127v-357h-43q-54 0 -93 -22.5t-73 -79.5 l-68 -127q-63 -107 -170 -139l512 -719h-489l-375 612v-612h-414v612l-374 -612h-490zM602 1739q0 91 64.5 156t156.5 65q94 0 160 -65t66 -156q0 -88 -66.5 -152.5t-159.5 -64.5q-92 0 -156.5 64.5t-64.5 152.5zM1118 1739q0 91 64.5 156t156.5 65q93 0 158.5 -65 t65.5 -156q0 -88 -65.5 -152.5t-158.5 -64.5q-92 0 -156.5 64.5t-64.5 152.5z" />
<glyph unicode="&#x4dd;" horiz-adv-x="1738" d="M10 0l369 510q-80 24 -115 90l-35 57q-25 39 -51.5 55.5t-71.5 16.5h-47v299h127q117 0 184 -33.5t119 -128.5l82 -153q26 -45 48 -65.5t55 -20.5h14v391h363v-391h12q34 0 56 20t48 66l82 153q52 95 118.5 128.5t184.5 33.5h127v-299h-47q-47 0 -73.5 -16.5t-51.5 -55.5 l-32 -57q-38 -67 -117 -90l371 -510h-426l-252 412v-412h-363v412l-252 -412h-426zM391 1321q0 91 64.5 156t156.5 65q93 0 158.5 -65t65.5 -156q0 -88 -65.5 -152.5t-158.5 -64.5q-92 0 -156.5 64.5t-64.5 152.5zM907 1321q0 91 64.5 156t156.5 65q93 0 158.5 -65 t65.5 -156q0 -88 -65.5 -152.5t-158.5 -64.5q-92 0 -156.5 64.5t-64.5 152.5z" />
<glyph unicode="&#x4de;" horiz-adv-x="1339" d="M43 485h449q0 -188 165 -188q73 0 110.5 41t37.5 102q0 81 -43.5 119.5t-140.5 38.5h-158v291h155q102 0 143.5 38.5t41.5 110.5q0 61 -37.5 95t-103.5 34q-154 0 -154 -163h-449q0 58 12 111.5t39 107t74 97t111.5 77.5t159 52.5t209.5 18.5q122 0 223 -21.5t185 -67 t131.5 -127t47.5 -191.5q0 -120 -77.5 -210t-176.5 -112q111 -26 187 -119t76 -231q0 -83 -32.5 -153t-88.5 -119.5t-131 -84t-160 -51t-176 -16.5q-139 0 -248 27t-180 73t-116.5 113t-65 142.5t-19.5 164.5zM184 1755q0 91 65 156t157 65q93 0 159 -65t66 -156 q0 -88 -66 -152.5t-159 -64.5q-92 0 -157 64.5t-65 152.5zM700 1755q0 91 65 156t157 65q93 0 158 -65t65 -156q0 -89 -65 -153t-158 -64q-92 0 -157 64.5t-65 152.5z" />
<glyph unicode="&#x4df;" horiz-adv-x="1124" d="M35 346h405q0 -125 117 -125q44 0 70 22.5t26 63.5q0 113 -157 113h-111v203h104q162 0 162 108q0 40 -27 63t-71 23q-57 0 -80.5 -30.5t-23.5 -88.5h-400q0 53 13.5 100t49.5 94t92.5 80.5t149.5 54t213 20.5q137 0 242.5 -29.5t171.5 -97t66 -166.5q0 -111 -66 -168 t-162 -66q105 -8 170.5 -68t65.5 -173q0 -75 -43 -136.5t-114 -99.5t-157.5 -58t-179.5 -20q-526 0 -526 381zM96 1321q0 91 64.5 156t156.5 65q94 0 160 -65t66 -156q0 -88 -66.5 -152.5t-159.5 -64.5q-92 0 -156.5 64.5t-64.5 152.5zM586 1321q0 91 64.5 156t156.5 65 q93 0 158 -65t65 -156q0 -89 -65 -153t-158 -64q-92 0 -156.5 64.5t-64.5 152.5z" />
<glyph unicode="&#x4e0;" horiz-adv-x="1347" d="M41 481h446q0 -81 46 -132.5t129 -51.5q77 0 115 45t38 111q0 86 -45.5 125.5t-148.5 39.5h-209l266 467h-520v349h1095l-338 -592q147 -26 243.5 -133.5t96.5 -268.5q0 -92 -32 -170.5t-87.5 -134t-130 -94.5t-159.5 -57.5t-176 -18.5q-136 0 -243.5 26t-179 71 t-118.5 111t-67.5 141.5t-20.5 166.5z" />
<glyph unicode="&#x4e1;" horiz-adv-x="1265" d="M27 33h434q5 -72 42 -115t107 -43q76 0 114 52t38 141q0 200 -211 200h-207l277 408h-482v342h1073l-356 -580q140 -26 234 -135t94 -268q0 -96 -30.5 -175.5t-83.5 -134.5t-124.5 -93t-152 -56t-168.5 -18q-598 0 -598 475z" />
<glyph unicode="&#x4e2;" horiz-adv-x="1531" d="M125 0v1434h426v-795l430 696v99h426v-1434h-426v795l-430 -697v-98h-426zM391 1608v270h774v-270h-774z" />
<glyph unicode="&#x4e3;" horiz-adv-x="1341" d="M119 0v1018h379v-561l346 475v86h379v-1018h-379v543l-346 -473v-70h-379zM281 1186v270h774v-270h-774z" />
<glyph unicode="&#x4e4;" horiz-adv-x="1531" d="M125 0v1434h426v-795l430 696v99h426v-1434h-426v795l-430 -697v-98h-426zM297 1739q0 91 64.5 156t156.5 65q93 0 159 -65t66 -156q0 -88 -66 -152.5t-159 -64.5q-92 0 -156.5 64.5t-64.5 152.5zM813 1739q0 91 64.5 156t156.5 65q93 0 158 -65t65 -156q0 -89 -65 -153 t-158 -64q-92 0 -156.5 64.5t-64.5 152.5z" />
<glyph unicode="&#x4e5;" horiz-adv-x="1341" d="M119 0v1018h379v-561l346 475v86h379v-1018h-379v543l-346 -473v-70h-379zM201 1321q0 91 64.5 156t156.5 65q93 0 158 -65t65 -156q0 -89 -65 -153t-158 -64q-92 0 -156.5 64.5t-64.5 152.5zM717 1321q0 91 64.5 156t156.5 65q93 0 158 -65t65 -156q0 -89 -65 -153 t-158 -64q-92 0 -156.5 64.5t-64.5 152.5z" />
<glyph unicode="&#x4e6;" horiz-adv-x="1660" d="M53 717q0 119 33 230.5t99 206.5t158 166.5t217 112t269 40.5t270 -40.5t218 -112t158.5 -166.5t99.5 -206.5t33 -230.5t-33 -230.5t-99.5 -206.5t-158.5 -166.5t-218 -112t-270 -40.5t-269 40.5t-217 112t-158 166.5t-99 206.5t-33 230.5zM342 1745q0 91 64.5 156 t156.5 65q93 0 159 -65t66 -156q0 -88 -66 -152.5t-159 -64.5q-92 0 -156.5 64.5t-64.5 152.5zM483 717q0 -97 40 -179.5t120.5 -135t185.5 -52.5t186 52.5t121 135t40 179.5t-40 179t-120.5 134.5t-186.5 52.5t-186 -52.5t-120 -134.5t-40 -179zM858 1745q0 91 64.5 156 t156.5 65q93 0 158.5 -65t65.5 -156q0 -88 -65.5 -152.5t-158.5 -64.5q-92 0 -156.5 64.5t-64.5 152.5z" />
<glyph unicode="&#x4e7;" horiz-adv-x="1292" d="M53 508q0 112 40 209.5t113.5 171t186.5 116t252 42.5q138 0 251.5 -42.5t187.5 -116t114.5 -171t40.5 -209.5q0 -110 -40.5 -207.5t-114.5 -171t-187.5 -116t-251.5 -42.5t-251.5 42.5t-187 116t-113.5 171t-40 207.5zM158 1321q0 91 64.5 156t156.5 65q93 0 159 -65 t66 -156q0 -88 -66 -152.5t-159 -64.5q-92 0 -156.5 64.5t-64.5 152.5zM455 508q0 -86 52.5 -143.5t137.5 -57.5q86 0 138.5 57t52.5 144q0 88 -52.5 144.5t-138.5 56.5q-85 0 -137.5 -57t-52.5 -144zM674 1321q0 91 64.5 156t156.5 65q93 0 158 -65t65 -156q0 -89 -65 -153 t-158 -64q-92 0 -156.5 64.5t-64.5 152.5z" />
<glyph unicode="&#x4e8;" horiz-adv-x="1660" d="M53 717q0 119 33 230.5t99 206.5t158 166.5t217 112t269 40.5t270 -40.5t218 -112t158.5 -166.5t99.5 -206.5t33 -230.5t-33 -230.5t-99.5 -206.5t-158.5 -166.5t-218 -112t-270 -40.5t-269 40.5t-217 112t-158 166.5t-99 206.5t-33 230.5zM496 627q26 -121 114 -199 t219 -78t219.5 78t114.5 199h-667zM496 811h667q-26 118 -115 195t-219 77q-129 0 -218 -77t-115 -195z" />
<glyph unicode="&#x4e9;" horiz-adv-x="1292" d="M53 508q0 112 40 209.5t113.5 171t186.5 116t252 42.5q138 0 251.5 -42.5t187.5 -116t114.5 -171t40.5 -209.5q0 -110 -40.5 -207.5t-114.5 -171t-187.5 -116t-251.5 -42.5t-251.5 42.5t-187 116t-113.5 171t-40 207.5zM463 449q18 -64 65 -103t117 -39t117 39t65 103 h-364zM463 569h364q-18 63 -65.5 101.5t-116.5 38.5t-116.5 -38.5t-65.5 -101.5z" />
<glyph unicode="&#x4ea;" horiz-adv-x="1660" d="M53 717q0 119 33 230.5t99 206.5t158 166.5t217 112t269 40.5t270 -40.5t218 -112t158.5 -166.5t99.5 -206.5t33 -230.5t-33 -230.5t-99.5 -206.5t-158.5 -166.5t-218 -112t-270 -40.5t-269 40.5t-217 112t-158 166.5t-99 206.5t-33 230.5zM356 1749q0 90 63.5 153.5 t155.5 63.5q94 0 158 -63.5t64 -153.5q0 -89 -64 -152t-158 -63q-92 0 -155.5 63.5t-63.5 151.5zM496 627q26 -121 114 -199t219 -78t219.5 78t114.5 199h-667zM496 811h667q-26 118 -115 195t-219 77q-129 0 -218 -77t-115 -195zM874 1749q0 90 63 153.5t155 63.5 t156.5 -63.5t64.5 -153.5q0 -88 -64.5 -151.5t-156.5 -63.5t-155 63t-63 152z" />
<glyph unicode="&#x4eb;" horiz-adv-x="1292" d="M53 508q0 112 40 209.5t113.5 171t186.5 116t252 42.5q138 0 251.5 -42.5t187.5 -116t114.5 -171t40.5 -209.5q0 -110 -40.5 -207.5t-114.5 -171t-187.5 -116t-251.5 -42.5t-251.5 42.5t-187 116t-113.5 171t-40 207.5zM168 1335q0 91 62.5 155t154.5 64q93 0 158 -64 t65 -155q0 -87 -65 -150t-158 -63q-91 0 -154 63t-63 150zM463 449q18 -64 65 -103t117 -39t117 39t65 103h-364zM463 569h364q-18 63 -65.5 101.5t-116.5 38.5t-116.5 -38.5t-65.5 -101.5zM684 1335q0 91 63 155t156 64t156 -64t63 -155q0 -87 -63 -150t-156 -63t-156 63 t-63 150z" />
<glyph unicode="&#x4ec;" horiz-adv-x="1624" d="M53 565h449q24 -95 106.5 -156t206.5 -61q122 0 199 63t100 185h-440v227h444q-21 121 -99.5 191.5t-199.5 70.5q-135 0 -214.5 -66t-100.5 -175h-447q15 132 70 244.5t146 199t227 136t301 49.5q178 0 324.5 -58t243 -160t149.5 -240t53 -298q0 -162 -53 -300.5 t-151 -239.5t-247 -158.5t-332 -57.5q-157 0 -289 47.5t-223 131t-147.5 191.5t-75.5 234zM324 1739q0 91 64.5 156t156.5 65q93 0 159 -65t66 -156q0 -88 -66 -152.5t-159 -64.5q-92 0 -156.5 64.5t-64.5 152.5zM840 1739q0 91 64.5 156t156.5 65q93 0 158 -65t65 -156 q0 -89 -65 -153t-158 -64q-92 0 -156.5 64.5t-64.5 152.5z" />
<glyph unicode="&#x4ed;" horiz-adv-x="1271" d="M53 412h404q27 -150 186 -150q172 0 184 162h-276v164h276q-6 79 -50.5 123.5t-131.5 44.5q-161 0 -188 -162h-404q18 202 173 327.5t405 125.5q146 0 260.5 -43t185 -118t106.5 -171t36 -207t-36 -206.5t-106.5 -170t-185 -117.5t-260.5 -43q-254 0 -407 120.5 t-171 320.5zM166 1321q0 91 64.5 156t156.5 65q93 0 159 -65t66 -156q0 -88 -66 -152.5t-159 -64.5q-92 0 -156.5 64.5t-64.5 152.5zM682 1321q0 91 65 156t158 65q92 0 156.5 -65t64.5 -156q0 -88 -64.5 -152.5t-156.5 -64.5q-93 0 -158 64t-65 153z" />
<glyph unicode="&#x4ee;" horiz-adv-x="1398" d="M-6 1434h500l231 -510l217 510h475l-710 -1434h-480l248 506zM340 1608v270h774v-270h-774z" />
<glyph unicode="&#x4ef;" horiz-adv-x="1335" d="M106 -45h404q5 -64 45.5 -100.5t108.5 -36.5q80 0 117.5 41t37.5 137v184q-42 -82 -123.5 -127t-195.5 -45q-92 0 -165.5 30t-117.5 77q-54 57 -74 132.5t-20 198.5v572h403v-516q0 -96 32.5 -144.5t107.5 -48.5q153 0 153 211v498h402v-979q0 -124 -41.5 -220.5 t-112.5 -152.5q-75 -58 -166.5 -83t-241.5 -25q-146 0 -242.5 23t-166.5 79q-141 117 -144 295zM301 1186v270h774v-270h-774z" />
<glyph unicode="&#x4f0;" horiz-adv-x="1398" d="M-6 1434h500l231 -510l217 510h475l-710 -1434h-480l248 506zM244 1739q0 90 62.5 153.5t154.5 63.5q93 0 158 -63.5t65 -153.5q0 -88 -65 -151.5t-158 -63.5q-91 0 -154 63t-63 152zM760 1739q0 90 63 153.5t156 63.5t156 -63.5t63 -153.5q0 -89 -63 -152t-156 -63 t-156 63t-63 152z" />
<glyph unicode="&#x4f1;" horiz-adv-x="1335" d="M106 -45h404q5 -64 45.5 -100.5t108.5 -36.5q80 0 117.5 41t37.5 137v184q-42 -82 -123.5 -127t-195.5 -45q-92 0 -165.5 30t-117.5 77q-54 57 -74 132.5t-20 198.5v572h403v-516q0 -96 32.5 -144.5t107.5 -48.5q153 0 153 211v498h402v-979q0 -124 -41.5 -220.5 t-112.5 -152.5q-75 -58 -166.5 -83t-241.5 -25q-146 0 -242.5 23t-166.5 79q-141 117 -144 295zM193 1321q0 91 63.5 155t155.5 64t156.5 -64t64.5 -155q0 -87 -64.5 -150t-156.5 -63q-91 0 -155 63t-64 150zM709 1321q0 91 63 155t156 64q92 0 156.5 -64t64.5 -155 q0 -87 -64.5 -150t-156.5 -63q-93 0 -156 63t-63 150z" />
<glyph unicode="&#x4f2;" horiz-adv-x="1398" d="M-6 1434h500l231 -510l217 510h475l-710 -1434h-480l248 506zM356 1628l256 393l238 -151l-346 -299zM756 1628l256 393l237 -151l-346 -299z" />
<glyph unicode="&#x4f3;" horiz-adv-x="1335" d="M106 -45h404q5 -64 45.5 -100.5t108.5 -36.5q80 0 117.5 41t37.5 137v184q-42 -82 -123.5 -127t-195.5 -45q-92 0 -165.5 30t-117.5 77q-54 57 -74 132.5t-20 198.5v572h403v-516q0 -96 32.5 -144.5t107.5 -48.5q153 0 153 211v498h402v-979q0 -124 -41.5 -220.5 t-112.5 -152.5q-75 -58 -166.5 -83t-241.5 -25q-146 0 -242.5 23t-166.5 79q-141 117 -144 295zM336 1186l256 395l237 -154l-346 -299zM735 1186l256 395l238 -154l-346 -299z" />
<glyph unicode="&#x4f4;" horiz-adv-x="1378" d="M45 858v576h426v-484q0 -130 56 -187.5t161 -57.5h137v729h428v-1434h-428v397h-297q-214 0 -348.5 130t-134.5 331zM180 1739q0 90 63.5 153.5t155.5 63.5q94 0 158 -63.5t64 -153.5q0 -89 -64 -152t-158 -63q-92 0 -155.5 63.5t-63.5 151.5zM698 1739q0 90 62.5 153.5 t154.5 63.5t157 -64t65 -153q0 -88 -65 -151.5t-157 -63.5q-91 0 -154 63t-63 152z" />
<glyph unicode="&#x4f5;" horiz-adv-x="1183" d="M55 623v395h379v-342q0 -139 144 -139h106v481h381v-1018h-381v268h-256q-181 0 -277 89.5t-96 265.5zM86 1321q0 91 65 156t158 65t158 -65t65 -156q0 -89 -65 -153t-158 -64t-158 64t-65 153zM596 1321q0 91 65 156t158 65q92 0 156.5 -65t64.5 -156 q0 -88 -64.5 -152.5t-156.5 -64.5q-93 0 -158 64t-65 153z" />
<glyph unicode="&#x4f8;" horiz-adv-x="1914" d="M125 0v1434h426v-543h317q124 0 220.5 -60t148 -161t51.5 -224q0 -120 -51 -221.5t-148.5 -163t-220.5 -61.5h-743zM498 1737q0 91 62.5 155t154.5 64q93 0 158 -64t65 -155q0 -87 -65 -150t-158 -63q-91 0 -154 63t-63 150zM551 297h143q76 0 118 42t42 107 q0 63 -38 104.5t-122 41.5h-143v-295zM1014 1737q0 91 63 155t156 64t156 -64t63 -155q0 -87 -63 -150t-156 -63t-156 63t-63 150zM1364 0v1434h426v-1434h-426z" />
<glyph unicode="&#x4f9;" horiz-adv-x="1703" d="M119 0v1018h375v-311h235q109 0 187.5 -30t120.5 -82t60.5 -111.5t18.5 -129.5q0 -49 -11 -96t-38.5 -95t-70 -83t-111.5 -57.5t-156 -22.5h-610zM365 1321q0 91 64.5 156t156.5 65q93 0 159 -65t66 -156q0 -88 -66 -152.5t-159 -64.5q-92 0 -156.5 64.5t-64.5 152.5z M494 231h131q56 0 88 32.5t32 84.5t-31 84.5t-87 32.5h-133v-234zM881 1321q0 91 65 156t158 65q92 0 156.5 -65t64.5 -156q0 -88 -64.5 -152.5t-156.5 -64.5q-93 0 -158 64t-65 153zM1184 0v1018h401v-1018h-401z" />
<glyph unicode="&#x1e80;" horiz-adv-x="2228" d="M-12 1434h450l254 -856l252 856h340l250 -856l256 856h451l-517 -1434h-372l-238 780l-240 -780h-370zM758 1741l90 258l620 -244l-90 -258z" />
<glyph unicode="&#x1e81;" horiz-adv-x="1746" d="M-4 1018h405l162 -567l131 567h359l131 -567l162 567h405l-365 -1018h-358l-156 547l-153 -547h-359zM518 1315l90 258l621 -244l-90 -258z" />
<glyph unicode="&#x1e82;" horiz-adv-x="2228" d="M-12 1434h450l254 -856l252 856h340l250 -856l256 856h451l-517 -1434h-372l-238 780l-240 -780h-370zM758 1755l620 244l90 -258l-620 -244z" />
<glyph unicode="&#x1e83;" horiz-adv-x="1746" d="M-4 1018h405l162 -567l131 567h359l131 -567l162 567h405l-365 -1018h-358l-156 547l-153 -547h-359zM518 1329l621 244l90 -258l-621 -244z" />
<glyph unicode="&#x1e84;" horiz-adv-x="2228" d="M-12 1434h450l254 -856l252 856h340l250 -856l256 856h451l-517 -1434h-372l-238 780l-240 -780h-370zM635 1755q0 90 63.5 153.5t155.5 63.5t156.5 -63.5t64.5 -153.5q0 -88 -64.5 -151.5t-156.5 -63.5t-155.5 63.5t-63.5 151.5zM1151 1755q0 90 63 153.5t156 63.5 q92 0 156.5 -63.5t64.5 -153.5q0 -88 -64.5 -151.5t-156.5 -63.5q-93 0 -156 63t-63 152z" />
<glyph unicode="&#x1e85;" horiz-adv-x="1746" d="M-4 1018h405l162 -567l131 567h359l131 -567l162 567h405l-365 -1018h-358l-156 547l-153 -547h-359zM395 1321q0 90 63.5 153.5t155.5 63.5t157 -64t65 -153q0 -88 -65 -151.5t-157 -63.5t-155.5 63.5t-63.5 151.5zM911 1321q0 90 63 153.5t156 63.5q92 0 157 -64 t65 -153q0 -88 -65 -151.5t-157 -63.5q-93 0 -156 63t-63 152z" />
<glyph unicode="&#x1ef2;" horiz-adv-x="1390" d="M-6 1434h500l231 -510l217 510h475l-710 -1434h-480l248 506zM338 1741l92 258l621 -244l-93 -258z" />
<glyph unicode="&#x1ef3;" horiz-adv-x="1335" d="M106 -45h404q5 -64 45.5 -100.5t108.5 -36.5q80 0 117.5 41t37.5 137v184q-42 -82 -123.5 -127t-195.5 -45q-92 0 -165.5 30t-117.5 77q-54 57 -74 132.5t-20 198.5v572h403v-516q0 -96 32.5 -144.5t107.5 -48.5q153 0 153 211v498h402v-979q0 -124 -41.5 -220.5 t-112.5 -152.5q-75 -58 -166.5 -83t-241.5 -25q-146 0 -242.5 23t-166.5 79q-141 117 -144 295zM311 1315l92 258l621 -244l-92 -258z" />
<glyph unicode="&#x2000;" horiz-adv-x="1051" />
<glyph unicode="&#x2001;" horiz-adv-x="2103" />
<glyph unicode="&#x2002;" horiz-adv-x="1051" />
<glyph unicode="&#x2003;" horiz-adv-x="2103" />
<glyph unicode="&#x2004;" horiz-adv-x="701" />
<glyph unicode="&#x2005;" horiz-adv-x="525" />
<glyph unicode="&#x2006;" horiz-adv-x="350" />
<glyph unicode="&#x2007;" horiz-adv-x="350" />
<glyph unicode="&#x2008;" horiz-adv-x="262" />
<glyph unicode="&#x2009;" horiz-adv-x="413" />
<glyph unicode="&#x200a;" horiz-adv-x="116" />
<glyph unicode="&#x2010;" horiz-adv-x="694" d="M68 483v303h559v-303h-559z" />
<glyph unicode="&#x2011;" horiz-adv-x="694" d="M68 483v303h559v-303h-559z" />
<glyph unicode="&#x2012;" horiz-adv-x="694" d="M68 483v303h559v-303h-559z" />
<glyph unicode="&#x2013;" horiz-adv-x="1030" d="M61 483v303h908v-303h-908z" />
<glyph unicode="&#x2014;" horiz-adv-x="2060" d="M82 483v303h1896v-303h-1896z" />
<glyph unicode="&#x2018;" horiz-adv-x="643" d="M82 1032q0 257 122.5 370.5t360.5 113.5v-144q-137 0 -211 -61q-58 -47 -69 -131q13 18 61 18q102 0 165.5 -66t63.5 -161q0 -98 -67.5 -168t-161.5 -70q-118 0 -191 82.5t-73 216.5z" />
<glyph unicode="&#x2019;" horiz-adv-x="643" d="M68 1280q0 97 67.5 166.5t161.5 69.5q119 0 191.5 -82t72.5 -217q0 -256 -123 -370t-360 -114v146q142 0 209 61q60 45 71 129q-5 -6 -23.5 -12t-37.5 -6q-103 0 -166 66t-63 163z" />
<glyph unicode="&#x201a;" horiz-adv-x="643" d="M68 180q0 97 67.5 166.5t161.5 69.5q119 0 191.5 -82t72.5 -217q0 -256 -123 -370t-360 -114v146q142 0 209 61q60 45 71 129q-5 -5 -24 -11.5t-37 -6.5q-103 0 -166 66t-63 163z" />
<glyph unicode="&#x201c;" horiz-adv-x="1179" d="M82 1032q0 257 122.5 370.5t360.5 113.5v-144q-137 0 -211 -61q-58 -47 -69 -131q13 18 61 18q102 0 165.5 -66t63.5 -161q0 -98 -67.5 -168t-161.5 -70q-118 0 -191 82.5t-73 216.5zM618 1032q0 256 123.5 370t360.5 114v-144q-142 0 -209 -61q-61 -45 -72 -131 q5 6 24 12t38 6q102 0 165.5 -66t63.5 -161q0 -98 -67.5 -168t-161.5 -70q-118 0 -191.5 82.5t-73.5 216.5z" />
<glyph unicode="&#x201d;" horiz-adv-x="1179" d="M68 1280q0 97 67.5 166.5t161.5 69.5q119 0 191.5 -82t72.5 -217q0 -256 -123 -370t-360 -114v146q142 0 209 61q60 45 71 129q-5 -5 -24 -11.5t-37 -6.5q-103 0 -166 66t-63 163zM604 1280q0 97 68 166.5t162 69.5q119 0 191.5 -82t72.5 -217q0 -257 -123 -370.5 t-361 -113.5v146q137 0 211 61q60 49 70 127q-5 -5 -23.5 -10.5t-37.5 -5.5q-103 0 -166.5 66t-63.5 163z" />
<glyph unicode="&#x201e;" horiz-adv-x="1179" d="M68 180q0 97 67.5 166.5t161.5 69.5q119 0 191.5 -82t72.5 -217q0 -256 -123 -370t-360 -114v146q142 0 209 61q60 45 71 129q-5 -5 -24 -11.5t-37 -6.5q-103 0 -166 66t-63 163zM604 180q0 97 68 166.5t162 69.5q119 0 191.5 -82t72.5 -217q0 -257 -123 -370.5 t-361 -113.5v146q137 0 211 61q60 49 70 129q-5 -5 -24 -11.5t-37 -6.5q-103 0 -166.5 66t-63.5 163z" />
<glyph unicode="&#x2020;" horiz-adv-x="911" d="M78 676v256h235v536h287v-536h236v-256h-236v-1047h-287v1047h-235z" />
<glyph unicode="&#x2021;" horiz-adv-x="911" d="M78 0v256h235v508h-235v254h235v450h287v-450h236v-254h-236v-508h236v-256h-236v-371h-287v371h-235z" />
<glyph unicode="&#x2022;" horiz-adv-x="763" d="M68 639q0 128 91.5 217.5t221.5 89.5q134 0 224.5 -89.5t90.5 -217.5q0 -129 -90.5 -219t-224.5 -90q-130 0 -221.5 90.5t-91.5 218.5z" />
<glyph unicode="&#x2026;" horiz-adv-x="2064" d="M82 223q0 100 72 172t176 72q105 0 178.5 -72t73.5 -172q0 -102 -73.5 -174t-178.5 -72q-104 0 -176 72t-72 174zM782 221q0 100 72 172t176 72q105 0 178.5 -72t73.5 -172q0 -102 -73.5 -174t-178.5 -72q-104 0 -176 72t-72 174zM1483 219q0 102 72 174t176 72 q105 0 178 -72t73 -174t-73 -174t-178 -72q-104 0 -176 72t-72 174z" />
<glyph unicode="&#x202f;" horiz-adv-x="420" />
<glyph unicode="&#x2030;" horiz-adv-x="2732" d="M129 913v252q0 123 91 206t243 83q150 0 243 -83.5t93 -205.5v-252q0 -122 -93 -205t-243 -83q-152 0 -243 82.5t-91 205.5zM387 913q0 -34 21 -58t55 -24q35 0 56.5 24t21.5 58v252q0 34 -21.5 58t-56.5 24q-34 0 -55 -24t-21 -58v-252zM475 4l744 1546l251 -118 l-741 -1547zM1165 268v252q0 123 91 206t243 83q150 0 243 -83.5t93 -205.5v-252q0 -122 -93 -205t-243 -83q-152 0 -243 82.5t-91 205.5zM1423 268q0 -34 21 -58t55 -24q35 0 56.5 24t21.5 58v252q0 34 -21.5 58t-56.5 24q-34 0 -55 -24t-21 -58v-252zM1933 268v252 q0 123 90.5 206t243.5 83q150 0 243 -83.5t93 -205.5v-252q0 -122 -93 -205t-243 -83q-153 0 -243.5 82.5t-90.5 205.5zM2191 268q0 -34 21 -58t55 -24t56 24.5t22 57.5v252q0 33 -22 57.5t-56 24.5t-55 -24t-21 -58v-252z" />
<glyph unicode="&#x2039;" horiz-adv-x="628" d="M68 500v192l473 377v-332l-197 -141l197 -141v-332z" />
<glyph unicode="&#x203a;" horiz-adv-x="628" d="M88 123v332l199 141l-199 141v332l473 -377v-192z" />
<glyph unicode="&#x2044;" horiz-adv-x="380" d="M-307 4l741 1546l254 -118l-741 -1547z" />
<glyph unicode="&#x205f;" horiz-adv-x="525" />
<glyph unicode="&#x20ac;" horiz-adv-x="1390" d="M35 487l41 193h84v74h-125l41 192h84q0 106 41 201t115 166.5t186.5 113t247.5 41.5q129 0 238.5 -40t184.5 -108.5t118.5 -160t47.5 -194.5h-428q-5 67 -49 112t-112 45q-73 0 -118.5 -51t-45.5 -125h276l-41 -192h-235v-74h276l-41 -193h-235q0 -74 45.5 -125 t118.5 -51q72 0 117.5 51t45.5 125h426q0 -106 -42 -201t-117.5 -166t-187 -113t-242.5 -42q-135 0 -247.5 41.5t-186.5 113t-115 166.5t-41 201h-125z" />
<glyph unicode="&#x2122;" horiz-adv-x="1755" d="M49 1214v220h574v-220h-158v-614h-258v614h-158zM694 600v834h365l143 -514l141 514h359v-834h-250v567l-152 -567h-196l-160 567v-567h-250z" />
<glyph unicode="&#x2202;" horiz-adv-x="1325" d="M74 459q0 93 36 179t101 153t165 107t218 40q117 0 231 -49q-5 117 -25 183.5t-52 90t-84 23.5q-73 0 -114.5 -49.5t-41.5 -141.5h-426q0 71 18.5 137t62.5 129t109.5 109.5t166.5 74.5t227 28q71 0 132.5 -9.5t122 -33t109 -61.5t91 -98t70.5 -138t44 -185.5t16 -238.5 q0 -207 -40 -353.5t-119 -233.5t-186.5 -126t-252.5 -39q-579 0 -579 502zM498 444q0 -79 38.5 -125.5t106.5 -46.5q41 0 71 13.5t54.5 47.5t38.5 97t18 156q-68 45 -155 45q-56 0 -96.5 -31.5t-58 -73t-17.5 -82.5z" />
<glyph unicode="&#x2206;" horiz-adv-x="1531" d="M8 0l529 1434h446l541 -1434h-1516zM561 309h397l-198 695z" />
<glyph unicode="&#x220f;" horiz-adv-x="1503" d="M-18 1260v366h1540v-366h-144v-1676h-426v1676h-399v-1676h-428v1676h-143z" />
<glyph unicode="&#x2211;" horiz-adv-x="1325" d="M16 -55l732 671l-732 658v352h1291v-362h-770l729 -617l-729 -692h770v-371h-1291v361z" />
<glyph unicode="&#x221a;" horiz-adv-x="1767" d="M-20 219v361h608l180 -607l559 1653h473l-809 -2105h-446l-271 698h-294z" />
<glyph unicode="&#x221e;" horiz-adv-x="1759" d="M31 592q0 91 31 174t88.5 148.5t149.5 104t206 38.5q208 0 373 -215q165 215 374 215q113 0 205 -37.5t150.5 -102t89.5 -148t31 -177.5t-31 -177.5t-89.5 -148t-150.5 -102t-205 -37.5q-210 0 -374 213q-164 -213 -373 -213q-114 0 -206 38.5t-149.5 104t-88.5 148.5 t-31 174zM352 592q0 -69 43 -115.5t119 -46.5q53 0 115 41t106 121q-44 80 -106 121t-115 41q-76 0 -119 -46.5t-43 -115.5zM1024 592q44 -80 106 -121t115 -41q76 0 119 46.5t43 115.5t-43 115.5t-119 46.5q-53 0 -115 -41t-106 -121z" />
<glyph unicode="&#x222b;" horiz-adv-x="735" d="M-10 -193q47 -8 84 -8q48 0 71 23t23 76v1368q0 88 16.5 153t44 104t70.5 62.5t89.5 32t107.5 8.5q66 0 139 -8.5t110 -20.5v-278q-44 8 -83 8q-48 0 -70.5 -22.5t-22.5 -75.5v-1368q0 -88 -16.5 -153t-44 -104.5t-71 -63t-90 -32t-107.5 -8.5q-66 0 -139.5 8.5 t-110.5 20.5v278z" />
<glyph unicode="&#x2248;" horiz-adv-x="1325" d="M186 100v301q95 119 236 119q96 0 254 -63q8 -3 46.5 -19.5t52.5 -21.5t43 -15.5t49 -14t38 -3.5q117 0 234 113v-301q-50 -63 -113.5 -92t-124.5 -29q-102 0 -229 67q-133 72 -260 72q-113 0 -226 -113zM186 522v301q50 63 113 92t123 29q91 0 254 -65q8 -3 46.5 -19.5 t52.5 -21.5t43 -15.5t49 -14t38 -3.5q117 0 234 113v-302q-50 -62 -113 -90t-125 -28q-106 0 -229 65q-133 72 -260 72q-113 0 -226 -113z" />
<glyph unicode="&#x2260;" horiz-adv-x="1325" d="M201 217v303h293l51 121h-344v303h473l92 209h291l-92 -209h159v-303h-288l-52 -121h340v-303h-471l-90 -209h-291l90 209h-161z" />
<glyph unicode="&#x2264;" horiz-adv-x="1325" d="M201 0v303h923v-303h-923zM201 801v334l923 305v-348l-458 -123l458 -125v-348z" />
<glyph unicode="&#x2265;" horiz-adv-x="1325" d="M201 0v303h923v-303h-923zM201 496v348l458 125l-458 123v348l923 -305v-334z" />
<glyph unicode="&#x25ca;" horiz-adv-x="1290" d="M4 811l389 815h504l391 -815l-389 -811h-506zM442 811l203 -434l203 434l-203 434z" />
<glyph unicode="&#x25fc;" horiz-adv-x="1013" d="M0 0v1014h1014v-1014h-1014z" />
<glyph unicode="&#xf8ff;" horiz-adv-x="1638" d="M78 717q0 146 52 281.5t145 240t234.5 167t309.5 62.5t309.5 -62.5t235 -167t145.5 -240t52 -281.5t-52 -281.5t-145.5 -240.5t-235 -167.5t-309.5 -62.5q-135 0 -253.5 40.5t-207 112t-152 166.5t-96 205.5t-32.5 227.5zM123 717q0 -139 49 -264q48 -129 137 -226 q96 -103 217 -155q142 -60 293 -60q153 0 291 60q121 52 217 155q89 97 137 226q49 125 49 264q0 138 -49 266q-47 125 -137 225q-92 100 -217 156q-136 59 -291 59q-154 0 -293 -59q-125 -56 -217 -156q-90 -100 -137 -225q-49 -128 -49 -266zM270 424q0 13 4 41 q15 36 19 41l18 16l23 15q8 5 49 20l2 2q11 3 18 16q9 12 9 21t-4 37l-7 41l35 4q0 -13 4 -41t4 -41q0 -21 -14 -41q-16 -19 -29 -27q-1 0 -4 -1t-4 -1q-32 -14 -43 -20q-12 -4 -20 -10l-13 -11q-7 -10 -10 -26q-4 -28 -4 -35h-33zM344 467q136 -82 186 -103q97 -42 199 -42 q307 0 451 75q2 0 6 4q-26 -56 -84.5 -109.5t-134.5 -92.5q-116 -64 -217 -64q-209 0 -406 332zM412 1024q0 37 25.5 62.5t60.5 25.5q37 0 62.5 -25.5t25.5 -62.5q0 -36 -26 -62t-62 -26q-35 0 -60.5 26.5t-25.5 61.5zM449 530l366 549l-225 -497h364v-52h-505zM471 346 q55 -80 138 -119t141 -39q61 0 143 32t121 55.5t65 41.5q-14 -3 -65 -13.5t-70.5 -13.5t-60 -9.5t-76 -8.5t-74.5 -2q-69 0 -145.5 18t-116.5 58zM1020 1024q0 37 25.5 62.5t60.5 25.5q37 0 62.5 -25.5t25.5 -62.5q0 -36 -26 -62t-62 -26q-35 0 -60.5 26.5t-25.5 61.5z M1049 616q1 5 1 13.5t1 15t4 10.5l30 -10q0 -3 -1 -9.5t-1 -10.5v-27q5 -44 9 -55q3 -5 5 -13.5t5 -11.5q6 -12 39 -41q10 -6 30.5 -15.5t22.5 -10.5l31 -13q8 -4 14 -10q11 -8 14 -18q10 -21 13 -39q0 -38 -4 -49l-33 8q4 9 4 37q-1 4 -8 26l-6 10q-2 0 -7 5q-4 0 -8 4 l-28 10q-41 18 -68 39q-24 17 -37 41l-8 22q0 1 -3 12t-3 17q-8 31 -8 63z" />
</font>
</defs>
</svg>
