<?xml version="1.0" standalone="no"?>
<!DOCTYPE svg PUBLIC "-//W3C//DTD SVG 1.1//EN" "http://www.w3.org/Graphics/SVG/1.1/DTD/svg11.dtd" >
<svg xmlns="http://www.w3.org/2000/svg" xmlns:xlink="http://www.w3.org/1999/xlink" version="1.1">
<metadata></metadata>
<defs>
<font id="gt_walsheim_proregular" horiz-adv-x="1157" >
<font-face units-per-em="2048" ascent="1638" descent="-410" />
<missing-glyph horiz-adv-x="518" />
<glyph unicode="&#xfb01;" horiz-adv-x="1275" d="M43 780v150h201v162q0 69 12 125t31 92.5t47.5 63t55 40t60.5 21.5t58 10t53 2q79 0 127 -25v-151q-53 16 -104 16q-28 0 -46.5 -2t-42.5 -11.5t-38.5 -27.5t-24.5 -52.5t-10 -82.5v-180h266v-150h-266v-780h-178v780h-201zM856 1280q0 60 39 99.5t96 39.5 q60 0 99.5 -39.5t39.5 -99.5q0 -57 -39.5 -96t-99.5 -39q-57 0 -96 39t-39 96zM903 0v930h178v-930h-178z" />
<glyph unicode="&#xfb02;" horiz-adv-x="1208" d="M43 780v150h201v162q0 69 12 125t31 92.5t47.5 63t55 40t60.5 21.5t58 10t53 2q79 0 127 -25v-151q-53 16 -104 16q-28 0 -46.5 -2t-42.5 -11.5t-38.5 -27.5t-24.5 -52.5t-10 -82.5v-180h266v-150h-266v-780h-178v780h-201zM870 0v1434h179v-1434h-179z" />
<glyph horiz-adv-x="0" />
<glyph horiz-adv-x="682" />
<glyph horiz-adv-x="0" />
<glyph horiz-adv-x="0" />
<glyph unicode="&#xd;" horiz-adv-x="512" />
<glyph unicode=" "  horiz-adv-x="518" />
<glyph unicode="&#x09;" horiz-adv-x="518" />
<glyph unicode="&#xa0;" horiz-adv-x="518" />
<glyph unicode="!" horiz-adv-x="606" d="M154 123q0 62 43 104.5t106 42.5q62 0 106 -43t44 -104q0 -62 -44.5 -107t-105.5 -45q-62 0 -105.5 45t-43.5 107zM207 436v1006h192v-1006h-192z" />
<glyph unicode="&#x22;" horiz-adv-x="724" d="M123 1315v153h168v-153l-39 -361h-88zM434 1315v153h168v-153l-39 -361h-90z" />
<glyph unicode="#" horiz-adv-x="1126" d="M59 428v139h215l41 299h-194v140h215l59 428h148l-60 -428h258l60 428h147l-59 -428h178v-140h-199l-41 -299h179v-139h-199l-59 -428h-146l60 428h-261l-59 -428h-145l59 428h-197zM422 567h258l41 299h-258z" />
<glyph unicode="$" horiz-adv-x="1169" d="M152 457h186q0 -148 88 -235t236 -87q126 0 205 66.5t79 177.5q0 36 -9 67t-22 53.5t-37 43t-43.5 32.5t-52.5 26t-53 20.5t-55 17.5q-98 32 -149 50.5t-123.5 57t-108.5 79.5t-63 107t-27 150q0 152 104 255.5t273 123.5v213h137v-215q171 -21 277 -137.5t106 -294.5 h-187q-2 125 -70 197.5t-190 72.5q-119 0 -191.5 -58t-72.5 -157q0 -56 21 -98t62.5 -70t82 -45t100.5 -34q60 -20 97 -33t93.5 -37t91.5 -45.5t76.5 -56t64.5 -71t39 -87t16 -107.5q0 -184 -114.5 -297t-301.5 -131v-213h-137v213q-189 21 -308.5 151t-119.5 335z" />
<glyph unicode="%" horiz-adv-x="1875" d="M150 901v279q0 112 80.5 190t207.5 78t208 -79.5t81 -192.5v-279q0 -112 -81 -190t-208 -78q-130 0 -209 79t-79 193zM297 901q0 -62 38.5 -105.5t102.5 -43.5t104 43.5t40 105.5v275q0 62 -40 105.5t-104 43.5t-102.5 -43.5t-38.5 -105.5v-275zM414 -2l895 1542l141 -82 l-895 -1542zM1147 258v277q0 113 80.5 191.5t208.5 78.5q127 0 207.5 -80.5t80.5 -194.5v-276q0 -113 -80 -191.5t-208 -78.5q-130 0 -209.5 79t-79.5 195zM1294 258q0 -64 39 -108t103 -44t103.5 44t39.5 108v272q0 63 -39.5 106.5t-103.5 43.5t-103 -43.5t-39 -106.5v-272 z" />
<glyph unicode="&#x26;" horiz-adv-x="1226" d="M96 416q0 122 66.5 201.5t187.5 130.5q-109 43 -166 120t-57 201q0 171 128.5 279t317.5 108q196 0 320.5 -119t124.5 -309h-187q0 121 -66.5 190.5t-199.5 69.5q-112 0 -181 -58.5t-69 -160.5q0 -110 64.5 -174t208.5 -64h30v-165h-30q-154 0 -229.5 -73t-75.5 -198 q0 -104 81 -177t216 -73q133 0 212.5 90.5t81.5 243.5h-167v166h477v-166h-123q0 -113 -37.5 -207.5t-102.5 -159t-153 -100t-188 -35.5q-129 0 -238 51.5t-177.5 153.5t-68.5 234z" />
<glyph unicode="'" horiz-adv-x="413" d="M123 1315v153h168v-153l-39 -361h-88z" />
<glyph unicode="(" horiz-adv-x="753" d="M209 -8v1147q0 132 59.5 242.5t172 177.5t255.5 67v-168q-133 0 -217 -92.5t-84 -226.5v-1147q0 -134 84 -227t217 -93v-168q-143 0 -255.5 67t-172 178t-59.5 243z" />
<glyph unicode=")" horiz-adv-x="753" d="M57 -328q133 0 217 93t84 227v1147q0 134 -84 226.5t-217 92.5v168q143 0 256 -67t172.5 -177.5t59.5 -242.5v-1147q0 -132 -59.5 -243t-172.5 -178t-256 -67v168z" />
<glyph unicode="*" horiz-adv-x="937" d="M104 1159l37 113l289 -117l-22 313h124l-22 -313l287 117l37 -113l-304 -80l218 -262l-103 -74l-176 283l-176 -283l-103 74l218 262z" />
<glyph unicode="+" horiz-adv-x="1177" d="M180 504v158h320v331h178v-331h319v-158h-319v-328h-178v328h-320z" />
<glyph unicode="," horiz-adv-x="552" d="M119 131q0 61 41.5 103t103.5 42q78 0 125 -56.5t47 -149.5q0 -308 -307 -308v88q106 0 147 64q31 48 31 90q-16 -16 -47 -16q-64 0 -102.5 40.5t-38.5 102.5z" />
<glyph unicode="-" horiz-adv-x="602" d="M61 504v160h480v-160h-480z" />
<glyph unicode="." horiz-adv-x="522" d="M119 131q0 62 40.5 103.5t100.5 41.5t103 -42t43 -103q0 -60 -43 -100.5t-103 -40.5t-100.5 40.5t-40.5 100.5z" />
<glyph unicode="/" horiz-adv-x="892" d="M10 -76l746 1733l162 -70l-746 -1732z" />
<glyph unicode="0" horiz-adv-x="1185" d="M102 463v508q0 132 59.5 242.5t172.5 177.5t256 67q146 0 260 -67t173.5 -177t59.5 -243v-508q0 -132 -59.5 -242.5t-173.5 -178t-260 -67.5q-143 0 -256 67.5t-172.5 178.5t-59.5 242zM289 463q0 -133 84 -226.5t217 -93.5q137 0 222 93.5t85 226.5v508q0 134 -85 226.5 t-222 92.5q-133 0 -217 -92.5t-84 -226.5v-508z" />
<glyph unicode="1" horiz-adv-x="706" d="M63 1047v149q77 0 130 8.5t88 25t54 46.5t26.5 66.5t7.5 91.5h178v-1434h-193v1047h-291z" />
<glyph unicode="2" horiz-adv-x="1079" d="M96 0q0 96 9.5 175.5t26 141t44.5 114t58.5 90.5t75.5 74t88 62.5t102 57.5q40 20 63.5 32t60.5 33.5t58.5 39.5t48 45t40.5 54t24 62.5t10 75.5q0 111 -67.5 171t-184.5 60q-121 0 -195.5 -73.5t-74.5 -206.5h-187q0 204 132.5 326t326.5 122q197 0 316.5 -109.5 t119.5 -306.5q0 -43 -10 -84.5t-23.5 -74t-40 -67t-45.5 -56.5t-56 -50.5t-55 -42t-58.5 -37t-51 -29t-47.5 -24.5q-181 -103 -238 -181.5t-57 -225.5h682v-168h-895z" />
<glyph unicode="3" horiz-adv-x="1144" d="M68 453h186q0 -139 87 -223.5t220 -84.5q127 0 205 74t78 182q0 122 -72 193.5t-219 71.5h-102v165h102q133 0 196.5 64t63.5 174q0 103 -68 161t-182 58q-134 0 -200 -69.5t-66 -190.5h-188q0 190 123.5 309t318.5 119q192 0 320 -107.5t128 -279.5q0 -123 -58.5 -205.5 t-162.5 -115.5q118 -37 186 -124.5t68 -222.5q0 -123 -63 -220.5t-172 -150.5t-242 -53q-99 0 -187.5 32.5t-155 92t-105.5 150.5t-39 201z" />
<glyph unicode="4" horiz-adv-x="1130" d="M139 461v973h187v-805h346v442h186v-442h215v-168h-215v-461h-186v461h-533z" />
<glyph unicode="5" horiz-adv-x="1224" d="M137 465h187q0 -133 84 -226.5t217 -93.5q137 0 221 93t84 227q0 133 -84 225t-221 92q-187 0 -269 -172h-190v824h844v-168h-676v-480q41 79 133.5 121.5t187.5 42.5q145 0 251.5 -67t159 -175.5t52.5 -242.5q0 -132 -59.5 -242.5t-173.5 -178t-260 -67.5 q-143 0 -256 67.5t-172.5 178.5t-59.5 242z" />
<glyph unicode="6" horiz-adv-x="1138" d="M76 465q0 150 84 285l428 684h215l-328 -504q35 24 88 24q110 0 203.5 -39.5t156.5 -106t98.5 -155.5t35.5 -188q0 -98 -35.5 -186.5t-98.5 -155.5t-156.5 -106.5t-203.5 -39.5q-108 0 -200 39.5t-154.5 106t-97.5 155.5t-35 187zM262 465q0 -133 84 -226.5t217 -93.5 q137 0 222 93.5t85 226.5q0 134 -85 226.5t-222 92.5q-133 0 -217 -92.5t-84 -226.5z" />
<glyph unicode="7" horiz-adv-x="956" d="M78 1266v168h889l-637 -1434h-199l569 1266h-622z" />
<glyph unicode="8" horiz-adv-x="1187" d="M113 403q0 76 24.5 145.5t79.5 125t133 76.5q-103 35 -155 120t-52 189q0 171 122.5 284t328.5 113q205 0 327.5 -114.5t122.5 -282.5q0 -104 -51.5 -189t-154.5 -120q77 -21 132.5 -77t80 -125t24.5 -145q0 -87 -33.5 -164t-94 -135.5t-152 -92.5t-201.5 -34 t-201.5 33.5t-152 91t-94 135t-33.5 166.5zM299 403q0 -109 81 -183.5t214 -74.5q134 0 214.5 74.5t80.5 183.5t-79.5 184t-215.5 75t-215.5 -74.5t-79.5 -184.5zM332 1051q0 -103 71 -170.5t191 -67.5q121 0 191.5 68t70.5 170q0 101 -71 169t-191 68q-119 0 -190.5 -68 t-71.5 -169z" />
<glyph unicode="9" horiz-adv-x="1138" d="M82 969q0 133 59.5 243t173.5 177t260 67q143 0 256 -67t172.5 -177.5t59.5 -242.5q0 -143 -86 -285l-426 -684h-215l326 500q-19 -19 -64 -19q-230 0 -373 138t-143 350zM268 969q0 -134 85 -227t222 -93q133 0 217.5 93t84.5 227t-84 226.5t-218 92.5 q-137 0 -222 -92.5t-85 -226.5z" />
<glyph unicode=":" horiz-adv-x="522" d="M119 131q0 60 40.5 102.5t100.5 42.5t103 -42.5t43 -102.5t-43 -101.5t-103 -41.5t-100.5 41.5t-40.5 101.5zM119 815q0 62 40.5 104t100.5 42t103 -42.5t43 -103.5q0 -60 -43 -100.5t-103 -40.5t-100.5 40.5t-40.5 100.5z" />
<glyph unicode=";" horiz-adv-x="538" d="M119 131q0 61 41.5 103t103.5 42q78 0 125 -56.5t47 -149.5q0 -308 -307 -308v88q106 0 147 64q31 48 31 90q-16 -16 -47 -16q-64 0 -102.5 40.5t-38.5 102.5zM119 817q0 60 40.5 102t100.5 42t103 -42t43 -102t-43 -101.5t-103 -41.5t-100.5 41.5t-40.5 101.5z" />
<glyph unicode="&#x3c;" horiz-adv-x="1177" d="M70 516v129l1038 371v-170l-776 -264l776 -267v-168z" />
<glyph unicode="=" horiz-adv-x="1177" d="M176 336v160h828v-160h-828zM176 668v157h828v-157h-828z" />
<glyph unicode="&#x3e;" horiz-adv-x="1177" d="M70 147v168l776 267l-776 264v170l1038 -371v-129z" />
<glyph unicode="?" horiz-adv-x="1032" d="M47 1010q0 137 61.5 240t163.5 155.5t228 52.5q194 0 318 -107.5t124 -287.5q0 -57 -16.5 -109.5t-37.5 -87.5t-56.5 -71t-57 -53t-55.5 -42q-56 -42 -82.5 -66t-48.5 -60t-28.5 -78t-6.5 -111h-180q0 147 39.5 233.5t140.5 155.5q38 25 66.5 48.5t63.5 60t54 83t19 97.5 q0 110 -68.5 168.5t-187.5 58.5t-193 -73.5t-74 -206.5h-186zM315 123q0 62 42.5 104.5t105.5 42.5t107 -43t44 -104q0 -62 -44 -107t-107 -45q-62 0 -105 45t-43 107z" />
<glyph unicode="@" horiz-adv-x="1748" d="M53 422q0 188 69.5 347t187.5 264.5t274 164.5t329 59q373 0 590 -193t217 -534q0 -319 -85.5 -465.5t-256.5 -146.5q-99 0 -162 57.5t-88 151.5v37q-38 -73 -116 -117.5t-166 -44.5q-180 0 -297 123.5t-117 296.5q0 113 51.5 209.5t147 154.5t215.5 58q89 0 166.5 -44 t115.5 -118v143h150v-579q0 -191 127 -191q37 0 65.5 23t51.5 75.5t35 147.5t12 229q0 275 -177.5 433.5t-478.5 158.5q-143 0 -271.5 -49t-225.5 -137.5t-154 -221.5t-57 -292q0 -106 29 -206t89.5 -188.5t146.5 -154.5t208 -104.5t266 -38.5q227 0 414 102l55 -119 q-211 -119 -469 -119q-174 0 -321 46t-250.5 125t-176.5 185t-108 225.5t-35 246.5zM584 422q0 -120 74.5 -202.5t193.5 -82.5q124 0 200 82t76 203t-76 204t-200 83q-119 0 -193.5 -83.5t-74.5 -203.5z" />
<glyph unicode="A" horiz-adv-x="1144" d="M10 0l494 1434h135l496 -1434h-197l-76 219h-581l-74 -219h-197zM338 389h467l-232 739z" />
<glyph unicode="B" horiz-adv-x="1210" d="M160 0v1434h489q100 0 178 -24.5t125.5 -63t78.5 -90.5t42.5 -102t11.5 -103q0 -125 -76 -213.5t-180 -110.5q43 -4 88.5 -27.5t86 -63t66.5 -102.5t26 -137q0 -53 -12.5 -104.5t-45 -105.5t-81 -94.5t-128 -66.5t-178.5 -26h-491zM346 168h313q67 0 117.5 21t78.5 56 t41 74.5t13 83.5q0 38 -14 77.5t-41.5 76t-77 59.5t-112.5 23h-318v-471zM346 809h307q66 0 116 21t77 56t40 72.5t13 77.5q0 39 -13 77t-40 73.5t-78 57.5t-119 22h-303v-457z" />
<glyph unicode="C" horiz-adv-x="1587" d="M84 719q0 116 32 226t94.5 204t149 165t202.5 111.5t247 40.5q152 0 276 -41t209 -114.5t138.5 -169t74.5 -209.5h-196q-35 163 -160.5 264.5t-319.5 101.5q-103 0 -193 -31t-155.5 -86t-113 -128t-71.5 -158t-24 -176q0 -119 39.5 -224.5t112.5 -185.5t185 -127t247 -47 q150 0 275.5 86t169.5 221h204q-56 -207 -238.5 -341t-432.5 -134q-171 0 -314.5 61t-238 164.5t-147 239.5t-52.5 287z" />
<glyph unicode="D" horiz-adv-x="1427" d="M160 0v1434h442q138 0 259 -40t208.5 -109t151 -160t94.5 -195t31 -213t-31 -213t-94.5 -195t-151 -160t-208.5 -109t-259 -40h-442zM346 168h256q128 0 234 47t174 124.5t105.5 175t37.5 202.5t-37.5 202.5t-105.5 175t-174 124.5t-234 47h-256v-1098z" />
<glyph unicode="E" horiz-adv-x="1114" d="M160 0v1434h805v-168h-619v-469h619v-168h-619v-461h619v-168h-805z" />
<glyph unicode="F" horiz-adv-x="1101" d="M160 0v1434h805v-168h-619v-512h619v-168h-619v-586h-186z" />
<glyph unicode="G" horiz-adv-x="1712" d="M84 717q0 145 52 280t145 239.5t233 167t305 62.5q156 0 288.5 -58.5t214 -156.5t97.5 -217h-188q-30 113 -143 188.5t-269 75.5q-124 0 -228 -48t-172.5 -129t-106.5 -185.5t-38 -218.5q0 -116 36.5 -219.5t105.5 -185t179 -129.5t247 -48q102 0 186 30.5t141.5 83.5 t92.5 122.5t45 150.5h-338v168h690v-168h-154q-43 -255 -219.5 -405t-466.5 -150q-138 0 -257 40.5t-205.5 112t-149 166.5t-93 204.5t-30.5 226.5z" />
<glyph unicode="H" horiz-adv-x="1359" d="M160 0v1434h186v-637h668v637h186v-1434h-186v629h-668v-629h-186z" />
<glyph unicode="I" horiz-adv-x="512" d="M160 0v1434h192v-1434h-192z" />
<glyph unicode="J" horiz-adv-x="1097" d="M29 455h186q0 -144 75.5 -232t203.5 -88t200 86t72 234v979h186v-979q0 -215 -123.5 -351.5t-334.5 -136.5q-210 0 -337.5 137.5t-127.5 350.5z" />
<glyph unicode="K" horiz-adv-x="1208" d="M160 0v1434h186v-652l602 652h236l-656 -717l656 -717h-236l-602 651v-651h-186z" />
<glyph unicode="L" horiz-adv-x="870" d="M160 0v1434h186v-1266h469v-168h-655z" />
<glyph unicode="M" horiz-adv-x="1662" d="M160 0v1434h180l491 -1147l492 1147h180v-1434h-188v999l-412 -999h-143l-414 999v-999h-186z" />
<glyph unicode="N" horiz-adv-x="1357" d="M160 0v1434h207l645 -1108v1108h186v-1434h-207l-645 1108v-1108h-186z" />
<glyph unicode="O" horiz-adv-x="1644" d="M84 717q0 116 32.5 226.5t96 204.5t151.5 165.5t206.5 112t252.5 40.5q167 0 308.5 -62.5t234.5 -167t145 -239t52 -280.5q0 -116 -32.5 -226.5t-96.5 -205t-152 -166t-206.5 -112t-252.5 -40.5t-252.5 40.5t-206.5 112t-151.5 166t-96 205t-32.5 226.5zM279 717 q0 -112 38.5 -217t107 -186t172.5 -130t226 -49t226 49t172.5 130t106.5 185.5t38 217.5q0 153 -64.5 284.5t-190.5 214t-288 82.5q-122 0 -226 -48t-172.5 -129t-107 -185.5t-38.5 -218.5z" />
<glyph unicode="P" horiz-adv-x="1220" d="M160 0v1434h504q145 0 258.5 -67.5t173 -178t59.5 -242.5q0 -133 -59.5 -243.5t-173 -178t-258.5 -67.5h-318v-457h-186zM346 627h318q136 0 220.5 92.5t84.5 226.5q0 133 -84.5 226.5t-220.5 93.5h-318v-639z" />
<glyph unicode="Q" horiz-adv-x="1644" d="M84 717q0 116 32.5 226.5t96 204.5t151.5 165.5t206.5 112t252.5 40.5q167 0 308.5 -62.5t234.5 -167t145 -239t52 -280.5q0 -258 -148 -458t-391 -261l127 -178l-166 -82l-164 229q-135 0 -253.5 40.5t-205.5 112t-150.5 166t-95.5 205t-32 226.5zM279 717 q0 -112 38.5 -217t107 -186t172.5 -130t226 -49t226 49t172.5 130t106.5 185.5t38 217.5q0 153 -64.5 284.5t-190.5 214t-288 82.5q-122 0 -226 -48t-172.5 -129t-107 -185.5t-38.5 -218.5z" />
<glyph unicode="R" horiz-adv-x="1241" d="M160 0v1434h504q145 0 258.5 -67.5t173 -178t59.5 -242.5q0 -159 -85.5 -284.5t-231.5 -174.5l301 -487h-213l-285 457h-295v-457h-186zM346 627h318q136 0 220.5 92.5t84.5 226.5q0 133 -84.5 226.5t-220.5 93.5h-318v-639z" />
<glyph unicode="S" horiz-adv-x="1169" d="M92 457h187q0 -148 87.5 -235t235.5 -87q126 0 205.5 66.5t79.5 177.5q0 36 -9.5 67t-22.5 53.5t-37 43t-43.5 32.5t-52.5 26t-52.5 20.5t-55.5 17.5q-99 31 -150.5 50t-124 57t-107.5 79t-62 107t-27 151q0 169 126.5 276t320.5 107q195 0 322.5 -121.5t127.5 -316.5 h-186q-2 124 -71 197t-189 73q-119 0 -191.5 -58t-72.5 -157q0 -56 21 -98t62.5 -70t82 -45t100.5 -34q60 -20 97 -33t93 -37t91.5 -46t76.5 -56t64 -70.5t39 -87t16 -107.5q0 -136 -65.5 -235.5t-174 -148t-245.5 -48.5q-139 0 -251 58t-178.5 170.5t-66.5 261.5z" />
<glyph unicode="T" horiz-adv-x="978" d="M25 1266v168h929v-168h-372v-1266h-187v1266h-370z" />
<glyph unicode="U" horiz-adv-x="1288" d="M145 465v969h187v-969q0 -137 86.5 -233.5t222.5 -96.5q139 0 227 96.5t88 233.5v969h187v-969q0 -136 -60.5 -248.5t-176.5 -181t-265 -68.5q-145 0 -260 68.5t-175.5 181.5t-60.5 248z" />
<glyph unicode="V" horiz-adv-x="1153" d="M8 1434h197l373 -1127l370 1127h197l-500 -1434h-135z" />
<glyph unicode="W" horiz-adv-x="1974" d="M12 1434h197l360 -1110l349 1110h141l348 -1110l360 1110h197l-491 -1434h-138l-348 1110l-346 -1110h-139z" />
<glyph unicode="X" horiz-adv-x="1122" d="M20 0l435 717l-435 717h211l330 -555l330 555h213l-436 -717l436 -717h-213l-330 555l-330 -555h-211z" />
<glyph unicode="Y" horiz-adv-x="1210" d="M20 1434h218l419 -670l338 670h205l-721 -1434h-205l287 569z" />
<glyph unicode="Z" d="M29 0l796 1266h-753v168h1067l-797 -1266h803v-168h-1116z" />
<glyph unicode="[" horiz-adv-x="686" d="M160 -479v2107h403v-160h-225v-1790h225v-157h-403z" />
<glyph unicode="\" horiz-adv-x="892" d="M-10 1587l162 70l745 -1733l-162 -69z" />
<glyph unicode="]" horiz-adv-x="686" d="M123 -322h225v1788h-225v160h403v-2105h-403v157z" />
<glyph unicode="^" horiz-adv-x="1306" d="M123 662l463 874h127l471 -874h-201l-332 651l-334 -651h-194z" />
<glyph unicode="_" horiz-adv-x="1146" d="M61 -102h1024v-125h-1024v125z" />
<glyph unicode="`" horiz-adv-x="1013" d="M182 1360l86 139l510 -280l-86 -140z" />
<glyph unicode="a" horiz-adv-x="1222" d="M84 465q0 132 59 243t169 178.5t249 67.5q104 0 193 -49.5t133 -134.5v160h176v-930h-176v162q-44 -85 -133 -135t-193 -50q-139 0 -249 67.5t-169 178.5t-59 242zM260 465q0 -137 86.5 -232.5t224.5 -95.5q139 0 227.5 95.5t88.5 232.5t-88.5 233.5t-227.5 96.5 q-138 0 -224.5 -96.5t-86.5 -233.5z" />
<glyph unicode="b" horiz-adv-x="1226" d="M160 0v1434h178v-664q44 85 132 134.5t192 49.5q140 0 250.5 -67.5t169.5 -178.5t59 -243q0 -131 -59 -242t-169.5 -178.5t-250.5 -67.5q-104 0 -192 50t-132 135v-162h-178zM338 465q0 -137 88 -232.5t227 -95.5q136 0 223 95.5t87 232.5t-87 233.5t-223 96.5 q-139 0 -227 -96.5t-88 -233.5z" />
<glyph unicode="c" horiz-adv-x="1083" d="M88 465q0 96 30.5 183t87 156t146 109.5t199.5 40.5q108 0 192.5 -30.5t135 -83.5t78.5 -115t34 -133h-178q-25 203 -258 203q-136 0 -212.5 -96t-76.5 -234q0 -90 30.5 -162.5t100 -119t168.5 -46.5q111 0 168 45.5t82 136.5h178q-21 -151 -134.5 -246.5t-305.5 -95.5 q-110 0 -200 40.5t-147 109t-87.5 155.5t-30.5 183z" />
<glyph unicode="d" horiz-adv-x="1222" d="M84 465q0 132 59 243t169 178.5t249 67.5q104 0 193 -49.5t133 -134.5v664h176v-1434h-176v162q-44 -85 -133 -135t-193 -50q-139 0 -249 67.5t-169 178.5t-59 242zM260 465q0 -137 86.5 -232.5t224.5 -95.5q139 0 227.5 95.5t88.5 232.5t-88.5 233.5t-227.5 96.5 q-138 0 -224.5 -96.5t-86.5 -233.5z" />
<glyph unicode="e" horiz-adv-x="1075" d="M88 465q0 216 122 352.5t337 136.5q182 0 306 -120.5t124 -298.5q0 -66 -8 -117h-705q5 -128 75.5 -209.5t213.5 -81.5q178 0 235 147h181q-26 -125 -137 -211t-279 -86q-114 0 -204 38.5t-146.5 105.5t-85.5 154.5t-29 189.5zM266 553h539q0 121 -73.5 192.5 t-188.5 71.5q-123 0 -198 -69t-79 -195z" />
<glyph unicode="f" horiz-adv-x="710" d="M43 780v150h201v162q0 69 12 125t31 92.5t47.5 63t55 40t60.5 21.5t58 10t53 2q79 0 127 -25v-151q-53 16 -104 16q-28 0 -46.5 -2t-42.5 -11.5t-38.5 -27.5t-24.5 -52.5t-10 -82.5v-180h266v-150h-266v-780h-178v780h-201z" />
<glyph unicode="g" horiz-adv-x="1218" d="M84 465q0 132 59 243t169 178.5t249 67.5q104 0 193 -49.5t133 -134.5v160h176v-989q0 -242 -127.5 -353.5t-368.5 -111.5q-115 0 -205.5 33.5t-146 91t-85.5 128.5t-34 152h180q8 -108 80 -178t211 -70q320 0 320 308v221q-44 -85 -133 -135t-193 -50q-139 0 -249 67.5 t-169 178.5t-59 242zM260 465q0 -137 86.5 -232.5t224.5 -95.5q139 0 227.5 95.5t88.5 232.5t-88.5 233.5t-227.5 96.5q-138 0 -224.5 -96.5t-86.5 -233.5z" />
<glyph unicode="h" d="M160 0v1434h178v-668q42 88 127 138t201 50q193 0 278 -123q39 -54 55.5 -119t16.5 -163v-549h-178v494q0 139 -56 221t-180 82q-126 0 -195 -92.5t-69 -225.5v-479h-178z" />
<glyph unicode="i" horiz-adv-x="497" d="M106 1282q0 60 41 102.5t101 42.5t102.5 -42.5t42.5 -102.5t-42.5 -100.5t-102.5 -40.5t-101 40.5t-41 100.5zM160 0v930h178v-930h-178z" />
<glyph unicode="j" horiz-adv-x="497" d="M-25 -340q52 -12 91 -12q94 0 94 129v1153h178v-1180q0 -142 -61 -207t-156 -65q-93 0 -146 24v158zM106 1282q0 60 41 102.5t101 42.5q61 0 103 -42.5t42 -102.5t-41.5 -100.5t-103.5 -40.5q-60 0 -101 40.5t-41 100.5z" />
<glyph unicode="k" horiz-adv-x="976" d="M160 0v1434h178v-928l389 424h225l-424 -465l424 -465h-225l-389 422v-422h-178z" />
<glyph unicode="l" horiz-adv-x="497" d="M160 0v1434h178v-1434h-178z" />
<glyph unicode="m" horiz-adv-x="1687" d="M160 0v930h178v-166q28 82 101 136t173 54q242 0 299 -198q31 84 112 141t187 57q90 0 155.5 -28t103.5 -79t55.5 -115t17.5 -144v-588h-178v535q0 129 -50 195.5t-147 66.5q-107 0 -167 -81.5t-60 -242.5v-473h-178v524q0 273 -195 273q-106 0 -167.5 -82t-61.5 -242 v-473h-178z" />
<glyph unicode="n" d="M160 0v930h178v-164q42 88 127 138t201 50q193 0 278 -123q39 -54 55.5 -119t16.5 -163v-549h-178v494q0 139 -56 221t-180 82q-126 0 -195 -92.5t-69 -225.5v-479h-178z" />
<glyph unicode="o" horiz-adv-x="1146" d="M84 465q0 132 59.5 243t172 178.5t255.5 67.5q145 0 259 -67.5t173.5 -178t59.5 -243.5q0 -98 -35.5 -186.5t-98 -155.5t-156 -106.5t-202.5 -39.5q-108 0 -200 39.5t-154.5 106t-97.5 155.5t-35 187zM260 465q0 -137 86.5 -232.5t224.5 -95.5q139 0 227.5 95.5 t88.5 232.5t-88.5 233.5t-227.5 96.5q-138 0 -224.5 -96.5t-86.5 -233.5z" />
<glyph unicode="p" horiz-adv-x="1226" d="M160 -504v1434h178v-160q44 85 132 134.5t192 49.5q140 0 250.5 -67.5t169.5 -178.5t59 -243q0 -131 -59 -242t-169.5 -178.5t-250.5 -67.5q-104 0 -192 50t-132 135v-666h-178zM338 465q0 -137 88 -232.5t227 -95.5q136 0 223 95.5t87 232.5t-87 233.5t-223 96.5 q-139 0 -227 -96.5t-88 -233.5z" />
<glyph unicode="q" horiz-adv-x="1226" d="M86 465q0 132 59 243t169.5 178.5t250.5 67.5q104 0 192 -49.5t132 -134.5v160h178v-1434h-178v666q-44 -85 -132 -135t-192 -50q-140 0 -250.5 67.5t-169.5 178.5t-59 242zM264 465q0 -137 86.5 -232.5t222.5 -95.5q139 0 227.5 95.5t88.5 232.5t-88.5 233.5 t-227.5 96.5q-136 0 -222.5 -96.5t-86.5 -233.5z" />
<glyph unicode="r" horiz-adv-x="747" d="M160 0v930h178v-182q36 87 123 141.5t186 54.5q56 0 88 -14v-164q-49 10 -88 10q-152 0 -230.5 -98t-78.5 -270v-408h-178z" />
<glyph unicode="s" horiz-adv-x="925" d="M82 313h174q0 -100 59.5 -147t159.5 -47q187 0 187 133q0 25 -10 45t-24.5 32.5t-45.5 26t-56.5 22t-75 24t-85.5 28.5q-50 15 -81.5 27t-67.5 33t-56 46t-33.5 63t-13.5 87q0 126 97.5 197t248.5 71q154 0 256 -87.5t102 -225.5h-172q0 82 -48 126t-140 44 q-76 0 -124 -34t-48 -95q0 -40 30.5 -68t64 -40.5t125.5 -40.5q10 -3 16 -5l15 -5t17 -5q38 -12 60.5 -19t56 -21t53 -26.5t43 -32.5t36 -42.5t21 -53.5t8.5 -67q0 -135 -101 -207t-263 -72q-105 0 -190.5 36t-140 114t-54.5 186z" />
<glyph unicode="t" horiz-adv-x="696" d="M41 780v150h172v313h178v-313h242v-150h-242v-428q0 -65 10.5 -107t33.5 -62t47.5 -26.5t62.5 -6.5q85 0 121 8v-158q-70 -12 -160 -12q-29 0 -52.5 2t-55.5 9.5t-56 20.5t-49.5 37.5t-42 57.5t-27 84t-10.5 114v467h-172z" />
<glyph unicode="u" d="M141 381v549h178v-492q0 -139 56 -221t178 -82q87 0 148.5 45t89.5 115t28 158v477h178v-930h-178v166q-42 -88 -127 -138.5t-200 -50.5q-193 0 -281 121q-38 54 -54 119t-16 164z" />
<glyph unicode="v" horiz-adv-x="987" d="M8 930h193l291 -676l294 676h193l-426 -930h-123z" />
<glyph unicode="w" horiz-adv-x="1503" d="M8 930h191l231 -656l234 656h176l231 -656l234 656h190l-360 -930h-123l-260 735l-260 -735h-123z" />
<glyph unicode="x" horiz-adv-x="901" d="M33 0l315 469l-311 461h205l209 -324l208 324h205l-311 -461l315 -469h-204l-213 330l-213 -330h-205z" />
<glyph unicode="y" horiz-adv-x="1173" d="M143 -121h181q7 -126 73 -189t185 -63q127 0 193.5 62.5t66.5 214.5v262q-42 -88 -126 -138.5t-200 -50.5q-194 0 -283 119q-38 54 -53.5 120t-15.5 171v543h178v-488q0 -147 54 -227t184 -80q127 0 194.5 91t67.5 227v477h178v-1026q0 -220 -111 -324t-331 -104 q-202 0 -316.5 102t-118.5 301z" />
<glyph unicode="z" horiz-adv-x="888" d="M49 0l498 772h-481v158h782l-498 -770h500v-160h-801z" />
<glyph unicode="{" horiz-adv-x="860" d="M139 475v148q37 0 78.5 17t76 60t34.5 103v538q0 90 43.5 157t105.5 97.5t131 30.5h135v-135h-94q-73 0 -108 -50t-35 -126v-535q0 -56 -20.5 -101t-52 -70.5t-62 -39.5t-58.5 -18q193 -47 193 -248v-471q0 -76 35.5 -126t107.5 -50h94v-135h-135q-51 0 -99.5 17.5 t-89.5 51.5t-66 90t-25 125v476q0 50 -20 89.5t-50 61t-61 32.5t-58 11z" />
<glyph unicode="|" horiz-adv-x="497" d="M174 -479v2105h154v-2105h-154z" />
<glyph unicode="}" horiz-adv-x="860" d="M119 -344h92q70 0 106.5 51t36.5 125v471q0 201 193 248q-28 4 -58.5 18t-62 39.5t-52 70.5t-20.5 101v535q0 76 -35 126t-108 50h-92v135h135q50 0 99 -18.5t90 -52.5t66.5 -90t25.5 -124v-538q0 -46 20 -82.5t50 -56.5t60.5 -30.5t57.5 -10.5v-148q-27 0 -57.5 -11 t-61 -32.5t-50 -61t-19.5 -89.5v-476q0 -69 -25 -125t-66.5 -90t-90 -51.5t-99.5 -17.5h-135v135z" />
<glyph unicode="~" horiz-adv-x="1060" d="M76 438v158q46 57 104 84t115 27q84 0 242 -66q13 -6 46.5 -20t51 -21t43 -16t45 -13t35.5 -4q112 0 225 113v-156q-93 -116 -227 -116q-84 0 -226 71q-140 68 -243 68q-106 0 -211 -109z" />
<glyph unicode="&#xa1;" horiz-adv-x="606" d="M162 813q0 61 41.5 103t101.5 42t103 -42t43 -103q0 -60 -43 -101.5t-103 -41.5t-101.5 41.5t-41.5 101.5zM209 496h194v-1000h-194v1000z" />
<glyph unicode="&#xa2;" horiz-adv-x="1155" d="M117 643q0 119 44.5 221.5t136 175t216.5 88.5v220h135v-220q91 -10 161 -43.5t112.5 -84t66 -108t29.5 -122.5h-178q-25 203 -258 203q-135 0 -211 -96t-76 -234q0 -90 30.5 -162.5t100 -119t168.5 -46.5q111 0 168 46t82 137h178q-25 -141 -117.5 -231.5t-255.5 -108.5 v-219h-135v221q-126 16 -217.5 87t-135.5 173.5t-44 222.5z" />
<glyph unicode="&#xa3;" horiz-adv-x="1204" d="M80 688v137h139v224q0 177 130 292t319 115q198 0 324 -126t126 -322h-186q0 124 -69.5 201t-203.5 77q-105 0 -173 -56t-78 -155q-2 -9 -2 -48.5t1 -104t1 -95.5h340v-135h-340q0 -177 -13 -309q-12 -162 -57 -215h666v-168h-877v141q60 69 74 230q7 44 12.5 148 t5.5 169h-139z" />
<glyph unicode="&#xa4;" horiz-adv-x="1531" d="M197 334l139 139q-88 122 -88 285q0 162 88 284l-139 140l112 112l137 -139q129 92 289 92t291 -90l137 137l113 -112l-137 -138q90 -129 90 -286q0 -161 -90 -287l135 -137l-111 -113l-137 137q-128 -88 -291 -88q-158 0 -286 88l-140 -137zM426 758q0 -137 86.5 -232.5 t222.5 -95.5q139 0 227.5 95.5t88.5 232.5t-88.5 233t-227.5 96q-136 0 -222.5 -96t-86.5 -233z" />
<glyph unicode="&#xa5;" horiz-adv-x="1214" d="M-45 1434h217l438 -676l432 676h215l-530 -832h299v-135h-332v-160h332v-135h-332v-172h-170v172h-325v135h325v160h-325v135h293z" />
<glyph unicode="&#xa6;" horiz-adv-x="497" d="M172 473h156v-952h-156v952zM172 672v954h156v-954h-156z" />
<glyph unicode="&#xa7;" horiz-adv-x="1187" d="M90 555q0 115 62.5 196.5t173.5 110.5q-156 98 -156 289q0 162 130.5 262t324.5 100t323 -117t129 -298h-188q0 113 -73.5 185.5t-190.5 72.5q-120 0 -193.5 -53t-73.5 -152q0 -51 22 -90t64 -66t84.5 -44t100.5 -33q64 -19 106.5 -33.5t97 -36t90 -42.5t73 -50.5t59 -62 t35.5 -75.5t14 -92q0 -112 -71 -201.5t-161 -107.5q164 -95 164 -289q0 -111 -61.5 -193.5t-163 -123.5t-229.5 -41q-203 0 -336 118.5t-133 305.5h188q0 -117 78.5 -192.5t202.5 -75.5q123 0 194.5 50t71.5 152q0 91 -70 143t-213 93q-64 19 -106.5 33t-97 36t-90 42.5 t-73 50t-59 62t-35.5 75.5t-14 92zM281 573q0 -69 40 -111t132 -79q17 -10 54.5 -24t65 -22.5t76 -22.5t51.5 -15q89 5 152 65t63 144q0 68 -37 106t-126 76q-20 13 -63 28t-105 33.5t-86 26.5q-97 -4 -157 -63.5t-60 -141.5z" />
<glyph unicode="&#xa8;" horiz-adv-x="1138" d="M184 1315q0 59 40 99t98 40t97.5 -40t39.5 -99q0 -57 -40 -96t-97 -39t-97.5 39t-40.5 96zM655 1315q0 60 39.5 99.5t96.5 39.5q60 0 99.5 -39.5t39.5 -99.5q0 -57 -39.5 -96t-99.5 -39q-57 0 -96.5 39t-39.5 96z" />
<glyph unicode="&#xa9;" horiz-adv-x="1650" d="M86 717q0 117 32.5 227.5t96 205t151.5 166t206.5 112t252.5 40.5t252.5 -40.5t206.5 -112t152 -166t96.5 -205t32.5 -227.5t-32.5 -227.5t-96.5 -205.5t-152 -166.5t-206.5 -112t-252.5 -40.5t-252.5 40.5t-206.5 112t-151.5 166.5t-96 205.5t-32.5 227.5zM231 717 q0 -123 41.5 -237.5t116.5 -203t188.5 -141.5t247.5 -53t247.5 53t188.5 141.5t116.5 203t41.5 237.5t-41.5 237.5t-116.5 203t-188.5 141.5t-247.5 53t-247.5 -53t-188.5 -141.5t-116.5 -203t-41.5 -237.5zM414 719q0 111 48 206.5t143.5 156.5t219.5 61q170 0 269 -83.5 t125 -221.5h-125q-25 90 -92 143t-177 53q-131 0 -210.5 -93t-79.5 -222q0 -133 83.5 -225.5t221.5 -92.5q88 0 154 44t96 114h129q-33 -117 -135.5 -191.5t-243.5 -74.5q-98 0 -179 34t-134.5 92.5t-83 135.5t-29.5 164z" />
<glyph unicode="&#xaa;" horiz-adv-x="1222" d="M84 465q0 132 59 243t169 178.5t249 67.5q104 0 193 -49.5t133 -134.5v160h176v-930h-176v162q-44 -85 -133 -135t-193 -50q-139 0 -249 67.5t-169 178.5t-59 242zM260 465q0 -137 86.5 -232.5t224.5 -95.5q139 0 227.5 95.5t88.5 232.5t-88.5 233.5t-227.5 96.5 q-138 0 -224.5 -96.5t-86.5 -233.5z" />
<glyph unicode="&#xab;" horiz-adv-x="966" d="M82 543v108l401 342v-176l-258 -221l258 -221v-174zM483 543v108l402 342v-176l-258 -221l258 -221v-174z" />
<glyph unicode="&#xac;" horiz-adv-x="1177" d="M176 623v159h828v-465h-179v306h-649z" />
<glyph unicode="&#xad;" horiz-adv-x="602" d="M61 563v41h480v-41h-480z" />
<glyph unicode="&#xae;" horiz-adv-x="1654" d="M86 717q0 146 52 281.5t145 240t234.5 167t309.5 62.5t309.5 -62.5t235 -167t145.5 -240t52 -281.5t-52 -281.5t-145.5 -240.5t-235 -167.5t-309.5 -62.5q-135 0 -253.5 40.5t-207 112t-152 166.5t-96 205.5t-32.5 227.5zM231 717q0 -124 41.5 -238t116.5 -202.5 t189 -141.5t249 -53t249 53t189 141.5t116.5 202.5t41.5 238t-41.5 238t-116.5 202.5t-189 141.5t-249 53t-249 -53t-189 -141.5t-116.5 -202.5t-41.5 -238zM561 324v833h324q126 0 205 -82.5t79 -202.5q0 -93 -49.5 -164t-136.5 -100l178 -284h-145l-166 266h-160v-266 h-129zM690 702h182q72 0 116 49.5t44 120.5t-44.5 121.5t-115.5 50.5h-182v-342z" />
<glyph unicode="&#xaf;" horiz-adv-x="1110" d="M188 1481v159h734v-159h-734z" />
<glyph unicode="&#xb0;" horiz-adv-x="673" d="M43 1176q0 123 85 207.5t208 84.5t208 -84.5t85 -207.5t-85 -208t-208 -85t-208 85t-85 208zM172 1176q0 -69 48 -117.5t116 -48.5q69 0 117.5 48.5t48.5 117.5q0 68 -48.5 117.5t-117.5 49.5q-67 0 -115.5 -49.5t-48.5 -117.5z" />
<glyph unicode="&#xb1;" horiz-adv-x="1177" d="M180 49v160h817v-160h-817zM180 776v160h320v330h178v-330h319v-160h-319v-327h-178v327h-320z" />
<glyph unicode="&#xb2;" horiz-adv-x="757" d="M113 645q0 92 14.5 158.5t45.5 111.5t67 74t92 58q45 23 69 37t51.5 36.5t39.5 48.5t12 58q0 53 -31 80.5t-86 27.5q-58 0 -92.5 -35t-34.5 -102h-145q0 111 73 180.5t199 69.5q115 0 187.5 -59.5t72.5 -171.5q0 -48 -19 -89.5t-54.5 -73.5t-64 -50.5t-69.5 -40.5 q-95 -50 -127 -89.5t-32 -107.5h366v-121h-534z" />
<glyph unicode="&#xb3;" horiz-adv-x="782" d="M98 897h146q0 -68 39.5 -107.5t103.5 -39.5q61 0 96 34.5t35 87.5q0 59 -34.5 93t-104.5 34h-68v115h68q127 0 127 115q0 53 -31 79.5t-86 26.5q-125 0 -125 -129h-145q0 106 68 174t198 68q113 0 189.5 -58t76.5 -159q0 -66 -35 -112t-92 -64q62 -18 101 -69t39 -122 q0 -107 -79 -170t-196 -63q-137 0 -214 72.5t-77 193.5z" />
<glyph unicode="&#xb4;" horiz-adv-x="1013" d="M123 1219l510 280l86 -139l-510 -281z" />
<glyph unicode="&#xb5;" horiz-adv-x="1177" d="M160 -504v1434h178v-492q0 -139 56 -221t179 -82q127 0 196 91t69 227v477h178v-930h-178v166q-42 -88 -127 -138.5t-201 -50.5q-108 0 -172 58v-539h-178z" />
<glyph unicode="&#xb6;" horiz-adv-x="1337" d="M31 1065q0 74 19.5 135.5t50.5 102.5t75.5 72t89 48t97 28t93.5 14t85 3h653v-147h-109v-1624h-170v1622h-274v-1622h-168v977q-199 0 -320.5 99t-121.5 292z" />
<glyph unicode="&#xb7;" horiz-adv-x="522" d="M119 639q0 60 40.5 102.5t100.5 42.5t103 -42.5t43 -102.5t-43 -100.5t-103 -40.5t-100.5 40.5t-40.5 100.5z" />
<glyph unicode="&#xb8;" horiz-adv-x="978" d="M297 -301h109q6 -38 30 -60t62 -22q43 0 69.5 28t26.5 72q0 41 -26.5 67t-67.5 26q-51 0 -80 -52h-94v242h118v-145q27 41 88 41q67 0 118.5 -49t51.5 -130q0 -78 -54.5 -137t-149.5 -59q-23 0 -51 8t-61.5 25.5t-58 55.5t-30.5 89z" />
<glyph unicode="&#xb9;" horiz-adv-x="548" d="M96 1192v106q105 0 141.5 31.5t36.5 104.5h132v-789h-150v547h-160z" />
<glyph unicode="&#xba;" horiz-adv-x="1146" d="M84 465q0 132 59.5 243t172 178.5t255.5 67.5q145 0 259 -67.5t173.5 -178t59.5 -243.5q0 -98 -35.5 -186.5t-98 -155.5t-156 -106.5t-202.5 -39.5q-108 0 -200 39.5t-154.5 106t-97.5 155.5t-35 187zM260 465q0 -137 86.5 -232.5t224.5 -95.5q139 0 227.5 95.5 t88.5 232.5t-88.5 233.5t-227.5 96.5q-138 0 -224.5 -96.5t-86.5 -233.5z" />
<glyph unicode="&#xbb;" horiz-adv-x="966" d="M82 201v174l258 221l-258 221v176l401 -342v-108zM483 201v174l258 221l-258 221v176l402 -342v-108z" />
<glyph unicode="&#xbc;" horiz-adv-x="1875" d="M137 1192v106q105 0 141.5 30.5t36.5 105.5h129v-789h-147v547h-160zM315 -37l859 1589l141 -79l-856 -1590zM1137 238v550h145v-428h166v230h145v-230h109v-122h-109v-238h-145v238h-311z" />
<glyph unicode="&#xbd;" horiz-adv-x="1875" d="M137 1192v106q105 0 141.5 30.5t36.5 105.5h129v-789h-147v547h-160zM315 -37l859 1589l141 -79l-856 -1590zM1133 0q0 93 14 159t45 111t67 73t93 58q44 22 68.5 37t51 37t38.5 48.5t12 58.5q0 53 -30 80.5t-85 27.5q-59 0 -93 -35t-34 -102h-145q0 111 73 180.5 t199 69.5q114 0 187 -60t73 -172q0 -49 -19 -90.5t-53.5 -72.5t-65.5 -51.5t-71 -39.5q-95 -50 -127.5 -89t-32.5 -107h367v-121h-532z" />
<glyph unicode="&#xbe;" horiz-adv-x="1875" d="M94 897h148q0 -68 38.5 -107.5t102.5 -39.5q61 0 96 34.5t35 87.5q0 60 -34 93.5t-103 33.5h-70v115h70q125 0 125 115q0 53 -31 79.5t-86 26.5q-125 0 -125 -129h-145q0 106 68.5 174t197.5 68q113 0 189.5 -58t76.5 -159q0 -66 -35 -112t-92 -64q63 -18 101 -68.5 t38 -122.5q0 -107 -78.5 -170t-195.5 -63q-135 0 -213 73t-78 193zM332 -37l858 1589l143 -79l-858 -1590zM1137 238v550h145v-428h166v230h145v-230h109v-122h-109v-238h-145v238h-311z" />
<glyph unicode="&#xbf;" horiz-adv-x="1032" d="M90 -133q0 57 16.5 109.5t37 87t56.5 71t57 53t56 41.5q54 41 82 66.5t49.5 61.5t28 78.5t6.5 109.5h180q0 -146 -40 -233.5t-140 -155.5q-5 -4 -25 -18t-27.5 -20t-26.5 -21t-27.5 -24t-24.5 -25.5t-24 -29.5t-19 -31.5t-16 -36t-9 -39t-4 -44.5q0 -110 68.5 -168.5 t187.5 -58.5t193 74t74 206h186q0 -137 -61.5 -240t-163.5 -155.5t-228 -52.5q-194 0 -318 107.5t-124 287.5zM418 809q0 62 44 105.5t107 43.5t105.5 -43.5t42.5 -105.5t-43 -106t-105 -44q-63 0 -107 44t-44 106z" />
<glyph unicode="&#xc0;" horiz-adv-x="1144" d="M10 0l494 1434h135l496 -1434h-197l-76 219h-581l-74 -219h-197zM309 1815l86 141l510 -281l-86 -141zM338 389h467l-232 739z" />
<glyph unicode="&#xc1;" horiz-adv-x="1144" d="M10 0l494 1434h135l496 -1434h-197l-76 219h-581l-74 -219h-197zM276 1645l510 280l84 -139l-510 -281zM338 389h467l-232 739z" />
<glyph unicode="&#xc2;" horiz-adv-x="1144" d="M10 0l494 1434h135l496 -1434h-197l-76 219h-581l-74 -219h-197zM209 1647l362 313l365 -313l-102 -115l-261 233l-260 -233zM338 389h467l-232 739z" />
<glyph unicode="&#xc3;" horiz-adv-x="1144" d="M10 0l494 1434h135l496 -1434h-197l-76 219h-581l-74 -219h-197zM186 1706q45 82 110.5 121t137.5 39q46 0 90 -16t71.5 -34.5t59.5 -34.5t58 -16q77 0 127 101l131 -68q-47 -88 -115.5 -131t-140.5 -43q-48 0 -92 15.5t-71 34.5t-59 34.5t-59 15.5q-43 0 -70.5 -25 t-54.5 -75zM338 389h467l-232 739z" />
<glyph unicode="&#xc4;" horiz-adv-x="1144" d="M10 0l494 1434h135l496 -1434h-197l-76 219h-581l-74 -219h-197zM197 1726q0 60 40.5 103t100.5 43t102.5 -43t42.5 -103t-42.5 -100.5t-102.5 -40.5t-100.5 40.5t-40.5 100.5zM338 389h467l-232 739zM666 1726q0 60 41.5 103t101.5 43t101.5 -43t41.5 -103t-41.5 -100.5 t-101.5 -40.5t-101.5 40.5t-41.5 100.5z" />
<glyph unicode="&#xc5;" horiz-adv-x="1144" d="M10 0l494 1434h135l496 -1434h-197l-76 219h-581l-74 -219h-197zM322 1747q0 104 73.5 178t177.5 74t178 -74.5t74 -177.5t-74 -177.5t-178 -74.5t-177.5 74.5t-73.5 177.5zM338 389h467l-232 739zM438 1747q0 -56 39 -94.5t96 -38.5t96.5 39t39.5 96q0 56 -39.5 95.5 t-96.5 39.5q-59 0 -97 -39.5t-38 -97.5z" />
<glyph unicode="&#xc6;" horiz-adv-x="1771" d="M4 0l707 1434h903v-168h-617v-469h617v-168h-617v-461h617v-168h-805v221h-494l-106 -221h-205zM395 389h414v856z" />
<glyph unicode="&#xc7;" horiz-adv-x="1587" d="M84 719q0 116 32 226t94.5 204t149 165t202.5 111.5t247 40.5q152 0 276 -41t209 -114.5t138.5 -169t74.5 -209.5h-196q-35 163 -160.5 264.5t-319.5 101.5q-103 0 -193 -31t-155.5 -86t-113 -128t-71.5 -158t-24 -176q0 -119 39.5 -224.5t112.5 -185.5t185 -127t247 -47 q150 0 275.5 86t169.5 221h204q-54 -201 -228 -333.5t-415 -139.5h-16v-104q34 37 98 37q65 0 111.5 -45.5t46.5 -120.5t-53 -130t-150 -55q-23 0 -50 6.5t-59 22.5t-57 50.5t-33 82.5h109q15 -65 90 -65q41 0 67.5 25t26.5 63t-25 63t-63 25q-60 0 -84 -47h-92v196 q-198 24 -347 132t-224.5 267.5t-75.5 346.5z" />
<glyph unicode="&#xc8;" horiz-adv-x="1114" d="M160 0v1434h805v-168h-619v-469h619v-168h-619v-461h619v-168h-805zM297 1788l84 139l510 -280l-84 -140z" />
<glyph unicode="&#xc9;" horiz-adv-x="1114" d="M160 0v1434h805v-168h-619v-469h619v-168h-619v-461h619v-168h-805zM270 1675l510 281l86 -141l-510 -281z" />
<glyph unicode="&#xca;" horiz-adv-x="1114" d="M160 0v1434h805v-168h-619v-469h619v-168h-619v-461h619v-168h-805zM209 1647l362 313l365 -313l-102 -115l-261 233l-258 -233z" />
<glyph unicode="&#xcb;" horiz-adv-x="1114" d="M160 0v1434h805v-168h-619v-469h619v-168h-619v-461h619v-168h-805zM207 1726q0 60 41.5 103t101.5 43t102 -43t42 -103t-42 -100.5t-102 -40.5t-101.5 40.5t-41.5 100.5zM678 1726q0 60 40.5 103t100.5 43t103 -43t43 -103t-43 -100.5t-103 -40.5t-100.5 40.5 t-40.5 100.5z" />
<glyph unicode="&#xcc;" horiz-adv-x="512" d="M-41 1786l86 139l510 -280l-86 -140zM160 0v1434h192v-1434h-192z" />
<glyph unicode="&#xcd;" horiz-adv-x="512" d="M-41 1645l510 280l86 -139l-510 -281zM160 0v1434h192v-1434h-192z" />
<glyph unicode="&#xce;" horiz-adv-x="512" d="M-106 1647l362 313l365 -313l-103 -115l-260 233l-260 -233zM160 0v1434h192v-1434h-192z" />
<glyph unicode="&#xcf;" horiz-adv-x="512" d="M-115 1726q0 60 41 103t101 43q61 0 103 -43t42 -103t-41.5 -100.5t-103.5 -40.5q-60 0 -101 40.5t-41 100.5zM160 0v1434h192v-1434h-192zM354 1726q0 60 42 103t102 43t101.5 -43t41.5 -103t-41.5 -100.5t-101.5 -40.5t-102 40.5t-42 100.5z" />
<glyph unicode="&#xd0;" horiz-adv-x="1427" d="M-78 651v135h238v648h442q137 0 257 -40t208 -109t151.5 -160t95.5 -195.5t32 -212.5t-32 -212.5t-95.5 -195.5t-151.5 -160t-208 -109t-257 -40h-442v651h-238zM346 168h256q128 0 234 47t174 124.5t105.5 175t37.5 202.5t-37.5 202.5t-105.5 175t-174 124.5t-234 47 h-256v-480h246v-135h-246v-483z" />
<glyph unicode="&#xd1;" horiz-adv-x="1357" d="M160 0v1434h207l645 -1108v1108h186v-1434h-207l-645 1108v-1108h-186zM279 1706q45 82 110 121t137 39q46 0 90 -16t71.5 -34.5t59.5 -34.5t58 -16q77 0 127 101l131 -68q-47 -88 -115.5 -131t-140.5 -43q-48 0 -92 15.5t-71 34.5t-59 34.5t-59 15.5q-43 0 -70.5 -25 t-54.5 -75z" />
<glyph unicode="&#xd2;" horiz-adv-x="1644" d="M84 717q0 116 32.5 226.5t96 204.5t151.5 165.5t206.5 112t252.5 40.5q167 0 308.5 -62.5t234.5 -167t145 -239t52 -280.5q0 -116 -32.5 -226.5t-96.5 -205t-152 -166t-206.5 -112t-252.5 -40.5t-252.5 40.5t-206.5 112t-151.5 166t-96 205t-32.5 226.5zM279 717 q0 -112 38.5 -217t107 -186t172.5 -130t226 -49t226 49t172.5 130t106.5 185.5t38 217.5q0 153 -64.5 284.5t-190.5 214t-288 82.5q-122 0 -226 -48t-172.5 -129t-107 -185.5t-38.5 -218.5zM496 1815l86 141l510 -281l-86 -141z" />
<glyph unicode="&#xd3;" horiz-adv-x="1644" d="M84 717q0 116 32.5 226.5t96 204.5t151.5 165.5t206.5 112t252.5 40.5q167 0 308.5 -62.5t234.5 -167t145 -239t52 -280.5q0 -116 -32.5 -226.5t-96.5 -205t-152 -166t-206.5 -112t-252.5 -40.5t-252.5 40.5t-206.5 112t-151.5 166t-96 205t-32.5 226.5zM279 717 q0 -112 38.5 -217t107 -186t172.5 -130t226 -49t226 49t172.5 130t106.5 185.5t38 217.5q0 153 -64.5 284.5t-190.5 214t-288 82.5q-122 0 -226 -48t-172.5 -129t-107 -185.5t-38.5 -218.5zM547 1675l510 281l86 -141l-510 -281z" />
<glyph unicode="&#xd4;" horiz-adv-x="1644" d="M84 717q0 116 32.5 226.5t96 204.5t151.5 165.5t206.5 112t252.5 40.5q167 0 308.5 -62.5t234.5 -167t145 -239t52 -280.5q0 -116 -32.5 -226.5t-96.5 -205t-152 -166t-206.5 -112t-252.5 -40.5t-252.5 40.5t-206.5 112t-151.5 166t-96 205t-32.5 226.5zM279 717 q0 -112 38.5 -217t107 -186t172.5 -130t226 -49t226 49t172.5 130t106.5 185.5t38 217.5q0 153 -64.5 284.5t-190.5 214t-288 82.5q-122 0 -226 -48t-172.5 -129t-107 -185.5t-38.5 -218.5zM461 1647l362 313l365 -313l-103 -115l-262 233l-258 -233z" />
<glyph unicode="&#xd5;" horiz-adv-x="1644" d="M84 717q0 116 32.5 226.5t96 204.5t151.5 165.5t206.5 112t252.5 40.5q167 0 308.5 -62.5t234.5 -167t145 -239t52 -280.5q0 -116 -32.5 -226.5t-96.5 -205t-152 -166t-206.5 -112t-252.5 -40.5t-252.5 40.5t-206.5 112t-151.5 166t-96 205t-32.5 226.5zM279 717 q0 -112 38.5 -217t107 -186t172.5 -130t226 -49t226 49t172.5 130t106.5 185.5t38 217.5q0 153 -64.5 284.5t-190.5 214t-288 82.5q-122 0 -226 -48t-172.5 -129t-107 -185.5t-38.5 -218.5zM442 1706q88 160 248 160q46 0 90 -16t71.5 -34.5t59.5 -34.5t58 -16q77 0 127 101 l129 -68q-45 -87 -113 -130.5t-141 -43.5q-48 0 -92 15.5t-71 34.5t-59 34.5t-59 15.5q-43 0 -70.5 -25t-54.5 -75z" />
<glyph unicode="&#xd6;" horiz-adv-x="1644" d="M84 717q0 116 32.5 226.5t96 204.5t151.5 165.5t206.5 112t252.5 40.5q167 0 308.5 -62.5t234.5 -167t145 -239t52 -280.5q0 -116 -32.5 -226.5t-96.5 -205t-152 -166t-206.5 -112t-252.5 -40.5t-252.5 40.5t-206.5 112t-151.5 166t-96 205t-32.5 226.5zM279 717 q0 -112 38.5 -217t107 -186t172.5 -130t226 -49t226 49t172.5 130t106.5 185.5t38 217.5q0 153 -64.5 284.5t-190.5 214t-288 82.5q-122 0 -226 -48t-172.5 -129t-107 -185.5t-38.5 -218.5zM444 1726q0 60 41 103t101 43q61 0 103 -43t42 -103t-41.5 -100.5t-103.5 -40.5 q-60 0 -101 40.5t-41 100.5zM913 1726q0 60 42 103t102 43t101.5 -43t41.5 -103t-41.5 -100.5t-101.5 -40.5t-102 40.5t-42 100.5z" />
<glyph unicode="&#xd7;" horiz-adv-x="1177" d="M233 354l234 236l-227 229l112 113l230 -230l235 238l127 -125l-237 -237l231 -232l-115 -110l-229 229l-236 -236z" />
<glyph unicode="&#xd8;" horiz-adv-x="1644" d="M84 717q0 116 32.5 226.5t96 204.5t151.5 165.5t206.5 112t252.5 40.5q127 0 219 -32l72 163l125 -55l-68 -160q121 -61 210.5 -166t135.5 -233.5t46 -265.5q0 -116 -32.5 -226.5t-96.5 -205t-152 -166t-206.5 -112t-252.5 -40.5t-241 37l-76 -176l-127 55l76 176 q-175 97 -273 274.5t-98 383.5zM279 717q0 -150 65 -282t182 -210l451 1051q-77 22 -154 22q-122 0 -226 -48t-172.5 -129t-107 -185.5t-38.5 -218.5zM649 164q85 -29 174 -29q122 0 226 49t172.5 130t106.5 185.5t38 217.5q0 156 -70 290.5t-196 211.5z" />
<glyph unicode="&#xd9;" horiz-adv-x="1288" d="M145 465v969h187v-969q0 -137 86.5 -233.5t222.5 -96.5q139 0 227 96.5t88 233.5v969h187v-969q0 -136 -60.5 -248.5t-176.5 -181t-265 -68.5q-145 0 -260 68.5t-175.5 181.5t-60.5 248zM369 1815l86 141l510 -281l-86 -141z" />
<glyph unicode="&#xda;" horiz-adv-x="1288" d="M145 465v969h187v-969q0 -137 86.5 -233.5t222.5 -96.5q139 0 227 96.5t88 233.5v969h187v-969q0 -136 -60.5 -248.5t-176.5 -181t-265 -68.5q-145 0 -260 68.5t-175.5 181.5t-60.5 248zM309 1675l510 281l84 -141l-510 -281z" />
<glyph unicode="&#xdb;" horiz-adv-x="1288" d="M145 465v969h187v-969q0 -137 86.5 -233.5t222.5 -96.5q139 0 227 96.5t88 233.5v969h187v-969q0 -136 -60.5 -248.5t-176.5 -181t-265 -68.5q-145 0 -260 68.5t-175.5 181.5t-60.5 248zM274 1647l363 315l364 -315l-102 -115l-260 235l-260 -233z" />
<glyph unicode="&#xdc;" horiz-adv-x="1288" d="M145 465v969h187v-969q0 -137 86.5 -233.5t222.5 -96.5q139 0 227 96.5t88 233.5v969h187v-969q0 -136 -60.5 -248.5t-176.5 -181t-265 -68.5q-145 0 -260 68.5t-175.5 181.5t-60.5 248zM264 1726q0 60 41 103t101 43q61 0 103 -43t42 -103t-41.5 -100.5t-103.5 -40.5 q-60 0 -101 40.5t-41 100.5zM733 1726q0 60 42 103t102 43t101.5 -43t41.5 -103t-41.5 -100.5t-101.5 -40.5t-102 40.5t-42 100.5z" />
<glyph unicode="&#xdd;" horiz-adv-x="1210" d="M20 1434h218l419 -670l338 670h205l-721 -1434h-205l287 569zM379 1679l510 281l84 -141l-510 -281z" />
<glyph unicode="&#xde;" horiz-adv-x="1024" d="M160 0v1434h168v-271h159q145 0 255 -65t164.5 -167.5t54.5 -223.5q0 -89 -32.5 -170.5t-91 -145t-150 -101.5t-200.5 -38h-159v-252h-168zM328 401h159q139 0 222.5 90.5t83.5 215.5t-83.5 216t-222.5 91h-159v-613z" />
<glyph unicode="&#xdf;" horiz-adv-x="1150" d="M145 0v1030q0 191 121 309.5t316 118.5q188 0 316 -107.5t128 -279.5q0 -126 -63.5 -208t-176.5 -115q121 -36 198 -128.5t77 -216.5q0 -104 -39.5 -187.5t-106.5 -135t-150 -78.5t-175 -27q-103 0 -162 25v156q76 -21 162 -21q124 0 208.5 70t84.5 198q0 46 -18 91 t-53 85t-94 64.5t-132 24.5h-88v159h82q134 0 201 68.5t67 175.5q0 103 -74.5 166t-191.5 63t-188.5 -74t-71.5 -196v-1030h-177z" />
<glyph unicode="&#xe0;" horiz-adv-x="1222" d="M84 465q0 132 59 243t169 178.5t249 67.5q104 0 193 -49.5t133 -134.5v160h176v-930h-176v162q-44 -85 -133 -135t-193 -50q-139 0 -249 67.5t-169 178.5t-59 242zM260 465q0 -137 86.5 -232.5t224.5 -95.5q139 0 227.5 95.5t88.5 232.5t-88.5 233.5t-227.5 96.5 q-138 0 -224.5 -96.5t-86.5 -233.5zM270 1311l86 139l510 -281l-86 -139z" />
<glyph unicode="&#xe1;" horiz-adv-x="1222" d="M84 465q0 132 59 243t169 178.5t249 67.5q104 0 193 -49.5t133 -134.5v160h176v-930h-176v162q-44 -85 -133 -135t-193 -50q-139 0 -249 67.5t-169 178.5t-59 242zM260 465q0 -137 86.5 -232.5t224.5 -95.5q139 0 227.5 95.5t88.5 232.5t-88.5 233.5t-227.5 96.5 q-138 0 -224.5 -96.5t-86.5 -233.5zM281 1169l510 281l86 -139l-510 -281z" />
<glyph unicode="&#xe2;" horiz-adv-x="1222" d="M84 465q0 132 59 243t169 178.5t249 67.5q104 0 193 -49.5t133 -134.5v160h176v-930h-176v162q-44 -85 -133 -135t-193 -50q-139 0 -249 67.5t-169 178.5t-59 242zM215 1198l363 315l364 -315l-102 -115l-260 236l-261 -234zM260 465q0 -137 86.5 -232.5t224.5 -95.5 q139 0 227.5 95.5t88.5 232.5t-88.5 233.5t-227.5 96.5q-138 0 -224.5 -96.5t-86.5 -233.5z" />
<glyph unicode="&#xe3;" horiz-adv-x="1222" d="M84 465q0 132 59 243t169 178.5t249 67.5q104 0 193 -49.5t133 -134.5v160h176v-930h-176v162q-44 -85 -133 -135t-193 -50q-139 0 -249 67.5t-169 178.5t-59 242zM223 1253q87 158 248 158q46 0 90 -15.5t71.5 -34.5t59.5 -34.5t58 -15.5q78 0 127 100l131 -68 q-47 -87 -115 -129.5t-141 -42.5q-48 0 -92 16t-71 34.5t-59 34.5t-59 16q-43 0 -70 -25.5t-55 -75.5zM260 465q0 -137 86.5 -232.5t224.5 -95.5q139 0 227.5 95.5t88.5 232.5t-88.5 233.5t-227.5 96.5q-138 0 -224.5 -96.5t-86.5 -233.5z" />
<glyph unicode="&#xe4;" horiz-adv-x="1222" d="M84 465q0 132 59 243t169 178.5t249 67.5q104 0 193 -49.5t133 -134.5v160h176v-930h-176v162q-44 -85 -133 -135t-193 -50q-139 0 -249 67.5t-169 178.5t-59 242zM190 1249q0 60 42 102t102 42t101.5 -42t41.5 -102t-41.5 -101.5t-101.5 -41.5t-102 41.5t-42 101.5z M260 465q0 -137 86.5 -232.5t224.5 -95.5q139 0 227.5 95.5t88.5 232.5t-88.5 233.5t-227.5 96.5q-138 0 -224.5 -96.5t-86.5 -233.5zM662 1249q0 60 40.5 102t100.5 42q61 0 103 -42t42 -102t-42 -101.5t-103 -41.5q-60 0 -100.5 41.5t-40.5 101.5z" />
<glyph unicode="&#xe5;" horiz-adv-x="1222" d="M84 465q0 132 59 243t169 178.5t249 67.5q104 0 193 -49.5t133 -134.5v160h176v-930h-176v162q-44 -85 -133 -135t-193 -50q-139 0 -249 67.5t-169 178.5t-59 242zM260 465q0 -137 86.5 -232.5t224.5 -95.5q139 0 227.5 95.5t88.5 232.5t-88.5 233.5t-227.5 96.5 q-138 0 -224.5 -96.5t-86.5 -233.5zM309 1292q0 108 76 184t184 76t185 -77t77 -183t-77 -183t-185 -77q-107 0 -183.5 77t-76.5 183zM424 1292q0 -61 42 -104t103 -43q63 0 105.5 43.5t42.5 105.5t-43 106t-105 44q-61 0 -103 -45t-42 -107z" />
<glyph unicode="&#xe6;" horiz-adv-x="1871" d="M84 465q0 132 59 243t169 178.5t249 67.5q104 0 193 -49.5t133 -134.5v160h176v-82q109 106 280 106q181 0 307 -120.5t126 -298.5q0 -60 -9 -117h-700q0 -130 71.5 -210.5t211.5 -80.5q178 0 235 147h180q-26 -124 -138 -210.5t-277 -86.5q-175 0 -287 107v-84h-176v162 q-44 -85 -133 -135t-193 -50q-139 0 -249 67.5t-169 178.5t-59 242zM260 465q0 -137 86.5 -232.5t224.5 -95.5q139 0 227.5 95.5t88.5 232.5q0 139 -88.5 234.5t-227.5 95.5q-138 0 -224.5 -96.5t-86.5 -233.5zM1069 553h533q0 111 -74.5 180.5t-188.5 69.5 q-119 0 -192.5 -66.5t-77.5 -183.5z" />
<glyph unicode="&#xe7;" horiz-adv-x="1083" d="M88 465q0 96 30.5 183t87 156t146 109.5t199.5 40.5q108 0 192.5 -30.5t135 -83.5t78.5 -115t34 -133h-178q-25 203 -258 203q-136 0 -212.5 -96t-76.5 -234q0 -90 30.5 -162.5t100 -119t168.5 -46.5q111 0 168 45.5t82 136.5h178q-25 -148 -126.5 -240t-282.5 -102 q-10 0 -13 3v-115q30 37 99 37q64 0 109.5 -45.5t45.5 -120.5t-52.5 -130t-149.5 -55q-22 0 -48.5 6.5t-59 22.5t-58 50.5t-33.5 82.5h108q21 -65 91 -65q42 0 68 24.5t26 63.5q0 38 -25 63t-63 25q-58 0 -82 -47h-94v209q-172 36 -268.5 169.5t-96.5 309.5z" />
<glyph unicode="&#xe8;" horiz-adv-x="1075" d="M88 465q0 216 122 352.5t337 136.5q182 0 306 -120.5t124 -298.5q0 -66 -8 -117h-705q5 -128 75.5 -209.5t213.5 -81.5q178 0 235 147h181q-26 -125 -137 -211t-279 -86q-114 0 -204 38.5t-146.5 105.5t-85.5 154.5t-29 189.5zM266 553h539q0 121 -73.5 192.5 t-188.5 71.5q-123 0 -198 -69t-79 -195zM287 1311l84 139l510 -281l-84 -139z" />
<glyph unicode="&#xe9;" horiz-adv-x="1075" d="M88 465q0 216 122 352.5t337 136.5q182 0 306 -120.5t124 -298.5q0 -66 -8 -117h-705q5 -128 75.5 -209.5t213.5 -81.5q178 0 235 147h181q-26 -125 -137 -211t-279 -86q-114 0 -204 38.5t-146.5 105.5t-85.5 154.5t-29 189.5zM231 1169l510 281l84 -139l-510 -281z M266 553h539q0 121 -73.5 192.5t-188.5 71.5q-123 0 -198 -69t-79 -195z" />
<glyph unicode="&#xea;" horiz-adv-x="1075" d="M88 465q0 216 122 352.5t337 136.5q182 0 306 -120.5t124 -298.5q0 -66 -8 -117h-705q5 -128 75.5 -209.5t213.5 -81.5q178 0 235 147h181q-26 -125 -137 -211t-279 -86q-114 0 -204 38.5t-146.5 105.5t-85.5 154.5t-29 189.5zM182 1198l363 315l364 -315l-102 -115 l-260 236l-260 -234zM266 553h539q0 121 -73.5 192.5t-188.5 71.5q-123 0 -198 -69t-79 -195z" />
<glyph unicode="&#xeb;" horiz-adv-x="1075" d="M88 465q0 216 122 352.5t337 136.5q182 0 306 -120.5t124 -298.5q0 -66 -8 -117h-705q5 -128 75.5 -209.5t213.5 -81.5q178 0 235 147h181q-26 -125 -137 -211t-279 -86q-114 0 -204 38.5t-146.5 105.5t-85.5 154.5t-29 189.5zM166 1247q0 62 40.5 104t100.5 42 t103 -42.5t43 -103.5q0 -60 -43 -100.5t-103 -40.5t-100.5 40.5t-40.5 100.5zM266 553h539q0 121 -73.5 192.5t-188.5 71.5q-123 0 -198 -69t-79 -195zM635 1247q0 61 41.5 103.5t101.5 42.5t102 -42.5t42 -103.5q0 -60 -42 -100.5t-102 -40.5t-101.5 40.5t-41.5 100.5z" />
<glyph unicode="&#xec;" horiz-adv-x="497" d="M-49 1341l86 140l510 -281l-86 -139zM160 0v930h178v-930h-178z" />
<glyph unicode="&#xed;" horiz-adv-x="497" d="M-49 1200l512 281l84 -140l-510 -280zM160 0v930h178v-930h-178z" />
<glyph unicode="&#xee;" horiz-adv-x="497" d="M-115 1198l363 315l364 -315l-102 -115l-260 236l-260 -234zM160 0v930h178v-930h-178z" />
<glyph unicode="&#xef;" horiz-adv-x="497" d="M-82 1249q0 60 41.5 102t101.5 42t102 -42t42 -102t-42 -101.5t-102 -41.5t-101.5 41.5t-41.5 101.5zM160 0v930h178v-930h-178zM328 1249q0 60 40.5 102t100.5 42q61 0 103 -42t42 -102t-42 -101.5t-103 -41.5q-60 0 -100.5 41.5t-40.5 101.5z" />
<glyph unicode="&#xf0;" d="M90 465q0 132 59.5 243t173 178.5t257.5 67.5q56 0 77 -24l-108 178l-225 -125l-62 109l219 118l-137 224h215l80 -136l174 97l59 -107l-167 -94l266 -426q98 -159 98 -303q0 -132 -59.5 -242.5t-172.5 -178t-257 -67.5q-109 0 -201.5 39.5t-155 106t-98 155.5t-35.5 187 zM266 465q0 -137 88 -232.5t226 -95.5t225.5 95.5t87.5 232.5t-87.5 233.5t-225.5 96.5t-226 -96.5t-88 -233.5z" />
<glyph unicode="&#xf1;" d="M160 0v930h178v-164q42 88 127 138t201 50q193 0 278 -123q39 -54 55.5 -119t16.5 -163v-549h-178v494q0 139 -56 221t-180 82q-126 0 -195 -92.5t-69 -225.5v-479h-178zM205 1253q87 158 248 158q46 0 89.5 -15.5t71 -34.5t59.5 -34.5t58 -15.5q78 0 127 100l131 -68 q-47 -87 -115 -129.5t-141 -42.5q-48 0 -91.5 16t-70.5 34.5t-59 34.5t-59 16q-43 0 -70 -25.5t-55 -75.5z" />
<glyph unicode="&#xf2;" horiz-adv-x="1146" d="M84 465q0 132 59.5 243t172 178.5t255.5 67.5q145 0 259 -67.5t173.5 -178t59.5 -243.5q0 -98 -35.5 -186.5t-98 -155.5t-156 -106.5t-202.5 -39.5q-108 0 -200 39.5t-154.5 106t-97.5 155.5t-35 187zM260 465q0 -137 86.5 -232.5t224.5 -95.5q139 0 227.5 95.5 t88.5 232.5t-88.5 233.5t-227.5 96.5q-138 0 -224.5 -96.5t-86.5 -233.5zM291 1311l84 139l510 -281l-84 -139z" />
<glyph unicode="&#xf3;" horiz-adv-x="1146" d="M84 465q0 132 59.5 243t172 178.5t255.5 67.5q145 0 259 -67.5t173.5 -178t59.5 -243.5q0 -98 -35.5 -186.5t-98 -155.5t-156 -106.5t-202.5 -39.5q-108 0 -200 39.5t-154.5 106t-97.5 155.5t-35 187zM231 1169l510 281l84 -139l-510 -281zM260 465q0 -137 86.5 -232.5 t224.5 -95.5q139 0 227.5 95.5t88.5 232.5t-88.5 233.5t-227.5 96.5q-138 0 -224.5 -96.5t-86.5 -233.5z" />
<glyph unicode="&#xf4;" horiz-adv-x="1146" d="M84 465q0 132 59.5 243t172 178.5t255.5 67.5q145 0 259 -67.5t173.5 -178t59.5 -243.5q0 -98 -35.5 -186.5t-98 -155.5t-156 -106.5t-202.5 -39.5q-108 0 -200 39.5t-154.5 106t-97.5 155.5t-35 187zM209 1200l360 313l367 -313l-105 -117l-260 236l-258 -234zM260 465 q0 -137 86.5 -232.5t224.5 -95.5q139 0 227.5 95.5t88.5 232.5t-88.5 233.5t-227.5 96.5q-138 0 -224.5 -96.5t-86.5 -233.5z" />
<glyph unicode="&#xf5;" horiz-adv-x="1146" d="M84 465q0 132 59.5 243t172 178.5t255.5 67.5q145 0 259 -67.5t173.5 -178t59.5 -243.5q0 -98 -35.5 -186.5t-98 -155.5t-156 -106.5t-202.5 -39.5q-108 0 -200 39.5t-154.5 106t-97.5 155.5t-35 187zM180 1253q87 158 248 158q46 0 90 -15.5t71.5 -34.5t59.5 -34.5 t58 -15.5q78 0 127 100l131 -68q-47 -87 -115 -129.5t-141 -42.5q-48 0 -92 16t-71 34.5t-59 34.5t-59 16q-43 0 -70 -25.5t-55 -75.5zM260 465q0 -137 86.5 -232.5t224.5 -95.5q139 0 227.5 95.5t88.5 232.5t-88.5 233.5t-227.5 96.5q-138 0 -224.5 -96.5t-86.5 -233.5z " />
<glyph unicode="&#xf6;" horiz-adv-x="1146" d="M84 465q0 132 59.5 243t172 178.5t255.5 67.5q145 0 259 -67.5t173.5 -178t59.5 -243.5q0 -98 -35.5 -186.5t-98 -155.5t-156 -106.5t-202.5 -39.5q-108 0 -200 39.5t-154.5 106t-97.5 155.5t-35 187zM195 1249q0 60 41.5 102t101.5 42t101.5 -42t41.5 -102t-41.5 -101.5 t-101.5 -41.5t-101.5 41.5t-41.5 101.5zM260 465q0 -137 86.5 -232.5t224.5 -95.5q139 0 227.5 95.5t88.5 232.5t-88.5 233.5t-227.5 96.5q-138 0 -224.5 -96.5t-86.5 -233.5zM666 1249q0 60 40.5 102t100.5 42t102.5 -42t42.5 -102t-42.5 -101.5t-102.5 -41.5t-100.5 41.5 t-40.5 101.5z" />
<glyph unicode="&#xf7;" horiz-adv-x="1177" d="M176 401v158h828v-158h-828zM446 174q0 52 43 97.5t101 45.5t100.5 -45.5t42.5 -97.5q0 -60 -41.5 -101.5t-101.5 -41.5t-102 41.5t-42 101.5zM446 805q0 60 42 101.5t102 41.5t101.5 -41.5t41.5 -101.5t-41.5 -101.5t-101.5 -41.5t-102 41.5t-42 101.5z" />
<glyph unicode="&#xf8;" horiz-adv-x="1146" d="M84 465q0 132 59.5 243t172 178.5t255.5 67.5q45 0 127 -16l64 145l110 -45l-61 -141q118 -63 185 -177.5t67 -254.5q0 -98 -35.5 -186.5t-98 -155.5t-156 -106.5t-202.5 -39.5q-81 0 -149 23l-66 -154l-110 45l65 156q-108 66 -167.5 176.5t-59.5 241.5zM260 465 q0 -77 31.5 -145.5t87.5 -116.5l254 583q-34 9 -62 9q-138 0 -224.5 -96.5t-86.5 -233.5zM487 147q34 -10 84 -10q139 0 227.5 95.5t88.5 232.5q0 86 -38 159t-106 117z" />
<glyph unicode="&#xf9;" d="M141 381v549h178v-492q0 -139 56 -221t178 -82q87 0 148.5 45t89.5 115t28 158v477h178v-930h-178v166q-42 -88 -127 -138.5t-200 -50.5q-193 0 -281 121q-38 54 -54 119t-16 164zM283 1311l86 139l510 -281l-86 -139z" />
<glyph unicode="&#xfa;" d="M141 381v549h178v-492q0 -139 56 -221t178 -82q87 0 148.5 45t89.5 115t28 158v477h178v-930h-178v166q-42 -88 -127 -138.5t-200 -50.5q-193 0 -281 121q-38 54 -54 119t-16 164zM274 1169l510 281l84 -139l-510 -281z" />
<glyph unicode="&#xfb;" d="M141 381v549h178v-492q0 -139 56 -221t178 -82q87 0 148.5 45t89.5 115t28 158v477h178v-930h-178v166q-42 -88 -127 -138.5t-200 -50.5q-193 0 -281 121q-38 54 -54 119t-16 164zM219 1198l363 315l364 -315l-102 -115l-260 236l-260 -234z" />
<glyph unicode="&#xfc;" d="M141 381v549h178v-492q0 -139 56 -221t178 -82q87 0 148.5 45t89.5 115t28 158v477h178v-930h-178v166q-42 -88 -127 -138.5t-200 -50.5q-193 0 -281 121q-38 54 -54 119t-16 164zM193 1249q0 60 41.5 102t101.5 42t101.5 -42t41.5 -102t-41.5 -101.5t-101.5 -41.5 t-101.5 41.5t-41.5 101.5zM664 1249q0 60 40.5 102t100.5 42t102.5 -42t42.5 -102t-42.5 -101.5t-102.5 -41.5t-100.5 41.5t-40.5 101.5z" />
<glyph unicode="&#xfd;" horiz-adv-x="1173" d="M143 -121h181q7 -126 73 -189t185 -63q127 0 193.5 62.5t66.5 214.5v262q-42 -88 -126 -138.5t-200 -50.5q-194 0 -283 119q-38 54 -53.5 120t-15.5 171v543h178v-488q0 -147 54 -227t184 -80q127 0 194.5 91t67.5 227v477h178v-1026q0 -220 -111 -324t-331 -104 q-202 0 -316.5 102t-118.5 301zM295 1169l510 281l86 -139l-510 -281z" />
<glyph unicode="&#xfe;" horiz-adv-x="1216" d="M160 -504v1938h178v-664q44 85 132 134.5t192 49.5q140 0 250.5 -67.5t169.5 -178.5t59 -243q0 -131 -59 -242t-169.5 -178.5t-250.5 -67.5q-104 0 -192 50t-132 135v-666h-178zM338 465q0 -137 88 -232.5t227 -95.5q136 0 223 95.5t87 232.5t-87 233.5t-223 96.5 q-139 0 -227 -96.5t-88 -233.5z" />
<glyph unicode="&#xff;" horiz-adv-x="1173" d="M143 -121h181q7 -126 73 -189t185 -63q127 0 193.5 62.5t66.5 214.5v262q-42 -88 -126 -138.5t-200 -50.5q-194 0 -283 119q-38 54 -53.5 120t-15.5 171v543h178v-488q0 -147 54 -227t184 -80q127 0 194.5 91t67.5 227v477h178v-1026q0 -220 -111 -324t-331 -104 q-202 0 -316.5 102t-118.5 301zM233 1247q0 59 40 99t98 40q57 0 97 -40t40 -99q0 -57 -40 -96t-97 -39t-97.5 39t-40.5 96zM705 1247q0 60 39 99.5t96 39.5q60 0 99.5 -39.5t39.5 -99.5q0 -57 -39.5 -96t-99.5 -39q-57 0 -96 39t-39 96z" />
<glyph unicode="&#x100;" horiz-adv-x="1144" d="M10 0l494 1434h135l496 -1434h-197l-76 219h-581l-74 -219h-197zM205 1642v158h733v-158h-733zM338 389h467l-232 739z" />
<glyph unicode="&#x101;" horiz-adv-x="1222" d="M84 465q0 132 59 243t169 178.5t249 67.5q104 0 193 -49.5t133 -134.5v160h176v-930h-176v162q-44 -85 -133 -135t-193 -50q-139 0 -249 67.5t-169 178.5t-59 242zM195 1169v160h733v-160h-733zM260 465q0 -137 86.5 -232.5t224.5 -95.5q139 0 227.5 95.5t88.5 232.5 t-88.5 233.5t-227.5 96.5q-138 0 -224.5 -96.5t-86.5 -233.5z" />
<glyph unicode="&#x102;" horiz-adv-x="1144" d="M10 0l494 1434h135l496 -1434h-197l-76 219h-581l-74 -219h-197zM176 1896h168q24 -81 82 -125.5t147 -44.5t147.5 44.5t82.5 125.5h166q-25 -135 -135 -222t-261 -87q-152 0 -262 87t-135 222zM338 389h467l-232 739z" />
<glyph unicode="&#x103;" horiz-adv-x="1222" d="M84 465q0 132 59 243t169 178.5t249 67.5q104 0 193 -49.5t133 -134.5v160h176v-930h-176v162q-44 -85 -133 -135t-193 -50q-139 0 -249 67.5t-169 178.5t-59 242zM178 1434h166q24 -80 81.5 -125t143.5 -45q85 0 144.5 45.5t79.5 124.5h168q-25 -134 -135 -222t-257 -88 q-151 0 -258.5 87t-132.5 223zM260 465q0 -137 86.5 -232.5t224.5 -95.5q139 0 227.5 95.5t88.5 232.5t-88.5 233.5t-227.5 96.5q-138 0 -224.5 -96.5t-86.5 -233.5z" />
<glyph unicode="&#x104;" horiz-adv-x="1144" d="M10 0l494 1434h135l496 -1434h-70q-68 -37 -106.5 -79.5t-38.5 -100.5q0 -51 31 -85t83 -34q59 0 123 23l-2 -130q-82 -28 -176 -28q-112 0 -170.5 54t-58.5 144q0 126 188 236l-76 219h-581l-74 -219h-197zM338 389h467l-232 739z" />
<glyph unicode="&#x105;" horiz-adv-x="1222" d="M84 465q0 132 59 243t169 178.5t249 67.5q104 0 193 -49.5t133 -134.5v160h176v-930h-43q-160 -85 -160 -195q0 -44 29 -74t78 -30q59 0 123 23l-3 -130q-82 -28 -174 -28q-115 0 -177 54.5t-62 143.5q0 67 52 124t161 120v154q-44 -85 -133 -135t-193 -50 q-139 0 -249 67.5t-169 178.5t-59 242zM260 465q0 -137 86.5 -232.5t224.5 -95.5q139 0 227.5 95.5t88.5 232.5t-88.5 233.5t-227.5 96.5q-138 0 -224.5 -96.5t-86.5 -233.5z" />
<glyph unicode="&#x106;" horiz-adv-x="1587" d="M84 719q0 116 32 226t94.5 204t149 165t202.5 111.5t247 40.5q152 0 276 -41t209 -114.5t138.5 -169t74.5 -209.5h-196q-35 163 -160.5 264.5t-319.5 101.5q-103 0 -193 -31t-155.5 -86t-113 -128t-71.5 -158t-24 -176q0 -119 39.5 -224.5t112.5 -185.5t185 -127t247 -47 q150 0 275.5 86t169.5 221h204q-56 -207 -238.5 -341t-432.5 -134q-171 0 -314.5 61t-238 164.5t-147 239.5t-52.5 287zM506 1675l510 281l86 -141l-510 -281z" />
<glyph unicode="&#x107;" horiz-adv-x="1083" d="M88 465q0 96 30.5 183t87 156t146 109.5t199.5 40.5q108 0 192.5 -30.5t135 -83.5t78.5 -115t34 -133h-178q-25 203 -258 203q-136 0 -212.5 -96t-76.5 -234q0 -90 30.5 -162.5t100 -119t168.5 -46.5q111 0 168 45.5t82 136.5h178q-21 -151 -134.5 -246.5t-305.5 -95.5 q-110 0 -200 40.5t-147 109t-87.5 155.5t-30.5 183zM248 1169l510 281l86 -139l-510 -281z" />
<glyph unicode="&#x108;" horiz-adv-x="1587" d="M84 719q0 116 32 226t94.5 204t149 165t202.5 111.5t247 40.5q152 0 276 -41t209 -114.5t138.5 -169t74.5 -209.5h-196q-35 163 -160.5 264.5t-319.5 101.5q-103 0 -193 -31t-155.5 -86t-113 -128t-71.5 -158t-24 -176q0 -119 39.5 -224.5t112.5 -185.5t185 -127t247 -47 q150 0 275.5 86t169.5 221h204q-56 -207 -238.5 -341t-432.5 -134q-171 0 -314.5 61t-238 164.5t-147 239.5t-52.5 287zM451 1647l362 313l365 -313l-103 -115l-262 233l-258 -233z" />
<glyph unicode="&#x109;" horiz-adv-x="1083" d="M88 465q0 96 30.5 183t87 156t146 109.5t199.5 40.5q108 0 192.5 -30.5t135 -83.5t78.5 -115t34 -133h-178q-25 203 -258 203q-136 0 -212.5 -96t-76.5 -234q0 -90 30.5 -162.5t100 -119t168.5 -46.5q111 0 168 45.5t82 136.5h178q-21 -151 -134.5 -246.5t-305.5 -95.5 q-110 0 -200 40.5t-147 109t-87.5 155.5t-30.5 183zM199 1198l362 315l365 -315l-103 -115l-260 236l-258 -234z" />
<glyph unicode="&#x10a;" horiz-adv-x="1587" d="M84 719q0 116 32 226t94.5 204t149 165t202.5 111.5t247 40.5q152 0 276 -41t209 -114.5t138.5 -169t74.5 -209.5h-196q-35 163 -160.5 264.5t-319.5 101.5q-103 0 -193 -31t-155.5 -86t-113 -128t-71.5 -158t-24 -176q0 -119 39.5 -224.5t112.5 -185.5t185 -127t247 -47 q150 0 275.5 86t169.5 221h204q-56 -207 -238.5 -341t-432.5 -134q-171 0 -314.5 61t-238 164.5t-147 239.5t-52.5 287zM668 1741q0 62 40.5 103.5t100.5 41.5t102.5 -42t42.5 -103q0 -60 -42.5 -101t-102.5 -41t-100.5 41t-40.5 101z" />
<glyph unicode="&#x10b;" horiz-adv-x="1083" d="M88 465q0 96 30.5 183t87 156t146 109.5t199.5 40.5q108 0 192.5 -30.5t135 -83.5t78.5 -115t34 -133h-178q-25 203 -258 203q-136 0 -212.5 -96t-76.5 -234q0 -90 30.5 -162.5t100 -119t168.5 -46.5q111 0 168 45.5t82 136.5h178q-21 -151 -134.5 -246.5t-305.5 -95.5 q-110 0 -200 40.5t-147 109t-87.5 155.5t-30.5 183zM412 1247q0 60 41.5 102t101.5 42t101.5 -42t41.5 -102t-41.5 -101.5t-101.5 -41.5t-101.5 41.5t-41.5 101.5z" />
<glyph unicode="&#x10c;" horiz-adv-x="1587" d="M84 719q0 116 32 226t94.5 204t149 165t202.5 111.5t247 40.5q152 0 276 -41t209 -114.5t138.5 -169t74.5 -209.5h-196q-35 163 -160.5 264.5t-319.5 101.5q-103 0 -193 -31t-155.5 -86t-113 -128t-71.5 -158t-24 -176q0 -119 39.5 -224.5t112.5 -185.5t185 -127t247 -47 q150 0 275.5 86t169.5 221h204q-56 -207 -238.5 -341t-432.5 -134q-171 0 -314.5 61t-238 164.5t-147 239.5t-52.5 287zM438 1845l107 115l252 -234l256 234l102 -115l-360 -313z" />
<glyph unicode="&#x10d;" horiz-adv-x="1083" d="M88 465q0 96 30.5 183t87 156t146 109.5t199.5 40.5q108 0 192.5 -30.5t135 -83.5t78.5 -115t34 -133h-178q-25 203 -258 203q-136 0 -212.5 -96t-76.5 -234q0 -90 30.5 -162.5t100 -119t168.5 -46.5q111 0 168 45.5t82 136.5h178q-21 -151 -134.5 -246.5t-305.5 -95.5 q-110 0 -200 40.5t-147 109t-87.5 155.5t-30.5 183zM199 1391l104 112l254 -231l254 233l104 -114l-360 -316z" />
<glyph unicode="&#x10e;" horiz-adv-x="1427" d="M160 0v1434h442q138 0 259 -40t208.5 -109t151 -160t94.5 -195t31 -213t-31 -213t-94.5 -195t-151 -160t-208.5 -109t-259 -40h-442zM317 1845l107 115l252 -234l256 234l102 -115l-360 -313zM346 168h256q128 0 234 47t174 124.5t105.5 175t37.5 202.5t-37.5 202.5 t-105.5 175t-174 124.5t-234 47h-256v-1098z" />
<glyph unicode="&#x10f;" horiz-adv-x="1478" d="M84 465q0 132 59 243t169 178.5t249 67.5q104 0 193 -49.5t133 -134.5v664h176v-1434h-176v162q-44 -85 -133 -135t-193 -50q-139 0 -249 67.5t-169 178.5t-59 242zM260 465q0 -137 86.5 -232.5t224.5 -95.5q139 0 227.5 95.5t88.5 232.5t-88.5 233.5t-227.5 96.5 q-138 0 -224.5 -96.5t-86.5 -233.5zM1174 1352q0 60 40 99.5t101 39.5q74 0 119 -55t45 -144q0 -156 -74.5 -224.5t-220.5 -70.5v86q106 0 141 62q31 41 31 86q-10 -14 -45 -14q-62 0 -99.5 38.5t-37.5 96.5z" />
<glyph unicode="&#x110;" horiz-adv-x="1427" d="M-111 641v160h271v633h442q138 0 259 -40t208.5 -109t151 -160t94.5 -195t31 -213t-31 -213t-94.5 -195t-151 -160t-208.5 -109t-259 -40h-442v641h-271zM346 168h256q128 0 234 47t174 124.5t105.5 175t37.5 202.5t-37.5 202.5t-105.5 175t-174 124.5t-234 47h-256v-465 h279v-160h-279v-473z" />
<glyph unicode="&#x111;" horiz-adv-x="1222" d="M84 465q0 132 59 243t169 178.5t249 67.5q104 0 193 -49.5t133 -134.5v328h-234v121h234v215h176v-215h106v-121h-106v-1098h-176v162q-44 -85 -133 -135t-193 -50q-139 0 -249 67.5t-169 178.5t-59 242zM260 465q0 -137 86.5 -232.5t224.5 -95.5q139 0 227.5 95.5 t88.5 232.5t-88.5 233.5t-227.5 96.5q-138 0 -224.5 -96.5t-86.5 -233.5z" />
<glyph unicode="&#x112;" horiz-adv-x="1114" d="M160 0v1434h805v-168h-619v-469h619v-168h-619v-461h619v-168h-805zM190 1642v158h734v-158h-734z" />
<glyph unicode="&#x113;" horiz-adv-x="1075" d="M88 465q0 216 122 352.5t337 136.5q182 0 306 -120.5t124 -298.5q0 -66 -8 -117h-705q5 -128 75.5 -209.5t213.5 -81.5q178 0 235 147h181q-26 -125 -137 -211t-279 -86q-114 0 -204 38.5t-146.5 105.5t-85.5 154.5t-29 189.5zM186 1169v160h734v-160h-734zM266 553h539 q0 121 -73.5 192.5t-188.5 71.5q-123 0 -198 -69t-79 -195z" />
<glyph unicode="&#x114;" horiz-adv-x="1114" d="M160 0v1434h805v-168h-619v-469h619v-168h-619v-461h619v-168h-805zM168 1896h168q24 -81 82 -125.5t147 -44.5t147.5 44.5t82.5 125.5h166q-25 -135 -135 -222t-261 -87q-152 0 -262 87t-135 222z" />
<glyph unicode="&#x115;" horiz-adv-x="1075" d="M88 465q0 216 122 352.5t337 136.5q182 0 306 -120.5t124 -298.5q0 -66 -8 -117h-705q5 -128 75.5 -209.5t213.5 -81.5q178 0 235 147h181q-26 -125 -137 -211t-279 -86q-114 0 -204 38.5t-146.5 105.5t-85.5 154.5t-29 189.5zM154 1434h168q21 -79 79.5 -124.5 t143.5 -45.5q86 0 143.5 45t81.5 125h166q-25 -135 -133.5 -222.5t-257.5 -87.5q-151 0 -258.5 87t-132.5 223zM266 553h539q0 121 -73.5 192.5t-188.5 71.5q-123 0 -198 -69t-79 -195z" />
<glyph unicode="&#x116;" horiz-adv-x="1114" d="M160 0v1434h805v-168h-619v-469h619v-168h-619v-461h619v-168h-805zM414 1743q0 60 40.5 101.5t100.5 41.5q61 0 103 -41.5t42 -101.5t-42 -102t-103 -42q-60 0 -100.5 42t-40.5 102z" />
<glyph unicode="&#x117;" horiz-adv-x="1075" d="M88 465q0 216 122 352.5t337 136.5q182 0 306 -120.5t124 -298.5q0 -66 -8 -117h-705q5 -128 75.5 -209.5t213.5 -81.5q178 0 235 147h181q-26 -125 -137 -211t-279 -86q-114 0 -204 38.5t-146.5 105.5t-85.5 154.5t-29 189.5zM266 553h539q0 121 -73.5 192.5 t-188.5 71.5q-123 0 -198 -69t-79 -195zM397 1247q0 60 41 102t101 42q61 0 103 -42t42 -102t-42 -101.5t-103 -41.5q-60 0 -101 41.5t-41 101.5z" />
<glyph unicode="&#x118;" horiz-adv-x="1114" d="M160 0v1434h805v-168h-619v-469h619v-168h-619v-461h619v-168h-129q-59 -42 -91 -82.5t-32 -95.5q0 -52 31.5 -86.5t86.5 -34.5q66 0 132 27v-131q-95 -31 -185 -31q-112 0 -173.5 56t-61.5 142q0 65 39 120t125 116h-547z" />
<glyph unicode="&#x119;" horiz-adv-x="1075" d="M88 465q0 216 122 352.5t337 136.5q182 0 306 -120.5t124 -298.5q0 -66 -8 -117h-699q0 -127 70.5 -209t212.5 -82q178 0 235 147h181q-24 -114 -118.5 -195.5t-240.5 -98.5q-96 -72 -96 -158q0 -52 32 -86.5t87 -34.5q65 0 131 27l-2 -131q-95 -31 -182 -31 q-113 0 -174.5 56t-61.5 142q0 60 33.5 112.5t103.5 107.5q-127 16 -217.5 86.5t-133 171.5t-42.5 223zM266 553h539q0 121 -73.5 192.5t-188.5 71.5q-123 0 -198 -69t-79 -195z" />
<glyph unicode="&#x11a;" horiz-adv-x="1114" d="M160 0v1434h805v-168h-619v-469h619v-168h-619v-461h619v-168h-805zM197 1845l104 115l254 -234l254 234l104 -115l-360 -313z" />
<glyph unicode="&#x11b;" horiz-adv-x="1075" d="M88 465q0 216 122 352.5t337 136.5q182 0 306 -120.5t124 -298.5q0 -66 -8 -117h-705q5 -128 75.5 -209.5t213.5 -81.5q178 0 235 147h181q-26 -125 -137 -211t-279 -86q-114 0 -204 38.5t-146.5 105.5t-85.5 154.5t-29 189.5zM182 1391l105 112l254 -231l256 233 l102 -114l-360 -316zM266 553h539q0 121 -73.5 192.5t-188.5 71.5q-123 0 -198 -69t-79 -195z" />
<glyph unicode="&#x11c;" horiz-adv-x="1712" d="M84 717q0 145 52 280t145 239.5t233 167t305 62.5q156 0 288.5 -58.5t214 -156.5t97.5 -217h-188q-30 113 -143 188.5t-269 75.5q-124 0 -228 -48t-172.5 -129t-106.5 -185.5t-38 -218.5q0 -116 36.5 -219.5t105.5 -185t179 -129.5t247 -48q102 0 186 30.5t141.5 83.5 t92.5 122.5t45 150.5h-338v168h690v-168h-154q-43 -255 -219.5 -405t-466.5 -150q-138 0 -257 40.5t-205.5 112t-149 166.5t-93 204.5t-30.5 226.5zM459 1647l360 313l367 -313l-105 -115l-260 233l-258 -233z" />
<glyph unicode="&#x11d;" horiz-adv-x="1218" d="M84 465q0 132 59 243t169 178.5t249 67.5q104 0 193 -49.5t133 -134.5v160h176v-989q0 -242 -127.5 -353.5t-368.5 -111.5q-115 0 -205.5 33.5t-146 91t-85.5 128.5t-34 152h180q8 -108 80 -178t211 -70q320 0 320 308v221q-44 -85 -133 -135t-193 -50q-139 0 -249 67.5 t-169 178.5t-59 242zM201 1198l360 315l367 -315l-105 -115l-260 236l-258 -234zM260 465q0 -137 86.5 -232.5t224.5 -95.5q139 0 227.5 95.5t88.5 232.5t-88.5 233.5t-227.5 96.5q-138 0 -224.5 -96.5t-86.5 -233.5z" />
<glyph unicode="&#x11e;" horiz-adv-x="1712" d="M84 717q0 145 52 280t145 239.5t233 167t305 62.5q156 0 288.5 -58.5t214 -156.5t97.5 -217h-188q-30 113 -143 188.5t-269 75.5q-124 0 -228 -48t-172.5 -129t-106.5 -185.5t-38 -218.5q0 -116 36.5 -219.5t105.5 -185t179 -129.5t247 -48q102 0 186 30.5t141.5 83.5 t92.5 122.5t45 150.5h-338v168h690v-168h-154q-43 -255 -219.5 -405t-466.5 -150q-138 0 -257 40.5t-205.5 112t-149 166.5t-93 204.5t-30.5 226.5zM416 1896h168q20 -80 79.5 -125t149.5 -45q87 0 147 45t80 125h168q-25 -135 -134.5 -222t-260.5 -87q-154 0 -263 86.5 t-134 222.5z" />
<glyph unicode="&#x11f;" horiz-adv-x="1218" d="M84 465q0 132 59 243t169 178.5t249 67.5q104 0 193 -49.5t133 -134.5v160h176v-989q0 -242 -127.5 -353.5t-368.5 -111.5q-115 0 -205.5 33.5t-146 91t-85.5 128.5t-34 152h180q8 -108 80 -178t211 -70q320 0 320 308v221q-44 -85 -133 -135t-193 -50q-139 0 -249 67.5 t-169 178.5t-59 242zM180 1434h166q24 -80 81.5 -125t143.5 -45q85 0 144.5 45.5t79.5 124.5h168q-25 -135 -134 -222.5t-258 -87.5q-151 0 -258.5 87t-132.5 223zM260 465q0 -137 86.5 -232.5t224.5 -95.5q139 0 227.5 95.5t88.5 232.5t-88.5 233.5t-227.5 96.5 q-138 0 -224.5 -96.5t-86.5 -233.5z" />
<glyph unicode="&#x120;" horiz-adv-x="1712" d="M84 717q0 145 52 280t145 239.5t233 167t305 62.5q156 0 288.5 -58.5t214 -156.5t97.5 -217h-188q-30 113 -143 188.5t-269 75.5q-124 0 -228 -48t-172.5 -129t-106.5 -185.5t-38 -218.5q0 -116 36.5 -219.5t105.5 -185t179 -129.5t247 -48q102 0 186 30.5t141.5 83.5 t92.5 122.5t45 150.5h-338v168h690v-168h-154q-43 -255 -219.5 -405t-466.5 -150q-138 0 -257 40.5t-205.5 112t-149 166.5t-93 204.5t-30.5 226.5zM676 1743q0 60 40.5 101.5t100.5 41.5q61 0 103.5 -41.5t42.5 -101.5t-42.5 -102t-103.5 -42q-60 0 -100.5 42t-40.5 102z " />
<glyph unicode="&#x121;" horiz-adv-x="1218" d="M84 465q0 132 59 243t169 178.5t249 67.5q104 0 193 -49.5t133 -134.5v160h176v-989q0 -242 -127.5 -353.5t-368.5 -111.5q-115 0 -205.5 33.5t-146 91t-85.5 128.5t-34 152h180q8 -108 80 -178t211 -70q320 0 320 308v221q-44 -85 -133 -135t-193 -50q-139 0 -249 67.5 t-169 178.5t-59 242zM260 465q0 -137 86.5 -232.5t224.5 -95.5q139 0 227.5 95.5t88.5 232.5t-88.5 233.5t-227.5 96.5q-138 0 -224.5 -96.5t-86.5 -233.5zM408 1247q0 60 40.5 102t100.5 42q61 0 103 -42t42 -102t-42 -101.5t-103 -41.5q-60 0 -100.5 41.5t-40.5 101.5z " />
<glyph unicode="&#x122;" horiz-adv-x="1712" d="M84 717q0 145 52 280t145 239.5t233 167t305 62.5q156 0 288.5 -58.5t214 -156.5t97.5 -217h-188q-30 113 -143 188.5t-269 75.5q-124 0 -228 -48t-172.5 -129t-106.5 -185.5t-38 -218.5q0 -116 36.5 -219.5t105.5 -185t179 -129.5t247 -48q102 0 186 30.5t141.5 83.5 t92.5 122.5t45 150.5h-338v168h690v-168h-154q-43 -255 -219.5 -405t-466.5 -150q-138 0 -257 40.5t-205.5 112t-149 166.5t-93 204.5t-30.5 226.5zM702 -174q0 48 34 81.5t83 33.5q61 0 99 -46.5t38 -119.5q0 -129 -63 -186.5t-182 -57.5v74q88 0 118 47q22 32 25 72 q-13 -13 -39 -13q-50 0 -81.5 33.5t-31.5 81.5z" />
<glyph unicode="&#x123;" horiz-adv-x="1218" d="M84 465q0 132 59 243t169 178.5t249 67.5q104 0 193 -49.5t133 -134.5v160h176v-989q0 -242 -127.5 -353.5t-368.5 -111.5q-115 0 -205.5 33.5t-146 91t-85.5 128.5t-34 152h180q8 -108 80 -178t211 -70q320 0 320 308v221q-44 -85 -133 -135t-193 -50q-139 0 -249 67.5 t-169 178.5t-59 242zM260 465q0 -137 86.5 -232.5t224.5 -95.5q139 0 227.5 95.5t88.5 232.5t-88.5 233.5t-227.5 96.5q-138 0 -224.5 -96.5t-86.5 -233.5zM399 1284q0 156 74.5 224.5t220.5 70.5v-86q-104 0 -141 -63q-27 -37 -31 -84q15 12 45 12q62 0 101 -38.5t39 -96.5 q0 -57 -41.5 -98.5t-100.5 -41.5q-74 0 -120 56.5t-46 144.5z" />
<glyph unicode="&#x124;" horiz-adv-x="1359" d="M160 0v1434h186v-637h668v637h186v-1434h-186v629h-668v-629h-186zM317 1647l363 313l364 -313l-102 -115l-262 233l-258 -233z" />
<glyph unicode="&#x125;" d="M160 0v1434h178v-668q42 88 127 138t201 50q193 0 278 -123q39 -54 55.5 -119t16.5 -163v-549h-178v494q0 139 -56 221t-180 82q-126 0 -195 -92.5t-69 -225.5v-479h-178zM227 1647l363 313l364 -313l-102 -115l-260 233l-258 -233z" />
<glyph unicode="&#x126;" horiz-adv-x="1359" d="M160 0v1434h186v-271h668v271h186v-1434h-186v629h-668v-629h-186zM346 797h668v229h-668v-229z" />
<glyph unicode="&#x127;" d="M0 1098v121h160v215h178v-215h340v-121h-340v-332q42 88 127 138t201 50q193 0 278 -123q39 -54 55.5 -119t16.5 -163v-549h-178v494q0 139 -56 221t-180 82q-126 0 -195 -92.5t-69 -225.5v-479h-178v1098h-160z" />
<glyph unicode="&#x128;" horiz-adv-x="512" d="M-137 1706q45 82 110.5 121t137.5 39q46 0 89.5 -16t71 -34.5t59.5 -34.5t58 -16q77 0 127 101l131 -68q-47 -88 -115.5 -131t-140.5 -43q-60 0 -112.5 25t-93.5 50t-74 25q-43 0 -70.5 -25t-54.5 -75zM160 0v1434h192v-1434h-192z" />
<glyph unicode="&#x129;" horiz-adv-x="497" d="M-133 1253q87 158 248 158q46 0 89.5 -15.5t71 -34.5t59.5 -34.5t58 -15.5q78 0 127 100l131 -68q-47 -87 -115 -129.5t-141 -42.5q-48 0 -91.5 16t-70.5 34.5t-59 34.5t-59 16q-43 0 -70 -25.5t-55 -75.5zM160 0v930h178v-930h-178z" />
<glyph unicode="&#x12a;" horiz-adv-x="512" d="M-111 1642v158h736v-158h-736zM160 0v1434h192v-1434h-192z" />
<glyph unicode="&#x12b;" horiz-adv-x="497" d="M-123 1167v160h733v-160h-733zM160 0v930h178v-930h-178z" />
<glyph unicode="&#x12c;" horiz-adv-x="512" d="M-139 1896h168q24 -81 82 -125.5t147 -44.5t147 44.5t82 125.5h166q-25 -135 -134.5 -222t-260.5 -87q-152 0 -262 87t-135 222zM160 0v1434h192v-1434h-192z" />
<glyph unicode="&#x12d;" horiz-adv-x="497" d="M-141 1434h168q21 -79 79.5 -124.5t143.5 -45.5q86 0 143.5 45t81.5 125h166q-25 -135 -133.5 -222.5t-257.5 -87.5t-257.5 87.5t-133.5 222.5zM160 0v930h178v-930h-178z" />
<glyph unicode="&#x12e;" horiz-adv-x="512" d="M31 -236q0 65 39 120t125 116h-35v1434h192v-1434h-28q-59 -42 -91 -82.5t-32 -95.5q0 -52 31.5 -86.5t86.5 -34.5q66 0 132 27v-131q-95 -31 -185 -31q-112 0 -173.5 56t-61.5 142z" />
<glyph unicode="&#x12f;" horiz-adv-x="497" d="M20 -236q0 64 39 119t123 117h-22v930h178v-930h-25q-59 -42 -91 -82.5t-32 -95.5q0 -52 32 -86.5t87 -34.5q65 0 131 27l-2 -131q-95 -31 -182 -31q-113 0 -174.5 56t-61.5 142zM106 1282q0 60 41 102.5t101 42.5t102.5 -42.5t42.5 -102.5t-42.5 -100.5t-102.5 -40.5 t-101 40.5t-41 100.5z" />
<glyph unicode="&#x130;" horiz-adv-x="512" d="M113 1743q0 60 41.5 101.5t101.5 41.5t101.5 -41.5t41.5 -101.5t-41.5 -102t-101.5 -42t-101.5 42t-41.5 102zM160 0v1434h192v-1434h-192z" />
<glyph unicode="&#x131;" horiz-adv-x="471" d="M147 0v930h179v-930h-179z" />
<glyph unicode="&#x132;" horiz-adv-x="1609" d="M160 0v1434h192v-1434h-192zM541 455h188q0 -144 74.5 -232t202.5 -88q129 0 200.5 86t71.5 234v979h188v-979q0 -215 -124.5 -351.5t-335.5 -136.5q-210 0 -337.5 137.5t-127.5 350.5z" />
<glyph unicode="&#x133;" horiz-adv-x="985" d="M106 1282q0 60 41 102.5t101 42.5t102.5 -42.5t42.5 -102.5t-42.5 -100.5t-102.5 -40.5t-101 40.5t-41 100.5zM160 0v930h178v-930h-178zM463 -348q52 -17 92 -17q92 0 92 125v1170h178v-1180q0 -142 -56 -207t-144 -65q-102 0 -162 24v150zM594 1282q0 60 41.5 102.5 t101.5 42.5t102 -42.5t42 -102.5t-42 -100.5t-102 -40.5t-101.5 40.5t-41.5 100.5z" />
<glyph unicode="&#x134;" horiz-adv-x="1097" d="M29 455h186q0 -144 75.5 -232t203.5 -88t200 86t72 234v979h186v-979q0 -215 -123.5 -351.5t-334.5 -136.5q-210 0 -337.5 137.5t-127.5 350.5zM498 1647l362 313l365 -313l-103 -115l-262 233l-258 -233z" />
<glyph unicode="&#x135;" horiz-adv-x="497" d="M-109 1198l363 315l364 -315l-102 -115l-260 236l-260 -234zM-25 -348q52 -17 91 -17q94 0 94 125v1170h178v-1180q0 -142 -56.5 -207t-144.5 -65q-102 0 -162 24v150z" />
<glyph unicode="&#x136;" horiz-adv-x="1208" d="M160 0v1434h186v-652l602 652h236l-656 -717l656 -717h-236l-602 651v-651h-186zM498 -152q0 48 33.5 81.5t82.5 33.5q61 0 99.5 -47t38.5 -119q0 -128 -62.5 -184.5t-183.5 -58.5v73q92 0 119 47q24 36 24 72q-12 -12 -37 -12q-52 0 -83 32.5t-31 81.5z" />
<glyph unicode="&#x137;" horiz-adv-x="976" d="M160 0v1434h178v-928l389 424h225l-424 -465l424 -465h-225l-389 422v-422h-178zM373 -152q0 48 33.5 81.5t82.5 33.5q61 0 99.5 -47t38.5 -119q0 -128 -62.5 -184.5t-183.5 -58.5v73q92 0 119 47q24 36 24 72q-12 -12 -37 -12q-52 0 -83 32.5t-31 81.5z" />
<glyph unicode="&#x138;" horiz-adv-x="976" d="M160 0v930h178v-424l389 424h225l-424 -465l424 -465h-225l-389 422v-422h-178z" />
<glyph unicode="&#x139;" horiz-adv-x="870" d="M14 1675l510 281l84 -141l-510 -281zM160 0v1434h186v-1266h469v-168h-655z" />
<glyph unicode="&#x13a;" horiz-adv-x="497" d="M-49 1677l510 281l86 -139l-510 -281zM160 0v1434h178v-1434h-178z" />
<glyph unicode="&#x13b;" horiz-adv-x="870" d="M160 0v1434h186v-1266h469v-168h-655zM332 -152q0 48 34 81.5t83 33.5q61 0 99 -46.5t38 -119.5q0 -243 -246 -243v71q85 0 119 49q24 36 24 72q-12 -12 -39 -12q-50 0 -81 33t-31 81z" />
<glyph unicode="&#x13c;" horiz-adv-x="497" d="M125 -152q0 48 34 81.5t83 33.5q61 0 100 -47t39 -119q0 -128 -63 -185.5t-183 -57.5v73q89 0 119 47q25 35 22 72q-12 -12 -36 -12q-53 0 -84 32.5t-31 81.5zM160 0v1434h178v-1434h-178z" />
<glyph unicode="&#x13d;" horiz-adv-x="870" d="M160 0v1434h186v-1266h469v-168h-655zM578 1356q0 60 40 100.5t101 40.5q74 0 119 -56t45 -145q0 -155 -75 -224t-218 -71v86q103 0 141 64q29 39 29 84q-12 -12 -45 -12q-61 0 -99 37.5t-38 95.5z" />
<glyph unicode="&#x13e;" horiz-adv-x="753" d="M160 0v1434h178v-1434h-178zM446 1356q0 60 41 100.5t101 40.5q74 0 120 -56.5t46 -144.5q0 -156 -74.5 -224.5t-220.5 -70.5v86q103 0 141 64q27 37 31 84q-15 -12 -45 -12q-62 0 -101 37.5t-39 95.5z" />
<glyph unicode="&#x13f;" horiz-adv-x="870" d="M160 0v1434h186v-1266h469v-168h-655zM537 801q0 60 40.5 102.5t100.5 42.5t102.5 -42.5t42.5 -102.5t-42.5 -101t-102.5 -41t-100.5 41t-40.5 101z" />
<glyph unicode="&#x140;" horiz-adv-x="698" d="M160 0v1434h178v-1434h-178zM467 694q0 60 41.5 103t101.5 43t102 -43t42 -103t-42 -100.5t-102 -40.5t-101.5 40.5t-41.5 100.5z" />
<glyph unicode="&#x141;" horiz-adv-x="870" d="M57 504v151l103 47v732h186v-654l336 150v-150l-336 -151v-461h469v-168h-655v551z" />
<glyph unicode="&#x142;" horiz-adv-x="497" d="M4 535v139l156 84v676h192v-574l166 88v-141l-166 -90v-717h-192v621z" />
<glyph unicode="&#x143;" horiz-adv-x="1357" d="M160 0v1434h207l645 -1108v1108h186v-1434h-207l-645 1108v-1108h-186zM385 1675l510 281l86 -141l-510 -281z" />
<glyph unicode="&#x144;" d="M160 0v930h178v-164q42 88 127 138t201 50q193 0 278 -123q39 -54 55.5 -119t16.5 -163v-549h-178v494q0 139 -56 221t-180 82q-126 0 -195 -92.5t-69 -225.5v-479h-178zM293 1169l510 281l84 -139l-510 -281z" />
<glyph unicode="&#x145;" horiz-adv-x="1357" d="M160 0v1434h207l645 -1108v1108h186v-1434h-207l-645 1108v-1108h-186zM561 -152q0 48 34 81.5t83 33.5q61 0 99 -46.5t38 -119.5q0 -243 -246 -243v71q85 0 119 49q25 38 25 72q-12 -12 -39 -12q-50 0 -81.5 33t-31.5 81z" />
<glyph unicode="&#x146;" d="M160 0v930h178v-164q42 88 127 138t201 50q193 0 278 -123q39 -54 55.5 -119t16.5 -163v-549h-178v494q0 139 -56 221t-180 82q-126 0 -195 -92.5t-69 -225.5v-479h-178zM485 -152q0 48 34 81.5t83 33.5q61 0 99 -46.5t38 -119.5q0 -129 -63 -186t-182 -57v73 q88 0 118 47q25 38 25 72q-12 -12 -39 -12q-50 0 -81.5 33t-31.5 81z" />
<glyph unicode="&#x147;" horiz-adv-x="1357" d="M160 0v1434h207l645 -1108v1108h186v-1434h-207l-645 1108v-1108h-186zM326 1845l106 115l252 -234l256 234l102 -115l-360 -313z" />
<glyph unicode="&#x148;" d="M160 0v930h178v-164q42 88 127 138t201 50q193 0 278 -123q39 -54 55.5 -119t16.5 -163v-549h-178v494q0 139 -56 221t-180 82q-126 0 -195 -92.5t-69 -225.5v-479h-178zM254 1391l104 112l252 -231l256 233l105 -114l-361 -316z" />
<glyph unicode="&#x149;" d="M-78 1378q0 48 33.5 82.5t83.5 34.5q61 0 99 -46.5t38 -119.5q0 -130 -62.5 -187t-183.5 -59v74q84 0 119 47q25 38 25 72q-10 -10 -39 -10q-50 0 -81.5 32t-31.5 80zM160 0v930h178v-164q42 88 127 138t201 50q193 0 278 -123q39 -54 55.5 -119t16.5 -163v-549h-178v494 q0 139 -56 221t-180 82q-126 0 -195 -92.5t-69 -225.5v-479h-178z" />
<glyph unicode="&#x14a;" horiz-adv-x="1357" d="M160 0v1434h188l664 -1102v1102h186v-1471q0 -215 -124.5 -351t-336.5 -136q-216 0 -352 172l123 119q52 -61 104 -91t125 -30q130 0 202.5 85t72.5 232v35l-666 1110v-1108h-186z" />
<glyph unicode="&#x14b;" d="M160 0v930h178v-164q42 88 127 138t201 50q193 0 278 -123q39 -54 55.5 -119t16.5 -163v-608q0 -205 -119 -335t-322 -130q-196 0 -329 153l114 113q52 -55 100 -81t115 -26q123 0 193 82.5t70 223.5v553q0 139 -56 221t-180 82q-126 0 -195 -92.5t-69 -225.5v-479h-178z " />
<glyph unicode="&#x14c;" horiz-adv-x="1644" d="M84 717q0 116 32.5 226.5t96 204.5t151.5 165.5t206.5 112t252.5 40.5q167 0 308.5 -62.5t234.5 -167t145 -239t52 -280.5q0 -116 -32.5 -226.5t-96.5 -205t-152 -166t-206.5 -112t-252.5 -40.5t-252.5 40.5t-206.5 112t-151.5 166t-96 205t-32.5 226.5zM279 717 q0 -112 38.5 -217t107 -186t172.5 -130t226 -49t226 49t172.5 130t106.5 185.5t38 217.5q0 153 -64.5 284.5t-190.5 214t-288 82.5q-122 0 -226 -48t-172.5 -129t-107 -185.5t-38.5 -218.5zM457 1642v158h733v-158h-733z" />
<glyph unicode="&#x14d;" horiz-adv-x="1146" d="M84 465q0 132 59.5 243t172 178.5t255.5 67.5q145 0 259 -67.5t173.5 -178t59.5 -243.5q0 -98 -35.5 -186.5t-98 -155.5t-156 -106.5t-202.5 -39.5q-108 0 -200 39.5t-154.5 106t-97.5 155.5t-35 187zM207 1167v160h733v-160h-733zM260 465q0 -137 86.5 -232.5 t224.5 -95.5q139 0 227.5 95.5t88.5 232.5t-88.5 233.5t-227.5 96.5q-138 0 -224.5 -96.5t-86.5 -233.5z" />
<glyph unicode="&#x14e;" horiz-adv-x="1644" d="M84 717q0 116 32.5 226.5t96 204.5t151.5 165.5t206.5 112t252.5 40.5q167 0 308.5 -62.5t234.5 -167t145 -239t52 -280.5q0 -116 -32.5 -226.5t-96.5 -205t-152 -166t-206.5 -112t-252.5 -40.5t-252.5 40.5t-206.5 112t-151.5 166t-96 205t-32.5 226.5zM279 717 q0 -112 38.5 -217t107 -186t172.5 -130t226 -49t226 49t172.5 130t106.5 185.5t38 217.5q0 153 -64.5 284.5t-190.5 214t-288 82.5q-122 0 -226 -48t-172.5 -129t-107 -185.5t-38.5 -218.5zM426 1896h168q20 -80 79.5 -125t149.5 -45q87 0 147.5 45t80.5 125h168 q-25 -135 -135 -222t-261 -87q-154 0 -263 86.5t-134 222.5z" />
<glyph unicode="&#x14f;" horiz-adv-x="1146" d="M84 465q0 132 59.5 243t172 178.5t255.5 67.5q145 0 259 -67.5t173.5 -178t59.5 -243.5q0 -98 -35.5 -186.5t-98 -155.5t-156 -106.5t-202.5 -39.5q-108 0 -200 39.5t-154.5 106t-97.5 155.5t-35 187zM180 1434h166q24 -80 81.5 -125t143.5 -45q85 0 144.5 45.5 t79.5 124.5h168q-25 -135 -134 -222.5t-258 -87.5q-151 0 -258.5 87t-132.5 223zM260 465q0 -137 86.5 -232.5t224.5 -95.5q139 0 227.5 95.5t88.5 232.5t-88.5 233.5t-227.5 96.5q-138 0 -224.5 -96.5t-86.5 -233.5z" />
<glyph unicode="&#x150;" horiz-adv-x="1644" d="M84 717q0 116 32.5 226.5t96 204.5t151.5 165.5t206.5 112t252.5 40.5q167 0 308.5 -62.5t234.5 -167t145 -239t52 -280.5q0 -116 -32.5 -226.5t-96.5 -205t-152 -166t-206.5 -112t-252.5 -40.5t-252.5 40.5t-206.5 112t-151.5 166t-96 205t-32.5 226.5zM279 717 q0 -112 38.5 -217t107 -186t172.5 -130t226 -49t226 49t172.5 130t106.5 185.5t38 217.5q0 153 -64.5 284.5t-190.5 214t-288 82.5q-122 0 -226 -48t-172.5 -129t-107 -185.5t-38.5 -218.5zM479 1622l256 340l156 -78l-324 -309zM879 1622l256 340l155 -78l-323 -309z" />
<glyph unicode="&#x151;" horiz-adv-x="1146" d="M84 465q0 132 59.5 243t172 178.5t255.5 67.5q145 0 259 -67.5t173.5 -178t59.5 -243.5q0 -98 -35.5 -186.5t-98 -155.5t-156 -106.5t-202.5 -39.5q-108 0 -200 39.5t-154.5 106t-97.5 155.5t-35 187zM246 1137l256 340l157 -80l-323 -310zM260 465q0 -137 86.5 -232.5 t224.5 -95.5q139 0 227.5 95.5t88.5 232.5t-88.5 233.5t-227.5 96.5q-138 0 -224.5 -96.5t-86.5 -233.5zM645 1137l256 340l158 -80l-324 -310z" />
<glyph unicode="&#x152;" horiz-adv-x="2320" d="M84 715q0 116 32.5 226.5t96 204.5t151.5 165.5t206.5 112t252.5 40.5q177 0 315 -70t230 -192v232h803v-168h-617v-469h617v-168h-617v-461h617v-168h-803v225q-92 -122 -230 -192t-315 -70q-134 0 -252.5 40.5t-206.5 112t-151.5 166.5t-96 205.5t-32.5 227.5zM279 715 q0 -114 38.5 -219t107 -185.5t172.5 -129t226 -48.5q162 0 288 83t190.5 214.5t64.5 284.5q0 152 -64.5 283t-190.5 213.5t-288 82.5q-122 0 -226 -48t-172.5 -128.5t-107 -185t-38.5 -217.5z" />
<glyph unicode="&#x153;" horiz-adv-x="1871" d="M84 465q0 132 59.5 243t172 178.5t255.5 67.5q130 0 231.5 -53.5t164.5 -148.5q56 95 151 148.5t225 53.5q181 0 307 -120.5t126 -298.5q0 -60 -9 -117h-700q0 -129 71.5 -210t211.5 -81q178 0 235 147h180q-26 -124 -138 -210.5t-277 -86.5q-132 0 -228.5 54t-152.5 149 q-62 -95 -164 -149t-234 -54q-108 0 -200 39.5t-154.5 106t-97.5 155.5t-35 187zM260 465q0 -137 86.5 -232.5t224.5 -95.5q139 0 227.5 94t88.5 234q0 139 -88.5 234.5t-227.5 95.5q-138 0 -224.5 -96.5t-86.5 -233.5zM1069 553h533q0 114 -74 182t-189 68 q-119 0 -192.5 -66.5t-77.5 -183.5z" />
<glyph unicode="&#x154;" horiz-adv-x="1241" d="M160 0v1434h504q145 0 258.5 -67.5t173 -178t59.5 -242.5q0 -159 -85.5 -284.5t-231.5 -174.5l301 -487h-213l-285 457h-295v-457h-186zM324 1675l510 281l84 -141l-510 -281zM346 627h318q136 0 220.5 92.5t84.5 226.5q0 133 -84.5 226.5t-220.5 93.5h-318v-639z" />
<glyph unicode="&#x155;" horiz-adv-x="747" d="M94 1200l510 281l86 -140l-510 -280zM160 0v930h178v-182q36 87 123 141.5t186 54.5q56 0 88 -14v-164q-49 10 -88 10q-152 0 -230.5 -98t-78.5 -270v-408h-178z" />
<glyph unicode="&#x156;" horiz-adv-x="1241" d="M160 0v1434h504q145 0 258.5 -67.5t173 -178t59.5 -242.5q0 -159 -85.5 -284.5t-231.5 -174.5l301 -487h-213l-285 457h-295v-457h-186zM346 627h318q136 0 220.5 92.5t84.5 226.5q0 133 -84.5 226.5t-220.5 93.5h-318v-639zM498 -152q0 48 33.5 81.5t82.5 33.5 q61 0 99.5 -47t38.5 -119q0 -243 -246 -243v71q72 0 107 29.5t40 75.5q0 12 -4 16q-12 -12 -39 -12q-50 0 -81 33t-31 81z" />
<glyph unicode="&#x157;" horiz-adv-x="747" d="M125 -152q0 48 34 81.5t83 33.5q61 0 100 -47t39 -119q0 -128 -63 -185.5t-183 -57.5v73q89 0 119 47q25 35 22 72q-12 -12 -36 -12q-53 0 -84 32.5t-31 81.5zM160 0v930h178v-182q36 87 123 141.5t186 54.5q56 0 88 -14v-164q-49 10 -88 10q-152 0 -230.5 -98 t-78.5 -270v-408h-178z" />
<glyph unicode="&#x158;" horiz-adv-x="1241" d="M160 0v1434h504q145 0 258.5 -67.5t173 -178t59.5 -242.5q0 -159 -85.5 -284.5t-231.5 -174.5l301 -487h-213l-285 457h-295v-457h-186zM229 1845l105 115l252 -234l256 234l104 -115l-360 -313zM346 627h318q136 0 220.5 92.5t84.5 226.5q0 133 -84.5 226.5t-220.5 93.5 h-318v-639z" />
<glyph unicode="&#x159;" horiz-adv-x="747" d="M68 1391l104 112l254 -231l254 233l104 -114l-360 -316zM160 0v930h178v-182q36 87 123 141.5t186 54.5q56 0 88 -14v-164q-49 10 -88 10q-152 0 -230.5 -98t-78.5 -270v-408h-178z" />
<glyph unicode="&#x15a;" horiz-adv-x="1169" d="M92 457h187q0 -148 87.5 -235t235.5 -87q126 0 205.5 66.5t79.5 177.5q0 36 -9.5 67t-22.5 53.5t-37 43t-43.5 32.5t-52.5 26t-52.5 20.5t-55.5 17.5q-99 31 -150.5 50t-124 57t-107.5 79t-62 107t-27 151q0 169 126.5 276t320.5 107q195 0 322.5 -121.5t127.5 -316.5 h-186q-2 124 -71 197t-189 73q-119 0 -191.5 -58t-72.5 -157q0 -56 21 -98t62.5 -70t82 -45t100.5 -34q60 -20 97 -33t93 -37t91.5 -46t76.5 -56t64 -70.5t39 -87t16 -107.5q0 -136 -65.5 -235.5t-174 -148t-245.5 -48.5q-139 0 -251 58t-178.5 170.5t-66.5 261.5zM293 1675 l510 281l84 -141l-510 -281z" />
<glyph unicode="&#x15b;" horiz-adv-x="925" d="M82 313h174q0 -100 59.5 -147t159.5 -47q187 0 187 133q0 25 -10 45t-24.5 32.5t-45.5 26t-56.5 22t-75 24t-85.5 28.5q-50 15 -81.5 27t-67.5 33t-56 46t-33.5 63t-13.5 87q0 126 97.5 197t248.5 71q154 0 256 -87.5t102 -225.5h-172q0 82 -48 126t-140 44 q-76 0 -124 -34t-48 -95q0 -40 30.5 -68t64 -40.5t125.5 -40.5q10 -3 16 -5l15 -5t17 -5q38 -12 60.5 -19t56 -21t53 -26.5t43 -32.5t36 -42.5t21 -53.5t8.5 -67q0 -135 -101 -207t-263 -72q-105 0 -190.5 36t-140 114t-54.5 186zM166 1169l510 281l84 -139l-510 -281z" />
<glyph unicode="&#x15c;" horiz-adv-x="1169" d="M92 457h187q0 -148 87.5 -235t235.5 -87q126 0 205.5 66.5t79.5 177.5q0 36 -9.5 67t-22.5 53.5t-37 43t-43.5 32.5t-52.5 26t-52.5 20.5t-55.5 17.5q-99 31 -150.5 50t-124 57t-107.5 79t-62 107t-27 151q0 169 126.5 276t320.5 107q195 0 322.5 -121.5t127.5 -316.5 h-186q-2 124 -71 197t-189 73q-119 0 -191.5 -58t-72.5 -157q0 -56 21 -98t62.5 -70t82 -45t100.5 -34q60 -20 97 -33t93 -37t91.5 -46t76.5 -56t64 -70.5t39 -87t16 -107.5q0 -136 -65.5 -235.5t-174 -148t-245.5 -48.5q-139 0 -251 58t-178.5 170.5t-66.5 261.5zM227 1647 l363 313l364 -313l-102 -115l-260 233l-260 -233z" />
<glyph unicode="&#x15d;" horiz-adv-x="925" d="M82 313h174q0 -100 59.5 -147t159.5 -47q187 0 187 133q0 25 -10 45t-24.5 32.5t-45.5 26t-56.5 22t-75 24t-85.5 28.5q-50 15 -81.5 27t-67.5 33t-56 46t-33.5 63t-13.5 87q0 126 97.5 197t248.5 71q154 0 256 -87.5t102 -225.5h-172q0 82 -48 126t-140 44 q-76 0 -124 -34t-48 -95q0 -40 30.5 -68t64 -40.5t125.5 -40.5q10 -3 16 -5l15 -5t17 -5q38 -12 60.5 -19t56 -21t53 -26.5t43 -32.5t36 -42.5t21 -53.5t8.5 -67q0 -135 -101 -207t-263 -72q-105 0 -190.5 36t-140 114t-54.5 186zM100 1198l361 315l366 -315l-104 -115 l-260 236l-258 -234z" />
<glyph unicode="&#x15e;" horiz-adv-x="1169" d="M92 457h187q0 -148 87.5 -235t235.5 -87q126 0 205.5 66.5t79.5 177.5q0 51 -18 92t-42 66t-67.5 47t-73.5 32.5t-80 24.5q-71 23 -106.5 35.5t-94 37t-88.5 45t-69.5 54t-58 70.5t-32.5 88t-14 112q0 169 126.5 276t320.5 107q195 0 322.5 -121.5t127.5 -316.5h-186 q-2 124 -71 197t-189 73q-119 0 -191.5 -58t-72.5 -157q0 -56 21 -98t62.5 -70t82 -45t100.5 -34q176 -63 238 -94q174 -87 220 -221q19 -57 19 -122q0 -191 -119.5 -301.5t-316.5 -128.5v-114q27 41 88 41q67 0 118.5 -49t51.5 -130q0 -78 -54.5 -137t-150.5 -59 q-23 0 -51 8t-61.5 25.5t-58 55.5t-30.5 89h109q6 -38 30 -60t62 -22q43 0 69.5 28t26.5 72q0 41 -26.5 67t-67.5 26q-51 0 -80 -52h-94v213q-188 21 -307 151.5t-119 334.5z" />
<glyph unicode="&#x15f;" horiz-adv-x="925" d="M82 313h174q0 -100 59.5 -147t159.5 -47q187 0 187 133q0 27 -10 47t-25 33t-45.5 25.5t-57 21t-76 23.5t-86.5 28q-61 19 -99 35.5t-76 45.5t-56 72t-18 103q0 126 97.5 197t248.5 71q154 0 256 -87.5t102 -225.5h-172q0 82 -48 126t-140 44q-76 0 -124 -34t-48 -95 q0 -20 5.5 -36t20 -29t28 -22t42 -19.5t49 -17t61.5 -19t68 -21.5q37 -12 59.5 -20t55 -22t52 -27t42 -33t34.5 -42t20.5 -52t8.5 -66q0 -127 -87 -197.5t-238 -78.5v-125q27 41 90 41q65 0 116.5 -50.5t51.5 -128.5q0 -79 -53.5 -137.5t-151.5 -58.5q-23 0 -51 8 t-61.5 25.5t-58 55.5t-30.5 89h109q8 -38 32 -60t60 -22q43 0 69.5 28t26.5 72q0 41 -26.5 67t-67.5 26q-51 0 -80 -52h-92v226q-136 18 -221.5 103.5t-85.5 225.5z" />
<glyph unicode="&#x160;" horiz-adv-x="1169" d="M92 457h187q0 -148 87.5 -235t235.5 -87q126 0 205.5 66.5t79.5 177.5q0 36 -9.5 67t-22.5 53.5t-37 43t-43.5 32.5t-52.5 26t-52.5 20.5t-55.5 17.5q-99 31 -150.5 50t-124 57t-107.5 79t-62 107t-27 151q0 168 129 275.5t322 107.5q195 0 320.5 -121.5t125.5 -316.5 h-186q-2 124 -71 197t-189 73q-119 0 -191.5 -58t-72.5 -157q0 -56 21 -98t62.5 -70t82 -45t100.5 -34q60 -20 97 -33t93 -37t91.5 -46t76.5 -56t64 -70.5t39 -87t16 -107.5q0 -136 -65.5 -235.5t-174 -148t-245.5 -48.5q-139 0 -251 58t-178.5 170.5t-66.5 261.5zM240 1851 l104 113l254 -231l254 233l104 -115l-360 -313z" />
<glyph unicode="&#x161;" horiz-adv-x="925" d="M82 313h174q0 -100 59.5 -147t159.5 -47q187 0 187 133q0 25 -10 45t-24.5 32.5t-45.5 26t-56.5 22t-75 24t-85.5 28.5q-50 15 -81.5 27t-67.5 33t-56 46t-33.5 63t-13.5 87q0 126 97.5 197t248.5 71q154 0 256 -87.5t102 -225.5h-172q0 82 -48 126t-140 44 q-76 0 -124 -34t-48 -95q0 -40 30.5 -68t64 -40.5t125.5 -40.5q10 -3 16 -5l15 -5t17 -5q38 -12 60.5 -19t56 -21t53 -26.5t43 -32.5t36 -42.5t21 -53.5t8.5 -67q0 -135 -101 -207t-263 -72q-105 0 -190.5 36t-140 114t-54.5 186zM104 1386l105 113l254 -231l256 233 l102 -115l-360 -313z" />
<glyph unicode="&#x162;" horiz-adv-x="978" d="M25 1266v168h929v-168h-372v-1266h-187v1266h-370zM373 -152q0 48 32.5 81.5t81.5 33.5q62 0 101 -46.5t39 -119.5q0 -243 -246 -243v71q70 0 106 29.5t41 75.5q0 12 -4 16q-15 -12 -39 -12q-50 0 -81 33t-31 81z" />
<glyph unicode="&#x163;" horiz-adv-x="696" d="M41 780v150h172v313h178v-313h242v-150h-242v-428q0 -65 10.5 -107t33.5 -62t47.5 -26.5t62.5 -6.5q85 0 121 8v-158q-70 -12 -160 -12q-29 0 -52.5 2t-55.5 9.5t-56 20.5t-49.5 37.5t-42 57.5t-27 84t-10.5 114v467h-172zM295 -152q0 48 34 81.5t83 33.5q61 0 99 -46.5 t38 -119.5q0 -128 -63 -185.5t-183 -57.5v73q89 0 119 47q24 36 24 72q-12 -12 -38 -12q-50 0 -81.5 33t-31.5 81z" />
<glyph unicode="&#x164;" horiz-adv-x="978" d="M25 1266v168h929v-168h-372v-1266h-187v1266h-370zM133 1845l105 115l251 -234l256 234l105 -115l-361 -313z" />
<glyph unicode="&#x165;" horiz-adv-x="1024" d="M41 780v150h172v313h178v-313h242v-150h-242v-428q0 -65 10.5 -107t33.5 -62t47.5 -26.5t62.5 -6.5q85 0 121 8v-158q-70 -12 -160 -12q-29 0 -52.5 2t-55.5 9.5t-56 20.5t-49.5 37.5t-42 57.5t-27 84t-10.5 114v467h-172zM608 1321q0 60 40.5 99.5t101.5 39.5 q74 0 118.5 -54.5t44.5 -143.5q0 -155 -74.5 -224t-217.5 -71v86q107 0 141 61q29 42 29 86q-11 -14 -46 -14q-61 0 -99 38.5t-38 96.5z" />
<glyph unicode="&#x166;" horiz-adv-x="978" d="M25 1266v168h929v-168h-372v-265h276v-135h-276v-866h-187v866h-270v135h270v265h-370z" />
<glyph unicode="&#x167;" horiz-adv-x="696" d="M41 444v121h172v215h-172v150h172v313h178v-313h242v-150h-242v-215h199v-121h-199v-92q0 -65 10.5 -107t33.5 -62t47.5 -26.5t62.5 -6.5q85 0 121 8v-158q-70 -12 -160 -12q-29 0 -52.5 2t-55.5 9.5t-56 20.5t-49.5 37.5t-42 57.5t-27 84t-10.5 114v131h-172z" />
<glyph unicode="&#x168;" horiz-adv-x="1288" d="M145 465v969h187v-969q0 -137 86.5 -233.5t222.5 -96.5q139 0 227 96.5t88 233.5v969h187v-969q0 -136 -60.5 -248.5t-176.5 -181t-265 -68.5q-145 0 -260 68.5t-175.5 181.5t-60.5 248zM258 1706q88 160 248 160q46 0 89.5 -16t71 -34.5t59.5 -34.5t58 -16q77 0 127 101 l129 -68q-45 -87 -113 -130.5t-141 -43.5q-60 0 -112.5 25t-93.5 50t-74 25q-43 0 -70.5 -25t-54.5 -75z" />
<glyph unicode="&#x169;" d="M141 381v549h178v-492q0 -139 56 -221t178 -82q87 0 148.5 45t89.5 115t28 158v477h178v-930h-178v166q-42 -88 -127 -138.5t-200 -50.5q-193 0 -281 121q-38 54 -54 119t-16 164zM182 1253q87 158 248 158q46 0 90 -15.5t71.5 -34.5t59.5 -34.5t58 -15.5q78 0 127 100 l131 -68q-47 -87 -115 -129.5t-141 -42.5q-48 0 -92 16t-71 34.5t-59 34.5t-59 16q-43 0 -70 -25.5t-55 -75.5z" />
<glyph unicode="&#x16a;" horiz-adv-x="1288" d="M145 465v969h187v-969q0 -137 86.5 -233.5t222.5 -96.5q139 0 227 96.5t88 233.5v969h187v-969q0 -136 -60.5 -248.5t-176.5 -181t-265 -68.5q-145 0 -260 68.5t-175.5 181.5t-60.5 248zM276 1642v158h734v-158h-734z" />
<glyph unicode="&#x16b;" d="M141 381v549h178v-492q0 -139 56 -221t178 -82q87 0 148.5 45t89.5 115t28 158v477h178v-930h-178v166q-42 -88 -127 -138.5t-200 -50.5q-193 0 -281 121q-38 54 -54 119t-16 164zM211 1167v160h733v-160h-733z" />
<glyph unicode="&#x16c;" horiz-adv-x="1288" d="M145 465v969h187v-969q0 -137 86.5 -233.5t222.5 -96.5q139 0 227 96.5t88 233.5v969h187v-969q0 -136 -60.5 -248.5t-176.5 -181t-265 -68.5q-145 0 -260 68.5t-175.5 181.5t-60.5 248zM240 1896h168q24 -81 82 -125.5t147 -44.5t147 44.5t82 125.5h166 q-25 -135 -134.5 -222t-260.5 -87q-152 0 -262 87t-135 222z" />
<glyph unicode="&#x16d;" d="M141 381v549h178v-492q0 -139 56 -221t178 -82q87 0 148.5 45t89.5 115t28 158v477h178v-930h-178v166q-42 -88 -127 -138.5t-200 -50.5q-193 0 -281 121q-38 54 -54 119t-16 164zM180 1434h166q24 -80 81.5 -125t143.5 -45q85 0 144.5 45.5t79.5 124.5h168 q-25 -134 -135 -222t-257 -88q-151 0 -258.5 87t-132.5 223z" />
<glyph unicode="&#x16e;" horiz-adv-x="1288" d="M145 465v969h187v-969q0 -137 86.5 -233.5t222.5 -96.5q139 0 227 96.5t88 233.5v969h187v-969q0 -136 -60.5 -248.5t-176.5 -181t-265 -68.5q-145 0 -260 68.5t-175.5 181.5t-60.5 248zM391 1747q0 104 74 178t178 74t178 -74.5t74 -177.5t-74 -177.5t-178 -74.5 t-178 74.5t-74 177.5zM508 1747q0 -55 39.5 -94t95.5 -39q57 0 97 39t40 96q0 56 -39 95.5t-98 39.5q-57 0 -96 -40t-39 -97z" />
<glyph unicode="&#x16f;" d="M141 381v549h178v-492q0 -139 56 -221t178 -82q87 0 148.5 45t89.5 115t28 158v477h178v-930h-178v166q-42 -88 -127 -138.5t-200 -50.5q-193 0 -281 121q-38 54 -54 119t-16 164zM309 1292q0 108 76 184t184 76t185 -77t77 -183t-77 -183t-185 -77q-107 0 -183.5 77 t-76.5 183zM424 1292q0 -61 42 -104t103 -43q63 0 105.5 43.5t42.5 105.5t-43 106t-105 44q-61 0 -103 -45t-42 -107z" />
<glyph unicode="&#x170;" horiz-adv-x="1288" d="M145 465v969h187v-969q0 -137 86.5 -233.5t222.5 -96.5q139 0 227 96.5t88 233.5v969h187v-969q0 -136 -60.5 -248.5t-176.5 -181t-265 -68.5q-145 0 -260 68.5t-175.5 181.5t-60.5 248zM317 1622l256 340l158 -78l-323 -309zM717 1622l256 340l157 -78l-323 -309z" />
<glyph unicode="&#x171;" d="M141 381v549h178v-492q0 -139 56 -221t178 -82q87 0 148.5 45t89.5 115t28 158v477h178v-930h-178v166q-42 -88 -127 -138.5t-200 -50.5q-193 0 -281 121q-38 54 -54 119t-16 164zM233 1100l256 340l158 -78l-323 -309zM633 1100l256 340l158 -78l-324 -309z" />
<glyph unicode="&#x172;" horiz-adv-x="1288" d="M145 465v969h187v-969q0 -137 86.5 -233.5t222.5 -96.5q139 0 227 96.5t88 233.5v969h187v-969q0 -195 -125 -337t-328 -159q-82 -65 -82 -147q0 -52 31 -86.5t88 -34.5q62 0 131 27l-2 -131q-95 -31 -182 -31q-113 0 -174.5 56t-61.5 142q0 59 30 108t97 101 q-188 24 -304 164.5t-116 327.5z" />
<glyph unicode="&#x173;" d="M141 381v549h178v-492q0 -139 56 -221t178 -82q87 0 148.5 45t89.5 115t28 158v477h178v-930h-43q-161 -86 -161 -195q0 -45 28.5 -74.5t77.5 -29.5q59 0 123 23v-130q-86 -28 -176 -28q-115 0 -176.5 54.5t-61.5 143.5q0 67 51.5 124.5t159.5 119.5v158 q-42 -88 -127 -138.5t-200 -50.5q-193 0 -281 121q-38 54 -54 119t-16 164z" />
<glyph unicode="&#x174;" horiz-adv-x="1974" d="M12 1434h197l360 -1110l349 1110h141l348 -1110l360 1110h197l-491 -1434h-138l-348 1110l-346 -1110h-139zM627 1647l362 313l365 -313l-103 -115l-260 233l-260 -233z" />
<glyph unicode="&#x175;" horiz-adv-x="1503" d="M8 930h191l231 -656l234 656h176l231 -656l234 656h190l-360 -930h-123l-260 735l-260 -735h-123zM393 1198l363 315l364 -315l-102 -115l-262 236l-258 -234z" />
<glyph unicode="&#x176;" horiz-adv-x="1210" d="M20 1434h218l419 -670l338 670h205l-721 -1434h-205l287 569zM274 1647l361 313l366 -313l-104 -115l-260 233l-258 -233z" />
<glyph unicode="&#x177;" horiz-adv-x="1173" d="M143 -121h181q7 -126 73 -189t185 -63q127 0 193.5 62.5t66.5 214.5v262q-42 -88 -126 -138.5t-200 -50.5q-194 0 -283 119q-38 54 -53.5 120t-15.5 171v543h178v-488q0 -147 54 -227t184 -80q127 0 194.5 91t67.5 227v477h178v-1026q0 -220 -111 -324t-331 -104 q-202 0 -316.5 102t-118.5 301zM227 1198l363 315l364 -315l-102 -115l-260 236l-260 -234z" />
<glyph unicode="&#x178;" horiz-adv-x="1210" d="M20 1434h218l419 -670l338 670h205l-721 -1434h-205l287 569zM276 1726q0 60 39.5 100t96.5 40q60 0 99.5 -40t39.5 -100q0 -57 -39.5 -96t-99.5 -39q-57 0 -96.5 39t-39.5 96zM745 1726q0 60 40.5 100t97.5 40q60 0 98.5 -40t38.5 -100q0 -58 -39 -96.5t-98 -38.5 q-57 0 -97.5 39t-40.5 96z" />
<glyph unicode="&#x179;" d="M29 0l796 1266h-753v168h1067l-797 -1266h803v-168h-1116zM293 1679l510 281l86 -141l-510 -281z" />
<glyph unicode="&#x17a;" horiz-adv-x="888" d="M49 0l498 772h-481v158h782l-498 -770h500v-160h-801zM147 1167l510 281l86 -139l-510 -281z" />
<glyph unicode="&#x17b;" d="M29 0l796 1266h-753v168h1067l-797 -1266h803v-168h-1116zM438 1743q0 60 41 101.5t101 41.5t102.5 -41.5t42.5 -101.5t-42.5 -102t-102.5 -42t-101 42t-41 102z" />
<glyph unicode="&#x17c;" horiz-adv-x="888" d="M49 0l498 772h-481v158h782l-498 -770h500v-160h-801zM303 1247q0 60 40.5 102t100.5 42t103 -42t43 -102t-43 -101.5t-103 -41.5t-100.5 41.5t-40.5 101.5z" />
<glyph unicode="&#x17d;" d="M29 0l796 1266h-753v168h1067l-797 -1266h803v-168h-1116zM244 1845l104 115l252 -234l256 234l105 -115l-361 -313z" />
<glyph unicode="&#x17e;" horiz-adv-x="888" d="M49 0l498 772h-481v158h782l-498 -770h500v-160h-801zM102 1378l105 115l254 -233l256 235l102 -117l-360 -313z" />
<glyph unicode="&#x17f;" horiz-adv-x="710" d="M43 780v150h201v162q0 69 12 125t31 92.5t47.5 63t55 40t60.5 21.5t58 10t53 2q79 0 127 -25v-151q-53 16 -104 16q-28 0 -46.5 -2t-42.5 -11.5t-38.5 -27.5t-24.5 -52.5t-10 -82.5v-1110h-178v780h-201z" />
<glyph unicode="&#x192;" horiz-adv-x="872" d="M-129 -403l27 151q50 -16 102 -16q27 0 45.5 2t42.5 12t41.5 28t35 52t30.5 82l153 872h-201l27 150h199l28 162q12 69 34 125t47 92.5t58.5 63t62 40t64.5 21.5t60 10t53 2q77 0 125 -25l-26 -151q-50 16 -103 16q-29 0 -47.5 -2t-44 -11.5t-43 -27.5t-33.5 -52t-26 -83 l-31 -180h268l-26 -150h-269l-149 -854q-12 -69 -34 -125t-47 -92.5t-58.5 -63t-62 -40t-64.5 -21.5t-60 -10t-53 -2q-77 0 -125 25z" />
<glyph unicode="&#x1fa;" horiz-adv-x="1144" d="M10 0l490 1421q-72 39 -72 121q0 58 41 98.5t100 40.5q57 0 98.5 -41t41.5 -98q0 -78 -66 -117l492 -1425h-197l-76 219h-581l-74 -219h-197zM266 1698l510 280l55 -90l-509 -280zM338 389h467l-232 739zM506 1542q0 -26 17.5 -43.5t45.5 -17.5q26 0 44 18t18 43 t-18 44.5t-44 19.5t-44.5 -19.5t-18.5 -44.5z" />
<glyph unicode="&#x1fb;" horiz-adv-x="1222" d="M84 465q0 132 59 243t169 178.5t249 67.5q104 0 193 -49.5t133 -134.5v160h176v-930h-176v162q-44 -85 -133 -135t-193 -50q-139 0 -249 67.5t-169 178.5t-59 242zM246 1597l510 281l84 -141l-510 -281zM260 465q0 -137 86.5 -232.5t224.5 -95.5q139 0 227.5 95.5 t88.5 232.5q-5 141 -92.5 235.5t-223.5 94.5q-138 0 -224.5 -96.5t-86.5 -233.5zM348 1245q0 88 61.5 149.5t149.5 61.5q87 0 149 -62t62 -149q0 -86 -61.5 -147.5t-149.5 -61.5t-149.5 61.5t-61.5 147.5zM442 1245q0 -48 34 -81.5t83 -33.5q47 0 81 35t34 82q0 48 -33 82.5 t-82 34.5t-83 -34.5t-34 -84.5z" />
<glyph unicode="&#x1fc;" horiz-adv-x="1771" d="M4 0l707 1434h903v-168h-617v-469h617v-168h-617v-461h617v-168h-805v221h-494l-106 -221h-205zM395 389h414v856zM737 1675l510 281l86 -141l-510 -281z" />
<glyph unicode="&#x1fd;" horiz-adv-x="1871" d="M84 465q0 132 59 243t169 178.5t249 67.5q104 0 193 -49.5t133 -134.5v160h176v-82q109 106 280 106q181 0 307 -120.5t126 -298.5q0 -60 -9 -117h-700q0 -130 71.5 -210.5t211.5 -80.5q178 0 235 147h180q-26 -124 -138 -210.5t-277 -86.5q-175 0 -287 107v-84h-176v162 q-44 -85 -133 -135t-193 -50q-139 0 -249 67.5t-169 178.5t-59 242zM260 465q0 -137 86.5 -232.5t224.5 -95.5q139 0 227.5 95.5t88.5 232.5q0 139 -88.5 234.5t-227.5 95.5q-138 0 -224.5 -96.5t-86.5 -233.5zM639 1143l510 280l84 -139l-510 -280zM1069 553h533 q0 111 -74.5 180.5t-188.5 69.5q-119 0 -192.5 -66.5t-77.5 -183.5z" />
<glyph unicode="&#x1fe;" horiz-adv-x="1644" d="M84 717q0 116 32.5 226.5t96 204.5t151.5 165.5t206.5 112t252.5 40.5q127 0 219 -32l72 163l125 -55l-68 -160q121 -61 210.5 -166t135.5 -233.5t46 -265.5q0 -116 -32.5 -226.5t-96.5 -205t-152 -166t-206.5 -112t-252.5 -40.5t-241 37l-76 -176l-127 55l76 176 q-175 97 -273 274.5t-98 383.5zM279 717q0 -150 65 -282t182 -210l451 1051q-77 22 -154 22q-122 0 -226 -48t-172.5 -129t-107 -185.5t-38.5 -218.5zM524 1673l510 281l84 -139l-510 -281zM649 164q85 -29 174 -29q122 0 226 49t172.5 130t106.5 185.5t38 217.5 q0 156 -70 290.5t-196 211.5z" />
<glyph unicode="&#x1ff;" horiz-adv-x="1146" d="M84 465q0 132 59.5 243t172 178.5t255.5 67.5q45 0 127 -16l64 145l110 -45l-61 -141q118 -63 185 -177.5t67 -254.5q0 -98 -35.5 -186.5t-98 -155.5t-156 -106.5t-202.5 -39.5q-81 0 -149 23l-66 -154l-110 45l65 156q-108 66 -167.5 176.5t-59.5 241.5zM260 465 q0 -77 31.5 -145.5t87.5 -116.5l254 583q-34 9 -62 9q-138 0 -224.5 -96.5t-86.5 -233.5zM274 1169l510 281l86 -139l-510 -281zM487 147q34 -10 84 -10q139 0 227.5 95.5t88.5 232.5q0 86 -38 159t-106 117z" />
<glyph unicode="&#x218;" horiz-adv-x="1169" d="M92 457h187q0 -148 87.5 -235t235.5 -87q126 0 205.5 66.5t79.5 177.5q0 36 -9.5 67t-22.5 53.5t-37 43t-43.5 32.5t-52.5 26t-52.5 20.5t-55.5 17.5q-99 31 -150.5 50t-124 57t-107.5 79t-62 107t-27 151q0 169 126.5 276t320.5 107q195 0 322.5 -121.5t127.5 -316.5 h-186q-2 124 -71 197t-189 73q-119 0 -191.5 -58t-72.5 -157q0 -56 21 -98t62.5 -70t82 -45t100.5 -34q60 -20 97 -33t93 -37t91.5 -46t76.5 -56t64 -70.5t39 -87t16 -107.5q0 -136 -65.5 -235.5t-174 -148t-245.5 -48.5q-139 0 -251 58t-178.5 170.5t-66.5 261.5zM473 -174 q0 48 34 81.5t83 33.5q61 0 99 -46.5t38 -119.5q0 -129 -63.5 -186.5t-182.5 -57.5v74q137 0 148 102q0 13 -4 17q-13 -13 -39 -13q-50 0 -81.5 33.5t-31.5 81.5z" />
<glyph unicode="&#x219;" horiz-adv-x="925" d="M82 313h174q0 -100 59.5 -147t159.5 -47q187 0 187 133q0 25 -10 45t-24.5 32.5t-45.5 26t-56.5 22t-75 24t-85.5 28.5q-50 15 -81.5 27t-67.5 33t-56 46t-33.5 63t-13.5 87q0 126 97.5 197t248.5 71q154 0 256 -87.5t102 -225.5h-172q0 82 -48 126t-140 44 q-76 0 -124 -34t-48 -95q0 -40 30.5 -68t64 -40.5t125.5 -40.5q10 -3 16 -5l15 -5t17 -5q38 -12 60.5 -19t56 -21t53 -26.5t43 -32.5t36 -42.5t21 -53.5t8.5 -67q0 -135 -101 -207t-263 -72q-105 0 -190.5 36t-140 114t-54.5 186zM352 -150q0 50 33 83.5t82 33.5 q62 0 100.5 -46.5t38.5 -119.5q0 -242 -246 -245v73q89 0 119 49q25 36 25 72q-15 -12 -39 -12q-50 0 -81.5 32t-31.5 80z" />
<glyph unicode="&#x21a;" horiz-adv-x="978" d="M25 1266v168h929v-168h-372v-1266h-187v1266h-370zM373 -152q0 48 32.5 81.5t81.5 33.5q62 0 101 -46.5t39 -119.5q0 -243 -246 -243v71q70 0 106 29.5t41 75.5q0 12 -4 16q-15 -12 -39 -12q-50 0 -81 33t-31 81z" />
<glyph unicode="&#x21b;" horiz-adv-x="696" d="M41 780v150h172v313h178v-313h242v-150h-242v-428q0 -65 10.5 -107t33.5 -62t47.5 -26.5t62.5 -6.5q85 0 121 8v-158q-70 -12 -160 -12q-29 0 -52.5 2t-55.5 9.5t-56 20.5t-49.5 37.5t-42 57.5t-27 84t-10.5 114v467h-172zM295 -152q0 48 34 81.5t83 33.5q61 0 99 -46.5 t38 -119.5q0 -128 -63 -185.5t-183 -57.5v73q89 0 119 47q24 36 24 72q-12 -12 -38 -12q-50 0 -81.5 33t-31.5 81z" />
<glyph unicode="&#x2c6;" horiz-adv-x="960" d="M106 1427l369 297l369 -297l-111 -124l-258 206l-256 -204z" />
<glyph unicode="&#x2c7;" horiz-adv-x="874" d="M109 1534l96 125l229 -215l234 215l96 -125l-330 -297z" />
<glyph unicode="&#x2d8;" horiz-adv-x="1099" d="M152 1743h151q25 -86 88.5 -133t157.5 -47t159.5 47t88.5 133h151q-20 -133 -134 -221t-265 -88q-150 0 -261 87.5t-136 221.5z" />
<glyph unicode="&#x2d9;" horiz-adv-x="991" d="M352 1309q0 60 42 102.5t102 42.5t101.5 -42.5t41.5 -102.5t-41.5 -101t-101.5 -41t-102 41t-42 101z" />
<glyph unicode="&#x2da;" horiz-adv-x="1042" d="M268 1458q0 104 74 178t178 74t178 -74.5t74 -177.5t-74 -177.5t-178 -74.5t-178 74.5t-74 177.5zM399 1458q0 -48 36 -83.5t85 -35.5q50 0 85.5 35.5t35.5 85.5t-35 85.5t-86 35.5q-50 0 -85.5 -36.5t-35.5 -86.5z" />
<glyph unicode="&#x2db;" horiz-adv-x="999" d="M299 -236q0 65 39 120t125 116h129q-59 -42 -91 -82.5t-32 -95.5q0 -52 32 -86.5t87 -34.5q65 0 131 27v-131q-95 -31 -184 -31q-113 0 -174.5 56t-61.5 142z" />
<glyph unicode="&#x2dc;" horiz-adv-x="1019" d="M152 1356q57 36 101.5 54.5t63 21t45.5 2.5q29 0 146.5 -28t142.5 -28q32 0 61.5 10t102.5 46l70 -115q-109 -84 -213 -84q-36 0 -147 26.5t-142 26.5q-60 0 -154 -49z" />
<glyph unicode="&#x2dd;" horiz-adv-x="1007" d="M150 1163l256 340l155 -78l-323 -309zM549 1163l256 340l156 -78l-324 -309z" />
<glyph unicode="&#x3c0;" horiz-adv-x="1177" d="M98 772v158h981v-158h-129v-772h-176v772h-371v-772h-176v772h-129z" />
<glyph unicode="&#x401;" horiz-adv-x="1114" d="M160 0v1434h805v-168h-619v-469h619v-168h-619v-461h619v-168h-805zM184 1726q0 60 41 103t101 43q61 0 103 -43t42 -103t-41.5 -100.5t-103.5 -40.5q-60 0 -101 40.5t-41 100.5zM653 1726q0 60 42 103t102 43t101.5 -43t41.5 -103t-41.5 -100.5t-101.5 -40.5t-102 40.5 t-42 100.5z" />
<glyph unicode="&#x402;" horiz-adv-x="1404" d="M25 1266v168h929v-168h-372v-500q42 88 128 138t203 50q195 0 283 -123q38 -56 56 -121.5t18 -160.5v-799q0 -123 -69.5 -196.5t-186.5 -73.5q-138 0 -148 6v170q7 -3 49.5 -5.5t57.5 -2.5q51 0 79.5 33t28.5 90v723q0 139 -55.5 221t-177.5 82q-86 0 -148 -46 t-90 -116.5t-28 -155.5v-479h-187v1266h-370z" />
<glyph unicode="&#x403;" horiz-adv-x="972" d="M160 0v1434h805v-168h-619v-1266h-186zM289 1645l510 280l86 -139l-510 -281z" />
<glyph unicode="&#x404;" horiz-adv-x="1527" d="M84 717q0 118 27.5 226.5t86 204t142 166t203 111.5t260.5 41q261 0 433 -136t210 -349h-203q-30 140 -148 228.5t-292 88.5q-119 0 -215.5 -39.5t-158.5 -109t-98.5 -157.5t-45.5 -191h706v-170h-706q9 -102 47 -190.5t102 -157.5t161 -108.5t216 -39.5q163 0 281 85.5 t151 221.5h203q-43 -208 -213.5 -341.5t-421.5 -133.5q-143 0 -263 40.5t-204.5 111t-144 165.5t-87.5 204.5t-28 228.5z" />
<glyph unicode="&#x405;" horiz-adv-x="1169" d="M92 457h187q0 -148 87.5 -235t235.5 -87q126 0 205.5 66.5t79.5 177.5q0 36 -9.5 67t-22.5 53.5t-37 43t-43.5 32.5t-52.5 26t-52.5 20.5t-55.5 17.5q-99 31 -150.5 50t-124 57t-107.5 79t-62 107t-27 151q0 169 126.5 276t320.5 107q195 0 322.5 -121.5t127.5 -316.5 h-186q-2 124 -71 197t-189 73q-119 0 -191.5 -58t-72.5 -157q0 -56 21 -98t62.5 -70t82 -45t100.5 -34q60 -20 97 -33t93 -37t91.5 -46t76.5 -56t64 -70.5t39 -87t16 -107.5q0 -136 -65.5 -235.5t-174 -148t-245.5 -48.5q-139 0 -251 58t-178.5 170.5t-66.5 261.5z" />
<glyph unicode="&#x406;" horiz-adv-x="512" d="M160 0v1434h192v-1434h-192z" />
<glyph unicode="&#x407;" horiz-adv-x="512" d="M-90 1726q0 60 41.5 103t101.5 43t102 -43t42 -103t-42 -100.5t-102 -40.5t-101.5 40.5t-41.5 100.5zM160 0v1434h192v-1434h-192zM319 1726q0 60 41 103t101 43t102.5 -43t42.5 -103t-42.5 -100.5t-102.5 -40.5t-101 40.5t-41 100.5z" />
<glyph unicode="&#x408;" horiz-adv-x="1097" d="M29 455h186q0 -144 75.5 -232t203.5 -88t200 86t72 234v979h186v-979q0 -215 -123.5 -351.5t-334.5 -136.5q-210 0 -337.5 137.5t-127.5 350.5z" />
<glyph unicode="&#x409;" horiz-adv-x="1933" d="M20 -25v168h95q118 0 118 119v1172h957v-615h272q175 0 289.5 -119.5t114.5 -289.5q0 -111 -51 -204.5t-144.5 -149.5t-210.5 -56h-456v1266h-582v-1026q0 -126 -71 -195.5t-189 -69.5h-142zM1190 168h270q93 0 156 71.5t63 170.5q0 100 -62 170.5t-155 70.5h-272v-483z " />
<glyph unicode="&#x40a;" horiz-adv-x="1941" d="M160 0v1434h186v-615h668v615h186v-615h273q175 0 289 -119t114 -290q0 -170 -115.5 -290t-292.5 -120h-454v649h-668v-649h-186zM1200 168h268q95 0 158.5 71t63.5 171t-62 170.5t-155 70.5h-273v-483z" />
<glyph unicode="&#x40b;" horiz-adv-x="1411" d="M25 1266v168h929v-168h-372v-500q42 88 128 138t203 50q198 0 283 -123q39 -55 56.5 -120t17.5 -162v-549h-189v494q0 139 -55.5 221t-177.5 82q-86 0 -148 -46t-90 -116.5t-28 -155.5v-479h-187v1266h-370z" />
<glyph unicode="&#x40c;" horiz-adv-x="1216" d="M160 0v1434h186v-590h35q151 0 248 164l127 215q43 70 85.5 116t101 74.5t128.5 28.5h86v-168h-53q-121 0 -195 -131l-110 -193q-95 -166 -283 -202l666 -748h-242l-594 688v-688h-186zM332 1645l510 280l86 -139l-510 -281z" />
<glyph unicode="&#x40e;" horiz-adv-x="1210" d="M20 1434h218l419 -670l338 670h205l-721 -1434h-205l287 569zM213 1896h166q24 -81 82 -125.5t147 -44.5t147.5 44.5t82.5 125.5h168q-25 -134 -136.5 -221.5t-261.5 -87.5q-153 0 -261.5 86.5t-133.5 222.5z" />
<glyph unicode="&#x40f;" horiz-adv-x="1314" d="M160 0v1434h186v-1266h623v1266h186v-1434h-412v-199h-170v199h-413z" />
<glyph unicode="&#x410;" horiz-adv-x="1144" d="M10 0l494 1434h135l496 -1434h-197l-76 219h-581l-74 -219h-197zM338 389h467l-232 739z" />
<glyph unicode="&#x411;" horiz-adv-x="1185" d="M160 0v1434h831v-168h-645v-447h346q175 0 289.5 -119.5t114.5 -289.5q0 -111 -51 -204.5t-144.5 -149.5t-210.5 -56h-530zM346 168h344q93 0 156 71.5t63 170.5q0 100 -62 170.5t-155 70.5h-346v-483z" />
<glyph unicode="&#x412;" horiz-adv-x="1210" d="M160 0v1434h489q100 0 178 -24.5t125.5 -63t78.5 -90.5t42.5 -102t11.5 -103q0 -125 -76 -213.5t-180 -110.5q43 -4 88.5 -27.5t86 -63t66.5 -102.5t26 -137q0 -53 -12.5 -104.5t-45 -105.5t-81 -94.5t-128 -66.5t-178.5 -26h-491zM346 168h313q67 0 117.5 21t78.5 56 t41 74.5t13 83.5q0 38 -14 77.5t-41.5 76t-77 59.5t-112.5 23h-318v-471zM346 809h307q66 0 116 21t77 56t40 72.5t13 77.5q0 39 -13 77t-40 73.5t-78 57.5t-119 22h-303v-457z" />
<glyph unicode="&#x413;" horiz-adv-x="972" d="M160 0v1434h805v-168h-619v-1266h-186z" />
<glyph unicode="&#x414;" horiz-adv-x="1427" d="M27 168h22q183 0 281 131q92 129 92 352v783h813v-1266h117v-367h-168v199h-987v-199h-170v367zM377 168h670v1098h-441v-457q0 -129 -10 -228t-35 -187t-71 -145t-113 -81z" />
<glyph unicode="&#x415;" horiz-adv-x="1114" d="M160 0v1434h805v-168h-619v-469h619v-168h-619v-461h619v-168h-805z" />
<glyph unicode="&#x416;" horiz-adv-x="1781" d="M14 0l613 741q-168 34 -260 213l-97 183q-41 73 -85.5 105t-100.5 32h-51v168h76q102 0 176 -59.5t135 -168.5l119 -219q50 -93 104.5 -136.5t122.5 -43.5h35v619h180v-619h35q68 0 121.5 43t105.5 137l119 219q123 228 311 228h76v-168h-51q-56 0 -101 -32.5t-86 -104.5 l-96 -183q-92 -179 -260 -213l612 -741h-241l-545 690v-690h-180v690l-547 -690h-240z" />
<glyph unicode="&#x417;" horiz-adv-x="1173" d="M88 453h186q0 -139 91 -224.5t225 -85.5q131 0 206.5 74t75.5 184q0 252 -307 252h-94v166h96q144 0 213.5 67.5t69.5 170.5q0 100 -74 166.5t-196 66.5q-131 0 -214 -70t-83 -192h-187q0 192 137.5 311t356.5 119q126 0 225.5 -43t160 -132t60.5 -212t-68 -209.5 t-180 -111.5q119 -21 195 -115.5t76 -233.5q0 -189 -133.5 -307.5t-337.5 -118.5q-223 0 -361.5 127.5t-138.5 350.5z" />
<glyph unicode="&#x418;" horiz-adv-x="1357" d="M160 0v1434h186v-1063l666 966v97h186v-1434h-186v1063l-666 -967v-96h-186z" />
<glyph unicode="&#x419;" horiz-adv-x="1357" d="M160 0v1434h186v-1063l666 966v97h186v-1434h-186v1063l-666 -967v-96h-186zM295 1896h168q20 -80 79.5 -125t149.5 -45q87 0 147.5 45t80.5 125h167q-25 -135 -134.5 -222t-260.5 -87q-154 0 -263 86.5t-134 222.5z" />
<glyph unicode="&#x41a;" horiz-adv-x="1216" d="M160 0v1434h186v-590h35q151 0 248 164l127 215q43 70 85.5 116t101 74.5t128.5 28.5h86v-168h-53q-121 0 -195 -131l-110 -193q-95 -166 -283 -202l666 -748h-242l-594 688v-688h-186z" />
<glyph unicode="&#x41b;" horiz-adv-x="1378" d="M20 -25v168h86q127 0 127 129v1162h986v-1434h-189v1266h-608v-1016q0 -132 -73 -203.5t-195 -71.5h-134z" />
<glyph unicode="&#x41c;" horiz-adv-x="1662" d="M160 0v1434h180l491 -1147l492 1147h180v-1434h-188v999l-412 -999h-143l-414 999v-999h-186z" />
<glyph unicode="&#x41d;" horiz-adv-x="1359" d="M160 0v1434h186v-637h668v637h186v-1434h-186v629h-668v-629h-186z" />
<glyph unicode="&#x41e;" horiz-adv-x="1644" d="M84 717q0 116 32.5 226.5t96 204.5t151.5 165.5t206.5 112t252.5 40.5q167 0 308.5 -62.5t234.5 -167t145 -239t52 -280.5q0 -116 -32.5 -226.5t-96.5 -205t-152 -166t-206.5 -112t-252.5 -40.5t-252.5 40.5t-206.5 112t-151.5 166t-96 205t-32.5 226.5zM279 717 q0 -112 38.5 -217t107 -186t172.5 -130t226 -49t226 49t172.5 130t106.5 185.5t38 217.5q0 153 -64.5 284.5t-190.5 214t-288 82.5q-122 0 -226 -48t-172.5 -129t-107 -185.5t-38.5 -218.5z" />
<glyph unicode="&#x41f;" horiz-adv-x="1363" d="M160 0v1434h1044v-1434h-186v1266h-672v-1266h-186z" />
<glyph unicode="&#x420;" horiz-adv-x="1220" d="M160 0v1434h504q145 0 258.5 -67.5t173 -178t59.5 -242.5q0 -133 -59.5 -243.5t-173 -178t-258.5 -67.5h-318v-457h-186zM346 627h318q136 0 220.5 92.5t84.5 226.5q0 133 -84.5 226.5t-220.5 93.5h-318v-639z" />
<glyph unicode="&#x421;" horiz-adv-x="1587" d="M84 719q0 116 32 226t94.5 204t149 165t202.5 111.5t247 40.5q152 0 276 -41t209 -114.5t138.5 -169t74.5 -209.5h-196q-35 163 -160.5 264.5t-319.5 101.5q-103 0 -193 -31t-155.5 -86t-113 -128t-71.5 -158t-24 -176q0 -119 39.5 -224.5t112.5 -185.5t185 -127t247 -47 q150 0 275.5 86t169.5 221h204q-56 -207 -238.5 -341t-432.5 -134q-171 0 -314.5 61t-238 164.5t-147 239.5t-52.5 287z" />
<glyph unicode="&#x422;" horiz-adv-x="978" d="M25 1266v168h929v-168h-372v-1266h-187v1266h-370z" />
<glyph unicode="&#x423;" horiz-adv-x="1210" d="M20 1434h218l419 -670l338 670h205l-721 -1434h-205l287 569z" />
<glyph unicode="&#x424;" horiz-adv-x="1574" d="M63 717q0 143 61 261.5t176 189.5t263 71h131v195h187v-195h131q111 0 205.5 -41.5t159 -112.5t100.5 -166.5t36 -201.5t-36 -201.5t-100.5 -166.5t-159 -112.5t-205.5 -41.5h-131v-195h-187v195h-131q-148 0 -263 71t-176 189.5t-61 261.5zM250 717q0 -151 87 -253 t226 -102h131v709h-131q-139 0 -226 -101.5t-87 -252.5zM881 362h131q139 0 226 102t87 253t-87 252.5t-226 101.5h-131v-709z" />
<glyph unicode="&#x425;" horiz-adv-x="1122" d="M20 0l435 717l-435 717h211l330 -555l330 555h213l-436 -717l436 -717h-213l-330 555l-330 -555h-211z" />
<glyph unicode="&#x426;" horiz-adv-x="1370" d="M160 0v1434h186v-1266h623v1266h186v-1266h184v-367h-168v199h-1011z" />
<glyph unicode="&#x427;" horiz-adv-x="1185" d="M80 915v519h186v-471q0 -161 82.5 -250.5t239.5 -89.5h252v811h186v-1434h-186v455h-287q-224 0 -348.5 128.5t-124.5 331.5z" />
<glyph unicode="&#x428;" horiz-adv-x="1861" d="M160 0v1434h186v-1266h492v1266h186v-1266h492v1266h186v-1434h-1542z" />
<glyph unicode="&#x429;" horiz-adv-x="1918" d="M160 0v1434h186v-1266h492v1266h186v-1266h492v1266h186v-1266h186v-367h-188v199h-1540z" />
<glyph unicode="&#x42a;" horiz-adv-x="1316" d="M25 1266v168h475v-615h346q175 0 289 -119t114 -290q0 -111 -50.5 -204.5t-144 -149.5t-210.5 -56h-531v1266h-288zM500 168h344q93 0 156 71.5t63 170.5q0 100 -62 170.5t-155 70.5h-346v-483z" />
<glyph unicode="&#x42b;" horiz-adv-x="1525" d="M160 0v1434h186v-615h309q175 0 289.5 -119.5t114.5 -289.5q0 -111 -51 -204.5t-144.5 -149.5t-210.5 -56h-493zM346 168h307q93 0 156 71.5t63 170.5q0 100 -62 170.5t-155 70.5h-309v-483zM1180 0v1434h186v-1434h-186z" />
<glyph unicode="&#x42c;" horiz-adv-x="1163" d="M160 0v1434h186v-615h346q175 0 289.5 -119.5t114.5 -289.5q0 -111 -51 -204.5t-144.5 -149.5t-210.5 -56h-530zM346 168h344q93 0 156 71.5t63 170.5q0 100 -62 170.5t-155 70.5h-346v-483z" />
<glyph unicode="&#x42d;" horiz-adv-x="1542" d="M82 442h205q41 -133 172.5 -220t285.5 -87q223 0 358 135.5t161 358.5h-711v170h711q-21 221 -153 360t-347 139q-197 0 -322.5 -101t-160.5 -265h-197q20 115 71.5 210t134.5 168.5t206.5 114.5t275.5 41q159 0 290 -59t217.5 -161t133.5 -237.5t47 -289.5 q0 -160 -48.5 -297.5t-138.5 -238.5t-226 -158.5t-302 -57.5q-247 0 -427 134t-236 341z" />
<glyph unicode="&#x42e;" horiz-adv-x="2199" d="M160 0v1434h186v-637h297q12 134 69 254.5t149 213t226 147t291 54.5q167 0 308.5 -62.5t234.5 -167t145 -239t52 -280.5q0 -116 -32.5 -226.5t-96.5 -205t-152 -166t-206.5 -112t-252.5 -40.5q-155 0 -287.5 53.5t-225 145t-150 210.5t-72.5 253h-297v-629h-186z M834 717q0 -112 38.5 -217t107 -186t172.5 -130t226 -49t226 49t172.5 130t106.5 185.5t38 217.5q0 153 -64.5 284.5t-190.5 214t-288 82.5q-122 0 -226 -48t-172.5 -129t-107 -185.5t-38.5 -218.5z" />
<glyph unicode="&#x42f;" horiz-adv-x="1241" d="M84 946q0 98 35.5 186.5t98.5 155.5t156.5 106.5t203.5 39.5h503v-1434h-188v457h-293l-285 -457h-215l303 487q-146 49 -232.5 175t-86.5 284zM272 946q0 -134 85 -226.5t221 -92.5h315v639h-315q-136 0 -221 -93.5t-85 -226.5z" />
<glyph unicode="&#x430;" horiz-adv-x="1222" d="M84 465q0 132 59 243t169 178.5t249 67.5q104 0 193 -49.5t133 -134.5v160h176v-930h-176v162q-44 -85 -133 -135t-193 -50q-139 0 -249 67.5t-169 178.5t-59 242zM260 465q0 -137 86.5 -232.5t224.5 -95.5q139 0 227.5 95.5t88.5 232.5t-88.5 233.5t-227.5 96.5 q-138 0 -224.5 -96.5t-86.5 -233.5z" />
<glyph unicode="&#x431;" horiz-adv-x="1181" d="M104 653q0 410 201 611q95 91 216.5 130.5t285.5 39.5h186v-172h-235q-231 0 -344 -121q-138 -150 -148 -451q24 83 83 144t134 90.5t156 29.5q140 0 245.5 -67.5t158.5 -177.5t53 -244q0 -131 -59.5 -242t-171 -178.5t-251.5 -67.5q-170 0 -285.5 84.5t-170 234 t-54.5 357.5zM291 465q0 -139 86 -233.5t227 -94.5q138 0 226 95.5t88 232.5t-88 233.5t-226 96.5q-142 0 -227.5 -93t-85.5 -237z" />
<glyph unicode="&#x432;" horiz-adv-x="995" d="M160 0v930h430q68 0 121.5 -15.5t85.5 -40t52.5 -57.5t28 -64.5t7.5 -64.5q0 -81 -60 -139.5t-149 -69.5q95 -5 160 -65.5t65 -159.5q0 -33 -9 -66t-32.5 -67.5t-58.5 -60.5t-92 -43t-129 -17h-420zM334 127h250q59 0 99 40.5t40 98.5t-40 102t-99 44h-250v-285zM334 539 h244q58 0 93.5 37.5t35.5 93.5q0 57 -36.5 95t-95.5 38h-241v-264z" />
<glyph unicode="&#x433;" horiz-adv-x="729" d="M160 0v930h559v-150h-381v-780h-178z" />
<glyph unicode="&#x434;" horiz-adv-x="1130" d="M23 141h32q113 0 172.5 84t59.5 230v475h686v-789h94v-354h-160v213h-725v-213h-159v354zM305 141h502v650h-354v-304q0 -280 -148 -346z" />
<glyph unicode="&#x435;" horiz-adv-x="1073" d="M88 465q0 217 120.5 353t336.5 136q181 0 306.5 -120.5t125.5 -298.5q0 -66 -8 -117h-705q5 -129 74 -210t213 -81q178 0 235 147h181q-21 -123 -134.5 -210t-281.5 -87q-113 0 -203 38.5t-146 105.5t-85 154.5t-29 189.5zM264 553h539q0 121 -73.5 192.5t-188.5 71.5 q-123 0 -198 -69t-79 -195z" />
<glyph unicode="&#x436;" horiz-adv-x="1368" d="M29 0l432 481q-143 10 -201 123l-53 98q-52 93 -121 93h-51v145h76q70 0 123 -31.5t98 -109.5l88 -156q34 -58 65.5 -82t83.5 -24h31v393h168v-393h31q52 0 83.5 24t65.5 82l86 156q45 78 98 109.5t123 31.5h78v-145h-51q-69 0 -121 -93l-53 -98q-61 -113 -201 -123 l432 -481h-204l-367 438v-438h-168v438l-367 -438h-204z" />
<glyph unicode="&#x437;" horiz-adv-x="878" d="M68 276h172q0 -71 52 -112t148 -41q80 0 128 34.5t48 98.5q0 68 -47.5 107.5t-138.5 39.5h-100v127h90q91 0 134.5 38.5t43.5 107.5q0 61 -45.5 98t-122.5 37q-89 0 -132.5 -40t-43.5 -109h-172q0 131 95.5 211.5t254.5 80.5q152 0 244 -71t92 -185q0 -94 -52 -150.5 t-143 -70.5q95 -11 154 -70.5t59 -156.5q0 -124 -103.5 -198.5t-254.5 -74.5q-170 0 -265 81t-95 218z" />
<glyph unicode="&#x438;" horiz-adv-x="1155" d="M160 0v930h178v-654l481 576v78h176v-930h-176v647l-481 -571v-76h-178z" />
<glyph unicode="&#x439;" horiz-adv-x="1155" d="M160 0v930h178v-654l481 576v78h176v-930h-176v647l-481 -571v-76h-178zM199 1434h168q21 -79 79.5 -124.5t143.5 -45.5q86 0 143.5 45t81.5 125h166q-25 -135 -133.5 -222.5t-257.5 -87.5t-257.5 87.5t-133.5 222.5z" />
<glyph unicode="&#x43a;" horiz-adv-x="1011" d="M160 0v930h178v-400h29q41 0 75.5 25t71.5 82l121 176q45 68 93 97.5t118 29.5h94v-145h-55q-41 0 -69.5 -16.5t-57.5 -57.5l-76 -115q-41 -62 -86.5 -88t-103.5 -33l471 -485h-215l-410 432v-432h-178z" />
<glyph unicode="&#x43b;" horiz-adv-x="1148" d="M37 -18v159h49q54 0 80.5 22.5t26.5 84.5v682h796v-930h-178v780h-440v-551q0 -123 -66.5 -185t-181.5 -62h-86z" />
<glyph unicode="&#x43c;" horiz-adv-x="1435" d="M160 0v930h260l299 -690l299 690h258v-930h-162v778l-336 -778h-121l-335 778v-778h-162z" />
<glyph unicode="&#x43d;" horiz-adv-x="1167" d="M160 0v930h178v-385h493v385h177v-930h-177v395h-493v-395h-178z" />
<glyph unicode="&#x43e;" horiz-adv-x="1146" d="M84 465q0 132 59.5 243t172 178.5t255.5 67.5q145 0 259 -67.5t173.5 -178t59.5 -243.5q0 -98 -35.5 -186.5t-98 -155.5t-156 -106.5t-202.5 -39.5q-108 0 -200 39.5t-154.5 106t-97.5 155.5t-35 187zM260 465q0 -137 86.5 -232.5t224.5 -95.5q139 0 227.5 95.5 t88.5 232.5t-88.5 233.5t-227.5 96.5q-138 0 -224.5 -96.5t-86.5 -233.5z" />
<glyph unicode="&#x43f;" horiz-adv-x="1161" d="M160 0v930h841v-930h-178v780h-485v-780h-178z" />
<glyph unicode="&#x440;" horiz-adv-x="1226" d="M160 -504v1434h178v-160q44 85 132 134.5t192 49.5q140 0 250.5 -67.5t169.5 -178.5t59 -243q0 -131 -59 -242t-169.5 -178.5t-250.5 -67.5q-104 0 -192 50t-132 135v-666h-178zM338 465q0 -137 88 -232.5t227 -95.5q136 0 223 95.5t87 232.5t-87 233.5t-223 96.5 q-139 0 -227 -96.5t-88 -233.5z" />
<glyph unicode="&#x441;" horiz-adv-x="1083" d="M88 465q0 96 30.5 183t87 156t146 109.5t199.5 40.5q108 0 192.5 -30.5t135 -83.5t78.5 -115t34 -133h-178q-25 203 -258 203q-136 0 -212.5 -96t-76.5 -234q0 -90 30.5 -162.5t100 -119t168.5 -46.5q111 0 168 45.5t82 136.5h178q-21 -151 -134.5 -246.5t-305.5 -95.5 q-110 0 -200 40.5t-147 109t-87.5 155.5t-30.5 183z" />
<glyph unicode="&#x442;" horiz-adv-x="786" d="M27 780v150h735v-150h-281v-780h-178v780h-276z" />
<glyph unicode="&#x443;" horiz-adv-x="1173" d="M143 -121h181q7 -126 73 -189t185 -63q127 0 193.5 62.5t66.5 214.5v262q-42 -88 -126 -138.5t-200 -50.5q-194 0 -283 119q-38 54 -53.5 120t-15.5 171v543h178v-488q0 -147 54 -227t184 -80q127 0 194.5 91t67.5 227v477h178v-1026q0 -220 -111 -324t-331 -104 q-202 0 -316.5 102t-118.5 301z" />
<glyph unicode="&#x444;" horiz-adv-x="1269" d="M84 465q0 195 133 335t340 152v482h156v-482q208 -12 341.5 -152t133.5 -335t-133.5 -335.5t-341.5 -152.5v-479h-154v479q-208 12 -341.5 152.5t-133.5 335.5zM256 465q0 -140 81.5 -239t221.5 -99l-2 676q-140 -7 -220.5 -102.5t-80.5 -235.5zM713 127q137 0 219 99.5 t82 238.5q0 140 -81 235.5t-220 102.5v-676z" />
<glyph unicode="&#x445;" horiz-adv-x="901" d="M33 0l315 469l-311 461h205l209 -324l208 324h205l-311 -461l315 -469h-204l-213 330l-213 -330h-205z" />
<glyph unicode="&#x446;" horiz-adv-x="1200" d="M160 0v930h178v-780h471v780h178v-780h152v-318h-176v168h-803z" />
<glyph unicode="&#x447;" horiz-adv-x="978" d="M88 602v328h178v-324q0 -172 174 -172h201v496h178v-930h-178v285h-227q-158 0 -242 79.5t-84 237.5z" />
<glyph unicode="&#x448;" horiz-adv-x="1609" d="M160 0v930h178v-780h379v780h178v-780h377v780h178v-930h-1290z" />
<glyph unicode="&#x449;" horiz-adv-x="1665" d="M160 0v930h178v-780h379v780h178v-780h377v780h178v-780h154v-318h-177v168h-1267z" />
<glyph unicode="&#x44a;" horiz-adv-x="1011" d="M33 780v150h348v-322h250q138 0 216.5 -86.5t78.5 -218.5q0 -128 -80 -215.5t-217 -87.5h-416v780h-180zM381 143h217q76 0 120 45t44 115q0 73 -42.5 117.5t-119.5 44.5h-219v-322z" />
<glyph unicode="&#x44b;" horiz-adv-x="1316" d="M160 0v930h168v-322h250q137 0 214.5 -86.5t77.5 -218.5q0 -129 -79 -216t-216 -87h-415zM328 143h217q76 0 119 45t43 115q0 74 -42 118t-118 44h-219v-322zM981 0v930h176v-930h-176z" />
<glyph unicode="&#x44c;" horiz-adv-x="958" d="M160 0v930h168v-322h250q137 0 214.5 -86.5t77.5 -218.5q0 -129 -79 -216t-216 -87h-415zM328 143h217q76 0 119 45t43 115q0 74 -42 118t-118 44h-219v-322z" />
<glyph unicode="&#x44d;" horiz-adv-x="1095" d="M90 319h178q14 -83 83 -132.5t192 -49.5q134 0 204.5 69.5t81.5 190.5h-391v135h391q-8 117 -80.5 190t-205.5 73q-124 0 -192 -57t-81 -146h-176q5 154 124.5 258t316.5 104q117 0 210 -40.5t149.5 -110t86 -155.5t29.5 -183t-29.5 -183t-86 -155t-149.5 -109.5 t-210 -40.5q-197 0 -317 97.5t-128 244.5z" />
<glyph unicode="&#x44e;" horiz-adv-x="1544" d="M160 0v930h178v-389h149q26 176 157 294.5t325 118.5q146 0 260 -67.5t173.5 -178t59.5 -243.5q0 -132 -59.5 -242.5t-173.5 -178t-260 -67.5q-195 0 -325.5 117.5t-156.5 296.5h-149v-391h-178zM659 465q0 -137 87 -232.5t223 -95.5q139 0 227 95.5t88 232.5t-88 233.5 t-227 96.5q-136 0 -223 -96.5t-87 -233.5z" />
<glyph unicode="&#x44f;" horiz-adv-x="1032" d="M68 616q0 133 89.5 223.5t233.5 90.5h481v-930h-174v301h-225l-190 -301h-207l215 319q-98 24 -160.5 110t-62.5 187zM248 616q0 -70 49 -118.5t131 -48.5h270v335h-270q-82 0 -131 -49t-49 -119z" />
<glyph unicode="&#x451;" horiz-adv-x="1073" d="M88 465q0 217 120.5 353t336.5 136q181 0 306.5 -120.5t125.5 -298.5q0 -66 -8 -117h-705q5 -129 74 -210t213 -81q178 0 235 147h181q-21 -123 -134.5 -210t-281.5 -87q-113 0 -203 38.5t-146 105.5t-85 154.5t-29 189.5zM172 1247q0 61 41.5 103.5t101.5 42.5 t102 -42.5t42 -103.5q0 -60 -42 -100.5t-102 -40.5t-101.5 40.5t-41.5 100.5zM264 553h539q0 121 -73.5 192.5t-188.5 71.5q-121 0 -197 -69.5t-80 -194.5zM643 1247q0 62 40.5 104t100.5 42q62 0 104 -42.5t42 -103.5q0 -60 -42 -100.5t-104 -40.5q-60 0 -100.5 40.5 t-40.5 100.5z" />
<glyph unicode="&#x452;" horiz-adv-x="1212" d="M41 1090v120h172v224h178v-224h242v-120h-242v-324q42 88 127.5 138t200.5 50q192 0 280 -123q37 -55 53.5 -120t16.5 -162v-799q0 -123 -69.5 -196.5t-186.5 -73.5q-125 0 -137 6v152q18 -9 106 -9q51 0 80 32t29 89v744q0 139 -56 221t-178 82q-86 0 -148 -46 t-90 -116.5t-28 -155.5v-479h-178v1090h-172z" />
<glyph unicode="&#x453;" horiz-adv-x="729" d="M139 1169l510 281l84 -139l-510 -281zM160 0v930h559v-150h-381v-780h-178z" />
<glyph unicode="&#x454;" horiz-adv-x="1103" d="M86 465q0 97 29.5 183t86 155.5t149.5 110t210 40.5q198 0 316.5 -103.5t126.5 -258.5h-179q-13 89 -80.5 146t-191.5 57q-133 0 -206 -73t-81 -190h391v-135h-391q8 -120 80 -190t207 -70q123 0 191.5 49.5t82.5 132.5h179q-8 -147 -128 -244.5t-317 -97.5 q-117 0 -210 40.5t-149.5 109.5t-86 155t-29.5 183z" />
<glyph unicode="&#x455;" horiz-adv-x="925" d="M82 313h174q0 -100 59.5 -147t159.5 -47q187 0 187 133q0 25 -10 45t-24.5 32.5t-45.5 26t-56.5 22t-75 24t-85.5 28.5q-50 15 -81.5 27t-67.5 33t-56 46t-33.5 63t-13.5 87q0 126 97.5 197t248.5 71q154 0 256 -87.5t102 -225.5h-172q0 82 -48 126t-140 44 q-76 0 -124 -34t-48 -95q0 -40 30.5 -68t64 -40.5t125.5 -40.5q10 -3 16 -5l15 -5t17 -5q38 -12 60.5 -19t56 -21t53 -26.5t43 -32.5t36 -42.5t21 -53.5t8.5 -67q0 -135 -101 -207t-263 -72q-105 0 -190.5 36t-140 114t-54.5 186z" />
<glyph unicode="&#x456;" horiz-adv-x="497" d="M106 1282q0 60 41 102.5t101 42.5t102.5 -42.5t42.5 -102.5t-42.5 -100.5t-102.5 -40.5t-101 40.5t-41 100.5zM160 0v930h178v-930h-178z" />
<glyph unicode="&#x457;" horiz-adv-x="497" d="M-70 1282q0 60 41 102.5t101 42.5q61 0 103 -42.5t42 -102.5t-41.5 -100.5t-103.5 -40.5q-60 0 -101 40.5t-41 100.5zM160 0v930h178v-930h-178zM283 1282q0 60 40.5 102.5t100.5 42.5q61 0 103 -42.5t42 -102.5t-41.5 -100.5t-103.5 -40.5q-60 0 -100.5 40.5 t-40.5 100.5z" />
<glyph unicode="&#x458;" horiz-adv-x="497" d="M-25 -340q52 -12 91 -12q94 0 94 129v1153h178v-1180q0 -142 -61 -207t-156 -65q-93 0 -146 24v158zM106 1282q0 60 41 102.5t101 42.5q61 0 103 -42.5t42 -102.5t-41.5 -100.5t-103.5 -40.5q-60 0 -101 40.5t-41 100.5z" />
<glyph unicode="&#x459;" horiz-adv-x="1638" d="M53 -18v159h53q103 0 103 95v694h799v-322h249q128 0 211.5 -88t83.5 -217q0 -125 -84.5 -214t-212.5 -89h-426v780h-442v-565q0 -114 -65 -173.5t-177 -59.5h-92zM1008 143h217q71 0 117.5 46.5t46.5 113.5t-45.5 114.5t-116.5 47.5h-219v-322z" />
<glyph unicode="&#x45a;" horiz-adv-x="1613" d="M160 0v930h178v-322h467v322h178v-322h250q128 0 211.5 -88t83.5 -217q0 -125 -84.5 -214t-212.5 -89h-426v465h-467v-465h-178zM983 143h217q71 0 117.5 46.5t46.5 113.5t-45.5 114.5t-116.5 47.5h-219v-322z" />
<glyph unicode="&#x45b;" horiz-adv-x="1212" d="M41 1090v120h172v224h178v-224h242v-120h-242v-324q42 88 127.5 138t200.5 50q192 0 280 -123q37 -55 53.5 -120t16.5 -162v-549h-178v494q0 139 -56 221t-178 82q-86 0 -148 -46t-90 -116.5t-28 -155.5v-479h-178v1090h-172z" />
<glyph unicode="&#x45c;" horiz-adv-x="1011" d="M160 0v930h178v-400h29q41 0 75.5 25t71.5 82l121 176q45 68 93 97.5t118 29.5h94v-145h-55q-41 0 -69.5 -16.5t-57.5 -57.5l-76 -115q-41 -62 -86.5 -88t-103.5 -33l471 -485h-215l-410 432v-432h-178zM262 1169l510 281l86 -139l-510 -281z" />
<glyph unicode="&#x45e;" horiz-adv-x="1173" d="M143 -121h181q7 -126 73 -189t185 -63q127 0 193.5 62.5t66.5 214.5v262q-42 -88 -126 -138.5t-200 -50.5q-194 0 -283 119q-38 54 -53.5 120t-15.5 171v543h178v-488q0 -147 54 -227t184 -80q127 0 194.5 91t67.5 227v477h178v-1026q0 -220 -111 -324t-331 -104 q-202 0 -316.5 102t-118.5 301zM201 1434h168q21 -79 79.5 -124.5t143.5 -45.5q86 0 143.5 45t81.5 125h166q-25 -135 -133.5 -222.5t-257.5 -87.5t-257.5 87.5t-133.5 222.5z" />
<glyph unicode="&#x45f;" horiz-adv-x="1175" d="M160 0v930h178v-780h500v780h178v-930h-348v-168h-160v168h-348z" />
<glyph unicode="&#x462;" horiz-adv-x="1202" d="M25 1274v160h716v-160h-354v-455h346q175 0 289.5 -119.5t114.5 -289.5t-115.5 -290t-292.5 -120h-528v1274h-176zM387 168h342q95 0 158 71t63 171t-62 170.5t-155 70.5h-346v-483z" />
<glyph unicode="&#x463;" horiz-adv-x="976" d="M41 993v121h137v322h168v-322h229v-121h-229v-385h250q137 0 215 -86.5t78 -218.5q0 -129 -79 -216t-216 -87h-416v993h-137zM346 143h217q76 0 119 45t43 115q0 74 -42 118t-118 44h-219v-322z" />
<glyph unicode="&#x472;" horiz-adv-x="1644" d="M84 717q0 116 32.5 226.5t96 204.5t151.5 165.5t206.5 112t252.5 40.5q167 0 308.5 -62.5t234.5 -167t145 -239t52 -280.5q0 -116 -32.5 -226.5t-96.5 -205t-152 -166t-206.5 -112t-252.5 -40.5t-252.5 40.5t-206.5 112t-151.5 166t-96 205t-32.5 226.5zM283 657 q12 -140 78.5 -257.5t187.5 -191t274 -73.5q152 0 272 73.5t186.5 190.5t80.5 258h-1079zM283 778h1079q-14 142 -80.5 258.5t-186.5 189t-272 72.5t-272.5 -72.5t-188 -189.5t-79.5 -258z" />
<glyph unicode="&#x473;" horiz-adv-x="1146" d="M84 465q0 132 59.5 243t172 178.5t255.5 67.5q145 0 259 -67.5t173.5 -178t59.5 -243.5q0 -98 -35.5 -186.5t-98 -155.5t-156 -106.5t-202.5 -39.5q-108 0 -200 39.5t-154.5 106t-97.5 155.5t-35 187zM266 406q18 -119 99.5 -194t205.5 -75q126 0 208.5 75t101.5 194 h-615zM266 524h615q-21 119 -103 195t-207 76q-123 0 -205 -76t-100 -195z" />
<glyph unicode="&#x474;" horiz-adv-x="1249" d="M8 1434h197l373 -1127l303 907q41 127 104 178.5t174 51.5h78v-168h-47q-57 0 -93 -25.5t-63 -101.5l-389 -1149h-135z" />
<glyph unicode="&#x475;" horiz-adv-x="1052" d="M8 930h193l291 -676l204 463q52 122 109 172.5t160 50.5h77v-168h-43q-54 0 -85 -25t-66 -100l-295 -647h-123z" />
<glyph unicode="&#x48a;" horiz-adv-x="1384" d="M160 0v1434h186v-1063l666 966v97h186v-1266h139v-367h-186v199h-139v1063l-666 -967v-96h-186zM295 1896h168q20 -80 79.5 -125t149.5 -45q87 0 147.5 45t80.5 125h167q-25 -135 -134.5 -222t-260.5 -87q-154 0 -263 86.5t-134 222.5z" />
<glyph unicode="&#x48b;" horiz-adv-x="1179" d="M160 0v930h178v-654l481 576v78h176v-780h154v-318h-176v168h-154v647l-481 -571v-76h-178zM199 1434h168q21 -79 79.5 -124.5t143.5 -45.5q86 0 143.5 45t81.5 125h166q-25 -135 -133.5 -222.5t-257.5 -87.5t-257.5 87.5t-133.5 222.5z" />
<glyph unicode="&#x48c;" horiz-adv-x="1181" d="M41 1090v143h137v201h187v-201h333v-143h-333v-271h346q175 0 289 -119t114 -290q0 -111 -50.5 -204.5t-144 -149.5t-210.5 -56h-531v1090h-137zM365 168h344q93 0 156 71.5t63 170.5q0 100 -62 170.5t-155 70.5h-346v-483z" />
<glyph unicode="&#x48d;" horiz-adv-x="972" d="M45 711v120h129v99h166v-99h240v-120h-240v-103h252q137 0 215 -86.5t78 -218.5q0 -129 -79 -216t-216 -87h-416v711h-129zM340 143h219q76 0 119 45t43 115q0 74 -42 118t-118 44h-221v-322z" />
<glyph unicode="&#x48e;" horiz-adv-x="1220" d="M160 0v1434h504q145 0 258.5 -67.5t173 -178t59.5 -242.5q0 -129 -56.5 -236t-160.5 -173l135 -131l-86 -87l-164 162q-84 -24 -159 -24h-318v-457h-186zM346 627h305q19 0 25 2l-131 131l86 86l178 -182q75 41 117.5 115.5t42.5 166.5q0 133 -84.5 226.5t-220.5 93.5 h-318v-639z" />
<glyph unicode="&#x48f;" horiz-adv-x="1230" d="M160 -504v1434h178v-160q44 85 132 134.5t192 49.5q140 0 250.5 -67.5t169.5 -178.5t59 -243q0 -210 -142 -352l134 -131l-86 -86l-146 145q-104 -64 -239 -64q-104 0 -192 50t-132 135v-666h-178zM338 465q0 -137 88 -232.5t227 -95.5q60 0 123 29l-145 143l86 86 l162 -162q84 96 84 232q0 137 -87 233.5t-223 96.5q-139 0 -227 -96.5t-88 -233.5z" />
<glyph unicode="&#x490;" horiz-adv-x="972" d="M160 0v1434h637v186h168v-354h-619v-1266h-186z" />
<glyph unicode="&#x491;" horiz-adv-x="768" d="M160 0v930h440v164h158v-314h-420v-780h-178z" />
<glyph unicode="&#x492;" horiz-adv-x="1073" d="M123 748v145h137v541h805v-168h-619v-373h211v-145h-211v-748h-186v748h-137z" />
<glyph unicode="&#x493;" horiz-adv-x="729" d="M33 436v121h125v373h561v-150h-383v-223h205v-121h-205v-436h-178v436h-125z" />
<glyph unicode="&#x494;" horiz-adv-x="1179" d="M160 0v1434h567v-168h-381v-500q42 88 128.5 138t203.5 50q198 0 283 -123q39 -55 56 -120t17 -162v-799q0 -123 -69.5 -196.5t-186.5 -73.5q-133 0 -145 6v170q3 -3 46 -5.5t58 -2.5q51 0 81 32.5t30 88.5v725q0 139 -56 221t-180 82q-85 0 -147 -46t-90.5 -116.5 t-28.5 -155.5v-479h-186z" />
<glyph unicode="&#x495;" horiz-adv-x="1036" d="M160 0v930h178v-469q32 82 98 130t156 48q167 0 244 -119q36 -54 51.5 -119.5t15.5 -164.5v-486q0 -123 -69.5 -196.5t-186.5 -73.5q-127 0 -137 6v152q18 -9 106 -9q51 0 80 32t29 89v475q0 256 -180 256q-100 0 -153.5 -74.5t-53.5 -183.5v-223h-178z" />
<glyph unicode="&#x496;" horiz-adv-x="1785" d="M14 0l613 741q-168 34 -260 213l-97 183q-41 73 -85.5 105t-100.5 32h-51v168h76q102 0 176 -59.5t135 -168.5l119 -219q50 -93 104.5 -136.5t122.5 -43.5h35v619h180v-619h35q68 0 121.5 43t105.5 137l119 219q123 228 311 228h76v-168h-51q-56 0 -101 -32.5t-86 -104.5 l-96 -183q-92 -179 -260 -213l612 -741v-199h-170v199h-71l-545 690v-690h-180v690l-547 -690h-240z" />
<glyph unicode="&#x497;" horiz-adv-x="1368" d="M29 0l432 481q-143 10 -201 123l-53 98q-52 93 -121 93h-51v145h76q70 0 123 -31.5t98 -109.5l88 -156q34 -58 65.5 -82t83.5 -24h31v393h168v-393h31q52 0 83.5 24t65.5 82l86 156q45 78 98 109.5t123 31.5h78v-145h-51q-69 0 -121 -93l-53 -98q-61 -113 -201 -123 l432 -481v-168h-129v168h-75l-367 438v-438h-168v438l-367 -438h-204z" />
<glyph unicode="&#x498;" horiz-adv-x="1173" d="M88 453h186q0 -139 91 -224.5t225 -85.5q131 0 206.5 74t75.5 184q0 252 -307 252h-94v166h96q144 0 213.5 67.5t69.5 170.5q0 100 -74 166.5t-196 66.5q-131 0 -214 -70t-83 -192h-187q0 192 137.5 311t356.5 119q126 0 225.5 -43t160 -132t60.5 -212t-68 -209.5 t-180 -111.5q119 -21 195 -115.5t76 -233.5q0 -175 -114.5 -289t-297.5 -132h-16v-115q34 37 98 37q65 0 111.5 -45.5t46.5 -120.5t-53 -130t-150 -55q-23 0 -50 6.5t-59 22.5t-57 50.5t-33 82.5h109q15 -65 90 -65q41 0 67.5 25t26.5 63t-25 63t-63 25q-60 0 -84 -47h-92 v203q-195 21 -310.5 144.5t-115.5 328.5z" />
<glyph unicode="&#x499;" horiz-adv-x="878" d="M68 276h172q0 -71 52 -112t148 -41q80 0 128 34.5t48 98.5q0 68 -47.5 107.5t-138.5 39.5h-100v127h90q91 0 134.5 38.5t43.5 107.5q0 61 -45.5 98t-122.5 37q-89 0 -132.5 -40t-43.5 -109h-172q0 131 95.5 211.5t254.5 80.5q152 0 244 -71t92 -185q0 -94 -52 -150.5 t-143 -70.5q95 -11 154 -70.5t59 -156.5q0 -113 -85 -184.5t-218 -83.5q-18 0 -24 2v-119q30 37 98 37q64 0 110 -45.5t46 -120.5t-53 -130t-150 -55q-22 0 -48.5 6.5t-59 22.5t-58 50.5t-33.5 82.5h109q21 -65 90 -65q42 0 68 24.5t26 63.5q0 38 -25 63t-63 25 q-58 0 -82 -47h-94v209q-130 20 -201 96.5t-71 193.5z" />
<glyph unicode="&#x49a;" horiz-adv-x="1220" d="M160 0v1434h186v-590h35q151 0 248 164l127 215q43 70 85.5 116t101 74.5t128.5 28.5h86v-168h-53q-121 0 -195 -131l-110 -193q-95 -166 -283 -202l666 -748v-199h-168v199h-74l-594 688v-688h-186z" />
<glyph unicode="&#x49b;" horiz-adv-x="1011" d="M160 0v930h178v-400h29q41 0 75.5 25t71.5 82l121 176q45 68 93 97.5t118 29.5h94v-145h-55q-41 0 -69.5 -16.5t-57.5 -57.5l-76 -115q-41 -62 -86.5 -88t-103.5 -33l471 -485v-168h-132v168h-83l-410 432v-432h-178z" />
<glyph unicode="&#x49c;" horiz-adv-x="1216" d="M160 0v1434h186v-607h55v306h41v-306h4q70 0 115 43t101 156l92 197q104 219 315 219h88v-168h-53q-136 0 -195 -131l-82 -176q-43 -96 -98 -149t-137 -70l590 -748h-242l-498 659v-262h-41v262h-55v-659h-186z" />
<glyph unicode="&#x49d;" horiz-adv-x="1011" d="M160 0v930h178v-400h37v195h37v-195h12q34 0 55 22t58 85l110 176q43 68 88 97.5t115 29.5h90v-145h-49q-42 0 -71 -16.5t-58 -57.5l-70 -115q-42 -65 -70.5 -90t-68.5 -31l410 -485h-215l-336 432v-209h-37v209h-37v-432h-178z" />
<glyph unicode="&#x49e;" horiz-adv-x="1234" d="M41 1110v129h137v195h187v-195h161v-129h-161v-266h34q151 0 248 164l127 215q65 107 139.5 163t176.5 56h86v-168h-54q-60 0 -107 -30t-87 -101l-111 -193q-96 -167 -282 -202l665 -748h-242l-593 688v-688h-187v1110h-137z" />
<glyph unicode="&#x49f;" horiz-adv-x="1005" d="M33 711v106h121v113h178v-113h133v-106h-133v-181h26q81 0 150 107l121 176q44 67 92 97t119 30h94v-145h-55q-41 0 -69.5 -16.5t-57.5 -57.5l-76 -115q-41 -62 -87 -88t-104 -33l469 -485h-215l-407 432v-432h-178v711h-121z" />
<glyph unicode="&#x4a0;" horiz-adv-x="1370" d="M27 1266v168h475v-590h33q150 0 247 164l129 215q62 106 137 162.5t179 56.5h86v-168h-56q-120 0 -194 -131l-111 -193q-91 -166 -282 -202l665 -748h-239l-594 688v-688h-187v1266h-288z" />
<glyph unicode="&#x4a1;" horiz-adv-x="1064" d="M33 780v150h358v-400h29q41 0 76 25t73 82l119 176q45 67 93.5 97t119.5 30h94v-145h-55q-42 0 -71 -16.5t-58 -57.5l-76 -115q-41 -62 -86.5 -88t-103.5 -33l471 -485h-215l-410 432v-432h-178v780h-180z" />
<glyph unicode="&#x4a2;" horiz-adv-x="1366" d="M160 0v1434h186v-637h668v637h186v-1266h105v-367h-187v199h-104v629h-668v-629h-186z" />
<glyph unicode="&#x4a3;" horiz-adv-x="1202" d="M160 0v930h178v-385h493v385h177v-780h127v-318h-177v168h-127v395h-493v-395h-178z" />
<glyph unicode="&#x4a4;" horiz-adv-x="1574" d="M160 0v1434h186v-637h668v637h534v-168h-348v-1266h-186v629h-668v-629h-186z" />
<glyph unicode="&#x4a5;" horiz-adv-x="1298" d="M160 0v930h178v-385h493v385h435v-150h-258v-780h-177v395h-493v-395h-178z" />
<glyph unicode="&#x4a6;" horiz-adv-x="1415" d="M160 0v1434h1044v-1266h150v-367h-187v199h-149v1266h-672v-1266h-186z" />
<glyph unicode="&#x4a7;" horiz-adv-x="1196" d="M160 0v930h841v-780h125v-318h-176v168h-127v780h-485v-780h-178z" />
<glyph unicode="&#x4a8;" horiz-adv-x="1675" d="M84 725q0 145 48 279t134 236.5t215.5 164t282.5 61.5v-168q-148 0 -260 -75.5t-168.5 -199.5t-56.5 -275q0 -163 62.5 -300.5t184.5 -223.5t281 -89q18 0 24 2v897q0 100 20.5 177t54 125t82 78t99.5 42t111 12q365 0 365 -426v-284q0 -178 -66.5 -336.5t-195.5 -274.5 t-300 -159v-217q0 -54 40.5 -87.5t101.5 -33.5q105 0 121 8v-170q-12 -6 -146 -6q-128 0 -207.5 74t-79.5 196v217h-24q-220 3 -386 106t-251.5 272.5t-85.5 377.5zM1001 172q114 40 199.5 130.5t129.5 208.5t44 247v309q0 111 -46.5 181.5t-133.5 70.5q-91 0 -142 -67 t-51 -181v-899z" />
<glyph unicode="&#x4a9;" horiz-adv-x="1150" d="M84 483q0 92 29 176t82.5 149t137.5 103.5t185 38.5v-162q-122 0 -190 -87t-68 -218q0 -144 79 -243t210 -103h14v531q0 284 250 284q254 0 254 -278v-191q0 -172 -97 -308t-261 -179v-256q0 -53 25 -82t67 -29q72 0 90 9v-152q-10 -6 -115 -6q-102 0 -157.5 70 t-55.5 190v235h-14q-140 3 -247.5 73.5t-162.5 184t-55 250.5zM709 172q92 43 145 129t53 191v157q0 70 -24.5 112t-75.5 42q-98 0 -98 -156v-475z" />
<glyph unicode="&#x4aa;" horiz-adv-x="1587" d="M84 719q0 116 32 226t94.5 204t149 165t202.5 111.5t247 40.5q152 0 276 -41t209 -114.5t138.5 -169t74.5 -209.5h-196q-35 163 -160.5 264.5t-319.5 101.5q-103 0 -193 -31t-155.5 -86t-113 -128t-71.5 -158t-24 -176q0 -119 39.5 -224.5t112.5 -185.5t185 -127t247 -47 q150 0 275.5 86t169.5 221h204q-54 -201 -228 -333.5t-415 -139.5h-16v-104q34 37 98 37q65 0 111.5 -45.5t46.5 -120.5t-53 -130t-150 -55q-23 0 -50 6.5t-59 22.5t-57 50.5t-33 82.5h109q15 -65 90 -65q41 0 67.5 25t26.5 63t-25 63t-63 25q-60 0 -84 -47h-92v196 q-198 24 -347 132t-224.5 267.5t-75.5 346.5z" />
<glyph unicode="&#x4ab;" horiz-adv-x="1083" d="M88 465q0 96 30.5 183t87 156t146 109.5t199.5 40.5q108 0 192.5 -30.5t135 -83.5t78.5 -115t34 -133h-178q-25 203 -258 203q-136 0 -212.5 -96t-76.5 -234q0 -90 30.5 -162.5t100 -119t168.5 -46.5q111 0 168 45.5t82 136.5h178q-25 -148 -126.5 -240t-282.5 -102 q-10 0 -13 3v-115q30 37 99 37q64 0 109.5 -45.5t45.5 -120.5t-52.5 -130t-149.5 -55q-22 0 -48.5 6.5t-59 22.5t-58 50.5t-33.5 82.5h108q21 -65 91 -65q42 0 68 24.5t26 63.5q0 38 -25 63t-63 25q-58 0 -82 -47h-94v209q-172 36 -268.5 169.5t-96.5 309.5z" />
<glyph unicode="&#x4ac;" horiz-adv-x="978" d="M25 1266v168h929v-168h-372v-1098h106v-367h-188v199h-105v1266h-370z" />
<glyph unicode="&#x4ad;" horiz-adv-x="786" d="M27 780v150h735v-150h-281v-630h125v-318h-176v168h-127v780h-276z" />
<glyph unicode="&#x4ae;" horiz-adv-x="1263" d="M20 1434h216l395 -672l397 672h217l-518 -850v-584h-188v582z" />
<glyph unicode="&#x4af;" horiz-adv-x="1024" d="M23 930h192l295 -682l299 682h192l-403 -873v-563h-178v563z" />
<glyph unicode="&#x4b0;" horiz-adv-x="1263" d="M20 1434h216l395 -672l397 672h217l-518 -850v-109h238v-143h-238v-332h-188v332h-240v143h240v107z" />
<glyph unicode="&#x4b1;" horiz-adv-x="1024" d="M23 930h192l295 -682l299 682h192l-403 -873v-96h184v-121h-184v-346h-178v346h-182v121h182v96z" />
<glyph unicode="&#x4b2;" horiz-adv-x="1122" d="M20 0l435 717l-435 717h211l330 -555l330 555h213l-436 -717l436 -717v-174h-129v174h-84l-330 555l-330 -555h-211z" />
<glyph unicode="&#x4b3;" horiz-adv-x="901" d="M33 0l315 469l-311 461h205l209 -324l208 324h205l-311 -461l315 -469v-168h-129v168h-75l-213 330l-213 -330h-205z" />
<glyph unicode="&#x4b4;" horiz-adv-x="1605" d="M27 1266v168h927v-168h-370v-1098h620v1266h187v-1266h184v-367h-168v199h-1012v1266h-368z" />
<glyph unicode="&#x4b5;" horiz-adv-x="1312" d="M33 780v150h659v-150h-241v-630h471v780h178v-780h151v-318h-176v168h-803v780h-239z" />
<glyph unicode="&#x4b6;" horiz-adv-x="1226" d="M70 915v519h186v-471q0 -161 82.5 -250.5t239.5 -89.5h251v811h187v-1266h149v-367h-186v199h-150v455h-286q-224 0 -348.5 128.5t-124.5 331.5z" />
<glyph unicode="&#x4b7;" horiz-adv-x="997" d="M72 602v328h178v-324q0 -172 176 -172h201v496h178v-780h125v-318h-176v168h-127v285h-228q-160 0 -243.5 79.5t-83.5 237.5z" />
<glyph unicode="&#x4b8;" horiz-adv-x="1185" d="M80 915v519h186v-471q0 -143 64.5 -229.5t193.5 -104.5v231h121v-237h195v811h186v-1434h-186v455h-195v-189h-121v189q-140 5 -242 68t-152 164t-50 228z" />
<glyph unicode="&#x4b9;" horiz-adv-x="993" d="M72 602v328h178v-324q0 -163 153 -172v211h95v-211h129v496h178v-930h-178v285h-129v-172h-95v172h-6q-157 0 -241 79.5t-84 237.5z" />
<glyph unicode="&#x4ba;" horiz-adv-x="1230" d="M160 0v1434h186v-451h287q213 0 333.5 -127t120.5 -328v-528h-186v481q0 159 -78 246.5t-225 87.5h-252v-815h-186z" />
<glyph unicode="&#x4bb;" d="M160 0v1434h178v-668q42 88 127 138t201 50q193 0 278 -123q39 -54 55.5 -119t16.5 -163v-549h-178v494q0 139 -56 221t-180 82q-126 0 -195 -92.5t-69 -225.5v-479h-178z" />
<glyph unicode="&#x4bc;" horiz-adv-x="1898" d="M18 924v104h166v-100q0 -61 32.5 -95t94.5 -34h76q12 142 66.5 263.5t145.5 212t225 142t296 51.5q147 0 277.5 -54.5t222 -147.5t144.5 -221t53 -271v-125h-1209q5 -84 25.5 -157t61 -137t98.5 -109.5t142 -72t187 -26.5q340 0 451 291h225q-22 -91 -79 -173 t-141 -147.5t-202.5 -104t-253.5 -38.5q-141 0 -259.5 36.5t-202 99.5t-143.5 149t-91.5 183.5t-38.5 205.5h-96q-127 0 -200 75.5t-73 199.5zM608 799h1012q0 221 -142 361t-366 140q-223 0 -363.5 -136t-140.5 -365z" />
<glyph unicode="&#x4bd;" horiz-adv-x="1294" d="M18 670v92h154v-90q0 -57 30 -88t89 -31h33q26 183 142.5 292t309.5 109q181 0 306.5 -120.5t125.5 -298.5q0 -66 -8 -117h-704q2 -61 18.5 -111.5t49.5 -92t88.5 -64.5t129.5 -23q179 0 236 147h180q-21 -123 -134.5 -210t-281.5 -87q-211 0 -329 122.5t-131 316.5 l-37 2q-123 0 -195 68t-72 184zM496 553h538q0 121 -73.5 192.5t-188.5 71.5q-123 0 -197.5 -69t-78.5 -195z" />
<glyph unicode="&#x4be;" horiz-adv-x="1898" d="M18 924v104h166v-100q0 -61 32.5 -95t94.5 -34h76q12 142 66.5 263.5t145.5 212t225 142t296 51.5q147 0 277.5 -54.5t222 -147.5t144.5 -221t53 -271v-125h-1209q5 -84 25.5 -157t61 -137t98.5 -109.5t142 -72t187 -26.5q340 0 451 291h225q-42 -186 -210 -318.5 t-414 -144.5q-66 -63 -66 -153q0 -52 31 -86.5t88 -34.5q62 0 131 27l-2 -131q-95 -31 -182 -31q-113 0 -174.5 56t-61.5 142q0 128 102 216q-150 12 -270.5 68.5t-201 146t-126.5 205t-55 249.5h-96q-127 0 -200 75.5t-73 199.5zM608 799h1012q0 221 -142 361t-366 140 q-223 0 -363.5 -136t-140.5 -365z" />
<glyph unicode="&#x4bf;" horiz-adv-x="1294" d="M18 670v92h154v-90q0 -57 30 -88t89 -31h33q26 183 142.5 292t309.5 109q181 0 306.5 -120.5t125.5 -298.5q0 -66 -8 -117h-704q2 -61 18.5 -111.5t49.5 -92t88.5 -64.5t129.5 -23q179 0 236 147h180q-21 -115 -122 -200t-249 -97q-36 -33 -59 -75.5t-23 -79.5 q0 -52 32 -86.5t87 -34.5q65 0 131 27l-2 -131q-95 -31 -182 -31q-113 0 -174.5 56t-61.5 142q0 54 34 113.5t91 106.5q-174 24 -269.5 141t-108.5 291l-37 2q-123 0 -195 68t-72 184zM496 553h538q0 121 -73.5 192.5t-188.5 71.5q-123 0 -197.5 -69t-78.5 -195z" />
<glyph unicode="&#x4c0;" horiz-adv-x="512" d="M160 0v1434h192v-1434h-192z" />
<glyph unicode="&#x4c3;" horiz-adv-x="1259" d="M160 0v1434h186v-619h47q72 0 117 35.5t102 138.5l136 236q62 106 137.5 162.5t179.5 56.5h88v-170h-53q-127 0 -199 -129l-119 -211q-24 -44 -61 -78.5t-68 -40.5h31q188 -15 279 -106q94 -91 94 -279v-680q0 -122 -79.5 -196t-207.5 -74q-133 0 -145 6v170 q5 -3 47 -5.5t59 -2.5q61 0 100 33t39 88v600q0 154 -72 247t-210 93h-242v-709h-186z" />
<glyph unicode="&#x4c4;" horiz-adv-x="1069" d="M160 0v930h178v-408h33q36 0 68.5 27t76.5 88l119 176q45 67 93.5 97t119.5 30h100v-145h-61q-42 0 -71 -16.5t-58 -57.5l-70 -107q-44 -66 -113 -92h21q153 -14 238 -123q36 -47 49.5 -108.5t13.5 -159.5v-381q0 -123 -76 -196.5t-203 -73.5q-125 0 -137 6v152 q18 -9 107 -9q62 0 97.5 32t35.5 89v424q0 238 -211 238h-172v-412h-178z" />
<glyph unicode="&#x4c5;" horiz-adv-x="1406" d="M20 -25v168h86q127 0 127 129v1162h986v-1266h124l-139 -367h-186l76 199h-64v1266h-608v-1016q0 -132 -73 -203.5t-195 -71.5h-134z" />
<glyph unicode="&#x4c6;" horiz-adv-x="1159" d="M37 -18v159h49q54 0 80.5 22.5t26.5 84.5v682h796v-762h92l-137 -361h-172l74 193h-35v780h-440v-551q0 -123 -66.5 -185t-181.5 -62h-86z" />
<glyph unicode="&#x4c7;" horiz-adv-x="1349" d="M160 0v1434h186v-637h668v637h186v-1684q0 -123 -69.5 -196.5t-186.5 -73.5q-133 0 -145 6v170q3 -3 46 -5.5t58 -2.5q51 0 81 33t30 90v858h-668v-629h-186z" />
<glyph unicode="&#x4c8;" horiz-adv-x="1159" d="M160 0v930h178v-385h493v385h177v-1180q0 -142 -56.5 -207t-144.5 -65q-103 0 -160 24v150q50 -17 90 -17q94 0 94 125v635h-493v-395h-178z" />
<glyph unicode="&#x4c9;" horiz-adv-x="1378" d="M160 0v1434h186v-637h668v637h186v-1266h127l-139 -367h-189l76 199h-61v629h-668v-629h-186z" />
<glyph unicode="&#x4ca;" horiz-adv-x="1185" d="M168 0v930h178v-385h492v385h178v-762h92l-135 -361h-172l71 193h-34v395h-492v-395h-178z" />
<glyph unicode="&#x4cb;" horiz-adv-x="1185" d="M80 915v519h186v-471q0 -161 82.5 -250.5t239.5 -89.5h252v811h186v-1434h-106v-199h-187v367h107v287h-287q-224 0 -348.5 128.5t-124.5 331.5z" />
<glyph unicode="&#x4cc;" horiz-adv-x="991" d="M68 602v328h176v-324q0 -172 176 -172h201v496h178v-780h125v-318h-176v168h-127v285h-228q-160 0 -242.5 79.5t-82.5 237.5z" />
<glyph unicode="&#x4cd;" horiz-adv-x="1691" d="M160 0v1434h180l491 -1147l492 1147h180v-1266h125l-139 -367h-186l75 199h-63v999l-412 -999h-143l-414 999v-999h-186z" />
<glyph unicode="&#x4ce;" horiz-adv-x="1466" d="M160 0v930h258l309 -692l309 692h258v-762h95l-138 -361h-155l71 193h-34v774l-345 -774h-120l-346 774v-774h-162z" />
<glyph unicode="&#x4d0;" horiz-adv-x="1144" d="M10 0l494 1434h135l496 -1434h-197l-76 219h-581l-74 -219h-197zM176 1896h168q24 -81 82 -125.5t147 -44.5t147.5 44.5t82.5 125.5h166q-25 -135 -135 -222t-261 -87q-152 0 -262 87t-135 222zM338 389h467l-232 739z" />
<glyph unicode="&#x4d1;" horiz-adv-x="1222" d="M84 465q0 132 59 243t169 178.5t249 67.5q104 0 193 -49.5t133 -134.5v160h176v-930h-176v162q-44 -85 -133 -135t-193 -50q-139 0 -249 67.5t-169 178.5t-59 242zM178 1434h166q24 -80 81.5 -125t143.5 -45q85 0 144.5 45.5t79.5 124.5h168q-25 -134 -135 -222t-257 -88 q-151 0 -258.5 87t-132.5 223zM260 465q0 -137 86.5 -232.5t224.5 -95.5q139 0 227.5 95.5t88.5 232.5t-88.5 233.5t-227.5 96.5q-138 0 -224.5 -96.5t-86.5 -233.5z" />
<glyph unicode="&#x4d2;" horiz-adv-x="1144" d="M10 0l494 1434h135l496 -1434h-197l-76 219h-581l-74 -219h-197zM197 1726q0 60 40.5 103t100.5 43t102.5 -43t42.5 -103t-42.5 -100.5t-102.5 -40.5t-100.5 40.5t-40.5 100.5zM338 389h467l-232 739zM666 1726q0 60 41.5 103t101.5 43t101.5 -43t41.5 -103t-41.5 -100.5 t-101.5 -40.5t-101.5 40.5t-41.5 100.5z" />
<glyph unicode="&#x4d3;" horiz-adv-x="1222" d="M84 465q0 132 59 243t169 178.5t249 67.5q104 0 193 -49.5t133 -134.5v160h176v-930h-176v162q-44 -85 -133 -135t-193 -50q-139 0 -249 67.5t-169 178.5t-59 242zM190 1249q0 60 42 102t102 42t101.5 -42t41.5 -102t-41.5 -101.5t-101.5 -41.5t-102 41.5t-42 101.5z M260 465q0 -137 86.5 -232.5t224.5 -95.5q139 0 227.5 95.5t88.5 232.5t-88.5 233.5t-227.5 96.5q-138 0 -224.5 -96.5t-86.5 -233.5zM662 1249q0 60 40.5 102t100.5 42q61 0 103 -42t42 -102t-42 -101.5t-103 -41.5q-60 0 -100.5 41.5t-40.5 101.5z" />
<glyph unicode="&#x4d4;" horiz-adv-x="1769" d="M10 0l707 1434h903v-168h-619v-469h619v-168h-619v-461h619v-168h-805v221h-496l-106 -221h-203zM401 389h414v856z" />
<glyph unicode="&#x4d5;" horiz-adv-x="1871" d="M84 465q0 132 59 243t169 178.5t249 67.5q104 0 193 -49.5t133 -134.5v160h176v-82q109 106 280 106q181 0 307 -120.5t126 -298.5q0 -60 -9 -117h-700q0 -130 71.5 -210.5t211.5 -80.5q178 0 235 147h180q-26 -124 -138 -210.5t-277 -86.5q-175 0 -287 107v-84h-176v162 q-44 -85 -133 -135t-193 -50q-139 0 -249 67.5t-169 178.5t-59 242zM260 465q0 -137 86.5 -232.5t224.5 -95.5q139 0 227.5 95.5t88.5 232.5q0 139 -88.5 234.5t-227.5 95.5q-138 0 -224.5 -96.5t-86.5 -233.5zM1069 553h533q0 111 -74.5 180.5t-188.5 69.5 q-119 0 -192.5 -66.5t-77.5 -183.5z" />
<glyph unicode="&#x4d6;" horiz-adv-x="1114" d="M160 0v1434h805v-168h-619v-469h619v-168h-619v-461h619v-168h-805zM168 1896h168q24 -81 82 -125.5t147 -44.5t147.5 44.5t82.5 125.5h166q-25 -135 -135 -222t-261 -87q-152 0 -262 87t-135 222z" />
<glyph unicode="&#x4d7;" horiz-adv-x="1075" d="M88 465q0 216 122 352.5t337 136.5q182 0 306 -120.5t124 -298.5q0 -66 -8 -117h-705q5 -128 75.5 -209.5t213.5 -81.5q178 0 235 147h181q-26 -125 -137 -211t-279 -86q-114 0 -204 38.5t-146.5 105.5t-85.5 154.5t-29 189.5zM154 1434h168q21 -79 79.5 -124.5 t143.5 -45.5q86 0 143.5 45t81.5 125h166q-25 -135 -133.5 -222.5t-257.5 -87.5q-151 0 -258.5 87t-132.5 223zM266 553h539q0 121 -73.5 192.5t-188.5 71.5q-123 0 -198 -69t-79 -195z" />
<glyph unicode="&#x4d8;" horiz-adv-x="1597" d="M82 678v123h1231q-6 105 -39.5 191.5t-96 155.5t-165 107.5t-236.5 38.5q-340 0 -450 -288h-226q21 93 77 176t141 147t203.5 101.5t254.5 37.5q179 0 321.5 -58.5t232 -161.5t136.5 -237t47 -290q0 -157 -49.5 -292.5t-141.5 -236.5t-232 -159t-312 -58 q-197 0 -357 93.5t-249.5 254.5t-89.5 355zM279 653q0 -226 141.5 -369t365.5 -143q231 0 379 139.5t148 372.5h-1034z" />
<glyph unicode="&#x4d9;" horiz-adv-x="1075" d="M98 395q0 64 8 119h705q-8 131 -76 210t-213 79q-178 0 -235 -146h-178q23 124 134.5 210.5t278.5 86.5q114 0 204 -38.5t146.5 -106t85.5 -155t29 -189.5q0 -215 -122.5 -351.5t-336.5 -136.5q-182 0 -306 120t-124 298zM270 379q0 -121 74 -193.5t191 -72.5 q121 0 196.5 70.5t79.5 195.5h-541z" />
<glyph unicode="&#x4da;" horiz-adv-x="1597" d="M82 678v123h1231q-6 105 -39.5 191.5t-96 155.5t-165 107.5t-236.5 38.5q-340 0 -450 -288h-226q21 93 77 176t141 147t203.5 101.5t254.5 37.5q179 0 321.5 -58.5t232 -161.5t136.5 -237t47 -290q0 -157 -49.5 -292.5t-141.5 -236.5t-232 -159t-312 -58 q-197 0 -357 93.5t-249.5 254.5t-89.5 355zM279 653q0 -226 141.5 -369t365.5 -143q231 0 379 139.5t148 372.5h-1034zM416 1726q0 60 40.5 103t100.5 43t102.5 -43t42.5 -103t-42.5 -100.5t-102.5 -40.5t-100.5 40.5t-40.5 100.5zM885 1726q0 60 41.5 103t101.5 43 t101.5 -43t41.5 -103t-41.5 -100.5t-101.5 -40.5t-101.5 40.5t-41.5 100.5z" />
<glyph unicode="&#x4db;" horiz-adv-x="1075" d="M98 395q0 64 8 119h705q-8 131 -76 210t-213 79q-178 0 -235 -146h-178q23 124 134.5 210.5t278.5 86.5q114 0 204 -38.5t146.5 -106t85.5 -155t29 -189.5q0 -215 -122.5 -351.5t-336.5 -136.5q-182 0 -306 120t-124 298zM162 1247q0 61 41.5 103.5t101.5 42.5t102 -42.5 t42 -103.5q0 -60 -42 -100.5t-102 -40.5t-101.5 40.5t-41.5 100.5zM270 379q0 -121 73.5 -193.5t188.5 -72.5q123 0 199 70t80 196h-541zM633 1247q0 61 41.5 103.5t101.5 42.5t102 -42.5t42 -103.5q0 -60 -42 -100.5t-102 -40.5t-101.5 40.5t-41.5 100.5z" />
<glyph unicode="&#x4dc;" horiz-adv-x="1781" d="M14 0l613 741q-168 34 -260 213l-97 183q-41 73 -85.5 105t-100.5 32h-51v168h76q102 0 176 -59.5t135 -168.5l119 -219q50 -93 104.5 -136.5t122.5 -43.5h35v619h180v-619h35q68 0 121.5 43t105.5 137l119 219q123 228 311 228h76v-168h-51q-56 0 -101 -32.5t-86 -104.5 l-96 -183q-92 -179 -260 -213l612 -741h-241l-545 690v-690h-180v690l-547 -690h-240zM512 1726q0 60 40.5 103t100.5 43q61 0 103.5 -43t42.5 -103t-42 -100.5t-104 -40.5q-60 0 -100.5 40.5t-40.5 100.5zM981 1726q0 60 41.5 103t101.5 43t102 -43t42 -103t-42 -100.5 t-102 -40.5t-101.5 40.5t-41.5 100.5z" />
<glyph unicode="&#x4dd;" horiz-adv-x="1368" d="M29 0l432 481q-143 10 -201 123l-53 98q-52 93 -121 93h-51v145h76q70 0 123 -31.5t98 -109.5l88 -156q34 -58 65.5 -82t83.5 -24h31v393h168v-393h31q52 0 83.5 24t65.5 82l86 156q45 78 98 109.5t123 31.5h78v-145h-51q-69 0 -121 -93l-53 -98q-61 -113 -201 -123 l432 -481h-204l-367 438v-438h-168v438l-367 -438h-204zM305 1249q0 60 42 102t102 42t101.5 -42t41.5 -102t-41.5 -101.5t-101.5 -41.5t-102 41.5t-42 101.5zM776 1249q0 60 41 102t101 42t102.5 -42t42.5 -102t-42.5 -101.5t-102.5 -41.5t-101 41.5t-41 101.5z" />
<glyph unicode="&#x4de;" horiz-adv-x="1173" d="M88 453h186q0 -139 91 -224.5t225 -85.5q131 0 206.5 74t75.5 184q0 252 -307 252h-94v166h96q144 0 213.5 67.5t69.5 170.5q0 100 -74 166.5t-196 66.5q-131 0 -214 -70t-83 -192h-187q0 192 137.5 311t356.5 119q126 0 225.5 -43t160 -132t60.5 -212t-68 -209.5 t-180 -111.5q119 -21 195 -115.5t76 -233.5q0 -189 -133.5 -307.5t-337.5 -118.5q-223 0 -361.5 127.5t-138.5 350.5zM201 1726q0 60 41.5 103t101.5 43t101.5 -43t41.5 -103t-41.5 -100.5t-101.5 -40.5t-101.5 40.5t-41.5 100.5zM672 1726q0 60 40.5 103t100.5 43 t102.5 -43t42.5 -103t-42.5 -100.5t-102.5 -40.5t-100.5 40.5t-40.5 100.5z" />
<glyph unicode="&#x4df;" horiz-adv-x="878" d="M68 276h172q0 -71 52 -112t148 -41q80 0 128 34.5t48 98.5q0 68 -47.5 107.5t-138.5 39.5h-100v127h90q91 0 134.5 38.5t43.5 107.5q0 61 -45.5 98t-122.5 37q-89 0 -132.5 -40t-43.5 -109h-172q0 131 95.5 211.5t254.5 80.5q152 0 244 -71t92 -185q0 -94 -52 -150.5 t-143 -70.5q95 -11 154 -70.5t59 -156.5q0 -124 -103.5 -198.5t-254.5 -74.5q-170 0 -265 81t-95 218zM90 1249q0 60 41.5 102t101.5 42t102 -42t42 -102t-42 -101.5t-102 -41.5t-101.5 41.5t-41.5 101.5zM467 1249q0 60 42 102t103 42q60 0 101 -42t41 -102t-41 -101.5 t-101 -41.5q-61 0 -103 41.5t-42 101.5z" />
<glyph unicode="&#x4e0;" horiz-adv-x="1187" d="M82 444h186q0 -137 90.5 -219t225.5 -82q130 0 206 80t76 199q0 287 -299 287h-174l381 557h-590v168h897l-419 -592q173 -8 282 -122t109 -290q0 -199 -134 -327t-337 -128q-223 0 -361.5 126t-138.5 343z" />
<glyph unicode="&#x4e1;" horiz-adv-x="1013" d="M47 -129h172q4 -114 73.5 -179t170.5 -65q119 0 190.5 84.5t71.5 237.5q0 157 -99 242t-274 85h-98l393 496h-512v158h817l-438 -549q170 -17 278.5 -135.5t108.5 -284.5q0 -226 -120.5 -355.5t-319.5 -129.5q-188 0 -300.5 103t-113.5 292z" />
<glyph unicode="&#x4e2;" horiz-adv-x="1357" d="M160 0v1434h186v-1063l666 966v97h186v-1434h-186v1063l-666 -967v-96h-186zM334 1642v158h733v-158h-733z" />
<glyph unicode="&#x4e3;" horiz-adv-x="1155" d="M160 0v930h178v-654l481 576v78h176v-930h-176v647l-481 -571v-76h-178zM217 1167v160h733v-160h-733z" />
<glyph unicode="&#x4e4;" horiz-adv-x="1357" d="M160 0v1434h186v-1063l666 966v97h186v-1434h-186v1063l-666 -967v-96h-186zM317 1726q0 60 41 103t101 43q61 0 103 -43t42 -103t-41.5 -100.5t-103.5 -40.5q-60 0 -101 40.5t-41 100.5zM786 1726q0 60 42 103t102 43t101.5 -43t41.5 -103t-41.5 -100.5t-101.5 -40.5 t-102 40.5t-42 100.5z" />
<glyph unicode="&#x4e5;" horiz-adv-x="1155" d="M160 0v930h178v-654l481 576v78h176v-930h-176v647l-481 -571v-76h-178zM211 1249q0 60 41.5 102t101.5 42t102 -42t42 -102t-42 -101.5t-102 -41.5t-101.5 41.5t-41.5 101.5zM682 1249q0 60 40.5 102t100.5 42q61 0 103.5 -42t42.5 -102t-42.5 -101.5t-103.5 -41.5 q-60 0 -100.5 41.5t-40.5 101.5z" />
<glyph unicode="&#x4e6;" horiz-adv-x="1644" d="M84 717q0 116 32.5 226.5t96 204.5t151.5 165.5t206.5 112t252.5 40.5q167 0 308.5 -62.5t234.5 -167t145 -239t52 -280.5q0 -116 -32.5 -226.5t-96.5 -205t-152 -166t-206.5 -112t-252.5 -40.5t-252.5 40.5t-206.5 112t-151.5 166t-96 205t-32.5 226.5zM279 717 q0 -112 38.5 -217t107 -186t172.5 -130t226 -49t226 49t172.5 130t106.5 185.5t38 217.5q0 153 -64.5 284.5t-190.5 214t-288 82.5q-122 0 -226 -48t-172.5 -129t-107 -185.5t-38.5 -218.5zM444 1726q0 60 41 103t101 43q61 0 103 -43t42 -103t-41.5 -100.5t-103.5 -40.5 q-60 0 -101 40.5t-41 100.5zM913 1726q0 60 42 103t102 43t101.5 -43t41.5 -103t-41.5 -100.5t-101.5 -40.5t-102 40.5t-42 100.5z" />
<glyph unicode="&#x4e7;" horiz-adv-x="1146" d="M84 465q0 132 59.5 243t172 178.5t255.5 67.5q145 0 259 -67.5t173.5 -178t59.5 -243.5q0 -98 -35.5 -186.5t-98 -155.5t-156 -106.5t-202.5 -39.5q-108 0 -200 39.5t-154.5 106t-97.5 155.5t-35 187zM195 1249q0 60 41.5 102t101.5 42t101.5 -42t41.5 -102t-41.5 -101.5 t-101.5 -41.5t-101.5 41.5t-41.5 101.5zM260 465q0 -137 86.5 -232.5t224.5 -95.5q139 0 227.5 95.5t88.5 232.5t-88.5 233.5t-227.5 96.5q-138 0 -224.5 -96.5t-86.5 -233.5zM666 1249q0 60 40.5 102t100.5 42t102.5 -42t42.5 -102t-42.5 -101.5t-102.5 -41.5t-100.5 41.5 t-40.5 101.5z" />
<glyph unicode="&#x4e8;" horiz-adv-x="1644" d="M84 717q0 116 32.5 226.5t96 204.5t151.5 165.5t206.5 112t252.5 40.5q167 0 308.5 -62.5t234.5 -167t145 -239t52 -280.5q0 -116 -32.5 -226.5t-96.5 -205t-152 -166t-206.5 -112t-252.5 -40.5t-252.5 40.5t-206.5 112t-151.5 166t-96 205t-32.5 226.5zM283 657 q9 -104 51 -198t110 -166.5t166.5 -115t212.5 -42.5q152 0 272 73.5t186.5 190.5t80.5 258h-1079zM283 778h1079q-10 103 -52 196t-109 165.5t-165 115.5t-213 43q-114 0 -212.5 -43t-166.5 -115t-110 -165.5t-51 -196.5z" />
<glyph unicode="&#x4e9;" horiz-adv-x="1146" d="M84 465q0 132 59.5 243t172 178.5t255.5 67.5q145 0 259 -67.5t173.5 -178t59.5 -243.5q0 -98 -35.5 -186.5t-98 -155.5t-156 -106.5t-202.5 -39.5q-108 0 -200 39.5t-154.5 106t-97.5 155.5t-35 187zM266 403q18 -116 100 -191t205 -75q125 0 208 74.5t102 191.5h-615z M266 524h615q-21 119 -103 195t-207 76q-123 0 -205 -76t-100 -195z" />
<glyph unicode="&#x4ea;" horiz-adv-x="1644" d="M84 717q0 116 32.5 226.5t96 204.5t151.5 165.5t206.5 112t252.5 40.5q167 0 308.5 -62.5t234.5 -167t145 -239t52 -280.5q0 -116 -32.5 -226.5t-96.5 -205t-152 -166t-206.5 -112t-252.5 -40.5t-252.5 40.5t-206.5 112t-151.5 166t-96 205t-32.5 226.5zM283 657 q9 -104 51 -198t110 -166.5t166.5 -115t212.5 -42.5q152 0 272 73.5t186.5 190.5t80.5 258h-1079zM283 778h1079q-10 103 -52 196t-109 165.5t-165 115.5t-213 43q-114 0 -212.5 -43t-166.5 -115t-110 -165.5t-51 -196.5zM451 1749q0 57 39 97t96 40q60 0 99.5 -40t39.5 -97 t-39.5 -97t-99.5 -40q-57 0 -96 40t-39 97zM920 1749q0 57 40 97t97 40q59 0 98 -39.5t39 -97.5t-39 -97.5t-98 -39.5q-57 0 -97 40t-40 97z" />
<glyph unicode="&#x4eb;" horiz-adv-x="1146" d="M84 465q0 132 59.5 243t172 178.5t255.5 67.5q145 0 259 -67.5t173.5 -178t59.5 -243.5q0 -98 -35.5 -186.5t-98 -155.5t-156 -106.5t-202.5 -39.5q-108 0 -200 39.5t-154.5 106t-97.5 155.5t-35 187zM201 1280q0 60 39.5 99.5t97.5 39.5t97.5 -39.5t39.5 -99.5 q0 -57 -40 -96t-97 -39t-97 39t-40 96zM266 403q18 -116 100 -191t205 -75q125 0 208 74.5t102 191.5h-615zM266 524h615q-21 119 -103 195t-207 76q-123 0 -205 -76t-100 -195zM672 1280q0 60 39 99.5t96 39.5q60 0 99.5 -39.5t39.5 -99.5q0 -57 -39.5 -96t-99.5 -39 q-57 0 -96 39t-39 96z" />
<glyph unicode="&#x4ec;" horiz-adv-x="1542" d="M82 442h205q41 -133 172.5 -220t285.5 -87q223 0 358 135.5t161 358.5h-711v170h711q-21 221 -153 360t-347 139q-197 0 -322.5 -101t-160.5 -265h-197q20 115 71.5 210t134.5 168.5t206.5 114.5t275.5 41q159 0 290 -59t217.5 -161t133.5 -237.5t47 -289.5 q0 -160 -48.5 -297.5t-138.5 -238.5t-226 -158.5t-302 -57.5q-247 0 -427 134t-236 341zM387 1726q0 60 41.5 103t101.5 43t102 -43t42 -103t-42 -100.5t-102 -40.5t-101.5 40.5t-41.5 100.5zM858 1726q0 60 40.5 103t100.5 43t103 -43t43 -103t-43 -100.5t-103 -40.5 t-100.5 40.5t-40.5 100.5z" />
<glyph unicode="&#x4ed;" horiz-adv-x="1085" d="M82 319h178q14 -83 83 -132.5t192 -49.5q134 0 204.5 69.5t81.5 190.5h-391v135h391q-8 117 -80.5 190t-205.5 73q-124 0 -192 -57t-81 -146h-176q5 154 124 258t316 104q117 0 210 -40.5t149.5 -110t86 -155.5t29.5 -183t-29.5 -183t-86 -155t-149.5 -109.5t-210 -40.5 q-197 0 -316.5 97.5t-127.5 244.5zM156 1249q0 60 41.5 102t101.5 42t101.5 -42t41.5 -102t-41.5 -101.5t-101.5 -41.5t-101.5 41.5t-41.5 101.5zM625 1249q0 60 42 102t103 42q60 0 100.5 -42t40.5 -102t-40.5 -101.5t-100.5 -41.5q-61 0 -103 41.5t-42 101.5z" />
<glyph unicode="&#x4ee;" horiz-adv-x="1210" d="M20 1434h218l419 -670l338 670h205l-721 -1434h-205l287 569zM281 1642v158h733v-158h-733z" />
<glyph unicode="&#x4ef;" horiz-adv-x="1173" d="M143 -121h181q7 -126 73 -189t185 -63q127 0 193.5 62.5t66.5 214.5v262q-42 -88 -126 -138.5t-200 -50.5q-194 0 -283 119q-38 54 -53.5 120t-15.5 171v543h178v-488q0 -147 54 -227t184 -80q127 0 194.5 91t67.5 227v477h178v-1026q0 -220 -111 -324t-331 -104 q-202 0 -316.5 102t-118.5 301zM233 1167v160h734v-160h-734z" />
<glyph unicode="&#x4f0;" horiz-adv-x="1210" d="M20 1434h218l419 -670l338 670h205l-721 -1434h-205l287 569zM276 1726q0 60 39.5 100t96.5 40q60 0 99.5 -40t39.5 -100q0 -57 -39.5 -96t-99.5 -39q-57 0 -96.5 39t-39.5 96zM745 1726q0 60 40.5 100t97.5 40q60 0 98.5 -40t38.5 -100q0 -58 -39 -96.5t-98 -38.5 q-57 0 -97.5 39t-40.5 96z" />
<glyph unicode="&#x4f1;" horiz-adv-x="1173" d="M143 -121h181q7 -126 73 -189t185 -63q127 0 193.5 62.5t66.5 214.5v262q-42 -88 -126 -138.5t-200 -50.5q-194 0 -283 119q-38 54 -53.5 120t-15.5 171v543h178v-488q0 -147 54 -227t184 -80q127 0 194.5 91t67.5 227v477h178v-1026q0 -220 -111 -324t-331 -104 q-202 0 -316.5 102t-118.5 301zM233 1247q0 59 40 99t98 40q57 0 97 -40t40 -99q0 -57 -40 -96t-97 -39t-97.5 39t-40.5 96zM705 1247q0 60 39 99.5t96 39.5q60 0 99.5 -39.5t39.5 -99.5q0 -57 -39.5 -96t-99.5 -39q-57 0 -96 39t-39 96z" />
<glyph unicode="&#x4f2;" horiz-adv-x="1210" d="M20 1434h218l419 -670l338 670h205l-721 -1434h-205l287 569zM319 1622l256 340l156 -78l-323 -309zM719 1622l256 340l155 -78l-323 -309z" />
<glyph unicode="&#x4f3;" horiz-adv-x="1173" d="M143 -121h181q7 -126 73 -189t185 -63q127 0 193.5 62.5t66.5 214.5v262q-42 -88 -126 -138.5t-200 -50.5q-194 0 -283 119q-38 54 -53.5 120t-15.5 171v543h178v-488q0 -147 54 -227t184 -80q127 0 194.5 91t67.5 227v477h178v-1026q0 -220 -111 -324t-331 -104 q-202 0 -316.5 102t-118.5 301zM301 1124l256 340l156 -78l-324 -309zM700 1124l256 340l156 -78l-324 -309z" />
<glyph unicode="&#x4f4;" horiz-adv-x="1185" d="M80 915v519h186v-471q0 -161 82.5 -250.5t239.5 -89.5h252v811h186v-1434h-186v455h-287q-224 0 -348.5 128.5t-124.5 331.5zM190 1726q0 60 40 100t98 40q57 0 97 -40t40 -100q0 -57 -40 -96t-97 -39t-97.5 39t-40.5 96zM662 1726q0 60 39 100t96 40q60 0 99.5 -40 t39.5 -100q0 -57 -39.5 -96t-99.5 -39q-57 0 -96 39t-39 96z" />
<glyph unicode="&#x4f5;" horiz-adv-x="978" d="M88 602v328h178v-324q0 -172 174 -172h201v496h178v-930h-178v285h-227q-158 0 -242 79.5t-84 237.5zM88 1249q0 60 41.5 102t101.5 42t102 -42t42 -102t-42 -101.5t-102 -41.5t-101.5 41.5t-41.5 101.5zM535 1249q0 60 41.5 102t101.5 42t101.5 -42t41.5 -102 t-41.5 -101.5t-101.5 -41.5t-101.5 41.5t-41.5 101.5z" />
<glyph unicode="&#x4f8;" horiz-adv-x="1525" d="M160 0v1434h186v-615h309q175 0 289.5 -119.5t114.5 -289.5q0 -111 -51 -204.5t-144.5 -149.5t-210.5 -56h-493zM346 168h307q93 0 156 71.5t63 170.5q0 100 -62 170.5t-155 70.5h-309v-483zM430 1726q0 60 40 100t97 40q60 0 99 -40t39 -100q0 -57 -39 -96t-99 -39 q-57 0 -97 39t-40 96zM901 1726q0 60 39 100t96 40q60 0 100 -40t40 -100q0 -57 -40 -96t-100 -39q-57 0 -96 39t-39 96zM1180 0v1434h186v-1434h-186z" />
<glyph unicode="&#x4f9;" horiz-adv-x="1316" d="M160 0v930h168v-322h250q137 0 214.5 -86.5t77.5 -218.5q0 -129 -79 -216t-216 -87h-415zM287 1249q0 60 41.5 102t101.5 42t101.5 -42t41.5 -102t-41.5 -101.5t-101.5 -41.5t-101.5 41.5t-41.5 101.5zM328 143h217q76 0 119 45t43 115q0 74 -42 118t-118 44h-219v-322z M758 1249q0 60 41.5 102t101.5 42t101.5 -42t41.5 -102t-41.5 -101.5t-101.5 -41.5t-101.5 41.5t-41.5 101.5zM981 0v930h176v-930h-176z" />
<glyph unicode="&#x1e80;" horiz-adv-x="1974" d="M12 1434h197l360 -1110l349 1110h141l348 -1110l360 1110h197l-491 -1434h-138l-348 1110l-346 -1110h-139zM690 1815l84 141l510 -281l-84 -141z" />
<glyph unicode="&#x1e81;" horiz-adv-x="1503" d="M8 930h191l231 -656l234 656h176l231 -656l234 656h190l-360 -930h-123l-260 735l-260 -735h-123zM455 1311l84 139l510 -281l-84 -139z" />
<glyph unicode="&#x1e82;" horiz-adv-x="1974" d="M12 1434h197l360 -1110l349 1110h141l348 -1110l360 1110h197l-491 -1434h-138l-348 1110l-346 -1110h-139zM690 1675l510 281l84 -141l-510 -281z" />
<glyph unicode="&#x1e83;" horiz-adv-x="1503" d="M8 930h191l231 -656l234 656h176l231 -656l234 656h190l-360 -930h-123l-260 735l-260 -735h-123zM455 1169l510 281l84 -139l-510 -281z" />
<glyph unicode="&#x1e84;" horiz-adv-x="1974" d="M12 1434h197l360 -1110l349 1110h141l348 -1110l360 1110h197l-491 -1434h-138l-348 1110l-346 -1110h-139zM614 1749q0 57 39.5 97t96.5 40q60 0 99.5 -40t39.5 -97t-39.5 -97t-99.5 -40q-57 0 -96.5 40t-39.5 97zM1083 1749q0 57 40.5 97t97.5 40q59 0 98 -39.5 t39 -97.5t-39 -97.5t-98 -39.5q-57 0 -97.5 40t-40.5 97z" />
<glyph unicode="&#x1e85;" horiz-adv-x="1503" d="M8 930h191l231 -656l234 656h176l231 -656l234 656h190l-360 -930h-123l-260 735l-260 -735h-123zM379 1249q0 57 39 97t96 40q60 0 99.5 -40t39.5 -97t-39.5 -97t-99.5 -40q-57 0 -96 40t-39 97zM848 1249q0 57 40 97t97 40t97 -40t40 -97t-40 -97t-97 -40t-97 40 t-40 97z" />
<glyph unicode="&#x1ef2;" horiz-adv-x="1210" d="M20 1434h218l419 -670l338 670h205l-721 -1434h-205l287 569zM299 1815l86 141l510 -281l-86 -141z" />
<glyph unicode="&#x1ef3;" horiz-adv-x="1173" d="M143 -121h181q7 -126 73 -189t185 -63q127 0 193.5 62.5t66.5 214.5v262q-42 -88 -126 -138.5t-200 -50.5q-194 0 -283 119q-38 54 -53.5 120t-15.5 171v543h178v-488q0 -147 54 -227t184 -80q127 0 194.5 91t67.5 227v477h178v-1026q0 -220 -111 -324t-331 -104 q-202 0 -316.5 102t-118.5 301zM289 1311l84 139l510 -281l-84 -139z" />
<glyph unicode="&#x2000;" horiz-adv-x="999" />
<glyph unicode="&#x2001;" horiz-adv-x="1999" />
<glyph unicode="&#x2002;" horiz-adv-x="999" />
<glyph unicode="&#x2003;" horiz-adv-x="1999" />
<glyph unicode="&#x2004;" horiz-adv-x="666" />
<glyph unicode="&#x2005;" horiz-adv-x="499" />
<glyph unicode="&#x2006;" horiz-adv-x="333" />
<glyph unicode="&#x2007;" horiz-adv-x="333" />
<glyph unicode="&#x2008;" horiz-adv-x="249" />
<glyph unicode="&#x2009;" horiz-adv-x="421" />
<glyph unicode="&#x200a;" horiz-adv-x="111" />
<glyph unicode="&#x2010;" horiz-adv-x="602" d="M61 504v160h480v-160h-480z" />
<glyph unicode="&#x2011;" horiz-adv-x="602" d="M61 504v160h480v-160h-480z" />
<glyph unicode="&#x2012;" horiz-adv-x="602" d="M61 504v160h480v-160h-480z" />
<glyph unicode="&#x2013;" horiz-adv-x="1030" d="M102 504v160h826v-160h-826z" />
<glyph unicode="&#x2014;" horiz-adv-x="2060" d="M102 504v160h1856v-160h-1856z" />
<glyph unicode="&#x2018;" horiz-adv-x="550" d="M123 1221q0 156 74.5 224.5t220.5 70.5v-86q-107 0 -142 -62q-30 -40 -30 -86q14 14 45 14q62 0 99.5 -38.5t37.5 -96.5q0 -60 -39.5 -99.5t-99.5 -39.5q-75 0 -120.5 55.5t-45.5 143.5z" />
<glyph unicode="&#x2019;" horiz-adv-x="550" d="M123 1376q0 58 40 99t101 41q75 0 119.5 -55t44.5 -146q0 -155 -75 -224t-218 -69v84q104 0 141 63q29 42 29 86q-11 -14 -45 -14q-61 0 -99 38.5t-38 96.5z" />
<glyph unicode="&#x201a;" horiz-adv-x="550" d="M123 113q0 60 40 100.5t101 40.5q74 0 119 -56t45 -145q0 -155 -75 -224t-218 -71v86q106 0 141 62q29 39 29 86q-11 -15 -45 -15q-61 0 -99 39t-38 97z" />
<glyph unicode="&#x201c;" horiz-adv-x="909" d="M123 1221q0 156 74.5 224.5t220.5 70.5v-86q-107 0 -142 -62q-30 -40 -30 -86q14 14 45 14q62 0 99.5 -38.5t37.5 -96.5q0 -60 -39.5 -99.5t-99.5 -39.5q-75 0 -120.5 55.5t-45.5 143.5zM481 1221q0 155 75 224t218 71v-86q-106 0 -141 -62q-29 -39 -29 -86q10 14 45 14 q61 0 99 -38.5t38 -96.5q0 -60 -40 -99.5t-101 -39.5q-74 0 -119 55t-45 144z" />
<glyph unicode="&#x201d;" horiz-adv-x="909" d="M123 1376q0 58 40 99t101 41q75 0 119.5 -55t44.5 -146q0 -155 -75 -224t-218 -69v84q104 0 141 63q29 42 29 86q-11 -14 -45 -14q-61 0 -99 38.5t-38 96.5zM481 1376q0 58 40.5 99t99.5 41q75 0 120 -55t45 -146q0 -156 -74.5 -224.5t-219.5 -68.5v84q107 0 141 63 q31 48 31 86q-14 -14 -46 -14q-62 0 -99.5 38.5t-37.5 96.5z" />
<glyph unicode="&#x201e;" horiz-adv-x="909" d="M123 113q0 60 40 100.5t101 40.5q74 0 119 -56t45 -145q0 -155 -75 -224t-218 -71v86q106 0 141 62q29 39 29 86q-11 -15 -45 -15q-61 0 -99 39t-38 97zM481 113q0 60 40 100.5t100 40.5q74 0 119.5 -56t45.5 -145q0 -156 -74 -224.5t-220 -70.5v86q106 0 141 62 q31 42 31 86q-15 -15 -46 -15q-62 0 -99.5 39t-37.5 97z" />
<glyph unicode="&#x2020;" horiz-adv-x="909" d="M113 776v158h254v534h178v-534h252v-158h-252v-1149h-178v1149h-254z" />
<glyph unicode="&#x2021;" horiz-adv-x="909" d="M113 18v156h254v606h-254v154h254v534h178v-534h252v-154h-252v-606h252v-156h-252v-391h-178v391h-254z" />
<glyph unicode="&#x2022;" horiz-adv-x="712" d="M119 639q0 100 69.5 170t167.5 70q100 0 170 -70t70 -170q0 -98 -70 -168t-170 -70q-98 0 -167.5 70t-69.5 168z" />
<glyph unicode="&#x2026;" horiz-adv-x="1923" d="M119 131q0 62 40.5 103.5t100.5 41.5t103 -42t43 -103q0 -60 -43 -100.5t-103 -40.5t-100.5 40.5t-40.5 100.5zM819 131q0 60 41 101.5t101 41.5t102.5 -41.5t42.5 -101.5t-42.5 -101.5t-102.5 -41.5t-101 41.5t-41 101.5zM1520 129q0 60 40.5 101.5t100.5 41.5 t102.5 -41.5t42.5 -101.5t-42.5 -101.5t-102.5 -41.5t-100.5 41.5t-40.5 101.5z" />
<glyph unicode="&#x202f;" horiz-adv-x="399" />
<glyph unicode="&#x2030;" horiz-adv-x="2590" d="M150 901v279q0 112 80.5 190t207.5 78t208 -79.5t81 -192.5v-279q0 -112 -81 -190t-208 -78q-130 0 -209 79t-79 193zM297 901q0 -62 38.5 -105.5t102.5 -43.5t104 43.5t40 105.5v275q0 62 -40 105.5t-104 43.5t-102.5 -43.5t-38.5 -105.5v-275zM414 -2l895 1542l141 -82 l-895 -1542zM1147 258v277q0 113 80.5 191.5t208.5 78.5t208 -80t80 -195v-276q0 -113 -80 -191.5t-208 -78.5q-130 0 -209.5 80t-79.5 194zM1294 258q0 -63 39 -106t103 -43t103.5 43t39.5 106v272q0 64 -39.5 108t-103.5 44t-103 -44t-39 -108v-272zM1862 258v277 q0 113 79.5 191.5t206.5 78.5q130 0 210.5 -79.5t80.5 -195.5v-276q0 -113 -81 -191.5t-210 -78.5q-127 0 -206.5 80t-79.5 194zM2007 258q0 -63 39.5 -106t101.5 -43q64 0 104 43t40 106v272q0 63 -40 107.5t-104 44.5q-62 0 -101.5 -44.5t-39.5 -107.5v-272z" />
<glyph unicode="&#x2039;" horiz-adv-x="565" d="M82 543v108l401 342v-176l-258 -221l258 -221v-174z" />
<glyph unicode="&#x203a;" horiz-adv-x="565" d="M82 201v174l258 221l-258 221v176l401 -342v-108z" />
<glyph unicode="&#x2044;" horiz-adv-x="444" d="M-297 -2l895 1542l143 -82l-897 -1542z" />
<glyph unicode="&#x205f;" horiz-adv-x="499" />
<glyph unicode="&#x20ac;" horiz-adv-x="1214" d="M25 487l32 138h97v182h-127l34 135h93v23q0 132 59 243t172 179.5t256 68.5q208 0 344 -129t148 -319h-189q-12 121 -94 199.5t-209 78.5q-133 0 -217 -93.5t-84 -227.5v-23h469l-35 -135h-434v-182h465l-33 -138h-432v-20q0 -134 84 -228t217 -94q137 0 222 93.5 t85 228.5h187q0 -99 -35.5 -188t-98.5 -156t-156.5 -106.5t-203.5 -39.5q-143 0 -255.5 67.5t-172 179t-59.5 243.5v20h-129z" />
<glyph unicode="&#x2122;" horiz-adv-x="1660" d="M82 1313v121h541v-121h-205v-713h-133v713h-203zM758 600v834h219l207 -603l207 603h219v-834h-133v684l-234 -684h-119l-233 684v-684h-133z" />
<glyph unicode="&#x2202;" horiz-adv-x="1177" d="M104 430q0 128 56.5 235.5t165.5 173.5t249 66q91 0 180 -39t146 -114v16q-6 161 -26.5 265.5t-60 164t-92 82.5t-130.5 23q-135 0 -215 -95t-80 -243h-186q0 140 58 253.5t168.5 180.5t254.5 67q103 0 179.5 -25.5t136.5 -83.5t97.5 -154.5t56.5 -237.5t19 -332 q0 -668 -510 -668q-140 0 -247.5 63.5t-163.5 168.5t-56 233zM279 430q0 -131 79.5 -215t212.5 -84q76 0 132.5 20.5t101.5 69.5t69.5 137.5t28.5 216.5q-110 166 -328 166q-132 0 -214 -89.5t-82 -221.5z" />
<glyph unicode="&#x2206;" horiz-adv-x="1144" d="M10 0l494 1434h135l496 -1434h-1125zM268 168h609l-304 960z" />
<glyph unicode="&#x220f;" horiz-adv-x="1320" d="M25 1460v166h1271v-166h-129v-1964h-186v1964h-641v-1964h-186v1964h-129z" />
<glyph unicode="&#x2211;" horiz-adv-x="1177" d="M47 -330l731 899l-731 897v160h1063v-166h-827l729 -868l-729 -914h827v-182h-1063v174z" />
<glyph unicode="&#x221a;" horiz-adv-x="1404" d="M6 315v160h373l217 -647l606 1798h197l-735 -2105h-136l-280 794h-242z" />
<glyph unicode="&#x221e;" horiz-adv-x="1699" d="M53 592q0 81 26.5 154t76.5 132t131.5 93.5t183.5 34.5q106 0 204.5 -61.5t174.5 -182.5q76 121 174.5 182.5t204.5 61.5q100 0 180.5 -33.5t131.5 -91t78.5 -131.5t27.5 -158t-27.5 -158t-78.5 -131.5t-131.5 -91t-180.5 -33.5q-107 0 -205.5 60.5t-173.5 183.5 q-75 -123 -173.5 -183.5t-205.5 -60.5q-102 0 -183.5 35t-131.5 94t-76.5 132t-26.5 153zM221 592q0 -108 66 -181t184 -73q78 0 155.5 64t131.5 190q-54 124 -132 189t-155 65q-118 0 -184 -73t-66 -181zM942 592q53 -127 130.5 -190.5t156.5 -63.5q118 0 184 73t66 181 t-66 181t-184 73q-78 0 -156 -65t-131 -189z" />
<glyph unicode="&#x222b;" horiz-adv-x="585" d="M10 -350q50 -17 90 -17q95 0 95 125v1598q0 141 55.5 205.5t142.5 64.5q104 0 162 -22v-152q-55 18 -92 18q-92 0 -92 -127v-1595q0 -142 -56.5 -207t-144.5 -65q-103 0 -160 24v150z" />
<glyph unicode="&#x2248;" horiz-adv-x="1177" d="M133 317v158l2 2v146q88 112 219 112q86 0 242 -65q13 -6 46.5 -20t51 -21t43 -16t45 -13t35.5 -4q114 0 225 111v-156l-2 -2v-146q-47 -57 -106.5 -85.5t-118.5 -28.5q-83 0 -225 69q-144 70 -244 70q-102 0 -213 -111z" />
<glyph unicode="&#x2260;" horiz-adv-x="1177" d="M176 336v160h291l82 172h-373v157h442l105 230h149l-104 -230h236v-157h-306l-82 -172h388v-160h-457l-105 -230h-149l104 230h-221z" />
<glyph unicode="&#x2264;" horiz-adv-x="1177" d="M180 49v160h817v-160h-817zM180 815v129l817 297v-166l-561 -194l561 -197v-164z" />
<glyph unicode="&#x2265;" horiz-adv-x="1177" d="M180 49v160h817v-160h-817zM180 520v164l561 197l-561 194v166l817 -297v-129z" />
<glyph unicode="&#x25ca;" horiz-adv-x="972" d="M10 811l398 815h159l396 -815l-396 -811h-159zM195 811l290 -623l293 623q-16 33 -145 311.5t-146 311.5z" />
<glyph unicode="&#x25fc;" horiz-adv-x="931" d="M0 0v932h932v-932h-932z" />
<glyph unicode="&#xf8ff;" horiz-adv-x="1638" d="M78 717q0 146 52 281.5t145 240t234.5 167t309.5 62.5t309.5 -62.5t235 -167t145.5 -240t52 -281.5t-52 -281.5t-145.5 -240.5t-235 -167.5t-309.5 -62.5q-135 0 -253.5 40.5t-207 112t-152 166.5t-96 205.5t-32.5 227.5zM123 717q0 -139 49 -264q48 -129 137 -226 q96 -103 217 -155q142 -60 293 -60q153 0 291 60q121 52 217 155q89 97 137 226q49 125 49 264q0 138 -49 266q-47 125 -137 225q-92 100 -217 156q-136 59 -291 59q-154 0 -293 -59q-125 -56 -217 -156q-90 -100 -137 -225q-49 -128 -49 -266zM270 424q0 13 4 41 q15 36 19 41l18 16l23 15q8 5 49 20l2 2q11 3 18 16q9 12 9 21t-4 37l-7 41l35 4q0 -13 4 -41t4 -41q0 -21 -14 -41q-16 -19 -29 -27q-1 0 -4 -1t-4 -1q-32 -14 -43 -20q-12 -4 -20 -10l-13 -11q-7 -10 -10 -26q-4 -28 -4 -35h-33zM344 467q136 -82 186 -103q97 -42 199 -42 q307 0 451 75q2 0 6 4q-26 -56 -84.5 -109.5t-134.5 -92.5q-116 -64 -217 -64q-209 0 -406 332zM412 1024q0 37 25.5 62.5t60.5 25.5q37 0 62.5 -25.5t25.5 -62.5q0 -36 -26 -62t-62 -26q-35 0 -60.5 26.5t-25.5 61.5zM449 530l366 549l-225 -497h364v-52h-505zM471 346 q55 -80 138 -119t141 -39q61 0 143 32t121 55.5t65 41.5q-14 -3 -65 -13.5t-70.5 -13.5t-60 -9.5t-76 -8.5t-74.5 -2q-69 0 -145.5 18t-116.5 58zM1020 1024q0 37 25.5 62.5t60.5 25.5q37 0 62.5 -25.5t25.5 -62.5q0 -36 -26 -62t-62 -26q-35 0 -60.5 26.5t-25.5 61.5z M1049 616q1 5 1 13.5t1 15t4 10.5l30 -10q0 -3 -1 -9.5t-1 -10.5v-27q5 -44 9 -55q3 -5 5 -13.5t5 -11.5q6 -12 39 -41q10 -6 30.5 -15.5t22.5 -10.5l31 -13q8 -4 14 -10q11 -8 14 -18q10 -21 13 -39q0 -38 -4 -49l-33 8q4 9 4 37q-1 4 -8 26l-6 10q-2 0 -7 5q-4 0 -8 4 l-28 10q-41 18 -68 39q-24 17 -37 41l-8 22q0 1 -3 12t-3 17q-8 31 -8 63z" />
</font>
</defs>
</svg>
